<?xml version="1.0" encoding="UTF-8" standalone="no"?>
<!-- Created with Inkscape (http://www.inkscape.org/) -->

<svg
   width="380.30563"
   height="13.13801"
   viewBox="0 0 380.30563 13.13801"
   version="1.1"
   id="svg5"
   inkscape:version="1.1.2 (b8e25be833, 2022-02-05)"
   sodipodi:docname="betaalscherm_wordt_geladen.svg"
   xmlns:inkscape="http://www.inkscape.org/namespaces/inkscape"
   xmlns:sodipodi="http://sodipodi.sourceforge.net/DTD/sodipodi-0.dtd"
   xmlns="http://www.w3.org/2000/svg"
   xmlns:svg="http://www.w3.org/2000/svg">
  <sodipodi:namedview
     id="namedview7"
     pagecolor="#ffffff"
     bordercolor="#111111"
     borderopacity="1"
     inkscape:pageshadow="0"
     inkscape:pageopacity="0"
     inkscape:pagecheckerboard="1"
     inkscape:document-units="px"
     showgrid="false"
     inkscape:zoom="1.7050781"
     inkscape:cx="401.74112"
     inkscape:cy="-129.31959"
     inkscape:window-width="1983"
     inkscape:window-height="1095"
     inkscape:window-x="359"
     inkscape:window-y="76"
     inkscape:window-maximized="0"
     inkscape:current-layer="layer1" />
  <defs
     id="defs2" />
  <g
     inkscape:label="Layer 1"
     inkscape:groupmode="layer"
     id="layer1"
     transform="translate(-50.000057,-184.62967)">
    <text
       xml:space="preserve"
       style="font-size:40px;line-height:1.25;font-family:IJzershop;-inkscape-font-specification:IJzershop"
       x="55.12944"
       y="198.23138"
       id="text7668"><tspan
         sodipodi:role="line"
         id="tspan7666"
         x="55.12944"
         y="198.23138" /></text>
    <g
       aria-label="het betaalscherm wordt geladen"
       id="text44340"
       style="font-size:13.138px;line-height:1.25;font-family:IJzershop;-inkscape-font-specification:IJzershop;stroke-width:0.821122">
      <path
         d="m 57.514993,184.62968 h 4.585162 v 13.138 h -4.585162 v -4.42751 h -3.008602 v 4.42751 h -4.506334 v -13.138 h 4.506334 v 5.71503 h 3.008602 z"
         id="path66033" />
      <path
         d="m 75.146188,188.37401 h -7.475521 v 1.22183 h 5.517959 v 3.44216 h -5.517959 v 1.28752 h 7.475521 v 3.44216 h -9.892913 l -2.115218,-1.72108 v -9.55133 l 2.115218,-1.86559 h 9.892913 z"
         id="path66035" />
      <path
         d="m 87.929462,184.62968 v 3.70491 H 84.39534 v 9.40681 h -4.637714 v -9.40681 h -3.48157 v -3.70491 z"
         id="path66037" />
      <path
         d="m 112.18221,186.469 v 3.58667 l -1.36636,1.14301 1.36636,1.143 v 0.99849 2.3517 0.23649 l -2.11522,1.83932 h -5.28148 -4.45378 v -3.74433 -6.16173 -3.23194 h 4.45378 5.28148 z m -7.3967,6.87117 v 0.68318 h 3.16626 v -0.68318 0 z m 3.16626,-4.96616 h -3.16626 v 0.68317 0 h 3.16626 z"
         id="path66039" />
      <path
         d="m 125.46472,188.37401 h -7.47552 v 1.22183 h 5.51796 v 3.44216 h -5.51796 v 1.28752 h 7.47552 v 3.44216 h -9.89291 l -2.11522,-1.72108 v -9.55133 l 2.11522,-1.86559 h 9.89291 z"
         id="path66041" />
      <path
         d="m 138.248,184.62968 v 3.70491 h -3.53412 v 9.40681 h -4.63772 v -9.40681 h -3.48157 v -3.70491 z"
         id="path66043" />
      <path
         d="m 149.66492,184.62968 1.95756,1.60283 v 9.77467 h -0.0131 v 1.7605 h -2.12836 -2.14149 v -3.52099 h -3.31078 v 3.52099 h -2.54877 -1.73422 v -9.69585 -1.83932 l 1.99698,-1.60283 z m -2.32542,5.33402 v -1.89187 h -3.31078 v 1.89187 z"
         id="path66045" />
      <path
         d="m 162.80292,184.62968 1.95756,1.60283 v 9.77467 h -0.0131 v 1.7605 h -2.12836 -2.14149 v -3.52099 h -3.31078 v 3.52099 h -2.54877 -1.73422 v -9.69585 -1.83932 l 1.99698,-1.60283 z m -2.32542,5.33402 v -1.89187 h -3.31078 v 1.89187 z"
         id="path66047" />
      <path
         d="m 170.46238,184.62968 v 9.69584 h 4.83478 v 3.44216 h -9.28857 v -13.138 z"
         id="path66049" />
      <path
         d="m 188.4877,188.4397 h -7.43611 v 1.20869 h 5.34717 l 2.08894,1.5897 v 4.79537 l -2.08894,1.70794 h -9.51192 v -3.40274 h 7.5018 v -1.28753 h -5.57051 l -1.93129,-1.6948 v -4.76909 l 2.29915,-1.85246 h 9.30171 z"
         id="path66051" />
      <path
         d="m 201.15272,194.32552 v 3.44216 h -9.01266 l -2.11522,-1.72108 v -9.55133 l 2.11522,-1.86559 h 9.01266 v 3.74433 h -6.59527 v 1.22183 3.44216 0.092 1.19556 z"
         id="path66053" />
      <path
         d="m 210.04714,184.62968 h 4.58517 v 13.138 h -4.58517 v -4.42751 h -3.0086 v 4.42751 h -4.50633 v -13.138 h 4.50633 v 5.71503 h 3.0086 z"
         id="path66055" />
      <path
         d="m 227.67834,188.37401 h -7.47552 v 1.22183 h 5.51796 v 3.44216 h -5.51796 v 1.28752 h 7.47552 v 3.44216 h -9.89291 l -2.11522,-1.72108 v -9.55133 l 2.11522,-1.86559 h 9.89291 z"
         id="path66057" />
      <path
         d="m 240.65868,186.469 v 3.58667 l -2.11521,1.78677 2.11521,1.49773 v 4.42751 h -4.23043 v -4.42751 h -3.16626 v 4.42751 h -4.45378 v -9.39367 -3.74433 h 4.45378 5.28148 z m -4.21729,2.58818 v -1.24811 h -3.1794 l -0.0394,1.24811 h 0.0394 3.16626 z"
         id="path66059" />
      <path
         d="m 250.9326,184.62968 h 3.15312 v 13.138 h -3.42902 0.2759 v -7.00256 l -2.77212,3.49471 -0.14452,0.18393 -2.65387,-3.32391 v 0.57807 l 0.0131,-0.0131 v 6.06976 l -0.0131,0.0131 h -3.41588 v -13.138 h 3.13998 v 0 h 0.2759 l 2.65387,3.70491 z"
         id="path66061" />
      <path
         d="m 269.45718,197.76768 h -3.13998 v -13.138 h 3.41588 -0.2759 v 7.00255 l 2.78525,-3.49471 0.14452,-0.18393 2.64074,3.32391 v -0.57807 l -0.0131,0.0131 v -6.06976 l 0.0131,-0.0131 h 3.42902 v 13.138 h -3.15312 v 0 h -0.2759 l -2.64074,-3.70492 z"
         id="path66063" />
      <path
         d="m 289.70283,184.62968 1.95756,1.60283 v 9.77467 l -2.14149,1.7605 h -8.00104 l -1.73422,-1.7605 v -9.77467 l 1.99698,-1.60283 z m -2.32542,9.61701 v -6.17486 h -3.31078 v 6.17486 z"
         id="path66065" />
      <path
         d="m 304.77212,186.469 v 3.58667 l -2.11522,1.78677 2.11522,1.49773 v 4.42751 h -4.23044 v -4.42751 h -3.16626 v 4.42751 h -4.45378 v -9.39367 -3.74433 h 4.45378 5.28148 z m -4.2173,2.58818 v -1.24811 h -3.1794 l -0.0394,1.24811 h 0.0394 3.16626 z"
         id="path66067" />
      <path
         d="m 314.53364,184.62968 2.11522,1.86559 v 9.55133 l -2.11522,1.72108 h -5.13696 -3.33705 v -13.138 z m -2.43053,9.69584 1.20869,-1.02476 v -3.87571 l -1.20869,-1.05104 h -1.82618 v 5.95151 z"
         id="path66069" />
      <path
         d="m 330.03649,184.62968 v 3.70491 h -3.53412 v 9.40681 h -4.63772 v -9.40681 h -3.48157 v -3.70491 z"
         id="path66071" />
      <path
         d="m 348.745,190.69943 h 5.55738 v 0.98535 1.43204 4.44065 0.21021 h -9.76154 l -2.11522,-1.72108 v -9.55133 l 2.11522,-1.86559 h 9.76154 v 3.74433 h -7.34415 v 1.22183 3.44216 0.092 1.19556 h 3.37647 v -1.2087 h -1.5897 z"
         id="path66073" />
      <path
         d="m 367.57176,188.37401 h -7.47552 v 1.22183 h 5.51795 v 3.44216 h -5.51795 v 1.28752 h 7.47552 v 3.44216 h -9.89292 l -2.11521,-1.72108 v -9.55133 l 2.11521,-1.86559 h 9.89292 z"
         id="path66075" />
      <path
         d="m 373.15541,184.62968 v 9.69584 h 4.83478 v 3.44216 h -9.28856 v -13.138 z"
         id="path66077" />
      <path
         d="m 389.51219,184.62968 1.95756,1.60283 v 9.77467 h -0.0131 v 1.7605 h -2.12835 -2.1415 v -3.52099 h -3.31077 v 3.52099 h -2.54878 -1.73421 v -9.69585 -1.83932 l 1.99697,-1.60283 z m -2.32543,5.33402 v -1.89187 h -3.31077 v 1.89187 z"
         id="path66079" />
      <path
         d="m 401.19187,184.62968 2.11522,1.86559 v 9.55133 l -2.11522,1.72108 h -5.13696 -3.33705 v -13.138 z m -2.43053,9.69584 1.2087,-1.02476 v -3.87571 l -1.2087,-1.05104 h -1.82618 v 5.95151 z"
         id="path66081" />
      <path
         d="m 417.04945,188.37401 h -7.47552 v 1.22183 h 5.51796 v 3.44216 h -5.51796 v 1.28752 h 7.47552 v 3.44216 h -9.89292 l -2.11521,-1.72108 v -9.55133 l 2.11521,-1.86559 h 9.89292 z"
         id="path66083" />
      <path
         d="m 426.88981,197.76768 -5.57051,-7.00256 v 7.00256 h -3.13998 v -13.138 h 3.13998 v 0 l 5.57051,7.06824 v -7.06824 h 3.41588 v 13.138 z"
         id="path66085" />
    </g>
  </g>
</svg>
