<?xml version="1.0" encoding="UTF-8" standalone="no"?>
<!-- Created with Inkscape (http://www.inkscape.org/) -->

<svg
   width="378.36868"
   height="13.65412"
   viewBox="0 0 378.36868 13.65412"
   version="1.1"
   id="svg5"
   inkscape:version="1.1.2 (b8e25be833, 2022-02-05)"
   sodipodi:docname="uw_bestelling_gevalideerd.svg"
   xmlns:inkscape="http://www.inkscape.org/namespaces/inkscape"
   xmlns:sodipodi="http://sodipodi.sourceforge.net/DTD/sodipodi-0.dtd"
   xmlns="http://www.w3.org/2000/svg"
   xmlns:svg="http://www.w3.org/2000/svg">
  <sodipodi:namedview
     id="namedview7"
     pagecolor="#ffffff"
     bordercolor="#111111"
     borderopacity="1"
     inkscape:pageshadow="0"
     inkscape:pageopacity="0"
     inkscape:pagecheckerboard="1"
     inkscape:document-units="px"
     showgrid="false"
     inkscape:zoom="1.7050781"
     inkscape:cx="249.84192"
     inkscape:cy="-81.22795"
     inkscape:window-width="1983"
     inkscape:window-height="1095"
     inkscape:window-x="359"
     inkscape:window-y="76"
     inkscape:window-maximized="0"
     inkscape:current-layer="layer1" />
  <defs
     id="defs2" />
  <g
     inkscape:label="Layer 1"
     inkscape:groupmode="layer"
     id="layer1"
     transform="translate(-51.040056,-184.7763)">
    <text
       xml:space="preserve"
       style="font-size:40px;line-height:1.25;font-family:IJzershop;-inkscape-font-specification:IJzershop"
       x="55.12944"
       y="198.23138"
       id="text7668"><tspan
         sodipodi:role="line"
         id="tspan7666"
         x="55.12944"
         y="198.23138" /></text>
    <g
       aria-label="Uw bestelling word gevalideerd"
       id="text44340"
       style="font-size:13.6541px;line-height:1.25;font-family:IJzershop;-inkscape-font-specification:IJzershop;stroke-width:0.853379">
      <path
         d="m 63.588174,198.43041 h -2.457738 z m -4.751627,-13.64045 h 4.751627 v 9.3121 2.53966 l -2.457738,1.78869 H 53.48414 l -2.444084,-1.78869 v -2.53966 -9.3121 h 4.669702 v 1.80234 4.12354 3.09948 0.28674 1.05136 h 3.126789 v -1.05136 -0.28674 -3.09948 -4.12354 z m -7.796491,13.64045 h 2.444084 z"
         id="path52090" />
      <path
         d="m 68.408077,198.43041 h -3.26333 V 184.7763 h 3.550066 -0.286736 v 7.27764 l 2.894669,-3.63199 0.150195,-0.19116 2.744474,3.45449 v -0.60078 l -0.01365,0.0137 v -6.30819 l 0.01365,-0.0137 h 3.563721 v 13.65411 h -3.276985 v 0 h -0.286736 l -2.744474,-3.85046 z"
         id="path52092" />
      <path
         d="m 102.80275,186.68788 v 3.72757 l -1.42003,1.1879 1.42003,1.18791 v 1.03771 2.44409 0.24577 l -2.19831,1.91158 h -5.488951 -4.62874 v -3.89142 -6.40378 -3.35891 h 4.62874 5.488951 z m -7.687261,7.14109 v 0.71002 h 3.290638 v -0.71002 0 z m 3.290638,-5.16125 h -3.290638 v 0.71002 0 h 3.290638 z"
         id="path52094" />
      <path
         d="m 116.60705,188.66772 h -7.76919 v 1.26983 h 5.73472 v 3.57738 h -5.73472 v 1.3381 h 7.76919 v 3.57738 h -10.28154 l -2.19831,-1.78869 v -9.92653 l 2.19831,-1.93889 h 10.28154 z"
         id="path52096" />
      <path
         d="m 129.83787,188.73599 h -7.72822 v 1.25618 h 5.55722 l 2.171,1.65215 v 4.98374 l -2.171,1.77504 h -9.88557 v -3.53642 h 7.79649 v -1.3381 h -5.78934 l -2.00715,-1.76138 v -4.95643 l 2.38947,-1.92523 h 9.6671 z"
         id="path52098" />
      <path
         d="m 143.54659,184.7763 v 3.85046 h -3.67296 v 9.77634 h -4.8199 v -9.77634 h -3.61833 v -3.85046 z"
         id="path52100" />
      <path
         d="m 157.56934,188.66772 h -7.76918 v 1.26983 h 5.73472 v 3.57738 h -5.73472 v 1.3381 h 7.76918 v 3.57738 h -10.28153 l -2.19831,-1.78869 v -9.92653 l 2.19831,-1.93889 h 10.28153 z"
         id="path52102" />
      <path
         d="m 163.37234,184.7763 v 10.07673 h 5.0247 v 3.57738 H 158.7436 V 184.7763 Z"
         id="path52104" />
      <path
         d="m 174.67792,184.7763 v 10.07673 h 5.02471 v 3.57738 h -9.65345 V 184.7763 Z"
         id="path52106" />
      <path
         d="M 181.35477,198.43041 V 184.7763 h 4.87451 v 13.65411 z"
         id="path52108" />
      <path
         d="m 196.68831,198.43041 -5.78934,-7.27764 v 7.27764 h -3.26333 V 184.7763 h 3.26333 v 0 l 5.78934,7.34591 v -7.34591 h 3.55006 v 13.65411 z"
         id="path52110" />
      <path
         d="m 208.30794,191.0845 h 5.77568 v 1.02406 1.48829 4.61509 0.21847 h -10.145 l -2.19831,-1.78869 v -9.92653 l 2.19831,-1.93889 h 10.145 v 3.89142 h -7.63264 v 1.26983 3.57738 0.0956 1.24252 h 3.5091 v -1.25618 h -1.65214 z"
         id="path52112" />
      <path
         d="m 229.99064,198.43041 h -3.26333 V 184.7763 h 3.55007 -0.28674 v 7.27764 l 2.89467,-3.63199 0.1502,-0.19116 2.74447,3.45449 v -0.60078 l -0.0136,0.0137 v -6.30819 l 0.0136,-0.0137 h 3.56372 v 13.65411 h -3.27698 v 0 h -0.28674 l -2.74447,-3.85046 z"
         id="path52114" />
      <path
         d="m 251.03161,184.7763 2.03446,1.6658 v 10.15866 l -2.22561,1.82965 h -8.31535 l -1.80234,-1.82965 V 186.4421 l 2.07542,-1.6658 z m -2.41677,9.99481 v -6.41743 H 245.174 v 6.41743 z"
         id="path52116" />
      <path
         d="m 266.69286,186.68788 v 3.72757 l -2.19831,1.85696 2.19831,1.55656 v 4.60144 h -4.39662 v -4.60144 h -3.29063 v 4.60144 h -4.62874 v -9.76269 -3.89142 h 4.62874 5.48894 z m -4.38296,2.68986 v -1.29714 h -3.30429 l -0.041,1.29714 h 0.041 3.29063 z"
         id="path52118" />
      <path
         d="m 276.83786,184.7763 2.19831,1.93889 v 9.92653 l -2.19831,1.78869 h -5.33875 -3.46815 V 184.7763 Z m -2.52601,10.07673 1.25618,-1.06502 v -4.02796 l -1.25618,-1.09233 h -1.89792 v 6.18531 z"
         id="path52120" />
      <path
         d="m 298.73903,191.0845 h 5.77568 v 1.02406 1.48829 4.61509 0.21847 h -10.14499 l -2.19831,-1.78869 v -9.92653 l 2.19831,-1.93889 h 10.14499 v 3.89142 h -7.63264 v 1.26983 3.57738 0.0956 1.24252 h 3.5091 v -1.25618 h -1.65214 z"
         id="path52122" />
      <path
         d="m 318.30535,188.66772 h -7.76918 v 1.26983 h 5.73472 v 3.57738 h -5.73472 v 1.3381 h 7.76918 v 3.57738 h -10.28154 l -2.19831,-1.78869 v -9.92653 l 2.19831,-1.93889 h 10.28154 z"
         id="path52124" />
      <path
         d="m 329.57,198.43041 z m -2.29389,-13.64045 h 4.75163 L 329.57,198.43041 h -7.6463 l -2.44408,-13.64045 h 4.6697 l 1.55657,9.59883 h 0.27308 z m -5.35241,13.64045 z"
         id="path52126" />
      <path
         d="m 343.71563,184.7763 2.03446,1.6658 v 10.15866 h -0.0136 v 1.82965 h -2.21197 -2.22561 v -3.6593 h -3.44084 v 3.6593 h -2.64889 -1.80234 v -10.07673 -1.91158 l 2.07542,-1.6658 z m -2.41677,5.54357 v -1.96619 h -3.44084 v 1.96619 z"
         id="path52128" />
      <path
         d="m 351.67595,184.7763 v 10.07673 h 5.02471 v 3.57738 h -9.65345 V 184.7763 Z"
         id="path52130" />
      <path
         d="M 358.35282,198.43041 V 184.7763 h 4.87451 v 13.65411 z"
         id="path52132" />
      <path
         d="m 373.44057,184.7763 2.19831,1.93889 v 9.92653 l -2.19831,1.78869 h -5.33876 -3.46814 V 184.7763 Z m -2.52601,10.07673 1.25617,-1.06502 v -4.02796 l -1.25617,-1.09233 h -1.89792 v 6.18531 z"
         id="path52134" />
      <path
         d="m 389.92107,188.66772 h -7.76918 v 1.26983 h 5.73472 v 3.57738 h -5.73472 v 1.3381 h 7.76918 v 3.57738 h -10.28153 l -2.19831,-1.78869 v -9.92653 l 2.19831,-1.93889 h 10.28153 z"
         id="path52136" />
      <path
         d="m 403.57516,188.66772 h -7.76919 v 1.26983 h 5.73473 v 3.57738 h -5.73473 v 1.3381 h 7.76919 v 3.57738 h -10.28154 l -2.19831,-1.78869 v -9.92653 l 2.19831,-1.93889 h 10.28154 z"
         id="path52138" />
      <path
         d="m 417.06542,186.68788 v 3.72757 l -2.19831,1.85696 2.19831,1.55656 v 4.60144 h -4.39662 v -4.60144 h -3.29064 v 4.60144 h -4.62874 v -9.76269 -3.89142 h 4.62874 5.48895 z m -4.38296,2.68986 v -1.29714 h -3.3043 l -0.041,1.29714 h 0.041 3.29064 z"
         id="path52140" />
      <path
         d="m 427.21043,184.7763 2.19831,1.93889 v 9.92653 l -2.19831,1.78869 h -5.33875 -3.46814 V 184.7763 Z m -2.52601,10.07673 1.25618,-1.06502 v -4.02796 l -1.25618,-1.09233 h -1.89792 v 6.18531 z"
         id="path52142" />
    </g>
  </g>
</svg>
