<?xml version="1.0" encoding="UTF-8" standalone="no"?>
<!-- Created with Inkscape (http://www.inkscape.org/) -->

<svg
   width="378.36868"
   height="13.65412"
   viewBox="0 0 378.36868 13.65412"
   version="1.1"
   id="svg5"
   inkscape:version="1.1.2 (b8e25be833, 2022-02-05)"
   sodipodi:docname="uw_bestelling_gevalideerd.svg"
   xmlns:inkscape="http://www.inkscape.org/namespaces/inkscape"
   xmlns:sodipodi="http://sodipodi.sourceforge.net/DTD/sodipodi-0.dtd"
   xmlns="http://www.w3.org/2000/svg"
   xmlns:svg="http://www.w3.org/2000/svg">
  <sodipodi:namedview
     id="namedview7"
     pagecolor="#ffffff"
     bordercolor="#111111"
     borderopacity="1"
     inkscape:pageshadow="0"
     inkscape:pageopacity="0"
     inkscape:pagecheckerboard="1"
     inkscape:document-units="px"
     showgrid="false"
     inkscape:zoom="3.4101562"
     inkscape:cx="155.56472"
     inkscape:cy="40.027492"
     inkscape:window-width="2560"
     inkscape:window-height="1411"
     inkscape:window-x="-9"
     inkscape:window-y="-9"
     inkscape:window-maximized="1"
     inkscape:current-layer="layer1" />
  <defs
     id="defs2" />
  <g
     inkscape:label="Layer 1"
     inkscape:groupmode="layer"
     id="layer1"
     transform="translate(-51.040056,-184.7763)">
    <text
       xml:space="preserve"
       style="font-size:40px;line-height:1.25;font-family:IJzershop;-inkscape-font-specification:IJzershop"
       x="55.12944"
       y="198.23138"
       id="text7668"><tspan
         sodipodi:role="line"
         id="tspan7666"
         x="55.12944"
         y="198.23138" /></text>
    <g
       aria-label="uw bestelling wordt gevalideerd"
       id="text13861"
       style="font-size:13.1239px;line-height:1.25;font-family:IJzershop;-inkscape-font-specification:IJzershop;stroke-width:0.984297">
      <path
         d="m 63.949919,198.2102 h -2.362302 z m -4.567117,-13.11078 h 4.567117 v 8.9505 2.44105 l -2.362302,1.71923 h -7.349384 l -2.349178,-1.71923 v -2.44105 -8.9505 h 4.488374 v 1.73236 3.96342 2.97912 0.2756 1.01054 h 3.005373 v -1.01054 -0.2756 -2.97912 -3.96342 z m -7.493747,13.11078 h 2.349178 z"
         id="path825" />
      <path
         d="m 68.582661,198.2102 h -3.136612 v -13.1239 h 3.412214 -0.275602 v 6.99504 l 2.782267,-3.49096 0.144363,-0.18373 2.637904,3.32034 v -0.57745 l -0.01312,0.0131 v -6.06324 l 0.01312,-0.0131 h 3.425338 v 13.1239 h -3.149736 v 0 h -0.275602 l -2.637904,-3.70094 z"
         id="path827" />
      <path
         d="m 101.64176,186.92364 v 3.58283 l -1.36489,1.14178 1.36489,1.14178 v 0.99741 2.34918 0.23623 l -2.112948,1.83735 h -5.275808 -4.449002 v -3.74031 -6.15511 -3.22848 h 4.449002 5.275808 z m -7.388756,6.8638 v 0.68245 h 3.16286 v -0.68245 0 z m 3.16286,-4.96083 h -3.16286 v 0.68244 0 h 3.16286 z"
         id="path829" />
      <path
         d="m 114.91002,188.82661 h -7.46749 v 1.22052 h 5.51203 v 3.43846 h -5.51203 v 1.28615 h 7.46749 v 3.43846 h -9.88229 l -2.11295,-1.71923 v -9.54108 l 2.11295,-1.86359 h 9.88229 z"
         id="path831" />
      <path
         d="m 127.62709,188.89223 h -7.42813 v 1.2074 h 5.34142 l 2.08671,1.58799 v 4.79022 l -2.08671,1.70611 h -9.5017 v -3.39909 h 7.49375 v -1.28614 h -5.56454 l -1.92921,-1.69298 v -4.76398 l 2.29668,-1.85047 h 9.29173 z"
         id="path833" />
      <path
         d="m 140.80348,185.0863 v 3.70094 h -3.53033 v 9.39671 h -4.63273 v -9.39671 h -3.47784 v -3.70094 z"
         id="path835" />
      <path
         d="m 154.28173,188.82661 h -7.4675 v 1.22052 h 5.51204 v 3.43846 h -5.51204 v 1.28615 h 7.4675 v 3.43846 h -9.8823 l -2.11295,-1.71923 v -9.54108 l 2.11295,-1.86359 h 9.8823 z"
         id="path837" />
      <path
         d="m 159.85938,185.0863 v 9.68544 h 4.8296 v 3.43846 h -9.2786 v -13.1239 z"
         id="path839" />
      <path
         d="m 170.72596,185.0863 v 9.68544 h 4.8296 v 3.43846 h -9.2786 v -13.1239 z"
         id="path841" />
      <path
         d="m 177.14354,198.2102 v -13.1239 h 4.68523 v 13.1239 z"
         id="path843" />
      <path
         d="m 191.88166,198.2102 -5.56454,-6.99504 v 6.99504 h -3.13661 v -13.1239 h 3.13661 v 0 l 5.56454,7.06066 v -7.06066 h 3.41221 v 13.1239 z"
         id="path845" />
      <path
         d="m 203.05008,191.14954 h 5.55141 v 0.98429 1.43051 4.43588 0.20998 h -9.75105 l -2.11295,-1.71923 v -9.54108 l 2.11295,-1.86359 h 9.75105 v 3.74031 h -7.33626 v 1.22052 3.43846 0.0919 1.19428 h 3.37285 v -1.2074 h -1.588 z"
         id="path847" />
      <path
         d="m 223.89084,198.2102 h -3.13661 v -13.1239 h 3.41221 -0.2756 v 6.99504 l 2.78227,-3.49096 0.14436,-0.18373 2.6379,3.32034 v -0.57745 l -0.0131,0.0131 v -6.06324 l 0.0131,-0.0131 h 3.42534 v 13.1239 h -3.14974 v 0 h -0.2756 l -2.6379,-3.70094 z"
         id="path849" />
      <path
         d="m 244.11477,185.0863 1.95546,1.60111 v 9.76419 l -2.1392,1.7586 h -7.99245 l -1.73236,-1.7586 v -9.76419 l 1.99484,-1.60111 z m -2.32293,9.60669 v -6.16823 h -3.30723 v 6.16823 z"
         id="path851" />
      <path
         d="m 259.16788,186.92364 v 3.58283 l -2.11295,1.78485 2.11295,1.49612 v 4.42276 h -4.22589 v -4.42276 h -3.16286 v 4.42276 h -4.44901 v -9.38359 -3.74031 h 4.44901 5.2758 z m -4.21277,2.58541 v -1.24677 h -3.17598 l -0.0394,1.24677 h 0.0394 3.16286 z"
         id="path853" />
      <path
         d="m 268.91894,185.0863 2.11295,1.86359 v 9.54108 l -2.11295,1.71923 h -5.13144 -3.33347 v -13.1239 z m -2.42792,9.68544 1.2074,-1.02367 v -3.87155 l -1.2074,-1.04991 h -1.82422 v 5.94513 z"
         id="path855" />
      <path
         d="m 284.40514,185.0863 v 3.70094 h -3.53033 v 9.39671 h -4.63274 v -9.39671 h -3.47783 v -3.70094 z"
         id="path857" />
      <path
         d="m 303.09357,191.14954 h 5.55141 v 0.98429 1.43051 4.43588 0.20998 h -9.75106 l -2.11294,-1.71923 v -9.54108 l 2.11294,-1.86359 h 9.75106 v 3.74031 h -7.33626 v 1.22052 3.43846 0.0919 1.19428 h 3.37284 v -1.2074 h -1.58799 z"
         id="path859" />
      <path
         d="m 321.90014,188.82661 h -7.4675 v 1.22052 h 5.51204 v 3.43846 h -5.51204 v 1.28615 h 7.4675 v 3.43846 h -9.8823 l -2.11295,-1.71923 v -9.54108 l 2.11295,-1.86359 h 9.8823 z"
         id="path861" />
      <path
         d="m 332.72736,198.2102 z m -2.20482,-13.11078 h 4.56712 l -2.3623,13.11078 h -7.34939 l -2.34918,-13.11078 h 4.48838 l 1.49612,9.2261 h 0.26248 z m -5.14457,13.11078 z"
         id="path863" />
      <path
         d="m 346.32369,185.0863 1.95546,1.60111 v 9.76419 h -0.0131 v 1.7586 h -2.12607 -2.1392 v -3.51721 h -3.30722 v 3.51721 h -2.54604 -1.73235 v -9.68544 -1.83735 l 1.99483,-1.60111 z m -2.32293,5.3283 v -1.88984 h -3.30722 v 1.88984 z"
         id="path865" />
      <path
         d="m 353.97493,185.0863 v 9.68544 h 4.82959 v 3.43846 h -9.2786 v -13.1239 z"
         id="path867" />
      <path
         d="m 360.3925,198.2102 v -13.1239 h 4.68523 v 13.1239 z"
         id="path869" />
      <path
         d="m 374.8944,185.0863 2.11295,1.86359 v 9.54108 l -2.11295,1.71923 h -5.13144 -3.33347 v -13.1239 z m -2.42792,9.68544 1.2074,-1.02367 v -3.87155 l -1.2074,-1.04991 h -1.82422 v 5.94513 z"
         id="path871" />
      <path
         d="m 390.73495,188.82661 h -7.4675 v 1.22052 h 5.51203 v 3.43846 h -5.51203 v 1.28615 h 7.4675 v 3.43846 h -9.8823 l -2.11295,-1.71923 v -9.54108 l 2.11295,-1.86359 h 9.8823 z"
         id="path873" />
      <path
         d="m 403.85885,188.82661 h -7.4675 v 1.22052 h 5.51204 v 3.43846 h -5.51204 v 1.28615 h 7.4675 v 3.43846 h -9.8823 l -2.11295,-1.71923 v -9.54108 l 2.11295,-1.86359 h 9.8823 z"
         id="path875" />
      <path
         d="m 416.82526,186.92364 v 3.58283 l -2.11295,1.78485 2.11295,1.49612 v 4.42276 h -4.22589 v -4.42276 h -3.16286 v 4.42276 h -4.44901 v -9.38359 -3.74031 h 4.44901 5.2758 z m -4.21277,2.58541 v -1.24677 h -3.17598 l -0.0394,1.24677 h 0.0394 3.16286 z"
         id="path877" />
      <path
         d="m 426.57632,185.0863 2.11295,1.86359 v 9.54108 l -2.11295,1.71923 h -5.13144 -3.33348 v -13.1239 z m -2.42792,9.68544 1.2074,-1.02367 v -3.87155 l -1.2074,-1.04991 h -1.82422 v 5.94513 z"
         id="path879" />
    </g>
  </g>
</svg>
