<?xml version="1.0" encoding="UTF-8"?>
<svg version="1.1" viewBox="0 0 382 40.009" xmlns="http://www.w3.org/2000/svg">
  <g transform="translate(-49.265 -172.09)">
    <path d="m76.625 172.1h9.6v40h-10.44 0.84v-21.32l-8.44 10.64-0.44 0.56-8.08-10.12v1.76l0.04-0.04v18.48l-0.04 0.04h-10.4v-40h10.4l8.08 11.28z"/>
    <path d="m120.46 172.1 5.96 4.88v29.76l-6.52 5.36h-24.36l-5.28-5.36v-29.76l6.08-4.88zm-7.08 29.28v-18.8h-10.08v18.8z"/>
    <path d="m157.62 172.1h9.6v40h-10.44 0.84v-21.32l-8.44 10.64-0.44 0.56-8.08-10.12v1.76l0.04-0.04v18.48l-0.04 0.04h-10.4v-40h10.4l8.08 11.28z"/>
    <path d="m207.82 183.5h-22.76v3.72h16.8v10.48h-16.8v3.92h22.76v10.48h-30.12l-6.44-5.24v-29.08l6.44-5.68h30.12z"/>
    <path d="m237.78 212.1-16.96-21.32v21.32h-9.56v-40h9.56l16.96 21.52v-21.52h10.4v40z"/>
    <path d="m288.06 172.1v11.28h-10.76v28.64h-14.12v-28.64h-10.6v-11.28z"/>
    <path d="m344.02 172.1 5.96 4.88v29.76h-0.04v5.36h-13v-10.72h-10.08v10.72h-13.04v-35.12l6.08-4.88zm-7.08 16.24v-5.76h-10.08v5.76z"/>
    <path d="m390.58 212.1h-7.2zm-13.92-39.96h13.92v34.72l-7.2 5.24h-22.4l-7.16-5.24v-34.72h13.68v30.36h9.16v-25.08zm-22.84 39.96h7.16z"/>
    <path d="m431.26 177.7v10.92l-4.16 3.48 4.16 3.48v10.92l-6.44 5.6h-29.64v-40h29.64zm-22.52 20.92v2.08h9.64v-2.08zm9.64-15.12h-9.64v2.08h9.64z"/>
    <text x="55.12944" y="198.23138" font-family="IJzershop" font-size="40px" style="line-height:1.25" xml:space="preserve"><tspan x="55.12944" y="198.23138"/></text>
    <path d="m49.265 192.05v-19.963l10.192 0.33891 3.9161 5.4445c2.1538 2.9945 4.0448 5.5732 4.2022 5.7306 0.15735 0.15736 2.338-2.3586 4.8458-5.5911l4.5597-5.8772h9.2323v39.881h-9.3579l-0.31912-21.705-4.3851 5.5584c-2.4118 3.0571-4.5445 5.3675-4.7393 5.1343-0.19482-0.23325-2.0483-2.53-4.1189-5.1039l-3.7647-4.6798-0.16015 10.398-0.16015 10.398h-9.9432z" fill="#3b56ad"/>
    <path d="m93.082 209.21-2.7637-2.8059v-28.926l6.5588-5.3428h22.95l3.1332 2.4172 3.1332 2.4173v29.624l-6.5861 5.422h-23.662zm20.696-17.428v-9.677h-10.557v19.354h10.557z" fill="#3b56ad"/>
    <path d="m130.79 192.07v-19.94l4.8385 0.0197 4.8385 0.0198 4.0731 5.8451c2.2402 3.2148 4.1212 5.8451 4.18 5.8451 0.0588 0 2.1642-2.6392 4.6785-5.8648l4.5716-5.8648h9.1818v39.881h-9.3579l-0.31912-21.738-4.3435 5.6164c-2.3889 3.089-4.5216 5.4069-4.7393 5.1508-0.21766-0.25609-2.0899-2.5715-4.1605-5.1454l-3.7647-4.6798-0.16015 10.398-0.16016 10.398h-9.3567z" fill="#3b56ad"/>
    <path d="m174.95 209.51-3.0485-2.4778-0.061-29.394 6.373-5.5021h29.402v11.143h-22.873v4.1054h17.008v9.9702h-17.008v4.6919h22.873v9.9702l-29.617-0.0294z" fill="#3b56ad"/>
    <path d="m211.72 192.07v-19.94h8.72l8.2716 10.536c4.5494 5.7947 8.5255 10.693 8.8359 10.885 0.3536 0.21854 0.56425-3.7148 0.56425-10.536v-10.885h9.9702v39.881h-9.8677l-17.404-21.803-0.15957 10.902-0.15956 10.902h-8.7714z" fill="#3b56ad"/>
    <path d="m263.33 197.64v-14.369h-10.557v-11.143h35.189v11.143h-11.143v28.738h-13.489z" fill="#3b56ad"/>
  </g>
</svg>
