<?xml version="1.0" encoding="UTF-8"?>
<svg version="1.1" viewBox="0 0 378.37 13.654" xmlns="http://www.w3.org/2000/svg">
  <g transform="translate(-51.04 -184.78)">
    <text x="55.12944" y="198.23138" font-family="IJzershop" font-size="40px" style="line-height:1.25" xml:space="preserve"><tspan x="55.12944" y="198.23138"/></text>
    <path d="m238.93 184.96h-1.0796v2.9048c0 0.83848 0.35424 1.644 0.98851 2.2609l1.0526 1.0212-2.1491 1.4314c-0.95141 0.63485-1.5114 1.6261-1.5114 2.6832v3.1144h8.1342l0.3205-0.42523 0.93116-1.2398 1.7139 1.665h2.925l-0.54318-0.52705-2.8643-2.782 2.1558-2.8688 0.60053-0.79656-1.7982-1.0631-0.60053 0.79657-1.859 2.4735-2.2604-2.195 1.3461-0.89539c0.95478-0.63485 1.5148-1.6261 1.5148-2.6832v-2.8748h-1.0796zm4.2105 4.0247-1.5148 1.0092-1.1943-1.1589c-0.27328-0.26353-0.4251-0.6109-0.4251-0.97025v-0.98822h3.782v0.95827c0 0.45218-0.23954 0.87742-0.64776 1.1499zm-4.1025 5.1268 2.3178-1.5422 2.7631 2.6832-0.90754 1.2068h-4.8211v-1.1978c0-0.45219 0.23954-0.87742 0.64776-1.1499z" stroke-width=".031785"/>
  </g>
</svg>
