<?xml version="1.0" encoding="UTF-8"?>
<svg version="1.1" viewBox="0 0 512 512" xmlns="http://www.w3.org/2000/svg">
  <path d="m7.4177 225.28v-119.37h42.362v119.37z" stroke-width="2.9754"/>
  <path d="m105.67 105.91h40.226v103.74l-21.834 15.638h-62.059v-31.276h43.668z" stroke-width="2.9754"/>
  <path d="m265.86 139.57-57.551 54.793h57.432v30.919h-107.74v-30.919l58.026-54.793h-58.026v-33.664h107.86z" stroke-width="2.9754"/>
  <path d="m385 139.93h-67.519v11.102h49.838v31.276h-49.838v11.699h67.519v31.276h-89.351l-19.104-15.638v-86.786l19.104-16.951h89.351z" stroke-width="2.9754"/>
  <path d="m502.24 122.62v32.589l-19.104 16.235 19.104 13.609v40.23h-38.209v-40.23h-28.597v40.23h-40.226v-119.37h87.928zm-38.09 23.517v-11.341h-28.716l-0.35598 11.341h28.954z" stroke-width="2.9754"/>
  <g transform="matrix(12.067 0 0 12.067 -116.99 68.239)" fill="#3b56ad" stroke-width=".26379">
    <path d="m19.678 19.067h-5.9543v0.97367h4.2816l1.6727 1.2806v3.8629l-1.6727 1.3758h-7.6165v-2.7411h6.0069v-1.0372h-4.4605l-1.5464-1.3652v-3.8417l1.841-1.4922h7.4481z"/>
    <path d="m26.926 15.997h3.6715v10.583h-3.6715v-3.5666h-2.4091v3.5666h-3.6084v-10.583h3.6084v4.6037h2.4091z"/>
    <path d="m39.372 15.997 1.5675 1.2912v7.874l-1.7148 1.4182h-6.4067l-1.3886-1.4182v-7.874l1.599-1.2912zm-1.862 7.747v-4.9742h-2.651v4.9742z"/>
    <path d="m49.765 15.997 1.5675 1.2594v6.4876l-1.5675 1.4182h-4.2711v1.4182h-3.5452v-10.583h3.5452zm-4.2711 2.5188v3.8417h2.5353v-3.8417z"/>
  </g>
</svg>
