<?xml version="1.0" encoding="UTF-8"?>
<svg version="1.1" viewBox="0 0 380.31 13.138" xmlns="http://www.w3.org/2000/svg">
  <g transform="translate(-50 -184.63)">
    <text x="55.12944" y="198.23138" font-family="IJzershop" font-size="40px" style="line-height:1.25" xml:space="preserve"><tspan x="55.12944" y="198.23138"/></text>
    <g stroke-width=".82112" aria-label="het betaalscherm wordt geladen">
      <path d="m57.515 184.63h4.5852v13.138h-4.5852v-4.4275h-3.0086v4.4275h-4.5063v-13.138h4.5063v5.715h3.0086z"/>
      <path d="m75.146 188.37h-7.4755v1.2218h5.518v3.4422h-5.518v1.2875h7.4755v3.4422h-9.8929l-2.1152-1.7211v-9.5513l2.1152-1.8656h9.8929z"/>
      <path d="m87.929 184.63v3.7049h-3.5341v9.4068h-4.6377v-9.4068h-3.4816v-3.7049z"/>
      <path d="m112.18 186.47v3.5867l-1.3664 1.143 1.3664 1.143v3.5867l-2.1152 1.8393h-9.7353v-13.138h9.7353zm-7.3967 6.8712v0.68318h3.1663v-0.68318zm3.1663-4.9662h-3.1663v0.68317h3.1663z"/>
      <path d="m125.46 188.37h-7.4755v1.2218h5.518v3.4422h-5.518v1.2875h7.4755v3.4422h-9.8929l-2.1152-1.7211v-9.5513l2.1152-1.8656h9.8929z"/>
      <path d="m138.25 184.63v3.7049h-3.5341v9.4068h-4.6377v-9.4068h-3.4816v-3.7049z"/>
      <path d="m149.66 184.63 1.9576 1.6028v9.7747h-0.0131v1.7605h-4.2698v-3.521h-3.3108v3.521h-4.283v-11.535l1.997-1.6028zm-2.3254 5.334v-1.8919h-3.3108v1.8919z"/>
      <path d="m162.8 184.63 1.9576 1.6028v9.7747h-0.0131v1.7605h-4.2698v-3.521h-3.3108v3.521h-4.283v-11.535l1.997-1.6028zm-2.3254 5.334v-1.8919h-3.3108v1.8919z"/>
      <path d="m170.46 184.63v9.6958h4.8348v3.4422h-9.2886v-13.138z"/>
      <path d="m188.49 188.44h-7.4361v1.2087h5.3472l2.0889 1.5897v4.7954l-2.0889 1.7079h-9.5119v-3.4027h7.5018v-1.2875h-5.5705l-1.9313-1.6948v-4.7691l2.2992-1.8525h9.3017z"/>
      <path d="m201.15 194.33v3.4422h-9.0127l-2.1152-1.7211v-9.5513l2.1152-1.8656h9.0127v3.7443h-6.5953v5.9516z"/>
      <path d="m210.05 184.63h4.5852v13.138h-4.5852v-4.4275h-3.0086v4.4275h-4.5063v-13.138h4.5063v5.715h3.0086z"/>
      <path d="m227.68 188.37h-7.4755v1.2218h5.518v3.4422h-5.518v1.2875h7.4755v3.4422h-9.8929l-2.1152-1.7211v-9.5513l2.1152-1.8656h9.8929z"/>
      <path d="m240.66 186.47v3.5867l-2.1152 1.7868 2.1152 1.4977v4.4275h-4.2304v-4.4275h-3.1663v4.4275h-4.4538v-13.138h9.7353zm-4.2173 2.5882v-1.2481h-3.1794l-0.0394 1.2481h3.2057z"/>
      <path d="m250.93 184.63h3.1531v13.138h-3.429 0.2759v-7.0026l-2.7721 3.4947-0.14452 0.18393-2.6539-3.3239v0.57807l0.0131-0.0131v6.0698l-0.0131 0.0131h-3.4159v-13.138h3.4159l2.6539 3.7049z"/>
      <path d="m269.46 197.77h-3.14v-13.138h3.4159-0.2759v7.0026l2.7852-3.4947 0.14452-0.18393 2.6407 3.3239v-0.57807l-0.0131 0.0131v-6.0698l0.0131-0.0131h3.429v13.138h-3.429l-2.6407-3.7049z"/>
      <path d="m289.7 184.63 1.9576 1.6028v9.7747l-2.1415 1.7605h-8.001l-1.7342-1.7605v-9.7747l1.997-1.6028zm-2.3254 9.617v-6.1749h-3.3108v6.1749z"/>
      <path d="m304.77 186.47v3.5867l-2.1152 1.7868 2.1152 1.4977v4.4275h-4.2304v-4.4275h-3.1663v4.4275h-4.4538v-13.138h9.7353zm-4.2173 2.5882v-1.2481h-3.1794l-0.0394 1.2481h3.2057z"/>
      <path d="m314.53 184.63 2.1152 1.8656v9.5513l-2.1152 1.7211h-8.474v-13.138zm-2.4305 9.6958 1.2087-1.0248v-3.8757l-1.2087-1.051h-1.8262v5.9515z"/>
      <path d="m330.04 184.63v3.7049h-3.5341v9.4068h-4.6377v-9.4068h-3.4816v-3.7049z"/>
      <path d="m348.74 190.7h5.5574v7.0682h-9.7615l-2.1152-1.7211v-9.5513l2.1152-1.8656h9.7615v3.7443h-7.3442v5.9516h3.3765v-1.2087h-1.5897z"/>
      <path d="m367.57 188.37h-7.4755v1.2218h5.518v3.4422h-5.518v1.2875h7.4755v3.4422h-9.8929l-2.1152-1.7211v-9.5513l2.1152-1.8656h9.8929z"/>
      <path d="m373.16 184.63v9.6958h4.8348v3.4422h-9.2886v-13.138z"/>
      <path d="m389.51 184.63 1.9576 1.6028v9.7747h-0.0131v1.7605h-4.2698v-3.521h-3.3108v3.521h-4.283v-11.535l1.997-1.6028zm-2.3254 5.334v-1.8919h-3.3108v1.8919z"/>
      <path d="m401.19 184.63 2.1152 1.8656v9.5513l-2.1152 1.7211h-8.474v-13.138zm-2.4305 9.6958 1.2087-1.0248v-3.8757l-1.2087-1.051h-1.8262v5.9515z"/>
      <path d="m417.05 188.37h-7.4755v1.2218h5.518v3.4422h-5.518v1.2875h7.4755v3.4422h-9.8929l-2.1152-1.7211v-9.5513l2.1152-1.8656h9.8929z"/>
      <path d="m426.89 197.77-5.5705-7.0026v7.0026h-3.14v-13.138h3.14l5.5705 7.0682v-7.0682h3.4159v13.138z"/>
    </g>
  </g>
</svg>
