<?xml version="1.0" encoding="UTF-8" standalone="no"?>
<svg
   viewBox="0 0 512 512"
   version="1.1"
   id="svg66150"
   xmlns="http://www.w3.org/2000/svg"
   xmlns:svg="http://www.w3.org/2000/svg">
  <defs
     id="defs66154" />
  <!--!Font Awesome Pro 6.5.2 by @fontawesome - https://fontawesome.com License - https://fontawesome.com/license (Commercial License) Copyright 2024 Fonticons, Inc.-->
  <path
     d="M 7.4176883,225.28286 V 105.91068 H 49.779414 v 119.37218 z"
     id="path66459"
     style="stroke-width:2.97545" />
  <path
     d="m 105.66766,105.90617 h 40.22649 v 103.7375 L 124.0602,225.28173 H 62.000878 v -31.27612 h 43.667902 z"
     id="path66461"
     style="stroke-width:2.97545" />
  <path
     d="m 265.86076,139.57018 -57.55085,54.793 h 57.43242 v 30.91855 H 157.99831 v -30.91855 l 58.02572,-54.793 h -58.02572 v -33.66401 h 107.86358 z"
     id="path66463"
     style="stroke-width:2.97545" />
  <path
     d="m 384.99607,139.92775 h -67.51866 v 11.10196 h 49.83786 v 31.27612 h -49.83786 v 11.69922 h 67.51866 v 31.27612 H 295.64459 L 276.5403,209.64311 v -86.7865 l 19.10429,-16.951 h 89.35148 z"
     id="path66465"
     style="stroke-width:2.97545" />
  <path
     d="m 502.23639,122.61805 v 32.58907 l -19.10428,16.23475 19.10428,13.60885 V 225.2806 H 464.02782 V 185.05072 H 435.43061 V 225.2806 H 395.20412 V 105.90843 h 87.92799 z m -38.09013,23.51687 v -11.34053 h -28.71565 l -0.35598,11.34053 h 28.95364 z"
     id="path66467"
     style="stroke-width:2.97545" />
  <g
     fill="#3b56ad"
     id="g66477"
     transform="matrix(12.067444,0,0,12.067444,-116.98993,68.238831)"
     style="stroke-width:0.26379">
    <path
       d="m 19.678,19.067 h -5.9543 v 0.97367 h 4.2816 l 1.6727,1.2806 v 3.8629 l -1.6727,1.3758 h -7.6165 v -2.7411 h 6.0069 v -1.0372 h -4.4605 l -1.5464,-1.3652 v -3.8417 l 1.841,-1.4922 h 7.4481 z"
       id="path66469" />
    <path
       d="m 26.926,15.997 h 3.6715 V 26.58 H 26.926 V 23.0134 H 24.5169 V 26.58 H 20.9085 V 15.997 h 3.6084 v 4.6037 h 2.4091 z"
       id="path66471" />
    <path
       d="m 39.372,15.997 1.5675,1.2912 v 7.874 l -1.7148,1.4182 H 32.818 l -1.3886,-1.4182 v -7.874 l 1.599,-1.2912 z m -1.862,7.747 v -4.9742 h -2.651 v 4.9742 z"
       id="path66473" />
    <path
       d="m 49.765,15.997 1.5675,1.2594 v 6.4876 l -1.5675,1.4182 h -4.2711 v 1.4182 h -3.5452 v -10.583 h 3.5452 z m -4.2711,2.5188 v 3.8417 h 2.5353 v -3.8417 z"
       id="path66475" />
  </g>
</svg>
