<?xml version="1.0" encoding="UTF-8" standalone="no"?>
<!-- Created with Inkscape (http://www.inkscape.org/) -->

<svg
   width="378.36868"
   height="13.65412"
   viewBox="0 0 378.36868 13.65412"
   version="1.1"
   id="svg5"
   xmlns="http://www.w3.org/2000/svg"
   xmlns:svg="http://www.w3.org/2000/svg">
  <defs
     id="defs2" />
  <g
     id="layer1"
     transform="translate(-51.040056,-184.7763)">
    <text
       xml:space="preserve"
       style="font-size:40px;line-height:1.25;font-family:IJzershop;-inkscape-font-specification:IJzershop"
       x="55.12944"
       y="198.23138"
       id="text7668"><tspan
         id="tspan7666"
         x="55.12944"
         y="198.23138" /></text>
    <path
       d="m 238.93374,184.95956 h -1.0796 v 0.95828 1.94649 c 0,0.83848 0.35424,1.64403 0.98851,2.26092 l 1.05262,1.02116 -2.14909,1.43142 c -0.95141,0.63485 -1.51145,1.62606 -1.51145,2.68316 v 2.15611 0.95827 h 1.0796 6.47763 0.57692 l 0.3205,-0.42523 0.93116,-1.23977 1.71388,1.665 h 2.92505 l -0.54318,-0.52705 -2.86432,-2.78198 2.15583,-2.86883 0.60053,-0.79656 -1.79821,-1.06309 -0.60053,0.79657 -1.85895,2.47354 -2.26042,-2.19504 1.34613,-0.89539 c 0.95478,-0.63485 1.51482,-1.62607 1.51482,-2.68316 v -1.91654 -0.95828 h -1.0796 z m 4.21046,4.02474 -1.51482,1.00918 -1.19431,-1.1589 c -0.27328,-0.26353 -0.4251,-0.6109 -0.4251,-0.97025 v -0.98822 h 3.78199 v 0.95827 c 0,0.45218 -0.23954,0.87742 -0.64776,1.14992 z m -4.1025,5.12676 2.31778,-1.54222 2.76311,2.68316 -0.90754,1.20682 h -4.82111 v -1.19783 c 0,-0.45219 0.23954,-0.87742 0.64776,-1.14993 z"
       id="path3101"
       style="stroke-width:0.0317854" />
  </g>
</svg>
