<?xml version="1.0" encoding="UTF-8" standalone="no"?>
<!-- Created with Inkscape (http://www.inkscape.org/) -->

<svg
   width="381.99994"
   height="40.00901"
   viewBox="0 0 381.99994 40.00901"
   version="1.1"
   id="svg5"
   xmlns="http://www.w3.org/2000/svg"
   xmlns:svg="http://www.w3.org/2000/svg">
  <defs
     id="defs2" />
  <g
     id="layer1"
     transform="translate(-49.264605,-172.08721)">
    <path
       d="m 76.624606,172.09622 h 9.6 v 40 h -10.44 0.84 v -21.32 l -8.44,10.64 -0.44,0.56 -8.08,-10.12 v 1.76 l 0.04,-0.04 v 18.48 l -0.04,0.04 h -10.4 v -40 h 9.56 v 0 h 0.84 l 8.08,11.28 z"
       id="path42293"
       style="font-size:40px;line-height:1.25;font-family:IJzershop;-inkscape-font-specification:IJzershop" />
    <path
       d="m 120.46459,172.09622 5.96,4.88 v 29.76 l -6.52,5.36 H 95.544591 l -5.28,-5.36 v -29.76 l 6.08,-4.88 z m -7.08,29.28 v -18.8 h -10.08 v 18.8 z"
       id="path42295"
       style="font-size:40px;line-height:1.25;font-family:IJzershop;-inkscape-font-specification:IJzershop" />
    <path
       d="m 157.62459,172.09622 h 9.6 v 40 h -10.44 0.84 v -21.32 l -8.44,10.64 -0.44,0.56 -8.08,-10.12 v 1.76 l 0.04,-0.04 v 18.48 l -0.04,0.04 h -10.4 v -40 h 9.56 v 0 h 0.84 l 8.08,11.28 z"
       id="path42297"
       style="font-size:40px;line-height:1.25;font-family:IJzershop;-inkscape-font-specification:IJzershop" />
    <path
       d="m 207.82458,183.49622 h -22.76 v 3.72 h 16.8 v 10.48 h -16.8 v 3.92 h 22.76 v 10.48 h -30.12 l -6.44,-5.24 v -29.08 l 6.44,-5.68 h 30.12 z"
       id="path42299"
       style="font-size:40px;line-height:1.25;font-family:IJzershop;-inkscape-font-specification:IJzershop" />
    <path
       d="m 237.78458,212.09622 -16.96,-21.32 v 21.32 h -9.56 v -40 h 9.56 v 0 l 16.96,21.52 v -21.52 h 10.4 v 40 z"
       id="path42301"
       style="font-size:40px;line-height:1.25;font-family:IJzershop;-inkscape-font-specification:IJzershop" />
    <path
       d="m 288.06454,172.09622 v 11.28 h -10.76 v 28.64 h -14.12 v -28.64 h -10.6 v -11.28 z"
       id="path42303"
       style="font-size:40px;line-height:1.25;font-family:IJzershop;-inkscape-font-specification:IJzershop" />
    <path
       d="m 344.02453,172.09622 5.96,4.88 v 29.76 h -0.04 v 5.36 h -6.48 -6.52 v -10.72 h -10.08 v 10.72 h -7.76 -5.28 v -29.52 -5.6 l 6.08,-4.88 z m -7.08,16.24 v -5.76 h -10.08 v 5.76 z"
       id="path42305"
       style="font-size:40px;line-height:1.25;font-family:IJzershop;-inkscape-font-specification:IJzershop" />
    <path
       d="m 390.58453,212.09622 h -7.2 z m -13.92,-39.96 h 13.92 v 27.28 7.44 l -7.2,5.24 h -22.4 l -7.16,-5.24 v -7.44 -27.28 h 13.68 v 5.28 12.08 9.08 0.84 3.08 h 9.16 v -3.08 -0.84 -9.08 -12.08 z m -22.84,39.96 h 7.16 z"
       id="path42307"
       style="font-size:40px;line-height:1.25;font-family:IJzershop;-inkscape-font-specification:IJzershop" />
    <path
       d="m 431.26455,177.69622 v 10.92 l -4.16,3.48 4.16,3.48 v 3.04 7.16 0.72 l -6.44,5.6 h -16.08 -13.56 v -11.4 -18.76 -9.84 h 13.56 16.08 z m -22.52,20.92 v 2.08 h 9.64 v -2.08 0 z m 9.64,-15.12 h -9.64 v 2.08 0 h 9.64 z"
       id="path42309"
       style="font-size:40px;line-height:1.25;font-family:IJzershop;-inkscape-font-specification:IJzershop" />
    <text
       xml:space="preserve"
       style="font-size:40px;line-height:1.25;font-family:IJzershop;-inkscape-font-specification:IJzershop"
       x="55.12944"
       y="198.23138"
       id="text7668"><tspan
         id="tspan7666"
         x="55.12944"
         y="198.23138" /></text>
    <path
       style="fill:#3b56ad;fill-opacity:1;stroke:none;stroke-width:0.586483"
       d="m 49.264605,192.05048 v -19.96327 l 5.096216,0.16945 5.096215,0.16946 3.91607,5.44451 c 2.153838,2.99448 4.044812,5.57325 4.202164,5.7306 0.157352,0.15736 2.337968,-2.35865 4.845814,-5.59113 l 4.559719,-5.87722 h 4.616128 4.616127 v 19.94043 19.94044 h -4.678926 -4.678926 l -0.159562,-10.8525 -0.159562,-10.8525 -4.38507,5.55838 c -2.411788,3.05711 -4.544463,5.36754 -4.739279,5.13428 -0.194815,-0.23325 -2.048338,-2.52999 -4.118939,-5.10386 l -3.76473,-4.67978 -0.160153,10.39799 -0.160154,10.39799 h -4.971576 -4.971576 z"
       id="path20679" />
    <path
       style="fill:#3b56ad;fill-opacity:1;stroke:none;stroke-width:0.586483"
       d="m 93.082191,209.2078 -2.763749,-2.80594 v -14.46309 -14.4631 l 3.279421,-2.6714 3.279421,-2.67139 h 11.475106 11.47511 l 3.13322,2.41725 3.13321,2.41726 v 14.81217 14.81217 l -3.29304,2.71101 -3.29303,2.71101 H 107.6769 95.84594 Z m 20.695589,-17.42773 v -9.67698 h -5.27835 -5.27835 v 9.67698 9.67697 h 5.27835 5.27835 z"
       id="path32472" />
    <path
       style="fill:#3b56ad;fill-opacity:1;stroke:none;stroke-width:0.586483"
       d="m 130.7858,192.07331 v -19.94043 l 4.83848,0.0197 4.83849,0.0198 4.07308,5.84508 c 2.2402,3.21479 4.1212,5.84507 4.18002,5.84507 0.0588,0 2.16415,-2.63917 4.67853,-5.86483 l 4.57159,-5.86483 h 4.59089 4.59089 v 19.94043 19.94044 h -4.67893 -4.67893 l -0.15956,-10.869 -0.15956,-10.869 -4.34354,5.61641 c -2.38894,3.08903 -4.52162,5.40688 -4.73928,5.15078 -0.21766,-0.25609 -2.08987,-2.57152 -4.16047,-5.14539 l -3.76473,-4.67978 -0.16015,10.39799 -0.16016,10.39799 h -4.67833 -4.67833 z"
       id="path32511" />
    <path
       style="fill:#3b56ad;fill-opacity:1;stroke:none;stroke-width:0;stroke-miterlimit:4;stroke-dasharray:none"
       d="m 174.94919,209.50649 -3.04851,-2.47785 -0.0305,-14.69685 -0.0305,-14.69685 3.18651,-2.75103 3.18651,-2.75103 h 14.70124 14.70123 v 5.57159 5.57159 h -11.43643 -11.43642 v 2.05269 2.05269 h 8.50401 8.50401 v 4.98511 4.98511 h -8.50401 -8.50401 v 2.34593 2.34594 h 11.43642 11.43643 v 4.98511 4.98511 l -14.80871,-0.0147 -14.8087,-0.0147 z"
       id="path32550" />
    <path
       style="fill:#3b56ad;fill-opacity:1;stroke:none;stroke-width:0.586483"
       d="m 211.7205,192.07331 v -19.94043 h 4.36001 4.36 l 8.27163,10.53583 c 4.5494,5.79471 8.52554,10.69276 8.83587,10.88455 0.3536,0.21854 0.56425,-3.71481 0.56425,-10.53583 v -10.88455 h 4.98511 4.9851 v 19.94043 19.94044 h -4.93385 -4.93385 l -8.70189,-10.90152 -8.70188,-10.90152 -0.15957,10.90152 -0.15956,10.90152 h -4.38568 -4.38569 z"
       id="path32589" />
    <path
       style="fill:#3b56ad;fill-opacity:1;stroke:none;stroke-width:0.586483"
       d="m 263.33104,197.6449 v -14.36884 h -5.27835 -5.27835 v -5.57159 -5.57159 h 17.5945 17.5945 v 5.57159 5.57159 h -5.57159 -5.57159 v 14.36884 14.36885 h -6.74456 -6.74456 z"
       id="path32628" />
  </g>
</svg>
