<?xml version="1.0" encoding="utf-8"?>
<!-- Generator: Adobe Illustrator 22.1.0, SVG Export Plug-In . SVG Version: 6.00 Build 0)  -->
<svg version="1.1" id="Layer_1" xmlns="http://www.w3.org/2000/svg" xmlns:xlink="http://www.w3.org/1999/xlink" x="0px" y="0px"
	 width="72.2px" height="86.6px" viewBox="0 0 72.2 86.6" style="enable-background:new 0 0 72.2 86.6;" xml:space="preserve">
<style type="text/css">
	.st0{fill:#FFFFFF;}
</style>
<g>
	<path class="st0" d="M0,86.6c0-17,0-33.5,0.1-49.9c0-1,0.6-2.3,1.3-3C12.8,22.5,24.3,11.4,36.1,0C48,11.5,59.7,22.8,71.3,34.2
		c0.5,0.5,0.9,1.5,0.9,2.2c0,16.6,0,33.2,0,50.2c-8.7,0-17,0-25.8,0c0-9.8,0-19.7,0-29.9c-7,0-13.3,0-20.3,0c0,10,0,19.9,0,30
		C17.2,86.6,9,86.6,0,86.6z"/>
</g>
</svg>
