<?xml version="1.0" encoding="UTF-8" standalone="no"?>
<!-- Created with Inkscape (http://www.inkscape.org/) -->

<svg
   width="400"
   height="250"
   viewBox="0 0 105.83333 66.145835"
   version="1.1"
   id="svg2002"
   inkscape:version="1.1.2 (b8e25be833, 2022-02-05)"
   sodipodi:docname="afgehaald.svg"
   xmlns:inkscape="http://www.inkscape.org/namespaces/inkscape"
   xmlns:sodipodi="http://sodipodi.sourceforge.net/DTD/sodipodi-0.dtd"
   xmlns="http://www.w3.org/2000/svg"
   xmlns:svg="http://www.w3.org/2000/svg"
   xmlns:rdf="http://www.w3.org/1999/02/22-rdf-syntax-ns#"
   xmlns:cc="http://creativecommons.org/ns#"
   xmlns:dc="http://purl.org/dc/elements/1.1/">
  <defs
     id="defs1996" />
  <sodipodi:namedview
     id="base"
     pagecolor="#ffffff"
     bordercolor="#666666"
     borderopacity="1.0"
     inkscape:pageopacity="0.0"
     inkscape:pageshadow="2"
     inkscape:zoom="1.979899"
     inkscape:cx="155.31095"
     inkscape:cy="120.20815"
     inkscape:document-units="mm"
     inkscape:current-layer="layer2"
     showgrid="false"
     units="px"
     inkscape:window-width="1920"
     inkscape:window-height="1009"
     inkscape:window-x="-8"
     inkscape:window-y="-8"
     inkscape:window-maximized="1"
     inkscape:pagecheckerboard="1" />
  <metadata
     id="metadata1999">
    <rdf:RDF>
      <cc:Work
         rdf:about="">
        <dc:format>image/svg+xml</dc:format>
        <dc:type
           rdf:resource="http://purl.org/dc/dcmitype/StillImage" />
      </cc:Work>
    </rdf:RDF>
  </metadata>
  <g
     inkscape:label="Laag 1"
     inkscape:groupmode="layer"
     id="layer1"
     transform="translate(0,-230.85415)"
     style="display:inline">
    <rect
       style="opacity:0.99;fill:#008000;fill-opacity:1;stroke:none;stroke-width:0;stroke-miterlimit:4;stroke-dasharray:none;stroke-opacity:1"
       id="rect2592"
       width="106.08559"
       height="66.329239"
       x="-0.091700234"
       y="230.76244" />
    <text
       xml:space="preserve"
       style="font-style:normal;font-weight:normal;font-size:19.7556px;line-height:0.7;font-family:sans-serif;letter-spacing:0px;word-spacing:0px;fill:#000000;fill-opacity:1;stroke:none;stroke-width:0.264583"
       x="33.41407"
       y="239.28816"
       id="text838"><tspan
         sodipodi:role="line"
         x="0"
         y="0"
         style="font-size:12.3472px;line-height:0.7;text-align:center;text-anchor:middle;fill:#ffffff;stroke-width:0.264583"
         id="tspan840"><tspan
           id="tspan851"
           style="font-size:12.3472px;line-height:0.7;text-align:center;text-anchor:middle;fill:#ffffff;stroke-width:0.264583" /></tspan><tspan
         sodipodi:role="line"
         x="-9.839423e-07"
         y="13.828919"
         style="font-size:12.3472px;line-height:0.7;text-align:center;text-anchor:middle;fill:#ffffff;stroke-width:0.264583"
         id="tspan857"><tspan
           style="font-size:12.3472px;line-height:0.7;text-align:center;text-anchor:middle;fill:#ffffff;stroke-width:0.264583"
           id="tspan859">Afhalen</tspan></tspan><tspan
         sodipodi:role="line"
         x="1.7695129e-08"
         y="27.657839"
         style="font-size:12.3472px;line-height:0.7;text-align:center;text-anchor:middle;fill:#ffffff;stroke-width:0.264583"
         id="tspan865"><tspan
   style="font-size:12.3472px;line-height:0.7;text-align:center;text-anchor:middle;fill:#ffffff;stroke-width:0.264583"
   id="tspan867">mail </tspan> </tspan><tspan
         sodipodi:role="line"
         x="-2.970919e-07"
         y="41.486759"
         style="font-size:12.3472px;line-height:0.7;text-align:center;text-anchor:middle;fill:#ffffff;stroke-width:0.264583"
         id="tspan842">verstuurd</tspan></text>
  </g>
  <g
     inkscape:groupmode="layer"
     id="layer2"
     inkscape:label="tekst"
     style="display:inline">
    <path
       id="path44426"
       style="fill:#ffffff;stroke:none;stroke-width:0.0493628"
       d="m 30.860554,31.995612 c -0.175318,-0.0067 -0.357383,0.0029 -0.545631,0.02983 -0.426643,0.06111 -0.815082,0.194395 -1.184661,0.419392 -1.49752,0.911583 -1.781573,3.095728 -0.632702,4.396982 0.682243,0.772676 1.70745,1.078953 2.70616,0.924348 0.389621,-0.06028 0.757871,-0.197984 1.085838,-0.418488 2.312403,-1.554836 1.200759,-5.251578 -1.429004,-5.352061 z m -0.08526,0.696576 c 1.529124,0.02886 2.559883,1.755837 1.914076,3.162308 -0.350373,0.763001 -1.073698,1.171702 -1.880633,1.261789 -1.39682,0.155937 -2.495094,-1.227136 -2.305146,-2.545272 0.14488,-1.005373 0.973054,-1.733506 1.95957,-1.861652 0.106022,-0.01378 0.210191,-0.0191 0.312133,-0.01718 z m -15.862762,0.284414 c -0.340514,-0.01478 -0.846256,0.200412 -1.035222,0.254588 -0.920223,0.263795 -1.845468,0.507033 -2.764308,0.775814 -0.497579,0.145522 -1.1212877,0.300065 -1.5257177,0.639632 -0.4870656,0.408972 -0.5583609,1.311446 -0.6760908,1.899012 -0.3039763,1.51702 -0.5273407,3.067027 -1.0069011,4.541298 C 6.9863409,40.550668 6.0756072,40.014341 5.1893956,39.425047 4.958575,39.271578 4.4112367,38.959834 4.3277148,39.458797 c -0.080758,0.483015 1.1627197,1.041998 1.503422,1.254257 0.6833302,0.425607 1.3991035,0.952611 2.1719778,1.202437 1.0884024,0.351809 2.2867954,0.238186 3.4060494,0.370281 0.736543,0.08688 1.485339,0.05796 2.22139,0.154862 0.342135,0.04507 0.670264,0.02338 0.839085,0.373897 -0.620048,0.178595 -1.799189,0.779682 -2.084606,1.382304 -0.32653,0.689255 0.498275,1.909434 1.048179,2.27773 0.772479,0.517372 1.884621,-0.233296 2.660062,0.07231 0.364792,0.143794 0.657385,0.970899 0.83366,1.302765 0.337247,0.634906 0.771444,1.340759 0.841193,2.073156 0.07671,0.806045 -0.521388,1.831431 -1.078003,2.367211 -0.404726,0.389622 -1.147558,0.413977 -1.677567,0.539605 -1.29686,0.307383 -2.609262,0.560231 -3.899557,0.894221 0.01565,-0.758114 0.07872,-1.465593 -0.06236,-2.221389 C 10.673205,49.480485 9.3344964,47.809927 7.5093052,46.899676 6.8047488,46.548312 5.9830518,46.29034 5.1893956,46.27089 4.9672628,46.26539 4.5580833,46.19551 4.4000237,46.3902 c -0.1859502,0.228994 -0.012898,0.51186 0.2464527,0.559791 0.5102636,0.09428 1.0182943,0.07588 1.5302365,0.216023 1.3883304,0.380045 2.6114347,1.296041 3.3843554,2.510021 0.5889997,0.92506 0.9563567,2.104705 0.9080797,3.208706 -0.01595,0.363757 -0.367236,1.340302 -0.03344,1.586277 0.200364,0.147693 0.511629,0.02751 0.726704,-0.02531 0.55701,-0.136782 1.119183,-0.25379 1.678168,-0.382331 0.88789,-0.204165 1.776907,-0.402674 2.665487,-0.603778 0.437306,-0.09892 0.993868,-0.145049 1.382304,-0.37661 0.749722,-0.44698 1.270834,-1.503265 1.48655,-2.320813 0.422693,-1.602121 -0.742248,-3.114917 -1.471485,-4.442778 -0.407096,-0.741233 -0.671315,-1.550249 -1.017446,-2.320211 -0.271102,-0.603214 -0.587173,-1.78168 -1.21961,-2.094246 -0.556023,-0.274851 -1.324469,-0.176987 -1.924622,-0.2341 -1.377317,-0.131058 -2.7655837,-0.228146 -4.1463119,-0.33714 0.4463391,-1.395932 0.6626795,-2.860158 0.9478492,-4.294544 0.103711,-0.521765 0.141839,-1.430234 0.5396047,-1.815856 0.2828,-0.274113 0.764915,-0.366993 1.128621,-0.487784 0.909018,-0.301903 1.843548,-0.522894 2.764308,-0.785455 0.319872,-0.09117 1.23616,-0.192558 1.266914,-0.613722 0.01892,-0.259117 -0.125903,-0.350866 -0.330212,-0.359737 z m 5.671427,5.04264 c -0.359516,-0.0088 -0.705945,0.02116 -0.866201,0.176555 -0.149471,0.144879 -0.114489,0.381928 -0.114489,0.570938 v 1.481127 4.738642 c 0,0.533168 -0.183745,1.477914 0.03675,1.964089 0.08831,0.194687 0.3214,0.205371 0.506161,0.207889 0.476994,0.0065 0.954672,0 1.431716,0 h 4.59071 c 0.712354,0 1.511355,0.177493 1.426894,-0.789674 -0.02197,-0.251651 -0.197611,-0.51408 -0.483564,-0.393782 -0.218135,0.09172 -0.154708,0.374072 -0.358231,0.462777 -0.478869,0.208607 -1.395388,0.02952 -1.917992,0.02952 h -4.541302 v -7.700592 h 4.393367 c 0.610718,0 1.432574,-0.145544 2.020732,0.01597 0.381871,0.104847 0.199665,1.382267 0.200356,1.711912 4.63e-4,0.252097 0.04549,0.593067 0.394384,0.525144 0.276877,-0.0539 0.295584,-0.347485 0.296768,-0.574555 0.0031,-0.575818 0.0028,-1.151762 0,-1.727578 -0.0011,-0.229193 -0.0023,-0.495672 -0.249466,-0.597755 -0.471711,-0.194834 -1.267074,-0.04399 -1.774278,-0.04399 h -4.047791 c -0.212409,0 -0.585018,-0.04783 -0.944533,-0.05664 z m 11.045782,0.06086 c -0.05992,0.0027 -0.119734,0.0084 -0.179265,0.01688 -1.999741,0.285712 -2.299074,2.487552 -3.122841,3.976384 -0.195723,0.353685 -0.80642,0.296478 -1.171705,0.29707 -0.860196,0.0014 -2.128436,-0.244899 -2.809199,0.404026 -0.750019,0.715021 -0.495207,2.040132 0.48899,2.39041 0.377426,0.134317 0.839069,0.06839 1.23407,0.06839 0.842081,0 1.678583,-0.01053 2.517554,-0.0473 0.484102,-0.02117 0.959116,0.05726 1.382306,-0.238921 0.608099,-0.425655 0.876819,-1.376519 1.163569,-2.033687 0.209447,-0.480054 0.430215,-0.955903 0.649875,-1.431414 0.08501,-0.184075 0.177846,-0.441707 0.02561,-0.62035 -0.429901,-0.504538 -0.819593,0.614564 -0.929771,0.867104 -0.288328,0.660919 -0.580767,1.326446 -0.897233,1.974333 -0.144189,0.295141 -0.277407,0.607675 -0.604683,0.740263 -0.366124,0.148286 -0.893609,0.04073 -1.283181,0.05031 -0.917951,0.02245 -1.950905,0.193053 -2.86313,0.03767 -0.340555,-0.058 -0.664368,-0.420897 -0.611011,-0.778827 0.08288,-0.556023 0.63187,-0.690111 1.104519,-0.690851 0.826976,-0.0014 2.084631,0.229526 2.860418,-0.07924 0.327819,-0.130515 0.490621,-0.808805 0.631799,-1.105722 0.380834,-0.800913 0.656252,-1.852177 1.255765,-2.516651 0.60509,-0.670643 1.582957,-0.748984 2.260857,-0.139797 0.599413,0.538647 0.543823,1.230732 0.543823,1.965596 v 4.343957 c 0,0.751549 0.105571,1.503008 -0.411257,2.122265 -0.651491,0.780623 -1.69746,1.372452 -2.501284,1.991807 -0.300522,0.231562 -0.837753,0.500079 -0.970144,0.872226 -0.525961,1.478664 -0.685306,3.16075 -1.047876,4.688629 -0.138808,0.584801 -0.586083,1.249435 -1.289206,1.034016 -1.267542,-0.388238 -0.563064,-2.024605 -0.362752,-2.909829 0.200957,-0.888186 0.407091,-1.775276 0.599261,-2.665487 0.09354,-0.433454 0.129194,-1.012675 0.387756,-1.382304 0.643543,-0.920074 1.912901,-1.429466 2.729659,-2.186741 0.227761,-0.211174 0.318835,-0.728795 -0.145521,-0.695671 -0.478622,0.03416 -1.108529,0.744898 -1.480826,1.025279 -0.569938,0.429308 -1.325032,0.858097 -1.722156,1.462447 -0.28349,0.431382 -0.330013,1.035275 -0.443795,1.530236 -0.249282,1.084157 -0.485546,2.171586 -0.7255,3.257816 -0.252639,1.143935 -0.675223,2.566253 0.719475,3.165322 0.203424,0.08738 0.420496,0.13686 0.64174,0.141303 1.131002,0.02265 1.617745,-0.851424 1.826402,-1.825799 0.292227,-1.364684 0.473179,-2.882916 0.945137,-4.195722 0.136982,-0.380983 0.670287,-0.657822 0.980087,-0.89422 0.802441,-0.612247 1.86082,-1.209709 2.473265,-2.018321 0.563378,-0.74375 0.488687,-1.536173 0.488687,-2.418732 v -3.99838 c 0,-0.708604 0.110041,-1.504542 -0.171131,-2.171977 -0.345878,-0.820874 -1.268278,-1.418433 -2.167157,-1.377786 z m -8.057015,1.665213 c -0.298054,-5.24e-4 -0.594683,0.0281 -0.758642,0.09491 -0.288427,0.117583 -0.294943,0.508565 0,0.624568 0.294596,0.115855 1.344154,0.137589 1.6155,-0.02832 0.243754,-0.149027 0.173622,-0.534854 -0.08948,-0.611612 -0.169729,-0.04954 -0.469323,-0.07902 -0.767376,-0.07954 z m -8.757509,3.661541 c 0.412919,0.707468 0.846873,1.620983 1.036426,2.419033 -0.575867,0.0119 -1.369589,0.273747 -1.924921,0.06869 -0.208904,-0.07715 -0.355105,-0.287949 -0.476638,-0.463681 -0.152975,-0.221243 -0.446712,-0.588769 -0.391673,-0.880059 0.03544,-0.187628 0.278095,-0.315373 0.423913,-0.410051 0.419039,-0.272187 0.871399,-0.541717 1.332893,-0.733934 z m -9.9680813,5.101689 c -0.067986,0.0019 -0.1349205,0.0075 -0.2000546,0.01747 -0.3532404,0.05386 -0.4469032,0.526697 -0.097316,0.669158 0.3497357,0.142511 0.8086277,0.07634 1.1825514,0.202164 1.1342104,0.381723 2.0484585,1.33793 2.3458203,2.500079 0.4190906,1.638007 -0.4476845,3.309256 -1.9508331,4.035137 -0.4966396,0.239805 -1.1757171,0.154134 -1.6236355,0.408847 -0.3122693,0.177558 -0.1713354,0.571036 0.14281,0.629086 1.8456278,0.34095 3.7062873,-1.520352 4.1228109,-3.147845 0.5144577,-2.010394 -0.5318322,-4.2342 -2.4940553,-4.99503 -0.4189241,-0.162446 -0.952198,-0.332355 -1.4281001,-0.319062 z m 29.2109783,0.405833 c -0.02812,-0.0019 -0.05765,-3.24e-4 -0.08919,0.0054 -0.592206,0.108054 0.0093,1.606952 0.304298,1.830318 1.285262,0.973287 2.875055,1.552364 4.136671,2.555516 0.585,0.465097 0.548341,1.352131 -0.147329,1.701669 -0.590923,0.296917 -1.147475,-0.15668 -1.629059,-0.460065 -1.282544,-0.807821 -2.764052,-1.48447 -3.948365,-2.429275 -0.440268,-0.351217 -0.357302,-0.877382 -0.646864,-1.295534 -0.126763,-0.183137 -0.408415,-0.231806 -0.557984,-0.0464 -0.143547,0.178052 -0.04167,0.435908 0.01266,0.627881 0.155345,0.548964 0.357667,1.02433 0.846013,1.356394 1.271983,0.864887 2.63182,1.630263 3.948969,2.424758 0.734421,0.442981 1.459225,0.882467 2.320211,0.457354 0.970473,-0.479217 1.223138,-1.767119 0.566118,-2.609447 -0.312518,-0.400601 -0.83433,-0.626445 -1.257272,-0.891178 -0.91588,-0.573302 -1.839353,-1.137103 -2.764308,-1.695643 -0.172278,-0.104008 -0.365639,-0.196338 -0.466091,-0.379623 -0.153873,-0.280673 -0.206696,-1.123665 -0.628485,-1.152121 z m -16.044435,4.024289 c -0.102533,-0.0064 -0.228019,0.01771 -0.382033,0.08135 -0.391842,0.16196 -0.188324,0.602366 0.145221,0.654394 v 0.444399 c -0.899441,0 -1.819701,-0.04939 -2.714896,0.01898 -0.273718,0.02088 -0.777248,-0.09085 -0.8662,0.278089 -0.112152,0.465191 0.480628,0.443192 0.767377,0.443192 h 2.320211 c 0.284281,0 0.727864,0.08233 0.984304,-0.05814 0.271348,-0.148582 0.200357,-0.521928 0.200357,-0.780936 0,-0.45205 -0.01003,-1.053635 -0.454341,-1.081319 z" />
    <text
       xml:space="preserve"
       style="font-style:normal;font-weight:normal;font-size:19.9392px;line-height:1.25;font-family:sans-serif;text-align:end;text-anchor:end;fill:#000000;fill-opacity:1;stroke:none;stroke-width:0.498481"
       x="104.56941"
       y="25.238457"
       id="text9178"
       transform="scale(0.98877952,1.0113478)"><tspan
         sodipodi:role="line"
         style="text-align:end;text-anchor:end;fill:#ffffff;stroke-width:0.498481"
         x="104.56941"
         y="25.238457"
         id="tspan39990">Afgehaald</tspan></text>
    <text
       xml:space="preserve"
       style="font-style:normal;font-weight:normal;font-size:23.7352px;line-height:1.25;font-family:sans-serif;text-align:end;text-anchor:end;display:inline;fill:#000000;fill-opacity:1;stroke:none;stroke-width:0.593382"
       x="99.380585"
       y="57.402794"
       id="text9178-0"
       transform="scale(1.0282638,0.97251308)"><tspan
         sodipodi:role="line"
         style="text-align:end;text-anchor:end;fill:#ffffff;stroke-width:0.593382"
         x="99.380585"
         y="57.402794"
         id="tspan70379">klant</tspan></text>
    <text
       xml:space="preserve"
       style="font-style:normal;font-weight:normal;font-size:6.69089px;line-height:1.25;font-family:sans-serif;text-align:end;text-anchor:end;display:inline;fill:#000000;fill-opacity:1;stroke:none;stroke-width:0.167273"
       x="98.812706"
       y="37.458893"
       id="text9178-0-3"
       transform="scale(1.0282638,0.97251308)"><tspan
         sodipodi:role="line"
         style="text-align:end;text-anchor:end;fill:#ffffff;stroke-width:0.167273"
         x="98.812706"
         y="37.458893"
         id="tspan70379-0">door</tspan></text>
  </g>
</svg>
