<?xml version="1.0" encoding="UTF-8" standalone="no"?>
<svg
   viewBox="0 0 50.000001 50.000002"
   height="50"
   width="50"
   id="svg2"
   version="1.1"
   sodipodi:docname="prepared_white.svg"
   inkscape:version="1.1.2 (b8e25be833, 2022-02-05)"
   xmlns:inkscape="http://www.inkscape.org/namespaces/inkscape"
   xmlns:sodipodi="http://sodipodi.sourceforge.net/DTD/sodipodi-0.dtd"
   xmlns="http://www.w3.org/2000/svg"
   xmlns:svg="http://www.w3.org/2000/svg"
   xmlns:rdf="http://www.w3.org/1999/02/22-rdf-syntax-ns#"
   xmlns:cc="http://creativecommons.org/ns#"
   xmlns:dc="http://purl.org/dc/elements/1.1/">
  <sodipodi:namedview
     id="namedview22"
     pagecolor="#ffffff"
     bordercolor="#111111"
     borderopacity="1"
     inkscape:pageshadow="0"
     inkscape:pageopacity="0"
     inkscape:pagecheckerboard="1"
     showgrid="false"
     inkscape:zoom="16.46"
     inkscape:cx="25"
     inkscape:cy="25.030377"
     inkscape:window-width="1920"
     inkscape:window-height="1009"
     inkscape:window-x="-8"
     inkscape:window-y="-8"
     inkscape:window-maximized="1"
     inkscape:current-layer="svg2" />
  <metadata
     id="metadata8">
    <rdf:RDF>
      <cc:Work
         rdf:about="">
        <dc:format>image/svg+xml</dc:format>
        <dc:type
           rdf:resource="http://purl.org/dc/dcmitype/StillImage" />
      </cc:Work>
    </rdf:RDF>
  </metadata>
  <defs
     id="defs6" />
  <path
     id="path4520"
     d="M 12.918752,48.813651 H 10.598131 8.2775087 l -2.2498053,0.05641 c 0,0 0.00831,-4.452085 0.00831,-5.887406 V 41.434524 H 3.3470656 c -2.1730374,0 -2.72415945,-0.09331 -2.87247885,-0.486342 -0.1009433,-0.267488 -0.1835331,-8.552061 -0.1835331,-18.41016 0,-14.7352945 0.0731374,-17.985538 0.4111315,-18.2707767 C 1.0016484,4.0145229 7.6744057,3.9416635 25.269442,3.9990003 l 24.156122,0.078715 0.07794,18.6784017 0.07794,18.678405 H 32.4954 15.409365 v 1.570214 c 0,1.310125 -0.03085,5.811832 -0.03085,5.811832 z m -2.885694,-5.607459 c 0.07673,-3.400746 0.139584,-3.773351 0.653399,-3.873551 0.908644,-0.17719 1.084965,0.501912 1.089884,4.197688 l 0.0047,3.479388 0.831506,-0.09729 0.863538,0.03299 0.04835,-8.475062 c 0.03936,-6.899189 0.157473,-8.409831 0.525291,-8.720238 0.244694,-0.206502 0.650728,-0.295142 0.9023,-0.196977 0.361567,0.141085 0.457399,0.760257 0.457399,2.955298 0,2.571845 0.04463,2.77682 0.604732,2.77682 0.568083,0 0.604731,-0.204975 0.604731,-3.382095 0,-4.7854 0.131804,-4.683778 -5.909558,-4.556421 -5.9917129,0.126314 -5.9945117,0.128364 -6.1199287,4.487477 -0.089369,3.106233 0.14049,3.980019 0.9626037,3.659222 0.3907398,-0.152466 0.4840657,-0.687347 0.4840657,-2.774325 0,-2.692267 0.3683094,-3.55169 1.3567974,-3.165976 0.3932365,0.153441 0.4573999,1.38749 0.4573999,8.797109 v 8.618619 h 1.0489157 1.048976 z M 4.9021388,39.699865 C 5.9691777,39.520523 6.0359715,39.443701 6.0353229,38.396536 6.0346642,37.366165 5.9656651,37.281257 5.1031585,37.249748 4.587781,37.230915 3.878975,36.91835 3.5164256,36.550029 2.9484457,35.97301 2.8471957,35.471681 2.7562775,32.78626 c -0.12445,-3.675829 0.3735996,-5.407202 1.8670436,-6.490419 0.8891105,-0.64488 1.3234148,-0.701962 5.9481849,-0.781712 5.417695,-0.09342 5.94843,0.02425 7.076459,1.569032 0.56434,0.772843 0.63388,1.290127 0.63388,4.715439 0,3.834378 -0.003,3.849875 -0.848368,4.589402 -0.466604,0.408122 -1.11291,0.74204 -1.43624,0.74204 -0.495328,0 -0.587872,0.218227 -0.587872,1.38626 v 1.386251 l 16.252185,-0.07954 16.252183,-0.07953 0.07816,-16.987356 0.07815,-16.9873549 H 25.087645 2.1052513 V 22.628015 c 0,9.272588 0.09071,16.951487 0.2015775,17.064222 0.2496133,0.253822 1.11541,0.256367 2.59531,0.0076 z M 21.381097,38.027804 c -0.471951,-0.279521 -0.525272,-0.851736 -0.493367,-5.294394 0.0197,-2.739552 0.122427,-5.396076 0.228334,-5.903392 0.17687,-0.847236 0.307942,-0.929963 1.608683,-1.015333 1.286291,-0.08442 1.424755,-0.168986 1.51027,-0.92239 l 0.09415,-0.82945 2.979039,-0.08838 c 3.208534,-0.0952 3.824203,0.120383 3.824203,1.339033 0,0.63386 0.161504,0.724703 1.43624,0.807878 l 1.43624,0.09371 0.09114,4.765684 c 0.05014,2.621124 0.0078,5.353707 -0.09412,6.072402 l -0.185272,1.30672 -5.953202,-0.0093 c -3.478378,-0.0054 -6.17318,-0.139634 -6.48235,-0.322746 z m 10.960778,-5.817175 c 0,-4.099516 -0.02876,-4.30449 -0.604733,-4.30449 -0.390011,0 -0.604733,0.204974 -0.604733,0.57728 0,1.027156 -0.627938,1.192537 -3.779578,0.995419 -3.021538,-0.188981 -3.023729,-0.189708 -3.119336,-1.034636 -0.07515,-0.664113 -0.253554,-0.845527 -0.831509,-0.845527 h -0.735832 v 4.458217 4.458225 h 4.83786 4.837861 z m -3.023663,-5.380611 v -1.076123 h -1.663017 c -1.624477,0 -1.663012,0.02019 -1.663012,0.871147 0,1.168851 0.163372,1.281097 1.864593,1.281097 h 1.461436 z M 36.575,35.28526 v -0.92239 h 4.686677 4.686674 v 0.92239 0.922391 H 41.261677 36.575 Z m 0,-3.085036 v -0.932792 l 3.25044,0.08727 3.250435,0.08727 0.09567,0.845523 0.09567,0.845525 h -3.346111 -3.346113 z m 0,-2.756768 v -0.922391 h 4.686677 4.686674 v 0.922391 0.922392 H 41.261677 36.575 Z m 0.179833,-5.401008 c -2.97767,-0.734619 -5.544197,-1.468119 -5.703398,-1.630004 -0.184358,-0.18747 0.194631,-2.341376 1.04384,-5.932428 l 1.333291,-5.638097 1.522786,0.08111 c 1.37002,0.07296 1.557524,0.0035 1.869099,-0.691793 0.416542,-0.9296164 0.415601,-0.9296008 3.836494,-0.06577 l 2.721294,0.687173 -0.0416,0.966097 c -0.03841,0.89186 0.05772,0.991531 1.251095,1.297092 0.710986,0.182046 1.356935,0.505862 1.435437,0.719591 0.179605,0.488976 -2.156649,10.706328 -2.567043,11.226684 -0.410861,0.52095 -0.530305,0.50278 -6.701288,-1.019654 z m 6.278917,-4.360956 c 0.448313,-1.986982 0.895173,-3.924001 0.993023,-4.304487 0.264853,-1.029841 -1.016884,-0.959691 -1.404448,0.07686 -0.351582,0.940325 -0.834801,0.946436 -4.081941,0.05164 -2.329404,-0.641899 -2.422355,-0.702391 -2.511378,-1.634448 -0.06102,-0.63884 -0.285708,-1.019269 -0.660927,-1.119045 -0.501756,-0.133424 -0.677224,0.306042 -1.494976,3.744256 -0.509571,2.142483 -0.926386,4.098817 -0.926251,4.347412 1.8e-4,0.326467 1.112785,0.719212 4.006355,1.414226 2.203358,0.529231 4.289455,0.978897 4.63577,0.999257 0.561754,0.03303 0.717579,-0.352628 1.444773,-3.575678 z m -1.670884,-6.492194 c 0.135965,-0.977155 -0.178688,-1.230609 -1.810006,-1.457976 -1.338346,-0.186533 -1.387279,-0.164767 -1.548503,0.688842 -0.199197,1.05462 -0.208755,1.042309 1.049821,1.352275 1.574616,0.387803 2.195411,0.231 2.308688,-0.583141 z M 8.5324167,24.325832 c -2.137964,-1.07174 -3.0629168,-4.612975 -1.695243,-6.490332 1.1634087,-1.59697 2.514984,-2.297959 4.1348133,-2.144501 2.541015,0.240729 4.190111,1.994981 4.227227,4.49678 0.05123,3.45338 -3.560541,5.695191 -6.6667973,4.138053 z m 3.9404773,-1.957781 c 1.020698,-0.816417 1.293511,-2.149783 0.684773,-3.346796 -1.282109,-2.521121 -4.7595873,-1.883977 -5.2037684,0.953437 -0.1540225,0.983888 -0.053013,1.266084 0.7428641,2.075377 1.109905,1.128617 2.6052353,1.254535 3.7761313,0.317982 z M 16.7692,21.680004 c -0.170312,-0.492079 -0.752251,-8.53945 -0.753872,-10.424905 l -0.0012,-1.4315984 1.51183,-0.2114361 c 1.400331,-0.1958412 1.511831,-0.2742521 1.511831,-1.0631818 0,-0.7802036 0.117837,-0.8681703 1.402852,-1.0472701 0.771567,-0.1075381 2.271682,-0.1955236 3.333585,-0.1955236 1.898263,0 1.933753,0.015334 2.110024,0.9115386 0.172338,0.8762251 0.229069,0.9045981 1.464402,0.732423 0.857396,-0.1195001 1.361445,-0.053533 1.514441,0.1981926 0.403928,0.6645871 0.962588,11.4016788 0.6157,11.8334138 -0.208928,0.260025 -2.106643,0.50312 -5.754327,0.737121 -6.733235,0.431938 -6.792436,0.431608 -6.955236,-0.03877 z m 9.025382,-1.963509 2.070146,-0.180235 -0.215979,-4.193439 c -0.118788,-2.306392 -0.276012,-4.297208 -0.349382,-4.424037 -0.07337,-0.126829 -0.397509,-0.230597 -0.720298,-0.230597 -0.447899,0 -0.586886,0.214139 -0.586886,0.904244 0,0.497335 -0.102052,0.968187 -0.226776,1.046339 -0.124726,0.07816 -1.621334,0.242492 -3.325799,0.365199 l -3.099027,0.223107 -0.189206,-0.961981 c -0.137243,-0.69778 -0.357435,-0.961981 -0.801747,-0.961981 -0.586608,0 -0.604278,0.12691 -0.417318,2.997768 0.107371,1.648772 0.195927,3.669662 0.196787,4.49086 l 0.0016,1.493093 2.79689,-0.194053 c 1.538288,-0.106728 3.72845,-0.275156 4.867035,-0.374287 z m -1.673031,-9.56637 0.09475,-0.9992559 H 22.53413 20.851956 v 1.0921909 1.092189 l 1.587422,-0.09293 c 1.548024,-0.09063 1.589775,-0.117736 1.682173,-1.092189 z"
     style="display:none;fill:#000000;stroke-width:0.30490419" />
  <g
     transform="matrix(0.09189557,0,0,0.09189557,12.909252,30.22423)"
     id="g1568"
     style="fill:#ffffff">
    <g
       transform="translate(-125.15167,-313.56953)"
       id="g887"
       style="fill:#ffffff">
      <g
         id="g885"
         style="fill:#ffffff">
        <path
           d="M 237.498,52.752 H 46.662 c -4.655,0 -7.758,3.103 -7.758,7.758 0,3.879 3.879,7.758 7.758,7.758 h 190.836 c 4.655,0 7.758,-3.103 7.758,-7.758 0,-4.655 -3.103,-7.758 -7.758,-7.758 z"
           id="path883"
           style="fill:#ffffff" />
      </g>
    </g>
    <g
       transform="translate(-125.15167,-313.56953)"
       id="g893"
       style="fill:#ffffff">
      <g
         id="g891"
         style="fill:#ffffff">
        <path
           d="M 237.498,103.176 H 46.662 c -4.655,0 -7.758,3.103 -7.758,7.758 0,4.655 3.879,7.758 7.758,7.758 h 190.836 c 4.655,0 7.758,-3.103 7.758,-7.758 0,-4.655 -3.103,-7.758 -7.758,-7.758 z"
           id="path889"
           style="fill:#ffffff" />
      </g>
    </g>
    <g
       transform="translate(-125.15167,-313.56953)"
       id="g899"
       style="fill:#ffffff">
      <g
         id="g897"
         style="fill:#ffffff">
        <path
           d="M 237.498,154.376 H 46.662 c -4.655,0 -7.758,3.103 -7.758,7.758 0,3.879 3.879,7.758 7.758,7.758 h 190.836 c 4.655,0 7.758,-3.103 7.758,-7.758 0,-4.655 -3.103,-7.758 -7.758,-7.758 z"
           id="path895"
           style="fill:#ffffff" />
      </g>
    </g>
    <g
       transform="translate(-125.15167,-313.56953)"
       id="g905"
       style="fill:#ffffff">
      <g
         id="g903"
         style="fill:#ffffff">
        <path
           d="m 505.91,455.37 -55.079,-79.127 c -2.327,-3.103 -6.982,-4.655 -10.861,-2.327 l -17.842,11.636 -15.515,-22.497 c 48.097,-36.461 57.406,-100.849 23.273,-152.824 0,0 0,0 0,-0.776 V 137.31 c 0,-1.552 -0.776,-4.655 -2.327,-6.206 L 287.923,0.776 C 286.372,0.776 284.044,0 282.493,0 H 7.874 C 3.22,0 0.117,3.103 0.117,7.758 v 496.485 c 0,4.655 3.103,7.758 7.758,7.758 H 422.13 c 4.655,0 7.758,-3.103 7.758,-7.758 v -30.255 l 15.515,22.497 c 11.636,16.291 34.133,20.945 50.424,10.085 17.065,-11.637 21.72,-34.134 10.083,-51.2 z M 391.874,355.297 c -44.994,30.255 -107.055,17.842 -138.861,-27.152 -31.03,-44.994 -20.17,-105.503 25.6,-135.758 45.77,-30.255 108.606,-18.618 138.861,27.151 31.03,47.323 20.17,105.504 -25.6,135.759 z M 56.747,311.855 161.474,351.419 V 452.267 L 56.747,410.376 Z m -8.533,-19.394 v -20.17 c 11.636,4.655 94.642,36.461 112.485,43.442 v 19.394 z m 14.739,-31.031 106.279,-38.012 55.079,20.17 c -3.103,11.636 -4.655,23.273 -3.103,37.236 l -51.976,20.17 C 152.941,295.564 78.468,266.861 62.953,261.43 Z m 165.236,53.528 -51.976,20.17 v -19.394 l 46.545,-18.618 c 1.553,6.205 3.104,11.636 5.431,17.842 z m -51.975,36.46 58.958,-22.497 c 10.085,17.842 24.048,31.806 41.115,41.891 v 43.442 L 176.214,452.266 Z M 290.25,25.6 402.735,130.327 H 290.25 Z M 415.147,496.485 H 414.371 15.632 V 15.515 h 259.103 v 122.57 c 0,4.655 3.103,7.758 7.758,7.758 h 131.879 v 46.545 c -38.788,-37.236 -99.297,-42.667 -144.291,-12.412 -18.618,12.412 -32.582,29.479 -41.115,49.648 L 171.56,208.679 c -1.552,-0.776 -3.879,-0.776 -5.43,0 l -128,44.994 c -3.103,1.552 -5.43,4.655 -5.43,6.982 v 36.461 c 0,3.103 2.327,6.206 4.655,6.982 l 3.103,1.552 v 109.38 c 0,3.103 2.327,6.206 4.655,6.982 l 120.242,47.321 c 1.552,0.776 3.879,0.776 5.43,0 l 116.364,-42.667 c 3.103,-0.776 4.655,-3.879 4.655,-6.982 V 378.57 c 33.358,13.964 70.594,11.636 102.4,-6.206 l 15.515,22.497 -17.067,11.636 c -1.552,0.776 -3.103,3.103 -3.103,4.655 -0.776,2.327 0,3.879 1.552,6.206 l 24.048,34.909 v 44.218 z m 72.145,-3.103 c -9.309,6.206 -22.497,3.879 -29.479,-6.206 l -50.424,-72.921 34.909,-23.273 50.424,72.921 c 6.982,10.085 4.655,22.497 -5.43,29.479 z"
           id="path901"
           style="fill:#ffffff" />
      </g>
    </g>
    <g
       transform="translate(-125.15167,-313.56953)"
       id="g911"
       style="fill:#ffffff">
      <g
         id="g909"
         style="fill:#ffffff">
        <path
           d="m 316.626,339.006 c -17.067,-4.655 -31.806,-16.291 -40.339,-32.582 -8.533,-15.515 -10.861,-34.133 -5.43,-51.976 1.552,-3.879 -1.552,-8.533 -5.43,-9.309 -3.879,-1.552 -8.533,1.552 -9.309,5.43 -6.206,21.721 -3.879,44.218 6.982,63.612 10.861,19.394 28.703,33.358 49.648,39.564 0.776,0 1.552,0 2.327,0 3.103,0 6.206,-2.327 7.758,-5.43 -0.001,-3.879 -2.329,-7.757 -6.207,-9.309 z"
           id="path907"
           style="fill:#ffffff" />
      </g>
    </g>
  </g>
</svg>
