<svg xmlns="http://www.w3.org/2000/svg" viewBox="0 0 512 512"><path d="M113.566 498.275c6.83-6.822 12.417-12.812 12.417-13.312s-16.34-17.317-36.31-37.372c-22.19-22.285-37.567-38.487-39.546-41.668-16.587-26.67-16.074-59.085 1.347-85.176 3.14-4.704 159.553-161.834 161.095-161.834.53 0 3.73 2.805 7.11 6.233 12.207 12.376 12.073 12.317 78.111 34.33 32.773 10.924 62.586 20.582 66.253 21.462 6.283 1.508 7.09 1.505 14.036-.04 17.984-4 34.846-17.976 50.811-42.11 8.316-12.572 14.565-19.95 20.099-23.731 12.124-8.284 16.815-15.477 15.328-23.503-1.57-8.473-7.3-12.777-18.145-13.627-3.735-.293-8.056-1.188-9.604-1.988s-6.447-5.832-10.888-11.181c-22.59-27.21-34.486-35.666-65.638-46.655-22.061-7.782-28.734-12.184-30.183-19.907-.797-4.246.084-10.99 1.95-14.932.78-1.649 2.464-6.192 3.741-10.096 2.248-6.87 2.27-7.189.671-9.937-3.61-6.21-11.292-3.463-28.085 10.045-9.302 7.483-18.999 19.22-24.04 29.103-2.761 5.413-9.421 12.135-12.842 12.963-10.041 2.429-8.558 1.034-126.542 119.014-62.138 62.135-115.63 116.27-118.872 120.3C14.275 309.03 8.399 322.04 3.58 343.933c-5.165 23.473-.507 52.626 11.93 74.651 7.373 13.06 12.598 18.97 48.947 55.36l36.692 36.732 12.417-12.402zm255.64-326.076c-15.514-4.05-18.69-4.929-20.347-5.632-1.041-.442-7.003-2.6-13.25-4.796-14.114-4.96-37.406-16.15-47.91-23.014-14.827-9.69-19.063-15.59-19.172-26.702-.05-5.17.42-7.573 2.126-10.883 4.621-8.96 11.384-13.555 20.091-13.653 6.097-.067 8.31.891 17.42 7.547 10.595 7.741 18.863 13.362 23.15 15.738 2.192 1.215 5.12 2.871 6.506 3.68 9.653 5.633 21.376 11.083 35.645 16.57 11.46 4.408 14.417 5.992 17.074 9.15 3.977 4.726 5.33 13.317 3.11 19.751-3.588 10.405-13.147 15.193-24.443 12.244zM154.375 443.78v-13.25H179.874l.263-13.013.264-13.013 13.46-.262 13.46-.263.263-13.46.262-13.46 12.986-.264 12.987-.263.263-12.986.263-12.987 12.987-.263 12.986-.263.263-12.986.263-12.987 13.46-.262 13.46-.263.263-13.46.263-13.46 13.013-.263 13.013-.264V270.588H340.815V244.32l-5.442-1.954c-2.993-1.074-11.538-3.973-18.988-6.442l-13.546-4.488-99.785 99.781c-54.882 54.88-99.785 100.158-99.785 100.618 0 .46 5.48 6.317 12.178 13.015l12.179 12.178H154.375v-13.25z"/></svg>
