<?xml version="1.0" encoding="UTF-8" standalone="no"?>
<!-- Created with Inkscape (http://www.inkscape.org/) -->

<svg
   width="208.04054"
   height="107.90904"
   viewBox="0 0 55.044062 28.550935"
   version="1.1"
   id="svg5"
   inkscape:version="1.1.2 (b8e25be833, 2022-02-05)"
   sodipodi:docname="ijzershop_mobile.svg"
   xmlns:inkscape="http://www.inkscape.org/namespaces/inkscape"
   xmlns:sodipodi="http://sodipodi.sourceforge.net/DTD/sodipodi-0.dtd"
   xmlns="http://www.w3.org/2000/svg"
   xmlns:svg="http://www.w3.org/2000/svg">
  <sodipodi:namedview
     id="namedview7"
     pagecolor="#ffffff"
     bordercolor="#111111"
     borderopacity="1"
     inkscape:pageshadow="0"
     inkscape:pageopacity="0"
     inkscape:pagecheckerboard="1"
     inkscape:document-units="mm"
     showgrid="false"
     units="px"
     inkscape:zoom="0.54866745"
     inkscape:cx="246.05068"
     inkscape:cy="-383.6568"
     inkscape:window-width="1023"
     inkscape:window-height="1000"
     inkscape:window-x="1913"
     inkscape:window-y="0"
     inkscape:window-maximized="0"
     inkscape:current-layer="layer1" />
  <defs
     id="defs2" />
  <g
     inkscape:label="Layer 1"
     inkscape:groupmode="layer"
     id="layer1"
     transform="translate(-1.981737,-0.92817846)">
    <path
       d="M 7.5868431,8.8247853 V 10.169861 H 4.0648694 L 3.2382836,9.4973227 V 5.7649948 L 4.0648694,5.0359837 h 3.5219737 v 1.4631548 h -2.577304 v 0.4774507 1.3450764 0.03593 0.467183 z"
       style="font-size:40px;-inkscape-font-specification:'IJzershop, Normal';text-align:end;letter-spacing:0px;word-spacing:0px;text-anchor:end;fill:#000000;stroke-width:0.0490403"
       id="path77036" />
    <path
       d="m 12.002144,5.0359837 0.764977,0.6263332 V 9.4819207 L 11.930267,10.169861 H 8.8036169 L 8.125919,9.4819207 V 5.6623169 L 8.9062982,5.0359837 Z M 11.093413,8.7939823 V 6.3810595 H 9.7996263 v 2.4129228 z"
       style="font-size:40px;-inkscape-font-specification:'IJzershop, Normal';text-align:end;letter-spacing:0px;word-spacing:0px;text-anchor:end;fill:#000000;stroke-width:0.0490403"
       id="path77038" />
    <path
       d="M 16.66388,10.169861 14.487035,7.4335049 V 10.169861 H 13.259991 V 5.0359837 h 1.227044 v 0 L 16.66388,7.7980099 V 5.0359837 h 1.334862 v 5.1338773 z"
       style="font-size:40px;-inkscape-font-specification:'IJzershop, Normal';text-align:end;letter-spacing:0px;word-spacing:0px;text-anchor:end;fill:#000000;stroke-width:0.0490403"
       id="path77040" />
    <path
       d="m 23.096867,6.5248075 h -2.905886 v 0.4723177 h 2.089571 l 0.816315,0.6211987 V 9.4921887 L 22.280552,10.159593 H 18.563481 V 8.8299183 H 21.49504 V 8.3267996 H 19.31819 L 18.563481,7.6645289 V 5.8009318 l 0.898463,-0.7238771 h 3.634923 z"
       style="font-size:40px;-inkscape-font-specification:'IJzershop, Normal';text-align:end;letter-spacing:0px;word-spacing:0px;text-anchor:end;fill:#000000;stroke-width:0.0490403"
       id="path77042" />
    <path
       d="M 28.251477,5.0359837 V 6.4837375 H 26.870414 V 10.159593 H 25.058082 V 6.4837375 H 23.697557 V 5.0359837 Z"
       style="font-size:40px;-inkscape-font-specification:'IJzershop, Normal';text-align:end;letter-spacing:0px;word-spacing:0px;text-anchor:end;fill:#000000;stroke-width:0.0490403"
       id="path77044" />
    <path
       d="m 33.462559,5.7547268 v 1.4015484 l -0.826584,0.6982064 0.826584,0.5852627 V 10.169861 H 31.809386 V 8.4397443 H 30.572077 V 10.169861 H 28.831624 V 6.4991385 5.0359837 h 1.740453 2.063898 z M 31.814521,6.7661002 V 6.2783815 h -1.242444 l -0.01541,0.4877187 h 0.01541 1.237309 z"
       style="font-size:40px;-inkscape-font-specification:'IJzershop, Normal';text-align:end;letter-spacing:0px;word-spacing:0px;text-anchor:end;fill:#000000;stroke-width:0.0490403"
       id="path77046" />
    <path
       d="M 38.689046,10.169861 H 37.764911 Z M 36.902391,5.0411175 h 1.786655 V 8.5424213 9.4973227 L 37.764911,10.169861 H 34.889835 L 33.970832,9.4973227 V 8.5424213 5.0411175 h 1.755856 v 0.6776723 1.5504314 1.1653891 0.107811 0.3953097 h 1.175703 V 8.5424213 8.4346103 7.2692212 5.7187898 Z m -2.931559,5.1287435 h 0.919003 z"
       style="font-size:40px;-inkscape-font-specification:'IJzershop, Normal';text-align:end;letter-spacing:0px;word-spacing:0px;text-anchor:end;fill:#000000;stroke-width:0.0490403"
       id="path77048" />
    <path
       d="M 43.622893,8.8247853 V 10.169861 H 40.100921 L 39.274331,9.4973227 V 5.7649948 l 0.82659,-0.7290111 h 3.521972 v 1.4631548 h -2.577305 v 0.4774507 1.3450764 0.03593 0.467183 z"
       style="font-size:40px;-inkscape-font-specification:'IJzershop, Normal';text-align:end;letter-spacing:0px;word-spacing:0px;text-anchor:end;fill:#000000;stroke-width:0.0490403"
       id="path77050" />
    <path
       d="M 48.715885,5.0359837 V 6.4837375 H 47.334821 V 10.159593 H 45.522496 V 6.4837375 H 44.161968 V 5.0359837 Z"
       style="font-size:40px;-inkscape-font-specification:'IJzershop, Normal';text-align:end;letter-spacing:0px;word-spacing:0px;text-anchor:end;fill:#000000;stroke-width:0.0490403"
       id="path77052" />
    <path
       d="M 49.296038,10.169861 V 5.0359837 h 1.832866 v 5.1338773 z"
       style="font-size:40px;-inkscape-font-specification:'IJzershop, Normal';text-align:end;letter-spacing:0px;word-spacing:0px;text-anchor:end;fill:#000000;stroke-width:0.0490403"
       id="path77054" />
    <path
       d="m 56.350248,6.4991385 h -2.921283 v 0.4774507 h 2.156312 v 1.3450764 h -2.156312 v 0.5031197 h 2.921283 V 10.169861 H 52.484295 L 51.657709,9.4973227 V 5.7649948 l 0.826586,-0.7290111 h 3.865953 z"
       style="font-size:40px;-inkscape-font-specification:'IJzershop, Normal';text-align:end;letter-spacing:0px;word-spacing:0px;text-anchor:end;fill:#000000;stroke-width:0.0490403"
       id="path77056" />
    <path
       d="m 16.655071,13.578908 v 4.025266 l -1.533492,1.282777 1.533492,1.282776 v 1.120587 2.639276 0.265402 l -2.37396,2.064239 H 8.3535755 3.3549773 v -4.202199 -6.915201 -3.627162 h 4.9985982 5.9275355 z m -8.3014955,7.711406 v 0.766718 h 3.5535705 v -0.766718 0 z M 11.907146,15.71687 H 8.3535755 v 0.766718 0 h 3.5535705 z"
       style="font-size:40px;-inkscape-font-specification:'IJzershop, Normal';text-align:end;letter-spacing:0px;word-spacing:0px;text-anchor:end;fill:#00127e;stroke-width:0.0565041"
       id="path77058" />
    <path
       d="m 29.232657,11.514669 2.19702,1.798837 v 10.969955 h -0.01475 v 1.97577 h -2.388709 -2.403449 v -3.951542 h -3.71577 v 3.951542 H 20.046444 18.100087 V 15.377745 13.313506 l 2.241258,-1.798837 z m -2.609885,5.986292 v -2.123216 h -3.715769 v 2.123216 z"
       style="font-size:40px;-inkscape-font-specification:'IJzershop, Normal';text-align:end;letter-spacing:0px;word-spacing:0px;text-anchor:end;fill:#00127e;stroke-width:0.0565041"
       id="path77060" />
    <path
       d="m 37.829059,11.514669 v 10.881487 h 5.426202 v 3.863075 H 32.830467 V 11.514669 Z"
       style="font-size:40px;-inkscape-font-specification:'IJzershop, Normal';text-align:end;letter-spacing:0px;word-spacing:0px;text-anchor:end;fill:#00127e;stroke-width:0.0565041"
       id="path77062" />
    <path
       d="m 53.915966,11.514669 h 2.373968 v 2.064239 2.90468 1.120586 l -2.373968,2.005261 2.373968,1.680879 v 4.968917 h -4.733183 v -4.968917 h -1.327063 v 4.968917 H 45.039409 V 11.514669 h 2.786822 0.162202 2.241255 v 4.968919 h 1.327063 v -4.968919 z"
       style="font-size:40px;-inkscape-font-specification:'IJzershop, Normal';text-align:end;letter-spacing:0px;word-spacing:0px;text-anchor:end;fill:#00127e;stroke-width:0.0565041"
       id="path77064" />
  </g>
</svg>
