<?xml version="1.0" encoding="UTF-8" standalone="no"?>
<!-- Created with Inkscape (http://www.inkscape.org/) -->

<svg
   width="158.72mm"
   height="19.451mm"
   version="1.1"
   viewBox="0 0 158.72 19.451"
   id="svg22"
   sodipodi:docname="ijzershop-menu-logo.svg"
   inkscape:version="1.1.2 (b8e25be833, 2022-02-05)"
   xmlns:inkscape="http://www.inkscape.org/namespaces/inkscape"
   xmlns:sodipodi="http://sodipodi.sourceforge.net/DTD/sodipodi-0.dtd"
   xmlns="http://www.w3.org/2000/svg"
   xmlns:svg="http://www.w3.org/2000/svg">
  <defs
     id="defs26" />
  <sodipodi:namedview
     id="namedview24"
     pagecolor="#ffffff"
     bordercolor="#111111"
     borderopacity="1"
     inkscape:pageshadow="0"
     inkscape:pageopacity="0"
     inkscape:pagecheckerboard="1"
     inkscape:document-units="mm"
     showgrid="false"
     inkscape:zoom="0.88183331"
     inkscape:cx="250.04726"
     inkscape:cy="179.17218"
     inkscape:window-width="1920"
     inkscape:window-height="1009"
     inkscape:window-x="1912"
     inkscape:window-y="-8"
     inkscape:window-maximized="1"
     inkscape:current-layer="svg22" />
  <path
     d="m 9.9823997,12.193454 v 2.955264 H 2.2445744 L 0.42855348,13.671086 V 5.4707948 L 2.2445744,3.8690873 H 9.9823997 V 7.083782 H 4.3200255 v 1.0490059 2.9552621 0.07896 1.026446 z"
     id="path969"
     style="font-size:40px;line-height:1.25;letter-spacing:0px;word-spacing:0px;fill:#ffffff;stroke-width:0.107744" />
  <path
     d="m 19.682878,3.8690873 1.680664,1.3761149 v 8.3920448 l -1.838579,1.511471 H 12.655668 L 11.166757,13.637247 V 5.2452022 L 12.881261,3.8690873 Z M 17.686383,12.125776 V 6.8243502 h -2.842466 v 5.3014258 z"
     id="path971"
     style="font-size:40px;line-height:1.25;letter-spacing:0px;word-spacing:0px;fill:#ffffff;stroke-width:0.107744" />
  <path
     d="M 29.924782,15.148718 25.142219,9.1366748 V 15.148718 H 22.446388 V 3.8690873 h 2.695831 v 0 l 4.782563,6.0684413 V 3.8690873 h 2.932704 V 15.148718 Z"
     id="path973"
     style="font-size:40px;line-height:1.25;letter-spacing:0px;word-spacing:0px;fill:#ffffff;stroke-width:0.107744" />
  <path
     d="m 44.058145,7.1401797 h -6.384271 v 1.0377261 h 4.59081 l 1.793461,1.3648352 v 4.117065 l -1.793461,1.466352 h -8.166452 v -2.921424 h 6.440669 V 11.09933 H 35.756337 L 34.098232,9.6442576 V 5.5497522 l 1.973935,-1.5904278 h 7.985978 z"
     id="path975"
     style="font-size:40px;line-height:1.25;letter-spacing:0px;word-spacing:0px;fill:#ffffff;stroke-width:0.107744" />
  <path
     d="M 55.382896,3.8690873 V 7.0499428 H 52.348675 V 15.126158 H 48.366966 V 7.0499428 H 45.377864 V 3.8690873 Z"
     id="path977"
     style="font-size:40px;line-height:1.25;letter-spacing:0px;word-spacing:0px;fill:#ffffff;stroke-width:0.107744" />
  <path
     d="m 66.831716,5.4482356 v 3.0793388 l -1.816021,1.5340296 1.816021,1.285878 v 3.801236 h -3.632041 v -3.801236 h -2.718391 v 3.801236 H 56.65749 V 7.083782 3.8690873 h 3.823794 4.534411 z M 63.210955,7.670323 V 6.5987577 h -2.729671 l -0.03384,1.0715653 h 0.03384 2.718391 z"
     id="path979"
     style="font-size:40px;line-height:1.25;letter-spacing:0px;word-spacing:0px;fill:#ffffff;stroke-width:0.107744" />
  <path
     d="M 78.314382,15.148718 H 76.284048 Z M 74.38907,3.880367 h 3.925312 v 7.692707 2.098012 l -2.030334,1.477632 H 69.967455 L 67.948401,13.671086 V 11.573074 3.880367 h 3.857634 v 1.4889112 3.4064483 2.5604755 0.236872 0.868531 H 74.38907 V 11.573074 11.336202 8.7757265 5.3692782 Z m -6.440669,11.268351 h 2.019054 z"
     id="path981"
     style="font-size:40px;line-height:1.25;letter-spacing:0px;word-spacing:0px;fill:#ffffff;stroke-width:0.107744" />
  <path
     d="m 89.15411,12.193454 v 2.955264 h -7.737826 l -1.81602,-1.477632 V 5.4707948 l 1.81602,-1.6017075 H 89.15411 V 7.083782 h -5.662374 v 1.0490059 2.9552621 0.07896 1.026446 z"
     id="path983"
     style="font-size:40px;line-height:1.25;letter-spacing:0px;word-spacing:0px;fill:#ffffff;stroke-width:0.107744" />
  <path
     d="m 100.3435,3.8690873 v 3.1808555 h -3.034223 v 8.0762152 h -3.98171 V 7.0499428 H 90.338466 V 3.8690873 Z"
     id="path985"
     style="font-size:40px;line-height:1.25;letter-spacing:0px;word-spacing:0px;fill:#ffffff;stroke-width:0.107744" />
  <path
     d="M 101.6181,15.148718 V 3.8690873 h 4.02682 V 15.148718 Z"
     id="path987"
     style="font-size:40px;line-height:1.25;letter-spacing:0px;word-spacing:0px;fill:#ffffff;stroke-width:0.107744" />
  <path
     d="m 117.1163,7.083782 h -6.41811 v 1.0490059 h 4.73744 V 11.08805 h -4.73744 v 1.105404 h 6.41811 v 2.955264 h -8.49356 l -1.81602,-1.477632 V 5.4707948 l 1.81602,-1.6017075 h 8.49356 z"
     id="path989"
     style="font-size:40px;line-height:1.25;letter-spacing:0px;word-spacing:0px;fill:#ffffff;stroke-width:0.107744" />
  <path
     d="m 128.27185,5.4482356 v 3.0793388 l -1.17308,0.9813274 1.17308,0.9813282 v 0.857252 2.019053 0.203033 l -1.81602,1.57915 h -4.53441 -3.82379 V 11.934023 6.6438766 3.8690873 h 3.82379 4.53441 z m -6.35043,5.8992464 v 0.586541 h 2.71839 v -0.586541 0 z m 2.71839,-4.2637 h -2.71839 v 0.586541 0 h 2.71839 z"
     style="font-size:104.689px;line-height:1.25;font-family:IJzershop;-inkscape-font-specification:'IJzershop, Normal';letter-spacing:0px;word-spacing:0px;fill:#ffffff;stroke-width:0.107744"
     id="path991" />
  <path
     d="m 137.89336,3.8690873 1.68067,1.3761149 v 8.3920448 h -0.0113 v 1.511471 h -1.82729 -1.83858 v -3.022942 h -2.84247 v 3.022942 h -2.18825 -1.48891 V 6.8243502 5.2452022 l 1.71451,-1.3761149 z m -1.99648,4.57953 V 6.8243502 h -2.84247 v 1.6242671 z"
     style="font-size:104.689px;line-height:1.25;font-family:IJzershop;-inkscape-font-specification:'IJzershop, Normal';letter-spacing:0px;word-spacing:0px;fill:#ffffff;stroke-width:0.107744"
     id="path993" />
  <path
     d="m 144.4694,3.8690873 v 8.3243667 h 4.15091 v 2.955264 h -7.9747 V 3.8690873 Z"
     style="font-size:104.689px;line-height:1.25;font-family:IJzershop;-inkscape-font-specification:'IJzershop, Normal';letter-spacing:0px;word-spacing:0px;fill:#ffffff;stroke-width:0.107744"
     id="path995" />
  <path
     d="m 156.77547,3.8690873 h 1.81601 V 5.4482356 7.670323 8.5275744 l -1.81601,1.5340296 1.81601,1.285878 v 3.801236 h -3.62075 v -3.801236 h -1.01517 v 3.801236 h -3.97043 V 3.8690873 h 2.13184 0.12408 1.71451 V 7.670323 h 1.01517 V 3.8690873 Z"
     style="font-size:104.689px;line-height:1.25;font-family:IJzershop;-inkscape-font-specification:'IJzershop, Normal';letter-spacing:0px;word-spacing:0px;fill:#ffffff;stroke-width:0.107744"
     id="path997" />
</svg>
