<?xml version="1.0" encoding="UTF-8" standalone="no"?>
<!-- Created with Inkscape (http://www.inkscape.org/) -->

<svg
   width="595.66406"
   height="54.016956"
   viewBox="0 0 157.60277 14.291987"
   version="1.1"
   id="svg8"
   sodipodi:docname="cortenwinkel-menu-logo.svg"
   inkscape:version="1.1.2 (b8e25be833, 2022-02-05)"
   xmlns:inkscape="http://www.inkscape.org/namespaces/inkscape"
   xmlns:sodipodi="http://sodipodi.sourceforge.net/DTD/sodipodi-0.dtd"
   xmlns="http://www.w3.org/2000/svg"
   xmlns:svg="http://www.w3.org/2000/svg"
   xmlns:rdf="http://www.w3.org/1999/02/22-rdf-syntax-ns#"
   xmlns:cc="http://creativecommons.org/ns#"
   xmlns:dc="http://purl.org/dc/elements/1.1/">
  <sodipodi:namedview
     id="namedview12"
     pagecolor="#ffffff"
     bordercolor="#111111"
     borderopacity="1"
     inkscape:pageshadow="0"
     inkscape:pageopacity="0"
     inkscape:pagecheckerboard="1"
     showgrid="false"
     inkscape:zoom="2.1018559"
     inkscape:cx="297.59414"
     inkscape:cy="27.118891"
     inkscape:window-width="1920"
     inkscape:window-height="1057"
     inkscape:window-x="1912"
     inkscape:window-y="-8"
     inkscape:window-maximized="1"
     inkscape:current-layer="svg8" />
  <defs
     id="defs2" />
  <metadata
     id="metadata5">
    <rdf:RDF>
      <cc:Work
         rdf:about="">
        <dc:format>image/svg+xml</dc:format>
        <dc:type
           rdf:resource="http://purl.org/dc/dcmitype/StillImage" />
      </cc:Work>
    </rdf:RDF>
  </metadata>
  <path
     d="m 12.105312,10.547486 v 3.744501 H 2.3010095 L -9.8776244e-7,12.419737 V 2.0294617 L 2.3010095,-5.1366378e-7 H 12.105312 V 4.073216 H 4.9307341 v 1.3291551 3.7444993 0.1000449 1.3005707 z"
     style="font-size:104.689px;line-height:1.25;font-family:IJzershop;-inkscape-font-specification:'IJzershop, Normal';letter-spacing:0px;word-spacing:0px;fill:#ffffff;stroke-width:0.136519"
     id="path829" />
  <path
     d="M 24.396416,-5.1366378e-7 26.525921,1.743622 V 12.37686 l -2.329594,1.915127 H 15.492508 L 13.605965,12.37686 V 1.743622 L 15.778348,-5.1366378e-7 Z M 21.866733,10.461733 V 3.7444999 h -3.601579 v 6.7172331 z"
     style="font-size:104.689px;line-height:1.25;font-family:IJzershop;-inkscape-font-specification:'IJzershop, Normal';letter-spacing:0px;word-spacing:0px;fill:#ffffff;stroke-width:0.136519"
     id="path831" />
  <path
     d="M 40.789325,2.0008777 V 5.90259 l -2.30101,1.9437096 2.30101,1.6292869 v 4.8164005 h -4.60202 V 9.4755865 H 32.742936 V 14.291987 H 27.897953 V 4.073216 -5.1366378e-7 h 4.844983 5.745379 z M 36.201597,4.8163995 V 3.4586602 h -3.458661 l -0.04288,1.3577393 h 0.04288 3.444369 z"
     style="font-size:104.689px;line-height:1.25;font-family:IJzershop;-inkscape-font-specification:'IJzershop, Normal';letter-spacing:0px;word-spacing:0px;fill:#ffffff;stroke-width:0.136519"
     id="path833" />
  <path
     d="M 54.866931,-5.1366378e-7 V 4.0303396 H 51.022387 V 14.263403 H 45.977315 V 4.0303396 H 42.189939 V -5.1366378e-7 Z"
     style="font-size:104.689px;line-height:1.25;font-family:IJzershop;-inkscape-font-specification:'IJzershop, Normal';letter-spacing:0px;word-spacing:0px;fill:#ffffff;stroke-width:0.136519"
     id="path835" />
  <path
     d="m 69.5448,4.073216 h -8.13214 v 1.3291551 h 6.002634 V 9.1468704 H 61.41266 v 1.4006156 h 8.13214 v 3.744501 H 58.782934 l -2.30101,-1.87225 V 2.0294617 L 58.782934,-5.1366378e-7 H 69.5448 Z"
     style="font-size:104.689px;line-height:1.25;font-family:IJzershop;-inkscape-font-specification:'IJzershop, Normal';letter-spacing:0px;word-spacing:0px;fill:#ffffff;stroke-width:0.136519"
     id="path837" />
  <path
     d="M 80.249502,14.291987 74.189699,6.6743578 V 14.291987 H 70.773915 V -5.1366378e-7 h 3.415784 v 0 L 80.249502,7.6890889 V -5.1366378e-7 h 3.715916 V 14.291987 Z"
     style="font-size:104.689px;line-height:1.25;font-family:IJzershop;-inkscape-font-specification:'IJzershop, Normal';letter-spacing:0px;word-spacing:0px;fill:#ffffff;stroke-width:0.136519"
     id="path839" />
  <path
     d="M 88.48175,14.21689 H 85.09166 V 0.03239 h 3.68797 -0.29788 V 7.592728 L 91.48887,3.819651 91.6449,3.621068 94.49598,7.209747 V 6.585629 l -0.0142,0.01418 V 0.04657 l 0.0142,-0.01418 h 3.70215 v 14.1845 h -3.40428 v 0 H 94.49598 L 91.6449,10.216861 Z"
     id="path842"
     style="font-size:14.1845px;line-height:1.25;font-family:IJzershop;-inkscape-font-specification:IJzershop;fill:#ffffff;stroke-width:0.354612" />
  <path
     d="M 99.63076,14.21689 V 0.03239 h 5.06387 v 14.1845 z"
     id="path844"
     style="font-size:14.1845px;line-height:1.25;font-family:IJzershop;-inkscape-font-specification:IJzershop;fill:#ffffff;stroke-width:0.354612" />
  <path
     d="m 115.55994,14.21689 -6.01423,-7.560339 v 7.560339 h -3.39009 V 0.03239 h 3.39009 v 0 l 6.01423,7.631261 V 0.03239 h 3.68797 v 14.1845 z"
     id="path846"
     style="font-size:14.1845px;line-height:1.25;font-family:IJzershop;-inkscape-font-specification:IJzershop;fill:#ffffff;stroke-width:0.354612" />
  <path
     d="m 129.34726,0.03239 h 2.28371 v 1.98583 2.794346 1.078022 l -2.28371,1.929092 2.28371,1.617033 v 4.780177 h -4.55323 V 9.436713 h -1.2766 v 4.780177 h -4.99295 V 0.03239 h 2.68087 0.15603 2.15605 v 4.780176 h 1.2766 V 0.03239 Z"
     id="path848"
     style="font-size:14.1845px;line-height:1.25;font-family:IJzershop;-inkscape-font-specification:IJzershop;fill:#ffffff;stroke-width:0.354612" />
  <path
     d="m 146.35446,4.074972 h -8.07098 v 1.319159 h 5.95749 V 9.11047 h -5.95749 v 1.390081 h 8.07098 v 3.716339 h -10.68092 l -2.28371,-1.85817 V 2.046589 l 2.28371,-2.014199 h 10.68092 z"
     id="path850"
     style="font-size:14.1845px;line-height:1.25;font-family:IJzershop;-inkscape-font-specification:IJzershop;fill:#ffffff;stroke-width:0.354612" />
  <path
     d="m 152.38288,0.03239 v 10.468161 h 5.2199 V 14.21689 H 147.57433 V 0.03239 Z"
     id="path852"
     style="font-size:14.1845px;line-height:1.25;font-family:IJzershop;-inkscape-font-specification:IJzershop;fill:#ffffff;stroke-width:0.354612" />
  <path
     style="fill:#ffffff;stroke:none;stroke-width:0.47577"
     d="M 4.5697744,50.312679 3.9408031e-4,46.625462 1.9701636e-4,27.313572 0,8.0016829 4.4008727,4.128479 8.8017453,0.25527502 27.237834,0.24658004 45.673922,0.23788501 V 7.6123203 14.986756 H 32.114476 18.555031 v 12.607905 12.607906 h 13.559445 13.559446 v 6.898665 6.898665 H 27.406538 9.1391548 Z"
     id="path866"
     transform="scale(0.26458333)" />
</svg>
