<?xml version="1.0" encoding="UTF-8" standalone="no"?>
<!-- Created with Inkscape (http://www.inkscape.org/) -->

<svg
   width="317.34961"
   height="109.51964"
   viewBox="0 0 83.96541 28.977072"
   version="1.1"
   id="svg8"
   sodipodi:docname="cortenwinkel.svg"
   inkscape:version="1.1.2 (b8e25be833, 2022-02-05)"
   xmlns:inkscape="http://www.inkscape.org/namespaces/inkscape"
   xmlns:sodipodi="http://sodipodi.sourceforge.net/DTD/sodipodi-0.dtd"
   xmlns="http://www.w3.org/2000/svg"
   xmlns:svg="http://www.w3.org/2000/svg"
   xmlns:rdf="http://www.w3.org/1999/02/22-rdf-syntax-ns#"
   xmlns:cc="http://creativecommons.org/ns#"
   xmlns:dc="http://purl.org/dc/elements/1.1/">
  <sodipodi:namedview
     id="namedview12"
     pagecolor="#ffffff"
     bordercolor="#111111"
     borderopacity="1"
     inkscape:pageshadow="0"
     inkscape:pageopacity="0"
     inkscape:pagecheckerboard="1"
     showgrid="false"
     inkscape:zoom="1.7761689"
     inkscape:cx="297.55053"
     inkscape:cy="27.024457"
     inkscape:window-width="1920"
     inkscape:window-height="1057"
     inkscape:window-x="1912"
     inkscape:window-y="-8"
     inkscape:window-maximized="1"
     inkscape:current-layer="svg8" />
  <defs
     id="defs2" />
  <metadata
     id="metadata5">
    <rdf:RDF>
      <cc:Work
         rdf:about="">
        <dc:format>image/svg+xml</dc:format>
        <dc:type
           rdf:resource="http://purl.org/dc/dcmitype/StillImage" />
      </cc:Work>
    </rdf:RDF>
  </metadata>
  <path
     d="m 12.105313,10.547487 v 3.744501 H 2.3010105 L 0,12.419738 V 2.0294622 L 2.3010105,0 H 12.105313 V 4.0732165 H 4.9307351 v 1.3291551 3.7444993 0.1000449 1.3005712 z"
     style="font-size:104.689px;line-height:1.25;font-family:IJzershop;-inkscape-font-specification:'IJzershop, Normal';letter-spacing:0px;word-spacing:0px;fill:#00127e;stroke-width:0.136519"
     id="path829" />
  <path
     d="m 24.396417,0 2.129505,1.7436225 V 12.376861 l -2.329594,1.915127 H 15.492509 L 13.605966,12.376861 V 1.7436225 L 15.778349,0 Z M 21.866734,10.461734 V 3.7445004 h -3.601579 v 6.7172336 z"
     style="font-size:104.689px;line-height:1.25;font-family:IJzershop;-inkscape-font-specification:'IJzershop, Normal';letter-spacing:0px;word-spacing:0px;fill:#00127e;stroke-width:0.136519"
     id="path831" />
  <path
     d="m 40.789326,2.0008782 v 3.9017123 l -2.30101,1.9437096 2.30101,1.6292869 v 4.816401 h -4.60202 V 9.475587 h -3.444369 v 4.816401 H 27.897954 V 4.0732165 0 h 4.844983 5.745379 z M 36.201598,4.8164 V 3.4586607 H 32.742937 L 32.700057,4.8164 h 0.04288 3.444369 z"
     style="font-size:104.689px;line-height:1.25;font-family:IJzershop;-inkscape-font-specification:'IJzershop, Normal';letter-spacing:0px;word-spacing:0px;fill:#00127e;stroke-width:0.136519"
     id="path833" />
  <path
     d="M 54.866932,0 V 4.0303401 H 51.022388 V 14.263404 H 45.977316 V 4.0303401 H 42.18994 V 0 Z"
     style="font-size:104.689px;line-height:1.25;font-family:IJzershop;-inkscape-font-specification:'IJzershop, Normal';letter-spacing:0px;word-spacing:0px;fill:#00127e;stroke-width:0.136519"
     id="path835" />
  <path
     d="m 69.544801,4.0732165 h -8.13214 v 1.3291551 h 6.002634 v 3.7444993 h -6.002634 v 1.4006161 h 8.13214 v 3.744501 H 58.782935 l -2.30101,-1.87225 V 2.0294622 L 58.782935,0 h 10.761866 z"
     style="font-size:104.689px;line-height:1.25;font-family:IJzershop;-inkscape-font-specification:'IJzershop, Normal';letter-spacing:0px;word-spacing:0px;fill:#00127e;stroke-width:0.136519"
     id="path837" />
  <path
     d="M 80.249503,14.291988 74.1897,6.6743583 V 14.291988 H 70.773916 V 0 H 74.1897 v 0 l 6.059803,7.6890894 V 0 h 3.715916 v 14.291988 z"
     style="font-size:104.689px;line-height:1.25;font-family:IJzershop;-inkscape-font-specification:'IJzershop, Normal';letter-spacing:0px;word-spacing:0px;fill:#00127e;stroke-width:0.136519"
     id="path839" />
  <path
     d="M 3.830598,28.977071 H 0.44050799 v -14.1845 H 4.128478 3.830598 v 7.560338 l 3.00712,-3.773077 0.15603,-0.198583 2.85108,3.588679 V 21.34581 l -0.0142,0.01418 v -6.553239 l 0.0142,-0.01418 h 3.70215 v 14.1845 h -3.40428 v 0 h -0.29787 l -2.85108,-4.000029 z"
     id="path842"
     style="font-size:14.1845px;line-height:1.25;font-family:IJzershop;-inkscape-font-specification:IJzershop;stroke-width:0.354612" />
  <path
     d="m 14.979608,28.977071 v -14.1845 h 5.06387 v 14.1845 z"
     id="path844"
     style="font-size:14.1845px;line-height:1.25;font-family:IJzershop;-inkscape-font-specification:IJzershop;stroke-width:0.354612" />
  <path
     d="m 30.908788,28.977071 -6.01423,-7.560339 v 7.560339 h -3.39009 v -14.1845 h 3.39009 v 0 l 6.01423,7.631261 v -7.631261 h 3.68797 v 14.1845 z"
     id="path846"
     style="font-size:14.1845px;line-height:1.25;font-family:IJzershop;-inkscape-font-specification:IJzershop;stroke-width:0.354612" />
  <path
     d="m 44.696108,14.792571 h 2.28371 v 1.98583 2.794346 1.078022 l -2.28371,1.929092 2.28371,1.617033 v 4.780177 h -4.55323 v -4.780177 h -1.2766 v 4.780177 h -4.99295 v -14.1845 h 2.68087 0.15603 2.15605 v 4.780176 h 1.2766 v -4.780176 z"
     id="path848"
     style="font-size:14.1845px;line-height:1.25;font-family:IJzershop;-inkscape-font-specification:IJzershop;stroke-width:0.354612" />
  <path
     d="m 61.703308,18.835153 h -8.07098 v 1.319159 h 5.95749 v 3.716339 h -5.95749 v 1.390081 h 8.07098 v 3.716339 h -10.68092 l -2.28371,-1.85817 V 16.80677 l 2.28371,-2.014199 h 10.68092 z"
     id="path850"
     style="font-size:14.1845px;line-height:1.25;font-family:IJzershop;-inkscape-font-specification:IJzershop;stroke-width:0.354612" />
  <path
     d="m 67.731728,14.792571 v 10.468161 h 5.2199 v 3.716339 h -10.02845 v -14.1845 z"
     id="path852"
     style="font-size:14.1845px;line-height:1.25;font-family:IJzershop;-inkscape-font-specification:IJzershop;stroke-width:0.354612" />
</svg>
