<?xml version="1.0" encoding="UTF-8" standalone="no"?>
<!-- Created with Inkscape (http://www.inkscape.org/) -->

<svg
   width="282.64047"
   height="100.0223"
   viewBox="0 0 74.781961 26.464235"
   version="1.1"
   id="svg5"
   inkscape:version="1.1.2 (b8e25be833, 2022-02-05)"
   sodipodi:docname="cortenwinkel_mobile.svg"
   xmlns:inkscape="http://www.inkscape.org/namespaces/inkscape"
   xmlns:sodipodi="http://sodipodi.sourceforge.net/DTD/sodipodi-0.dtd"
   xmlns="http://www.w3.org/2000/svg"
   xmlns:svg="http://www.w3.org/2000/svg">
  <sodipodi:namedview
     id="namedview7"
     pagecolor="#ffffff"
     bordercolor="#111111"
     borderopacity="1"
     inkscape:pageshadow="0"
     inkscape:pageopacity="0"
     inkscape:pagecheckerboard="1"
     inkscape:document-units="mm"
     showgrid="false"
     units="px"
     inkscape:zoom="1.5518659"
     inkscape:cx="80.87039"
     inkscape:cy="-26.419809"
     inkscape:window-width="1920"
     inkscape:window-height="1057"
     inkscape:window-x="1912"
     inkscape:window-y="-8"
     inkscape:window-maximized="1"
     inkscape:current-layer="layer1" />
  <defs
     id="defs2" />
  <g
     inkscape:label="Layer 1"
     inkscape:groupmode="layer"
     id="layer1"
     transform="translate(-3.1218271,-1.8412713)">
    <path
       d="m 13.903159,11.235159 v 3.334958 H 5.1711721 L 3.1218275,12.902638 V 3.6487673 L 5.1711721,1.8412712 H 13.903159 V 5.4689923 H 7.5132787 v 1.1837829 3.3349562 0.089103 1.158325 z"
       style="font-size:104.689px;line-height:1.25;font-family:IJzershop;-inkscape-font-specification:'IJzershop, Normal';letter-spacing:0px;word-spacing:0px;fill:#00127e;stroke-width:0.121587"
       id="path827" />
    <path
       d="m 24.849961,1.8412712 1.896598,1.5529192 v 9.4702606 l -2.074802,1.705666 H 16.919891 L 15.239683,12.864451 V 3.3941904 L 17.174468,1.8412712 Z M 22.596955,11.158785 V 5.1762285 h -3.207668 v 5.9825565 z"
       style="font-size:104.689px;line-height:1.25;font-family:IJzershop;-inkscape-font-specification:'IJzershop, Normal';letter-spacing:0px;word-spacing:0px;fill:#00127e;stroke-width:0.121587"
       id="path829" />
    <path
       d="m 39.449947,3.6233096 v 3.4749745 l -2.049344,1.7311224 2.049344,1.4510885 v 4.289622 h -4.098688 v -4.289622 h -3.067652 v 4.289622 H 27.968529 V 5.4689923 1.8412712 h 4.315078 5.116996 z M 35.363988,6.1308924 V 4.9216516 h -3.080381 l -0.03819,1.2092408 h 0.03819 3.067652 z"
       style="font-size:104.689px;line-height:1.25;font-family:IJzershop;-inkscape-font-specification:'IJzershop, Normal';letter-spacing:0px;word-spacing:0px;fill:#00127e;stroke-width:0.121587"
       id="path831" />
    <path
       d="M 51.987858,1.8412712 V 5.4308054 H 48.563799 V 14.544659 H 44.070517 V 5.4308054 H 40.697373 V 1.8412712 Z"
       style="font-size:104.689px;line-height:1.25;font-family:IJzershop;-inkscape-font-specification:'IJzershop, Normal';letter-spacing:0px;word-spacing:0px;fill:#00127e;stroke-width:0.121587"
       id="path833" />
    <path
       d="m 65.060381,5.4689923 h -7.242712 v 1.1837829 h 5.346114 v 3.3349562 h -5.346114 v 1.2474276 h 7.242712 v 3.334958 h -9.58482 L 53.426217,12.902638 V 3.6487673 l 2.049344,-1.8074961 h 9.58482 z"
       style="font-size:104.689px;line-height:1.25;font-family:IJzershop;-inkscape-font-specification:'IJzershop, Normal';letter-spacing:0px;word-spacing:0px;fill:#00127e;stroke-width:0.121587"
       id="path835" />
    <path
       d="M 74.594289,14.570117 69.197259,7.7856422 V 14.570117 H 66.155065 V 1.8412712 h 3.042194 v 0 l 5.39703,6.8481191 V 1.8412712 h 3.3095 V 14.570117 Z"
       style="font-size:104.689px;line-height:1.25;font-family:IJzershop;-inkscape-font-specification:'IJzershop, Normal';letter-spacing:0px;word-spacing:0px;fill:#00127e;stroke-width:0.121587"
       id="path837" />
    <path
       d="M 6.1411379,28.305505 H 3.1218271 v -12.6331 H 6.406433 6.1411379 v 6.733442 l 2.6782171,-3.360404 0.1389641,-0.176864 2.5392529,3.196175 v -0.555857 l -0.01263,0.01263 v -5.836492 l 0.01263,-0.01263 h 3.297239 v 12.6331 h -3.031944 v 0 H 11.497572 L 8.9583191,24.742971 Z"
       id="path840"
       style="font-size:12.6331px;line-height:1.25;font-family:IJzershop;-inkscape-font-specification:IJzershop;stroke-width:0.315828" />
    <path
       d="m 16.070749,28.305505 v -12.6331 h 4.510017 v 12.6331 z"
       id="path842"
       style="font-size:12.6331px;line-height:1.25;font-family:IJzershop;-inkscape-font-specification:IJzershop;stroke-width:0.315828" />
    <path
       d="m 30.257708,28.305505 -5.356434,-6.733442 v 6.733442 h -3.019311 v -12.6331 h 3.019311 v 0 l 5.356434,6.796608 v -6.796608 h 3.284606 v 12.6331 z"
       id="path844"
       style="font-size:12.6331px;line-height:1.25;font-family:IJzershop;-inkscape-font-specification:IJzershop;stroke-width:0.315828" />
    <path
       d="m 42.537069,15.672405 h 2.033929 v 1.768634 2.488721 0.960115 l -2.033929,1.718102 2.033929,1.440173 v 4.257355 H 40.515773 V 24.04815 h -1.136979 v 4.257355 h -4.446851 v -12.6331 h 2.387656 0.138964 1.920231 v 4.257355 h 1.136979 v -4.257355 z"
       id="path846"
       style="font-size:12.6331px;line-height:1.25;font-family:IJzershop;-inkscape-font-specification:IJzershop;stroke-width:0.315828" />
    <path
       d="M 57.684143,19.272839 H 50.49591 v 1.174878 h 5.305901 v 3.309872 H 50.49591 v 1.238044 h 7.188233 v 3.309872 H 48.171419 L 46.13749,26.650569 v -9.184264 l 2.033929,-1.7939 h 9.512724 z"
       id="path848"
       style="font-size:12.6331px;line-height:1.25;font-family:IJzershop;-inkscape-font-specification:IJzershop;stroke-width:0.315828" />
    <path
       d="m 63.053213,15.672405 v 9.323228 h 4.648981 v 3.309872 h -8.931601 v -12.6331 z"
       id="path850"
       style="font-size:12.6331px;line-height:1.25;font-family:IJzershop;-inkscape-font-specification:IJzershop;stroke-width:0.315828" />
  </g>
</svg>
