<?xml version="1.0" encoding="UTF-8" standalone="no"?>
<!-- Created with Inkscape (http://www.inkscape.org/) -->

<svg
   width="158.72mm"
   height="19.451mm"
   version="1.1"
   viewBox="0 0 158.72 19.451"
   id="svg22"
   sodipodi:docname="geroshop-menu-logo.svg"
   inkscape:version="1.1.2 (b8e25be833, 2022-02-05)"
   xmlns:inkscape="http://www.inkscape.org/namespaces/inkscape"
   xmlns:sodipodi="http://sodipodi.sourceforge.net/DTD/sodipodi-0.dtd"
   xmlns="http://www.w3.org/2000/svg"
   xmlns:svg="http://www.w3.org/2000/svg">
  <defs
     id="defs26" />
  <sodipodi:namedview
     id="namedview24"
     pagecolor="#ffffff"
     bordercolor="#111111"
     borderopacity="1"
     inkscape:pageshadow="0"
     inkscape:pageopacity="0"
     inkscape:pagecheckerboard="1"
     inkscape:document-units="mm"
     showgrid="false"
     inkscape:zoom="0.88183331"
     inkscape:cx="250.04726"
     inkscape:cy="179.17218"
     inkscape:window-width="1920"
     inkscape:window-height="1009"
     inkscape:window-x="1912"
     inkscape:window-y="-8"
     inkscape:window-maximized="1"
     inkscape:current-layer="svg22" />
  <path
     d="m 20.968988,8.9508448 h 7.239604 v 1.2836172 1.865524 5.784836 0.273838 H 15.49222 L 12.736721,15.916609 V 3.4740765 L 15.49222,1.0437604 h 12.716372 v 4.8777461 h -9.56723 v 1.5916862 4.4841043 0.119804 1.557456 h 4.398529 v -1.574571 h -2.070903 z"
     style="font-size:40px;letter-spacing:0px;word-spacing:0px;opacity:0.99;fill:#ffffff;fill-opacity:0.941176;stroke-width:0.120013"
     id="path825" />
  <path
     d="m 45.49464,5.9215065 h -9.738378 v 1.5916862 h 7.188258 v 4.4841043 h -7.188258 v 1.67726 H 45.49464 V 18.15866 H 32.607121 L 29.851622,15.916609 V 3.4740765 L 32.607121,1.0437604 H 45.49464 Z"
     style="font-size:40px;letter-spacing:0px;word-spacing:0px;opacity:0.99;fill:#ffffff;fill-opacity:0.941176;stroke-width:0.120013"
     id="path827" />
  <path
     d="m 62.404163,3.4398464 v 4.6723684 l -2.7555,2.3276262 2.7555,1.951098 V 18.15866 H 56.893164 V 12.390939 H 52.768473 V 18.15866 H 46.966521 V 5.9215065 1.0437604 h 5.801952 6.88019 z m -5.493884,3.3716352 v -1.625915 h -4.141806 l -0.05134,1.625915 h 0.05134 4.124691 z"
     style="font-size:40px;letter-spacing:0px;word-spacing:0px;opacity:0.99;fill:#ffffff;fill-opacity:0.941176;stroke-width:0.120013"
     id="path829" />
  <path
     d="m 77.00317,1.0437604 2.55012,2.0880181 V 15.865264 L 76.763562,18.15866 H 66.340587 L 64.08142,15.865264 V 3.1317785 L 66.682885,1.0437604 Z M 73.973833,13.571867 V 5.5278646 h -4.312956 v 8.0440024 z"
     style="font-size:40px;letter-spacing:0px;word-spacing:0px;opacity:0.99;fill:#ffffff;fill-opacity:0.941176;stroke-width:0.120013"
     id="path831" />
  <path
     d="m 96.308779,6.0070816 h -9.687033 v 1.5745711 h 6.965764 l 2.721269,2.070902 V 15.899494 L 93.58751,18.124431 H 81.196322 v -4.432759 h 9.772609 v -1.67726 H 83.712213 L 81.196322,9.8065899 V 3.5938804 L 84.19143,1.1806796 h 12.117349 z"
     style="font-size:40px;-inkscape-font-specification:'IJzershop, Normal';letter-spacing:0px;word-spacing:0px;fill:#ffffff;stroke-width:0.120013"
     id="path833" />
  <path
     d="m 108.10095,1.0437604 h 5.9731 V 18.15866 h -5.9731 v -5.767721 h -3.91931 V 18.15866 H 98.311225 V 1.0437604 h 5.870415 v 7.4449813 h 3.91931 z"
     style="font-size:40px;-inkscape-font-specification:'IJzershop, Normal';letter-spacing:0px;word-spacing:0px;fill:#ffffff;stroke-width:0.120013"
     id="path835" />
  <path
     d="m 128.34787,1.0437604 2.55012,2.0880181 V 15.865264 l -2.78972,2.293396 h -10.42298 l -2.25917,-2.293396 V 3.1317785 l 2.60146,-2.0880181 z M 125.31853,13.571867 V 5.5278646 h -4.31295 v 8.0440024 z"
     style="font-size:40px;-inkscape-font-specification:'IJzershop, Normal';letter-spacing:0px;word-spacing:0px;fill:#ffffff;stroke-width:0.120013"
     id="path837" />
  <path
     d="m 145.2574,1.0437604 2.55011,2.036673 V 13.571867 l -2.55011,2.293397 h -6.94866 v 2.293396 h -5.76772 V 5.1171065 1.0437604 h 5.76772 z m -6.94866,4.0733461 v 6.2127095 h 4.12469 V 5.1171065 Z"
     style="font-size:40px;-inkscape-font-specification:'IJzershop, Normal';letter-spacing:0px;word-spacing:0px;fill:#ffffff;stroke-width:0.120013"
     id="path839" />
</svg>
