<?xml version="1.0" encoding="UTF-8" standalone="no"?>
<!-- Created with Inkscape (http://www.inkscape.org/) -->

<svg
   width="208.04054"
   height="107.90904"
   viewBox="0 0 55.044062 28.550935"
   version="1.1"
   id="svg5"
   inkscape:version="1.1.2 (b8e25be833, 2022-02-05)"
   sodipodi:docname="ijzershop_mobile.svg"
   xmlns:inkscape="http://www.inkscape.org/namespaces/inkscape"
   xmlns:sodipodi="http://sodipodi.sourceforge.net/DTD/sodipodi-0.dtd"
   xmlns="http://www.w3.org/2000/svg"
   xmlns:svg="http://www.w3.org/2000/svg">
  <sodipodi:namedview
     id="namedview7"
     pagecolor="#ffffff"
     bordercolor="#111111"
     borderopacity="1"
     inkscape:pageshadow="0"
     inkscape:pageopacity="0"
     inkscape:pagecheckerboard="1"
     inkscape:document-units="mm"
     showgrid="false"
     units="px"
     inkscape:zoom="1.0973349"
     inkscape:cx="-40.552797"
     inkscape:cy="-113.00105"
     inkscape:window-width="1920"
     inkscape:window-height="1009"
     inkscape:window-x="1912"
     inkscape:window-y="-8"
     inkscape:window-maximized="1"
     inkscape:current-layer="layer1" />
  <defs
     id="defs2" />
  <g
     inkscape:label="Layer 1"
     inkscape:groupmode="layer"
     id="layer1"
     transform="translate(-1.981737,-0.92817846)">
    <path
       d="m 11.801847,7.1091795 h 5.154378 v 0.9138964 1.3281967 4.1186284 0.194964 H 7.9025532 L 5.9407217,12.068593 V 3.2098862 L 7.9025532,1.4795747 h 9.0536718 v 3.4728076 h -6.811578 v 1.1332323 3.1925466 0.085297 1.1088618 h 3.13162 V 9.3512726 h -1.47442 z"
       style="font-size:40px;letter-spacing:0px;word-spacing:0px;opacity:0.99;fill:#ff6a00;fill-opacity:1;stroke-width:0.0854455"
       id="path80817" />
    <path
       d="M 29.263369,4.9523823 H 22.329938 V 6.0856146 H 27.44776 V 9.2781612 H 22.329938 V 10.47232 h 6.933431 v 3.192545 H 20.087845 L 18.126013,12.068593 V 3.2098862 l 1.961832,-1.7303115 h 9.175524 z"
       style="font-size:40px;letter-spacing:0px;word-spacing:0px;opacity:0.99;fill:#ff6a00;fill-opacity:1;stroke-width:0.0854455"
       id="path80819" />
    <path
       d="m 41.302437,3.1855154 v 3.3265849 l -1.961832,1.6571993 1.961832,1.3891227 V 13.664865 H 37.378773 V 9.5584223 H 34.442117 V 13.664865 H 30.311304 V 4.9523823 1.4795747 h 4.130813 4.898488 z M 37.390958,5.5860176 V 4.4284153 h -2.948841 l -0.03655,1.1576023 h 0.03655 2.936656 z"
       style="font-size:40px;letter-spacing:0px;word-spacing:0px;opacity:0.99;fill:#ff6a00;fill-opacity:1;stroke-width:0.0854455"
       id="path80821" />
    <path
       d="m 51.696488,1.4795747 1.815609,1.4866056 v 9.0658567 l -1.986202,1.632828 H 44.105052 L 42.496593,12.032037 V 2.9661803 L 44.348758,1.4795747 Z M 49.539692,10.399207 V 4.6721211 h -3.070694 v 5.7270859 z"
       style="font-size:40px;letter-spacing:0px;word-spacing:0px;opacity:0.99;fill:#ff6a00;fill-opacity:1;stroke-width:0.0854455"
       id="path80823" />
    <path
       d="M 16.700334,20.244923 H 9.8034592 v 1.121047 h 4.9594138 l 1.937461,1.47442 v 4.447631 l -1.937461,1.584088 H 5.9407217 v -3.15599 H 12.898523 V 24.52196 H 7.7319597 l -1.791238,-1.571902 v -4.423261 l 2.132426,-1.718126 h 8.6271863 z"
       style="font-size:40px;-inkscape-font-specification:'IJzershop, Normal';letter-spacing:0px;word-spacing:0px;fill:#000000;stroke-width:0.0854455"
       id="path80825" />
    <path
       d="m 25.095999,16.711189 h 4.252667 V 28.89648 H 25.095999 V 24.790037 H 22.305567 V 28.89648 H 18.126013 V 16.711189 h 4.179554 v 5.300602 h 2.790432 z"
       style="font-size:40px;-inkscape-font-specification:'IJzershop, Normal';letter-spacing:0px;word-spacing:0px;fill:#000000;stroke-width:0.0854455"
       id="path80827" />
    <path
       d="m 39.511198,16.711189 1.815609,1.486605 v 9.065857 l -1.986202,1.632829 h -7.420843 l -1.608458,-1.632829 v -9.065857 l 1.852164,-1.486605 z m -2.156796,8.919633 v -5.727087 h -3.070693 v 5.727087 z"
       style="font-size:40px;-inkscape-font-specification:'IJzershop, Normal';letter-spacing:0px;word-spacing:0px;fill:#000000;stroke-width:0.0854455"
       id="path80829" />
    <path
       d="m 51.550265,16.711189 1.815608,1.45005 v 7.469583 l -1.815608,1.632829 h -4.947229 v 1.632829 h -4.106443 v -9.285192 -2.900099 h 4.106443 z m -4.947229,2.900099 v 4.423261 h 2.936656 v -4.423261 z"
       style="font-size:40px;-inkscape-font-specification:'IJzershop, Normal';letter-spacing:0px;word-spacing:0px;fill:#000000;stroke-width:0.0854455"
       id="path80831" />
  </g>
</svg>
