<?xml version="1.0" encoding="UTF-8" standalone="no"?>
<!-- Created with Inkscape (http://www.inkscape.org/) -->

<svg
   width="158.72mm"
   height="19.451mm"
   version="1.1"
   viewBox="0 0 158.72 19.451"
   id="svg22"
   sodipodi:docname="ijzershop-menu-logo.svg"
   inkscape:version="1.1.2 (b8e25be833, 2022-02-05)"
   xmlns:inkscape="http://www.inkscape.org/namespaces/inkscape"
   xmlns:sodipodi="http://sodipodi.sourceforge.net/DTD/sodipodi-0.dtd"
   xmlns="http://www.w3.org/2000/svg"
   xmlns:svg="http://www.w3.org/2000/svg">
  <defs
     id="defs26" />
  <sodipodi:namedview
     id="namedview24"
     pagecolor="#ffffff"
     bordercolor="#111111"
     borderopacity="1"
     inkscape:pageshadow="0"
     inkscape:pageopacity="0"
     inkscape:pagecheckerboard="1"
     inkscape:document-units="mm"
     showgrid="false"
     inkscape:zoom="0.88183331"
     inkscape:cx="220.56323"
     inkscape:cy="179.17218"
     inkscape:window-width="1920"
     inkscape:window-height="1009"
     inkscape:window-x="1912"
     inkscape:window-y="-8"
     inkscape:window-maximized="1"
     inkscape:current-layer="svg22" />
  <path
     d="m 8.4332988,9.0063776 h 6.4389072 v 1.1416494 1.659198 5.145037 0.243551 H 3.5622581 L 1.1115164,15.201732 V 4.135337 L 3.5622581,1.9738126 H 14.872206 V 6.3120825 H 6.3631069 v 1.4156465 3.988165 0.106553 1.385203 H 10.275161 V 11.807225 H 8.4332988 Z"
     style="font-size:40px;letter-spacing:0px;word-spacing:0px;opacity:0.99;fill:#ffffff;fill-opacity:0.941176;stroke-width:0.106739"
     id="path1347" />
  <path
     d="M 30.246427,6.3120825 H 21.585108 V 7.727729 h 6.393241 v 3.988165 h -6.393241 v 1.491756 h 8.661319 v 3.988163 H 18.78426 L 16.333518,15.201732 V 4.135337 L 18.78426,1.9738126 h 11.462167 z"
     style="font-size:40px;letter-spacing:0px;word-spacing:0px;opacity:0.99;fill:#ffffff;fill-opacity:0.941176;stroke-width:0.106739"
     id="path1349" />
  <path
     d="m 45.285765,4.1048928 v 4.1556068 l -2.450743,2.0701914 2.450743,1.735308 v 5.129814 H 40.38428 v -5.129814 h -3.668503 v 5.129814 H 31.555519 V 6.3120825 1.9738126 h 5.160258 6.119245 z m -4.886263,2.998734 V 5.6575372 h -3.683725 l -0.04566,1.4460896 h 0.04566 3.668503 z"
     style="font-size:40px;letter-spacing:0px;word-spacing:0px;opacity:0.99;fill:#ffffff;fill-opacity:0.941176;stroke-width:0.106739"
     id="path1351" />
  <path
     d="m 58.270129,1.9738126 2.268078,1.8570844 v 11.325169 l -2.481185,2.039747 H 48.786823 L 46.777518,15.156066 V 3.830897 L 49.091263,1.9738126 Z M 55.575835,13.116317 V 5.9619772 h -3.835944 v 7.1543398 z"
     style="font-size:40px;letter-spacing:0px;word-spacing:0px;opacity:0.99;fill:#ffffff;fill-opacity:0.941176;stroke-width:0.106739"
     id="path1353" />
  <path
     d="M 67.251112,6.3120825 V 7.727729 h 5.251591 v 3.988165 h -5.251591 v 1.491756 3.988163 H 67.098891 64.450264 61.999521 V 15.201732 4.135337 l 2.450743,-2.1615244 h 10.107408 v 4.3382699 z"
     style="font-size:40px;-inkscape-font-specification:'IJzershop, Normal';letter-spacing:0px;word-spacing:0px;fill:#ffffff;stroke-width:0.106739"
     id="path1355" />
  <path
     d="M 76.216875,17.195813 V 1.9738126 h 5.434254 V 17.195813 Z"
     style="font-size:40px;-inkscape-font-specification:'IJzershop, Normal';letter-spacing:0px;word-spacing:0px;fill:#ffffff;stroke-width:0.106739"
     id="path1357" />
  <path
     d="M 96.720893,1.9738126 V 6.2664173 H 92.626175 V 17.16537 H 87.252809 V 6.2664173 H 83.218978 V 1.9738126 Z"
     style="font-size:40px;-inkscape-font-specification:'IJzershop, Normal';letter-spacing:0px;word-spacing:0px;fill:#ffffff;stroke-width:0.106739"
     id="path1359" />
  <path
     d="M 108.53317,17.195813 102.07904,9.0824871 V 17.195813 H 98.440986 V 1.9738126 h 3.638054 v 0 l 6.45413,8.1894364 V 1.9738126 h 3.95772 V 17.195813 Z"
     style="font-size:40px;-inkscape-font-specification:'IJzershop, Normal';letter-spacing:0px;word-spacing:0px;fill:#ffffff;stroke-width:0.106739"
     id="path1361" />
  <path
     d="m 128.0782,6.3120825 h -8.66132 V 7.727729 h 6.39325 v 3.988165 h -6.39325 v 1.491756 h 8.66132 v 3.988163 h -11.46217 l -2.45074,-1.994081 V 4.135337 l 2.45074,-2.1615244 h 11.46217 z"
     style="font-size:40px;-inkscape-font-specification:'IJzershop, Normal';letter-spacing:0px;word-spacing:0px;fill:#ffffff;stroke-width:0.106739"
     id="path1363" />
  <path
     d="m 142.82832,6.3881931 h -8.61565 v 1.4004244 h 6.19535 l 2.4203,1.8418612 V 15.18651 l -2.4203,1.97886 h -11.02073 v -3.942498 h 8.69176 v -1.491756 h -6.45412 l -2.23764,-1.9636383 v -5.525587 l 2.66386,-2.1463021 h 10.77717 z"
     style="font-size:40px;-inkscape-font-specification:'IJzershop, Normal';letter-spacing:0px;word-spacing:0px;fill:#ffffff;stroke-width:0.106739"
     id="path1365" />
  <path
     d="m 158.05033,6.3881931 h -8.61565 v 1.4004244 h 6.19534 l 2.42031,1.8418612 V 15.18651 l -2.42031,1.97886 H 144.6093 v -3.942498 h 8.69176 v -1.491756 h -6.45413 L 144.6093,9.7674777 v -5.525587 l 2.66385,-2.1463021 h 10.77718 z"
     style="font-size:40px;-inkscape-font-specification:'IJzershop, Normal';letter-spacing:0px;word-spacing:0px;fill:#ffffff;stroke-width:0.106739"
     id="path1367" />
</svg>
