<?xml version="1.0" encoding="UTF-8" standalone="no"?>
<!-- Created with Inkscape (http://www.inkscape.org/) -->

<svg
   width="208.04054"
   height="107.90904"
   viewBox="0 0 55.044062 28.550935"
   version="1.1"
   id="svg5"
   inkscape:version="1.1.2 (b8e25be833, 2022-02-05)"
   sodipodi:docname="ijzershop_mobile.svg"
   xmlns:inkscape="http://www.inkscape.org/namespaces/inkscape"
   xmlns:sodipodi="http://sodipodi.sourceforge.net/DTD/sodipodi-0.dtd"
   xmlns="http://www.w3.org/2000/svg"
   xmlns:svg="http://www.w3.org/2000/svg">
  <sodipodi:namedview
     id="namedview7"
     pagecolor="#ffffff"
     bordercolor="#111111"
     borderopacity="1"
     inkscape:pageshadow="0"
     inkscape:pageopacity="0"
     inkscape:pagecheckerboard="1"
     inkscape:document-units="mm"
     showgrid="false"
     units="px"
     inkscape:zoom="1.0973349"
     inkscape:cx="-40.552797"
     inkscape:cy="-101.15417"
     inkscape:window-width="1920"
     inkscape:window-height="1009"
     inkscape:window-x="1912"
     inkscape:window-y="-8"
     inkscape:window-maximized="1"
     inkscape:current-layer="layer1" />
  <defs
     id="defs2" />
  <g
     inkscape:label="Layer 1"
     inkscape:groupmode="layer"
     id="layer1"
     transform="translate(-1.981737,-0.92817846)">
    <path
       d="m 9.682119,9.4319216 h 5.749342 v 1.0193854 1.481509 4.594036 0.217468 H 5.3327358 L 3.1444527,14.963793 V 5.0825393 L 5.3327358,3.1524996 H 15.431461 V 7.0261685 H 7.8336315 v 1.2640403 3.5610562 0.09515 1.236856 H 11.32673 v -1.25045 H 9.682119 Z"
       style="font-size:40px;letter-spacing:0px;word-spacing:0px;opacity:0.99;fill:#ff6a00;fill-opacity:1;stroke-width:0.0953083"
       id="path94296" />
    <path
       d="m 29.159201,7.0261685 h -7.733748 v 1.2640403 h 5.708565 v 3.5610562 h -5.708565 v 1.331999 h 7.733748 V 16.74432 H 18.924558 L 16.736275,14.963793 V 5.0825393 l 2.188283,-1.9300397 h 10.234643 z"
       style="font-size:40px;letter-spacing:0px;word-spacing:0px;opacity:0.99;fill:#ff6a00;fill-opacity:1;stroke-width:0.0953083"
       id="path94298" />
    <path
       d="m 42.587921,5.0553553 v 3.7105676 l -2.188283,1.8484861 2.188283,1.549467 v 4.580444 h -4.376566 v -4.580444 h -3.27563 V 16.74432 H 30.328097 V 7.0261685 3.1524996 h 4.607628 5.463913 z M 38.224947,7.7329429 V 6.4417202 h -3.289222 l -0.04077,1.2912227 h 0.04077 3.27563 z"
       style="font-size:40px;letter-spacing:0px;word-spacing:0px;opacity:0.99;fill:#ff6a00;fill-opacity:1;stroke-width:0.0953083"
       id="path94300" />
    <path
       d="m 54.181744,3.1524996 2.025181,1.6582019 V 14.923017 L 53.991458,16.74432 H 45.714039 L 43.919918,14.923017 V 4.8107015 L 45.985875,3.1524996 Z M 51.775991,13.101712 V 6.713558 h -3.425139 v 6.388154 z"
       style="font-size:40px;letter-spacing:0px;word-spacing:0px;opacity:0.99;fill:#ff6a00;fill-opacity:1;stroke-width:0.0953083"
       id="path94302" />
    <path
       d="m 6.0438011,21.240412 v 0.781563 h 2.8993481 v 2.201824 H 6.0438011 v 0.823583 2.201824 H 5.959762 4.4974817 3.1444527 v -1.100912 -6.109641 l 1.353029,-1.193355 h 5.5801953 v 2.395114 z"
       style="font-size:40px;-inkscape-font-specification:'IJzershop, Normal';letter-spacing:0px;word-spacing:0px;fill:#000000;stroke-width:0.0589297"
       id="path94304" />
    <path
       d="m 10.993703,27.249206 v -8.403908 h 3.000195 v 8.403908 z"
       style="font-size:40px;-inkscape-font-specification:'IJzershop, Normal';letter-spacing:0px;word-spacing:0px;fill:#000000;stroke-width:0.0589297"
       id="path94306" />
    <path
       d="M 22.31376,18.845298 V 21.2152 h -2.260651 v 6.017198 h -2.96658 V 21.2152 h -2.227036 v -2.369902 z"
       style="font-size:40px;-inkscape-font-specification:'IJzershop, Normal';letter-spacing:0px;word-spacing:0px;fill:#000000;stroke-width:0.0589297"
       id="path94308" />
    <path
       d="m 28.835193,27.249206 -3.563257,-4.479283 v 4.479283 h -2.008534 v -8.403908 h 2.008534 v 0 l 3.563257,4.521303 v -4.521303 h 2.185016 v 8.403908 z"
       style="font-size:40px;-inkscape-font-specification:'IJzershop, Normal';letter-spacing:0px;word-spacing:0px;fill:#000000;stroke-width:0.0589297"
       id="path94310" />
    <path
       d="m 39.625802,21.240412 h -4.781823 v 0.781563 h 3.529641 v 2.201824 h -3.529641 v 0.823583 h 4.781823 v 2.201824 H 33.29766 l -1.353029,-1.100912 v -6.109641 l 1.353029,-1.193355 h 6.328142 z"
       style="font-size:40px;-inkscape-font-specification:'IJzershop, Normal';letter-spacing:0px;word-spacing:0px;fill:#000000;stroke-width:0.0589297"
       id="path94312" />
    <path
       d="m 47.76919,21.282431 h -4.756612 v 0.77316 h 3.420391 l 1.336221,1.016873 v 3.067426 l -1.336221,1.092508 H 40.34854 v -2.176612 h 4.798631 V 24.232203 H 41.583914 L 40.34854,23.148099 V 20.09748 l 1.470683,-1.184951 h 5.949967 z"
       style="font-size:40px;-inkscape-font-specification:'IJzershop, Normal';letter-spacing:0px;word-spacing:0px;fill:#000000;stroke-width:0.0589297"
       id="path94314" />
    <path
       d="m 56.173096,21.282431 h -4.756612 v 0.77316 h 3.42039 l 1.336222,1.016873 v 3.067426 l -1.336222,1.092508 h -6.084429 v -2.176612 h 4.798631 V 24.232203 H 49.987819 L 48.752445,23.148099 V 20.09748 l 1.470684,-1.184951 h 5.949967 z"
       style="font-size:40px;-inkscape-font-specification:'IJzershop, Normal';letter-spacing:0px;word-spacing:0px;fill:#000000;stroke-width:0.0589297"
       id="path94316" />
  </g>
</svg>
