<?xml version="1.0" encoding="UTF-8"?>
<!-- Created with Inkscape (http://www.inkscape.org/) -->
<svg width="165.8" height="86" version="1.1" viewBox="0 0 43.868 22.754" xmlns="http://www.w3.org/2000/svg">
 <g transform="translate(-7.5696 -3.8266)" fill="#fff" stroke-width=".26379">
  <path d="m7.5696 14.41v-10.583h3.7556v10.583z"/>
  <path d="m16.28 3.8266h3.5663v9.1969l-1.9357 1.3864h-5.5019v-2.7728h3.8714z"/>
  <path d="m30.482 6.8111-5.1022 4.8577h5.0917v2.7411h-9.5521v-2.7411l5.1443-4.8577h-5.1443v-2.9845h9.5627z"/>
  <path d="m41.044 6.8428h-5.9859v0.98425h4.4184v2.7728h-4.4184v1.0372h5.9859v2.7728h-7.9215l-1.6937-1.3864v-7.6941l1.6937-1.5028h7.9215z"/>
  <path d="m51.438 5.3082v2.8892l-1.6937 1.4393 1.6937 1.2065v3.5666h-3.3874v-3.5666h-2.5353v3.5666h-3.5663v-10.583h7.7953zm-3.3769 2.0849v-1.0054h-2.5458l-0.03156 1.0054h2.5669z"/>
  <g>
   <path d="m19.678 19.067h-5.9543v0.97367h4.2816l1.6727 1.2806v3.8629l-1.6727 1.3758h-7.6165v-2.7411h6.0069v-1.0372h-4.4605l-1.5464-1.3652v-3.8417l1.841-1.4922h7.4481z"/>
   <path d="m26.926 15.997h3.6715v10.583h-3.6715v-3.5666h-2.4091v3.5666h-3.6084v-10.583h3.6084v4.6037h2.4091z"/>
   <path d="m39.372 15.997 1.5675 1.2912v7.874l-1.7148 1.4182h-6.4067l-1.3886-1.4182v-7.874l1.599-1.2912zm-1.862 7.747v-4.9742h-2.651v4.9742z"/>
   <path d="m49.765 15.997 1.5675 1.2594v6.4876l-1.5675 1.4182h-4.2711v1.4182h-3.5452v-10.583h3.5452zm-4.2711 2.5188v3.8417h2.5353v-3.8417z"/>
  </g>
 </g>
</svg>
