<?xml version="1.0" encoding="UTF-8" standalone="no"?>
<!-- Created with Inkscape (http://www.inkscape.org/) -->

<svg
   width="208.04054"
   height="107.90904"
   viewBox="0 0 55.044062 28.550935"
   version="1.1"
   id="svg5"
   inkscape:version="1.1.2 (b8e25be833, 2022-02-05)"
   sodipodi:docname="ijzershop_mobile.svg"
   xmlns:inkscape="http://www.inkscape.org/namespaces/inkscape"
   xmlns:sodipodi="http://sodipodi.sourceforge.net/DTD/sodipodi-0.dtd"
   xmlns="http://www.w3.org/2000/svg"
   xmlns:svg="http://www.w3.org/2000/svg">
  <sodipodi:namedview
     id="namedview7"
     pagecolor="#ffffff"
     bordercolor="#111111"
     borderopacity="1"
     inkscape:pageshadow="0"
     inkscape:pageopacity="0"
     inkscape:pagecheckerboard="1"
     inkscape:document-units="mm"
     showgrid="false"
     units="px"
     inkscape:zoom="1.5518659"
     inkscape:cx="85.38109"
     inkscape:cy="-23.197881"
     inkscape:window-width="1920"
     inkscape:window-height="1057"
     inkscape:window-x="-8"
     inkscape:window-y="-8"
     inkscape:window-maximized="1"
     inkscape:current-layer="layer1" />
  <defs
     id="defs2" />
  <g
     inkscape:label="Layer 1"
     inkscape:groupmode="layer"
     id="layer1"
     transform="translate(-1.981737,-0.92817846)">
    <g
       aria-label="IJZER
SHOP"
       transform="matrix(0.79457806,0,0,0.79936288,6.8336985,3.0868436)"
       id="text27446"
       style="font-size:13.2397px;line-height:1.15;font-family:IJzershop;-inkscape-font-specification:IJzershop;stroke-width:0.330992">
      <path
         d="M 0.92617979,14.165097 V 0.92539635 H 5.6527528 V 14.165097 Z"
         style="text-align:end;text-anchor:end"
         id="path44968" />
      <path
         d="m 11.88864,0.92539635 h 4.488258 V 12.430696 l -2.436105,1.734401 H 7.0164298 V 10.696295 H 11.88864 Z"
         style="text-align:end;text-anchor:end"
         id="path44970" />
      <path
         d="m 29.762242,4.6589918 -6.421254,6.0770222 h 6.408015 v 3.429083 H 17.727355 v -3.429083 0 L 24.201568,4.6589918 H 17.727355 V 0.92539635 h 12.034887 z"
         style="text-align:end;text-anchor:end"
         id="path44972" />
      <path
         d="m 43.054901,4.6987109 h -7.533389 v 1.2312922 h 5.560674 v 3.4688015 h -5.560674 v 1.2974904 h 7.533389 v 3.468802 H 33.085407 L 30.953815,12.430696 V 2.8054338 l 2.131592,-1.88003745 h 9.969494 z"
         style="text-align:end;text-anchor:end"
         id="path44974" />
      <path
         d="m 56.135723,2.7789544 v 3.6144382 l -2.131591,1.8005992 2.131591,1.5093259 V 14.165097 H 51.87254 V 9.7033177 H 48.681772 V 14.165097 H 44.193514 V 4.6987109 0.92539635 h 4.488258 5.32236 z M 51.88578,5.3871754 V 4.1294038 h -3.204008 l -0.03972,1.2577716 h 0.03972 3.190768 z"
         style="text-align:end;text-anchor:end"
         id="path44976" />
      <path
         d="M 16.16507,19.990564 H 8.6713998 v 1.218053 h 5.3885582 l 2.105112,1.602004 v 4.83249 l -2.105112,1.721161 H 4.4744148 V 25.93519 H 12.034284 V 24.637699 H 6.4206508 L 4.4744148,22.929778 V 18.123767 L 6.7913624,16.256969 H 16.16507 Z"
         style="text-align:end;text-anchor:end;fill:#3b56ad;fill-opacity:1"
         id="path44978" />
      <path
         d="m 25.287224,16.151051 h 4.620655 v 13.239701 h -4.620655 v -4.461779 h -3.031892 v 4.461779 H 17.714115 V 16.151051 h 4.541217 v 5.75927 h 3.031892 z"
         style="text-align:end;text-anchor:end;fill:#3b56ad;fill-opacity:1"
         id="path44980" />
      <path
         d="m 40.949789,16.151051 1.972716,1.615244 v 9.850337 l -2.158072,1.77412 h -8.062977 l -1.747641,-1.77412 v -9.850337 l 2.012435,-1.615244 z m -2.343427,9.691461 v -6.222659 h -3.336404 v 6.222659 z"
         style="text-align:end;text-anchor:end;fill:#3b56ad;fill-opacity:1"
         id="path44982" />
      <path
         d="m 54.030613,16.151051 1.972715,1.575525 v 8.115936 l -1.972715,1.77412 h -5.375318 v 1.77412 H 44.193516 V 19.3021 16.151051 h 4.461779 z M 48.655295,19.3021 v 4.806011 h 3.190768 V 19.3021 Z"
         style="text-align:end;text-anchor:end;fill:#3b56ad;fill-opacity:1"
         id="path44984" />
    </g>
  </g>
</svg>
