<?xml version="1.0" encoding="UTF-8"?>
<!-- Created with Inkscape (http://www.inkscape.org/) -->
<svg width="158.72mm" height="19.451mm" version="1.1" viewBox="0 0 158.72 19.451" xmlns="http://www.w3.org/2000/svg">
 <g fill="#fff" stroke-width=".1858">
  <path d="m-1.3832e-8 19.451v-19.451h6.944v19.451z"/>
  <path d="m16.105-3.2831e-7h6.5939v16.903l-3.579 2.5481h-10.173v-5.0962h7.158z"/>
  <path d="m42.364 5.4852-9.4337 8.928h9.4143v5.0378h-17.661v-5.0378l9.5115-8.928h-9.5115v-5.4852h17.681z"/>
  <path d="m61.893 5.5435h-11.068v1.8089h8.1694v5.0962h-8.1694v1.9062h11.068v5.0962h-14.647l-3.1316-2.5481v-14.141l3.1316-2.762h14.647z"/>
  <path d="m81.11 2.7231v5.3101l-3.1316 2.6453 3.1316 2.2174v6.555h-6.2632v-6.555h-4.6877v6.555h-6.5939v-19.451h14.413zm-6.2438 3.8318v-1.8478h-4.7071l-0.05835 1.8478h4.746z"/>
  <path d="m100.19 5.6408h-11.009v1.7895h7.9165l3.0927 2.3536v7.0996l-3.0927 2.5286h-14.082v-5.0378h11.106v-1.9062h-8.2472l-2.8593-2.5092v-7.0607l3.4039-2.7426h13.771z"/>
  <path d="m113.59-3.2831e-7h6.7884v19.451h-6.7884v-6.555h-4.4543v6.555h-6.6717v-19.451h6.6717v8.4612h4.4543z"/>
  <path d="m136.6-3.2831e-7 2.8982 2.373v14.472l-3.1705 2.6064h-11.846l-2.5675-2.6064v-14.472l2.9565-2.373zm-3.4428 14.238v-9.142h-4.9016v9.142z"/>
  <path d="m155.82-3.2831e-7 2.8982 2.3147v11.923l-2.8982 2.6064h-7.8971v2.6064h-6.555v-19.451h6.555zm-7.8971 4.6293v7.0607h4.6877v-7.0607z"/>
 </g>
</svg>
