<?xml version="1.0" encoding="UTF-8" standalone="no"?>
<!-- Created with Inkscape (http://www.inkscape.org/) -->

<svg
   width="158.72mm"
   height="19.451mm"
   version="1.1"
   viewBox="0 0 158.72 19.451"
   id="svg22"
   sodipodi:docname="ijzershop-menu-logo.svg"
   inkscape:version="1.1.2 (b8e25be833, 2022-02-05)"
   xmlns:inkscape="http://www.inkscape.org/namespaces/inkscape"
   xmlns:sodipodi="http://sodipodi.sourceforge.net/DTD/sodipodi-0.dtd"
   xmlns="http://www.w3.org/2000/svg"
   xmlns:svg="http://www.w3.org/2000/svg">
  <defs
     id="defs26" />
  <sodipodi:namedview
     id="namedview24"
     pagecolor="#ffffff"
     bordercolor="#111111"
     borderopacity="1"
     inkscape:pageshadow="0"
     inkscape:pageopacity="0"
     inkscape:pagecheckerboard="1"
     inkscape:document-units="mm"
     showgrid="false"
     inkscape:zoom="0.88183331"
     inkscape:cx="220.56323"
     inkscape:cy="179.17218"
     inkscape:window-width="1920"
     inkscape:window-height="1009"
     inkscape:window-x="1912"
     inkscape:window-y="-8"
     inkscape:window-maximized="1"
     inkscape:current-layer="svg22" />
  <path
     d="M 26.957587,17.846718 H 25.160114 V 9.7799972 c 0,-0.7452954 -0.219218,-1.3590666 -0.701465,-1.7536345 -0.482247,-0.4384098 -1.096025,-0.6576131 -1.841317,-0.6576131 -1.096025,0 -1.928988,0.3507259 -2.542766,1.008339 V 17.846718 H 18.277093 V 9.4731117 c 0,-0.6576132 -0.263046,-1.1837037 -0.745293,-1.5782716 -0.482264,-0.3945679 -1.183713,-0.5699325 -1.972849,-0.5699325 -0.876823,0 -1.665959,0.1315144 -2.323565,0.3945679 V 17.802878 H 11.394068 V 6.7111365 c 1.315228,-0.5699325 2.674298,-0.8329778 4.033369,-0.8329778 1.709787,0 2.937326,0.4384099 3.726463,1.3590683 0.394576,-0.3945679 0.96451,-0.7014552 1.622115,-0.9645004 0.657621,-0.2630453 1.402913,-0.3945679 2.192049,-0.3945679 1.183696,0 2.19205,0.3507276 2.893498,1.0083407 0.745292,0.6576132 1.096025,1.5782716 1.096025,2.7181349 z"
     id="path8"
     style="stroke-width:0.438408;fill:#ffffff" />
  <path
     d="m 38.356204,7.5879529 c 0.876823,1.1398633 1.315226,2.5866121 1.315226,4.3840891 0,1.797474 -0.438403,3.288064 -1.315226,4.427927 -0.876807,1.139863 -2.104362,1.709794 -3.682634,1.709794 -1.578271,0 -2.805811,-0.569931 -3.682634,-1.709794 -0.876806,-1.139863 -1.315226,-2.630453 -1.315226,-4.427927 0,-1.797477 0.43842,-3.2880661 1.315226,-4.3840891 0.876823,-1.1398617 2.104363,-1.7097942 3.682634,-1.7097942 1.578272,0 2.805827,0.5699325 3.682634,1.7097942 z m -0.526091,4.3840891 c 0,-1.402909 -0.263045,-2.4989303 -0.832963,-3.3319081 -0.52609,-0.8329761 -1.315226,-1.2713843 -2.367407,-1.2713843 -1.052181,0 -1.79749,0.4384082 -2.367407,1.2713843 -0.526091,0.8329778 -0.83298,1.9289991 -0.83298,3.3319081 0,1.402907 0.263046,2.54277 0.83298,3.375746 0.52609,0.832976 1.315226,1.271386 2.367407,1.271386 1.052181,0 1.797473,-0.43841 2.367407,-1.271386 0.569918,-0.876818 0.832963,-1.972839 0.832963,-3.375746 z"
     id="path10"
     style="stroke-width:0.438408;fill:#ffffff" />
  <path
     d="m 51.289265,17.276787 c -0.39456,0.219203 -0.92065,0.394568 -1.622115,0.569931 -0.701449,0.175363 -1.402897,0.263045 -2.148189,0.263045 -1.753647,0 -3.156543,-0.52609 -4.121054,-1.622112 -0.964494,-1.052181 -1.44674,-2.54277 -1.44674,-4.384087 0,-1.841317 0.482246,-3.3319075 1.44674,-4.4279288 0.964511,-1.0960214 2.279737,-1.6659539 3.989523,-1.6659539 0.832979,0 1.534428,0.087687 2.104362,0.3068873 V 0.74877669 h 1.797473 z M 49.491792,16.224606 V 7.7194755 C 49.053388,7.5441126 48.395767,7.4564302 47.518961,7.4564302 c -1.183712,0 -2.104362,0.4384099 -2.761984,1.3152263 -0.657605,0.8768181 -0.964494,1.9728395 -0.964494,3.3757485 0,1.359066 0.306889,2.455088 0.964494,3.288065 0.657622,0.789136 1.578272,1.227544 2.761984,1.227544 0.876806,-0.04384 1.534427,-0.175363 1.972831,-0.438408 z"
     id="path12"
     style="stroke-width:0.438408;fill:#ffffff" />
  <path
     d="m 63.871594,10.919861 c 0,0.350725 0,0.613771 0,0.789135 l -8.022872,1.139862 c 0.08765,1.227546 0.482246,2.192044 1.183695,2.805816 0.701465,0.657613 1.622115,0.9645 2.761983,0.9645 1.271383,0 2.323564,-0.219205 3.200387,-0.701455 l 0.569934,1.359068 c -0.96451,0.569931 -2.279736,0.832976 -3.858008,0.832976 -1.753629,0 -3.112699,-0.52609 -4.121037,-1.622112 -1.008337,-1.096023 -1.490584,-2.586612 -1.490584,-4.515609 0,-1.841317 0.482247,-3.2880661 1.402897,-4.4279294 0.920667,-1.0960214 2.148206,-1.6659539 3.726477,-1.6659539 1.446757,0 2.586609,0.4384099 3.419589,1.3590683 0.789135,0.8768164 1.227539,2.104362 1.227539,3.682634 z m -1.75363,-0.263046 c 0,-1.0960227 -0.263045,-1.9728391 -0.789136,-2.5427716 -0.52609,-0.5699308 -1.227539,-0.8768164 -2.148205,-0.8768164 -1.052181,0 -1.841317,0.3945679 -2.498922,1.1837036 -0.613778,0.7891358 -0.96451,1.8413164 -0.96451,3.1565434 z"
     id="path14"
     style="stroke-width:0.438408;fill:#ffffff" />
  <path
     d="m 72.025997,5.965841 -0.350716,1.5344312 c -0.263046,-0.043844 -0.613778,-0.087687 -1.052181,-0.087687 -0.920667,0 -1.665959,0.1315143 -2.235893,0.3507275 V 17.846713 H 66.54589 V 6.7111315 c 1.227555,-0.5699325 2.674296,-0.8329778 4.296411,-0.8329778 0.39456,0 0.745292,0.043844 1.183696,0.087687 z"
     id="path16"
     style="stroke-width:0.438408;fill:#ffffff" />
  <path
     d="m 83.293116,17.846718 h -1.79749 V 9.9115199 c 0,-0.7891358 -0.263045,-1.4467489 -0.745292,-1.8851572 -0.482247,-0.4384098 -1.183696,-0.7014551 -2.104362,-0.7014551 -0.964494,0 -1.797474,0.1315144 -2.498922,0.3945679 V 17.802878 H 74.305733 V 6.7111365 C 75.620959,6.141204 77.0677,5.8781587 78.602128,5.8781587 c 1.534444,0 2.674296,0.3507276 3.463432,1.0083407 0.789136,0.6576132 1.183712,1.6221119 1.183712,2.8934978 v 8.0667208 z"
     id="path18"
     style="stroke-width:0.438408;fill:#ffffff" />
  <path
     d="m 95.831601,10.919861 c 0,0.350725 0,0.613771 0,0.789135 l -8.066716,1.139862 c 0.08765,1.227546 0.482247,2.192044 1.183695,2.805816 0.701449,0.657613 1.622116,0.9645 2.761984,0.9645 1.271382,0 2.323563,-0.219205 3.20037,-0.701455 l 0.569934,1.359068 c -0.964494,0.569931 -2.235876,0.832976 -3.857991,0.832976 -1.75363,0 -3.1127,-0.52609 -4.121037,-1.622112 -1.008354,-1.096023 -1.490601,-2.586612 -1.490601,-4.515609 0,-1.841317 0.482247,-3.2880661 1.402913,-4.4279294 0.920651,-1.0960214 2.148206,-1.6659539 3.726478,-1.6659539 1.44674,0 2.586609,0.4384099 3.419588,1.3590683 0.832979,0.8768164 1.271383,2.104362 1.271383,3.682634 z m -1.75363,-0.263046 c 0,-1.0960227 -0.263045,-1.9728391 -0.789136,-2.5427716 C 92.762745,7.5441126 92.06128,7.237227 91.14063,7.237227 c -1.052181,0 -1.841317,0.3945679 -2.498939,1.1837036 -0.613761,0.7891358 -0.964493,1.8413164 -0.964493,3.1565434 z"
     id="path20"
     style="stroke-width:0.438408;fill:#ffffff" />
  <path
     d="m 112.09661,14.47097 c 0,1.139863 -0.39456,2.016681 -1.22754,2.674294 -0.83297,0.657614 -2.01669,0.964499 -3.55113,0.964499 -1.44674,0 -2.71814,-0.263045 -3.77032,-0.832976 l 0.9645,-2.279727 c 0.30689,0.175365 0.74529,0.350728 1.31523,0.526091 0.56994,0.175365 1.05219,0.219205 1.44675,0.219205 0.52609,0 0.96452,-0.131514 1.27141,-0.350728 0.30687,-0.219203 0.48225,-0.52609 0.48225,-0.920658 0,-0.394566 -0.13157,-0.701454 -0.43843,-0.964499 -0.30687,-0.219203 -0.74529,-0.438408 -1.35906,-0.657613 -0.52609,-0.175363 -0.92067,-0.350726 -1.18372,-0.482249 -0.26304,-0.13153 -0.61378,-0.350727 -1.00834,-0.613772 -0.39458,-0.263046 -0.70145,-0.613773 -0.87683,-1.008341 -0.17536,-0.394568 -0.26304,-0.8768165 -0.26304,-1.4467489 0,-1.0521811 0.39458,-1.8851572 1.13987,-2.49893 0.7453,-0.6137712 1.79748,-0.9644987 3.15656,-0.9644987 1.35908,0 2.54277,0.2630452 3.59496,0.8329761 l -0.92066,2.0166814 c -0.74529,-0.4384099 -1.53442,-0.6576132 -2.32356,-0.6576132 -0.5261,0 -0.92067,0.1315144 -1.22757,0.3507259 -0.30689,0.219205 -0.4384,0.5260906 -0.4384,0.8768181 0,0.3945679 0.13156,0.7014535 0.4384,0.9644983 0.3069,0.219205 0.7453,0.43841 1.35908,0.657614 0.56994,0.219205 0.9645,0.350727 1.22754,0.48225 0.26305,0.131514 0.61378,0.306885 1.00836,0.613773 0.39456,0.263045 0.70145,0.613771 0.92065,1.052181 0.17536,0.394568 0.26304,0.876816 0.26304,1.446747 z"
     id="path22"
     style="stroke-width:0.438408;fill:#ffffff" />
  <path
     d="m 130.59747,17.846718 h -2.98119 v -7.803676 c 0,-0.5699303 -0.17535,-1.0083402 -0.52609,-1.3152258 -0.35073,-0.3068856 -0.83298,-0.4822502 -1.44674,-0.4822502 -0.74531,0 -1.31522,0.1753646 -1.75364,0.5699325 v 9.0312195 h -2.98117 V 9.9115199 c 0,-0.5260905 -0.17538,-0.9206584 -0.52609,-1.227544 -0.35073,-0.3068873 -0.87683,-0.4384099 -1.4906,-0.4384099 -0.65761,0 -1.1837,0.087687 -1.62212,0.2630453 v 9.3381067 h -2.98117 V 6.7111365 c 1.4029,-0.5699325 2.8935,-0.8329778 4.42793,-0.8329778 1.62211,0 2.8935,0.3945679 3.77032,1.1837037 1.05218,-0.7891358 2.36741,-1.1837037 3.94568,-1.1837037 1.27138,0 2.32356,0.3507276 3.06885,1.052181 0.7453,0.7014552 1.09603,1.6221136 1.09603,2.8496575 z"
     id="path24"
     style="stroke-width:0.438408;fill:#ffffff" />
  <path
     d="m 135.94605,1.4940721 c 0.35073,0.3068856 0.48226,0.7014535 0.48226,1.1398634 0,0.4384082 -0.17538,0.8329761 -0.48226,1.1398616 -0.35072,0.3068873 -0.7453,0.4822502 -1.1837,0.4822502 -0.4384,0 -0.87682,-0.1753629 -1.18371,-0.4822502 -0.35072,-0.3068855 -0.48225,-0.7014534 -0.48225,-1.1398616 0,-0.4384099 0.17538,-0.8329778 0.48225,-1.1398634 0.35073,-0.3068855 0.74531,-0.4384082 1.18371,-0.4384082 0.4384,0 0.83298,0.1315144 1.1837,0.4384082 z m 0.26304,16.3526459 h -2.98117 V 6.0973636 h 2.98117 z"
     id="path26"
     style="stroke-width:0.438408;fill:#ffffff" />
  <line
     class="st0"
     x1="136.82268"
     y1="12.015883"
     x2="144.10027"
     y2="12.015883"
     id="line30"
     style="fill:#ffffff;stroke:#ffffff;stroke-width:0.328806;stroke-miterlimit:10" />
  <g
     id="g46"
     transform="matrix(0.43840876,0,0,0.43840876,-32.79753,-7.5809892)"
     style="fill:#ffffff">
    <g
       id="g40"
       style="fill:#ffffff">
      <path
         class="st1"
         d="m 390.7,44.9 c 0,0.1 0,0.2 0,0.3 v -0.7 c 0,0.1 0,0.3 0,0.4 z"
         id="path32"
         style="fill:#ffffff" />
      <path
         class="st2"
         d="m 399.1,38.5 c 1.1,-1.6 2.7,-2.3 4.8,-2.3 1.4,0 2.4,0.2 3.1,0.5 v 0 c 1.4,0.4 4,1.5 6.8,3 v -5.5 c -2.3,-1 -5.4,-2.2 -6.3,-2.5 -0.9,-0.3 -2.8,-0.7 -4.3,-0.7 -4,0 -7.1,1.3 -9.3,3.8 -2,2.4 -3.1,5.5 -3.2,9.3 h 6.7 c 0.1,-2.3 0.7,-4.2 1.7,-5.6 z"
         id="path34"
         style="fill:#ffffff" />
      <path
         class="st1"
         d="m 390.7,44.1 v 0.4 c 0,-0.1 0,-0.2 0,-0.4 z"
         id="path36"
         style="fill:#ffffff" />
      <path
         class="st1"
         d="m 404,58.7 c 4.1,0 7.4,-0.6 9.8,-1.9 v -6.9 c -4.6,2.8 -7.3,3.5 -8.8,3.5 0,0 0,0 0,0 -0.3,0 -0.7,0 -1.1,0 -2.1,0 -3.7,-0.8 -4.8,-2.3 -1.1,-1.5 -1.7,-3.6 -1.7,-6.3 0,-0.2 0,-0.4 0,-0.6 h -6.7 c 0,0.1 0,0.3 0,0.4 v 0.7 c 0.1,4.2 1.2,7.5 3.4,9.8 2.3,2.4 5.6,3.6 9.9,3.6 z"
         id="path38"
         style="fill:#ffffff" />
    </g>
    <path
       d="m 413.8,41.2 c -2.8,-1.4 -5.3,-2.5 -6.8,-3 v 13.5 c 1.5,-0.4 3.7,-1.2 6.8,-3.1 z"
       id="path42"
       style="fill:#ffffff" />
    <path
       d="M 413.8,33.1 V 19 H 407 v 11.4 c 2.2,0.8 4.6,1.7 6.8,2.7 z"
       id="path44"
       style="fill:#ffffff" />
  </g>
</svg>
