<?xml version="1.0" encoding="UTF-8" standalone="no"?>
<!-- Created with Inkscape (http://www.inkscape.org/) -->

<svg
   width="208.04054"
   height="107.90904"
   viewBox="0 0 55.044062 28.550935"
   version="1.1"
   id="svg5"
   inkscape:version="1.1.2 (b8e25be833, 2022-02-05)"
   sodipodi:docname="ijzershop_mobile.svg"
   xmlns:inkscape="http://www.inkscape.org/namespaces/inkscape"
   xmlns:sodipodi="http://sodipodi.sourceforge.net/DTD/sodipodi-0.dtd"
   xmlns="http://www.w3.org/2000/svg"
   xmlns:svg="http://www.w3.org/2000/svg">
  <sodipodi:namedview
     id="namedview7"
     pagecolor="#ffffff"
     bordercolor="#111111"
     borderopacity="1"
     inkscape:pageshadow="0"
     inkscape:pageopacity="0"
     inkscape:pagecheckerboard="1"
     inkscape:document-units="mm"
     showgrid="false"
     units="px"
     inkscape:zoom="2.1946698"
     inkscape:cx="39.413674"
     inkscape:cy="29.161562"
     inkscape:window-width="1920"
     inkscape:window-height="1009"
     inkscape:window-x="1912"
     inkscape:window-y="-8"
     inkscape:window-maximized="1"
     inkscape:current-layer="layer1" />
  <defs
     id="defs2" />
  <g
     inkscape:label="Layer 1"
     inkscape:groupmode="layer"
     id="layer1"
     transform="translate(-1.981737,-0.92817846)">
    <path
       d="M 13.84999,11.661139 H 12.765198 V 6.7928059 c 0,-0.449792 -0.132291,-0.820208 -0.423333,-1.058333 -0.291042,-0.264584 -0.661458,-0.396875 -1.11125,-0.396875 -0.661458,0 -1.164167,0.211666 -1.5345833,0.608541 V 11.661139 H 8.6112397 V 6.6075979 c 0,-0.396875 -0.15875,-0.714375 -0.449792,-0.9525 -0.291041,-0.238125 -0.714375,-0.343959 -1.190625,-0.343959 -0.529166,0 -1.005416,0.07938 -1.402291,0.238125 v 6.0854171 h -1.11125 V 4.9407229 c 0.79375,-0.343959 1.613958,-0.502709 2.434166,-0.502709 1.031875,0 1.772709,0.264584 2.248959,0.820209 0.238125,-0.238125 0.582083,-0.423334 0.9789583,-0.582084 0.396875,-0.15875 0.846667,-0.238125 1.322917,-0.238125 0.714375,0 1.322916,0.211667 1.74625,0.608542 0.449791,0.396875 0.661458,0.9525 0.661458,1.640417 z"
       id="path8"
       style="stroke-width:0.264583;fill:#ffffff" />
    <path
       d="m 20.729156,5.4698889 c 0.529167,0.687917 0.79375,1.561042 0.79375,2.645834 0,1.084791 -0.264583,1.9843741 -0.79375,2.6722911 -0.529166,0.687917 -1.27,1.031875 -2.2225,1.031875 -0.9525,0 -1.693333,-0.343958 -2.222499,-1.031875 -0.529167,-0.687917 -0.79375,-1.5875001 -0.79375,-2.6722911 0,-1.084792 0.264583,-1.984375 0.79375,-2.645834 0.529166,-0.687916 1.269999,-1.031875 2.222499,-1.031875 0.9525,0 1.693334,0.343959 2.2225,1.031875 z m -0.3175,2.645834 c 0,-0.846667 -0.15875,-1.508125 -0.502708,-2.010834 -0.3175,-0.502708 -0.79375,-0.767291 -1.42875,-0.767291 -0.635,0 -1.084791,0.264583 -1.42875,0.767291 -0.3175,0.502709 -0.502708,1.164167 -0.502708,2.010834 0,0.846666 0.15875,1.534583 0.502708,2.0372911 0.3175,0.502708 0.79375,0.767292 1.42875,0.767292 0.635,0 1.084792,-0.264584 1.42875,-0.767292 0.343958,-0.5291671 0.502708,-1.1906251 0.502708,-2.0372911 z"
       id="path10"
       style="stroke-width:0.264583;fill:#ffffff" />
    <path
       d="m 28.534365,11.317181 c -0.238125,0.132291 -0.555625,0.238125 -0.978959,0.343958 -0.423333,0.105833 -0.846666,0.15875 -1.296458,0.15875 -1.058333,0 -1.905,-0.3175 -2.487083,-0.978958 -0.582084,-0.635 -0.873125,-1.5345831 -0.873125,-2.6458331 0,-1.11125 0.291041,-2.010834 0.873125,-2.672292 0.582083,-0.661458 1.375833,-1.005417 2.407708,-1.005417 0.502708,0 0.926042,0.05292 1.27,0.185209 v -3.360209 h 1.084792 z m -1.084792,-0.635 V 5.5492639 c -0.264583,-0.105833 -0.661458,-0.15875 -1.190625,-0.15875 -0.714375,0 -1.27,0.264584 -1.666875,0.79375 -0.396875,0.529167 -0.582083,1.190625 -0.582083,2.037292 0,0.820208 0.185208,1.481666 0.582083,1.9843751 0.396875,0.47625 0.9525,0.740833 1.666875,0.740833 0.529167,-0.02646 0.926042,-0.105833 1.190625,-0.264583 z"
       id="path12"
       style="stroke-width:0.264583;fill:#ffffff" />
    <path
       d="m 36.127906,7.4807229 c 0,0.211666 0,0.370416 0,0.47625 l -4.841875,0.687916 c 0.05292,0.740834 0.291042,1.322917 0.714375,1.6933331 0.423333,0.396875 0.978958,0.582084 1.666875,0.582084 0.767292,0 1.402292,-0.132292 1.931458,-0.423334 l 0.343959,0.820209 c -0.582084,0.343958 -1.375834,0.502708 -2.328334,0.502708 -1.058333,0 -1.878541,-0.3175 -2.487083,-0.978958 -0.608542,-0.661459 -0.899583,-1.5610421 -0.899583,-2.7252081 0,-1.11125 0.291041,-1.984375 0.846666,-2.672292 0.555625,-0.661458 1.296459,-1.005417 2.248959,-1.005417 0.873125,0 1.561041,0.264584 2.06375,0.820209 0.47625,0.529166 0.740833,1.27 0.740833,2.2225 z m -1.058333,-0.15875 c 0,-0.661459 -0.15875,-1.190625 -0.47625,-1.534584 -0.3175,-0.343958 -0.740834,-0.529166 -1.296459,-0.529166 -0.635,0 -1.11125,0.238125 -1.508125,0.714375 -0.370416,0.47625 -0.582083,1.11125 -0.582083,1.905 z"
       id="path14"
       style="stroke-width:0.264583;fill:#ffffff" />
    <path
       d="m 41.049156,4.4909309 -0.211667,0.926042 c -0.15875,-0.02646 -0.370416,-0.05292 -0.635,-0.05292 -0.555625,0 -1.005416,0.07938 -1.349375,0.211667 v 6.0854161 h -1.11125 V 4.9407199 c 0.740834,-0.343959 1.613959,-0.502709 2.592917,-0.502709 0.238125,0 0.449792,0.02646 0.714375,0.05292 z"
       id="path16"
       style="stroke-width:0.264583;fill:#ffffff" />
    <path
       d="M 47.848947,11.661139 H 46.764156 V 6.8721809 c 0,-0.47625 -0.15875,-0.873125 -0.449792,-1.137708 -0.291042,-0.264584 -0.714375,-0.423334 -1.27,-0.423334 -0.582083,0 -1.084792,0.07938 -1.508125,0.238125 v 6.0854171 h -1.11125 V 4.9407229 c 0.79375,-0.343959 1.666875,-0.502709 2.592917,-0.502709 0.926041,0 1.613958,0.211667 2.090208,0.608542 0.47625,0.396875 0.714375,0.978958 0.714375,1.74625 v 4.8683331 z"
       id="path18"
       style="stroke-width:0.264583;fill:#ffffff" />
    <path
       d="m 55.416031,7.4807229 c 0,0.211666 0,0.370416 0,0.47625 l -4.868333,0.687916 c 0.05292,0.740834 0.291041,1.322917 0.714375,1.6933331 0.423333,0.396875 0.978958,0.582084 1.666875,0.582084 0.767291,0 1.402291,-0.132292 1.931458,-0.423334 l 0.343958,0.820209 c -0.582083,0.343958 -1.349375,0.502708 -2.328333,0.502708 -1.058333,0 -1.878542,-0.3175 -2.487083,-0.978958 -0.608542,-0.661459 -0.899584,-1.5610421 -0.899584,-2.7252081 0,-1.11125 0.291042,-1.984375 0.846667,-2.672292 0.555625,-0.661458 1.296458,-1.005417 2.248958,-1.005417 0.873125,0 1.561042,0.264584 2.06375,0.820209 0.502709,0.529166 0.767292,1.27 0.767292,2.2225 z m -1.058333,-0.15875 c 0,-0.661459 -0.15875,-1.190625 -0.47625,-1.534584 -0.3175,-0.343958 -0.740834,-0.529166 -1.296459,-0.529166 -0.635,0 -1.11125,0.238125 -1.508125,0.714375 -0.370416,0.47625 -0.582083,1.11125 -0.582083,1.905 z"
       id="path20"
       style="stroke-width:0.264583;fill:#ffffff" />
    <path
       d="m 21.78148,25.463341 c 0,1.043212 -0.361112,1.845683 -1.123459,2.447535 -0.762347,0.601853 -1.845681,0.882717 -3.250005,0.882717 -1.324076,0 -2.487657,-0.240741 -3.450621,-0.762346 l 0.882717,-2.086424 c 0.280864,0.160495 0.6821,0.320989 1.203705,0.481482 0.521605,0.160495 0.962965,0.200618 1.324076,0.200618 0.481482,0 0.882717,-0.120363 1.163583,-0.320988 0.280864,-0.200617 0.441357,-0.481482 0.441357,-0.842594 0,-0.36111 -0.120363,-0.641976 -0.401234,-0.882717 -0.280865,-0.200616 -0.682101,-0.401234 -1.243829,-0.601852 -0.481482,-0.160494 -0.842594,-0.320988 -1.083335,-0.441358 -0.240741,-0.120363 -0.561729,-0.320989 -0.922841,-0.56173 -0.361112,-0.240741 -0.641976,-0.561729 -0.802471,-0.922841 -0.160493,-0.361112 -0.240741,-0.802469 -0.240741,-1.324076 0,-0.962964 0.361112,-1.72531 1.043212,-2.28704 0.6821,-0.561728 1.645065,-0.882717 2.888893,-0.882717 1.243828,0 2.327163,0.240741 3.290127,0.762346 l -0.842593,1.845683 c -0.682099,-0.401236 -1.404322,-0.601853 -2.126545,-0.601853 -0.481483,0 -0.842594,0.120378 -1.12346,0.320987 -0.280864,0.200618 -0.401234,0.481482 -0.401234,0.802471 0,0.361112 0.120378,0.641976 0.401234,0.882717 0.280866,0.200618 0.6821,0.401236 1.24383,0.601853 0.521605,0.200618 0.882717,0.320988 1.123458,0.441359 0.240741,0.120363 0.56173,0.280864 0.922841,0.561729 0.361112,0.240741 0.641976,0.561728 0.842594,0.962965 0.160494,0.361111 0.240741,0.802469 0.240741,1.324074 z"
       id="path22"
       style="stroke-width:0.401235;fill:#ffffff" />
    <path
       d="m 38.713601,28.552852 h -2.728399 v -7.141985 c 0,-0.521605 -0.160494,-0.922841 -0.481483,-1.203705 -0.320987,-0.280864 -0.762346,-0.441359 -1.324076,-0.441359 -0.682098,0 -1.203705,0.160495 -1.60494,0.521606 v 8.265443 h -2.728399 v -7.262355 c 0,-0.481482 -0.160493,-0.842594 -0.48148,-1.123458 -0.320989,-0.280866 -0.802471,-0.401236 -1.364201,-0.401236 -0.601853,0 -1.083335,0.08025 -1.484569,0.240741 v 8.546308 h -2.7284 V 18.361481 c 1.283953,-0.521607 2.648152,-0.762348 4.052476,-0.762348 1.484569,0 2.648151,0.361112 3.450621,1.083335 0.962964,-0.722223 2.166669,-1.083335 3.611116,-1.083335 1.163582,0 2.126546,0.320989 2.808647,0.962964 0.682098,0.641978 1.003087,1.484571 1.003087,2.608029 z"
       id="path24"
       style="stroke-width:0.401235;fill:#ffffff" />
    <path
       d="m 43.60867,13.586782 c 0.320987,0.280865 0.441357,0.641976 0.441357,1.043212 0,0.401235 -0.160493,0.762346 -0.441357,1.043211 -0.320989,0.280865 -0.6821,0.441359 -1.083335,0.441359 -0.401236,0 -0.802471,-0.160494 -1.083335,-0.441359 -0.320988,-0.280865 -0.441359,-0.641976 -0.441359,-1.043211 0,-0.401236 0.160494,-0.762347 0.441359,-1.043212 0.320987,-0.280864 0.682099,-0.401234 1.083335,-0.401234 0.401235,0 0.762346,0.120378 1.083335,0.401234 z m 0.240741,14.96607 H 41.121012 V 17.799751 h 2.728399 z"
       id="path26"
       style="stroke-width:0.401235;fill:#ffffff" />
    <line
       class="st0"
       x1="44.411133"
       y1="23.216429"
       x2="51.07164"
       y2="23.216429"
       id="line30"
       style="fill:#ffffff;stroke:#ffffff;stroke-width:0.300926;stroke-miterlimit:10" />
    <path
       class="st1"
       d="m 45.935833,23.296673 c 0,0.04013 0,0.08025 0,0.120363 V 23.13617 c 0,0.04013 0,0.120363 0,0.160495 z"
       id="path32"
       style="stroke-width:0.401235;fill:#ffffff" />
    <path
       class="st2"
       d="m 49.306208,20.728767 c 0.441359,-0.641976 1.083335,-0.92284 1.925929,-0.92284 0.561729,0 0.962964,0.08025 1.243828,0.200617 v 0 c 0.56173,0.160495 1.604941,0.601853 2.728399,1.203705 v -2.206792 c -0.922841,-0.401235 -2.166669,-0.882717 -2.527781,-1.003088 -0.361112,-0.120363 -1.123458,-0.280865 -1.72531,-0.280865 -1.604942,0 -2.84877,0.521606 -3.731487,1.524694 -0.802471,0.962964 -1.24383,2.206792 -1.283953,3.731486 h 2.688275 c 0.04013,-0.922841 0.280865,-1.685187 0.6821,-2.246917 z"
       id="path34"
       style="fill:#ffffff;fill-opacity:1;stroke-width:0.401235" />
    <path
       class="st1"
       d="m 45.935833,22.975684 v 0.160494 c 0,-0.04013 0,-0.08025 0,-0.160494 z"
       id="path36"
       style="stroke-width:0.401235;fill:#ffffff" />
    <path
       class="st1"
       d="m 51.27226,28.833716 c 1.645064,0 2.96914,-0.240741 3.932104,-0.762346 v -2.768523 c -1.845681,1.123458 -2.929016,1.404324 -3.530868,1.404324 0,0 0,0 0,0 -0.120363,0 -0.280866,0 -0.441359,0 -0.842594,0 -1.48457,-0.320989 -1.925929,-0.922841 -0.441359,-0.601853 -0.6821,-1.444447 -0.6821,-2.527782 0,-0.08025 0,-0.160493 0,-0.240741 h -2.688275 c 0,0.04013 0,0.120363 0,0.160495 v 0.280864 c 0.04013,1.685188 0.481482,3.009264 1.364199,3.932104 0.922841,0.962964 2.246917,1.444446 3.972228,1.444446 z"
       id="path38"
       style="fill:#ffffff;fill-opacity:1;stroke-width:0.401235" />
    <path
       d="m 55.204364,21.812102 c -1.123458,-0.561728 -2.126546,-1.003087 -2.728399,-1.203705 v 5.416674 c 0.601853,-0.160494 1.484571,-0.481482 2.728399,-1.243829 z"
       id="path42"
       style="stroke-width:0.401235;fill:#ffffff" />
    <path
       d="m 55.204364,18.562097 v -5.657415 h -2.728399 v 4.574081 c 0.882718,0.320988 1.845683,0.6821 2.728399,1.083334 z"
       id="path44"
       style="stroke-width:0.401235;fill:#ffffff" />
  </g>
</svg>
