<?xml version="1.0" encoding="UTF-8" standalone="no"?>
<svg
   width="32"
   height="24"
   version="1.1"
   id="svg877"
   sodipodi:docname="ps_wirepayment.svg"
   inkscape:version="1.1.2 (b8e25be833, 2022-02-05)"
   xmlns:inkscape="http://www.inkscape.org/namespaces/inkscape"
   xmlns:sodipodi="http://sodipodi.sourceforge.net/DTD/sodipodi-0.dtd"
   xmlns="http://www.w3.org/2000/svg"
   xmlns:svg="http://www.w3.org/2000/svg">
  <defs
     id="defs881" />
  <sodipodi:namedview
     id="namedview879"
     pagecolor="#ffffff"
     bordercolor="#111111"
     borderopacity="1"
     inkscape:pageshadow="0"
     inkscape:pageopacity="0"
     inkscape:pagecheckerboard="1"
     showgrid="false"
     inkscape:zoom="20.48"
     inkscape:cx="23.608398"
     inkscape:cy="6.4453125"
     inkscape:window-width="1920"
     inkscape:window-height="1057"
     inkscape:window-x="-8"
     inkscape:window-y="-8"
     inkscape:window-maximized="1"
     inkscape:current-layer="svg877" />
  <g
     fill="none"
     id="g875"
     sodipodi:insensitive="true">
    <path
       d="m 4.129,0.5 h 23.742 c 2,0 3.629,1.64 3.629,3.674 v 15.652 c 0,2.034 -1.63,3.674 -3.629,3.674 H 4.129 C 2.129,23.5 0.5,21.86 0.5,19.826 V 4.174 C 0.5,2.14 2.13,0.5 4.129,0.5 Z"
       stroke="#e6e6e6"
       fill="#ffffff"
       id="path859" />
    <g
       transform="translate(8,5)"
       id="g873">
      <path
         d="m 0,1.08 v 12.403 c 0,0.596 0.486,1.08 1.085,1.08 h 7.449 c 5.629,0 8.07,-3.137 8.07,-7.296 C 16.604,3.124 14.163,0 8.534,0 H 1.084 C 0.487,0 0,0.483 0,1.08 Z"
         fill="#ffffff"
         id="path861" />
      <path
         d="M 8.532,13.57 H 2.054 A 1.04,1.04 0 0 1 1.012,12.535 V 2.028 A 1.04,1.04 0 0 1 2.054,0.99 h 6.478 c 6.144,0 7.062,3.932 7.062,6.276 0,4.066 -2.508,6.304 -7.062,6.304 z M 2.054,1.338 a 0.694,0.694 0 0 0 -0.695,0.69 v 10.508 c 0,0.381 0.311,0.69 0.695,0.69 h 6.478 c 4.33,0 6.715,-2.116 6.715,-5.958 0,-5.16 -4.207,-5.93 -6.715,-5.93 H 2.054 Z"
         fill="#000000"
         id="path863" />
      <path
         d="m 4.984,3.045 v 9.163 h 4.009 c 3.642,0 5.22,-2.048 5.22,-4.936 0,-2.767 -1.578,-4.917 -5.22,-4.917 H 5.678 a 0.693,0.693 0 0 0 -0.694,0.69 z"
         fill="#cc0066"
         id="path865" />
      <path
         fill="#ffffff"
         d="m 12.626,6.035 v 1.784 h 1.072 v 0.405 h -1.555 v -2.19 z m -1.61,0 0.823,2.189 H 11.337 L 11.171,7.738 H 10.347 L 10.175,8.224 H 9.686 l 0.833,-2.19 h 0.497 z M 11.044,7.377 10.766,6.574 H 10.76 L 10.474,7.377 Z M 9.359,6.035 V 6.439 H 8.197 v 0.47 H 9.263 V 7.282 H 8.197 v 0.537 h 1.187 v 0.405 h -1.67 v -2.19 z m -2.964,0 C 6.53,6.034 6.665,6.056 6.791,6.102 A 0.862,0.862 0 0 1 7.318,6.642 1.561,1.561 0 0 1 7.332,7.558 0.976,0.976 0 0 1 7.146,7.908 0.875,0.875 0 0 1 6.834,8.139 1.059,1.059 0 0 1 6.395,8.224 H 5.446 v -2.19 h 0.95 z M 6.361,7.819 c 0.07,0 0.138,-0.011 0.204,-0.034 A 0.45,0.45 0 0 0 6.74,7.673 0.565,0.565 0 0 0 6.864,7.47 0.89,0.89 0 0 0 6.91,7.163 c 0,-0.1 -0.01,-0.2 -0.032,-0.299 A 0.592,0.592 0 0 0 6.769,6.636 0.474,0.474 0 0 0 6.573,6.49 0.78,0.78 0 0 0 6.273,6.44 H 5.928 v 1.379 z"
         id="path867" />
      <path
         d="m 3.172,8.72 c 0.425,0 0.769,0.342 0.769,0.764 v 2.724 c -0.85,0 -1.538,-0.685 -1.538,-1.53 V 9.484 A 0.763,0.763 0 0 1 3.173,8.72 Z"
         fill="#000000"
         id="path869" />
      <ellipse
         fill="#000000"
         cx="3.1719999"
         cy="7.1290002"
         rx="1.015"
         ry="1.01"
         id="ellipse871" />
    </g>
  </g>
  <rect
     style="fill:#ffffff;stroke-width:0;stroke-linecap:round;stroke-linejoin:round"
     id="rect962"
     width="22.775049"
     height="18.177694"
     x="3.9621928"
     y="3.2362947"
     rx="12.893835"
     ry="11.339622"
     sodipodi:insensitive="true" />
  <g
     id="surface1"
     transform="matrix(0.02653334,0,0,0.02653334,8.0336725,13.026719)">
    <path
       style="fill:#0cbd8f;fill-opacity:1;fill-rule:evenodd;stroke:none"
       d="m -137.87109,17.964844 c 39.738277,-17.609375 86.929684,-17.511719 126.570309,0.359375 23.9375,10.660156 45.039062,27.53125 60.847656,48.421875 -1.929687,2.929687 -3.917969,5.820312 -5.890625,8.71875 -15.617187,23.460937 -24.199219,51.339846 -25.328125,79.449216 -1.21875,32.80078 7.929688,66.10156 26.53125,93.22266 1.589844,2.28906 3.167969,4.5664 4.730469,6.86719 -18.113281,24.0625 -43.332031,42.69921 -71.691407,52.83984 -29.820312,10.75 -62.941406,12.0625 -93.550777,3.83984 -32.39844,-8.60937 -61.73047,-28.14062 -82.32032,-54.57031 -18.85937,-23.98828 -30.42968,-53.63672 -32.64062,-84.07031 -2.51953,-31.00781 4.5625,-62.73828 20.10156,-89.707032 16.4375,-28.769532 42.26953,-52.089844 72.64063,-65.371094 z m 767.98828,-8.46875 c 37.92968,-9.511719 79.44922,-4.421875 113.64062,14.699219 24.69922,13.578125 45.53125,34.039062 59.67188,58.410156 13.63672,23.640621 21.33984,50.949221 20.70703,78.308591 0.60156,24.12891 -5.41797,48.22266 -16.10938,69.78906 -13.8789,27.86329 -36.35937,51.33204 -63.51953,66.53125 -28.73828,16.19922 -62.71094,22.64844 -95.41797,18.60938 -41.38281,-4.91797 -80.55078,-27.33984 -105.26172,-60.95703 9.76172,-13.49219 17.96875,-28.1836 23.14844,-44.05078 12.14063,-36 10.6211,-76.39063 -4.41015,-111.300784 -4.70704,-11.75 -11.63672,-22.390625 -18.76954,-32.789062 21.15235,-28.160156 52.15235,-48.742188 86.32032,-57.25 z m -508.23047,4.257812 c 28.14062,-10.019531 59.17969,-11.558593 88.25,-4.800781 33.92969,7.953125 64.98047,27.722656 86.48047,55.152344 21.83984,-27.628906 53.17968,-47.621094 87.57031,-55.371094 36.14062,-8.25 75.21094,-3.359375 107.96094,14.121094 20.08984,10.710937 37.96093,25.730469 51.57031,44.007812 -17.90234,24.03125 -29.10156,53.160159 -30.90234,83.132809 -2.98829,37.23828 8.58203,75.16016 30.92968,105.01953 -19.92968,26.42969 -48.4375,46.27735 -80.21875,55.59766 -43.32812,12.99219 -92.23047,5.99219 -129.91797,-19.10937 -14.0625,-9.12891 -26.47265,-20.69922 -36.9414,-33.75782 -20.75,26.27735 -50.10938,45.62891 -82.51172,54.12891 -25.38672,6.69141 -52.46875,6.80859 -77.94922,0.50781 C 101.94922,303.83594 70.6875,283.30469 49.65625,254.91406 72.4375,224.57422 83.847656,185.80469 80.335938,147.97656 78.238281,118.70313 67.109375,90.34375 49.628906,66.855469 67.71875,42.503906 93.335938,23.925781 121.88672,13.753906 Z m 0,0"
       id="path40531" />
    <path
       style="fill:#008f66;fill-opacity:1;fill-rule:evenodd;stroke:none"
       d="m 288.24609,76.046875 c 2.60157,-4.023437 5.24219,-8.0625 8.57032,-11.53125 19.91015,25.097656 31.54296,56.488285 33.12109,88.460935 1.99219,37.23828 -9.84766,75.1875 -33.17969,104.35938 -6.32031,-7.24219 -11.25,-15.63282 -15.82031,-24.05078 -16.94141,-32.03125 -21.94141,-70.08204 -14.21094,-105.42969 3.89063,-18.40234 11.25,-36.062501 21.51953,-51.808595 z m -238.699215,-9.300781 0.08203,0.109375 c 17.48047,23.488281 28.609376,51.847661 30.707033,81.121091 3.511718,37.82813 -7.898438,76.59766 -30.679688,106.9375 l -0.06641,0.0898 c -1.5625,-2.30079 -3.140625,-4.57813 -4.730469,-6.86719 -18.601562,-27.1211 -27.75,-60.42188 -26.53125,-93.22266 1.128906,-28.10937 9.710938,-55.988279 25.328125,-79.449216 1.972656,-2.898438 3.960938,-5.789063 5.890625,-8.71875 z m 494.171875,0.117187 0.0781,-0.117187 c 7.13282,10.398437 14.0625,21.039062 18.76954,32.789062 15.03125,34.910154 16.55078,75.300784 4.41015,111.300784 -5.17969,15.86718 -13.38672,30.55859 -23.14844,44.05078 l -0.082,0.1289 c -22.34765,-29.85937 -33.91797,-67.78125 -30.92968,-105.01953 1.80078,-29.97265 13,-59.101559 30.90234,-83.132809 z m 0,0"
       id="path40533" />
    <path
       style="fill:#fdfdfd;fill-opacity:1;fill-rule:evenodd;stroke:none"
       d="m 599.64844,85.984375 c 14.6289,0.05078 29.26953,-0.191406 43.91015,0.121094 20.39844,34.871091 41.08985,69.578121 61.82813,104.257811 0.0312,-34.78906 0.043,-69.5664 0,-104.347655 10.76172,-0.121094 21.51172,0 32.26953,-0.05078 -0.11719,50.101565 0.11328,100.199215 -0.11719,150.300775 -14.03125,-0.1914 -28.07031,0.0195 -42.10156,-0.10937 -21.14063,-35.61328 -42.26953,-71.22266 -63.50781,-106.76953 -0.19141,35.61719 0.0273,71.22656 -0.11328,106.84765 -10.71875,-0.10156 -21.4375,-0.0312 -32.16016,-0.0391 0,-50.07031 0.0312,-100.14062 -0.008,-150.210934 z M 417.40625,130.14453 c -5.59766,15.42188 -11.66797,30.67969 -17.34766,46.08203 11.66797,-0.0117 23.33985,-0.0508 35.01953,0.008 -5.80078,-15.39843 -11.73046,-30.75 -17.67187,-46.08984 z M 405.02734,85.984375 c 8.92969,-0.01953 17.85938,-0.07813 26.78907,0.05078 21,50.101565 42.22265,100.101565 63.30078,150.160155 -12.19922,-0.0703 -24.39844,0.10938 -36.59766,-0.082 -4.01172,-10.58984 -8.30078,-21.06641 -12.36328,-31.64844 -18.75781,-0.0508 -37.52734,-0.0312 -56.29688,-0.0117 -4.02343,10.5625 -8.14062,21.08985 -12.01953,31.70313 -11.92187,0.0898 -23.84375,0 -35.75,0.0391 20.95703,-50.08203 42,-100.12109 62.9375,-150.210936 z M 152.15625,174.20312 c -0.0586,11.27344 -0.0898,22.53125 0.0117,33.80079 9.66015,-0.0898 19.32812,-0.0195 29,-0.0273 5.3789,0.008 10.98047,-1.3125 15.23828,-4.71094 6.58203,-5.25 7.87109,-16.35156 1.96094,-22.55078 -5.0586,-4.94922 -12.46875,-6.14062 -19.25,-6.48047 -8.98828,-0.10937 -17.98047,-0.0195 -26.96094,-0.0312 z m -0.0781,-59.96874 c 0.10157,10.5625 -0.0391,21.1289 0.0781,31.6914 7.65234,0.0703 15.3125,0.0273 22.97266,0.0508 4.92968,0.0195 10.07031,-0.96094 14.17968,-3.83984 7.51953,-5.11328 8.26953,-17.79297 0.94922,-23.41016 -4.53125,-3.53125 -10.5,-4.42187 -16.08984,-4.53125 -7.35938,-0.0117 -14.73047,-0.0312 -22.08985,0.0391 z M 119.85938,86.003906 c 14.41015,-0.09766 28.82812,-0.0078 43.24999,-0.03906 12.92969,0.03906 26.12891,-0.359375 38.66797,3.339844 7.65235,2.289062 15.17969,6.359375 19.78125,13.08984 4.96875,7.0586 6.4375,16 5.98828,24.46875 -0.5,7.87109 -3.58984,15.65234 -9.23828,21.22266 -4.39062,4.48828 -10.08203,7.39843 -15.92968,9.5 10.96093,1.30859 21.36718,7.52734 26.96093,17.14843 8.47657,14.96875 6.5,36.07032 -6.5625,47.85157 -10.73047,9.66015 -25.59765,13 -39.66015,13.58984 -21.07032,0.0586 -42.14844,-0.0312 -63.21875,0.0391 -0.0391,-50.07031 0.0391,-100.14062 -0.0391,-150.210932 z m -211.230474,-0.01953 c 11.078125,-0.03906 22.160156,-0.01953 33.238281,-0.0078 -0.02734,50.078124 0.03906,100.160154 -0.02734,150.226554 -11.0625,-0.0273 -22.121094,-0.0195 -33.183594,0 -0.05859,-50.0664 0.01172,-100.14843 -0.02734,-150.218742 z m 0,0"
       id="path40535" />
  </g>
  <g
     aria-label="Bank"
     id="text43212"
     style="font-size:7.09437px;line-height:1.25;font-family:IJzershop;-inkscape-font-specification:IJzershop;fill:#064b8e;stroke-width:0.177359">
    <path
       d="m 8.8392433,4.0836651 v 1.936763 L 8.1014288,6.6376383 8.8392433,7.2548485 V 7.7940206 9.0639128 9.1916114 L 7.6970497,10.184823 H 4.845113 2.4401216 V 8.1629278 4.8356683 3.0904533 H 4.845113 7.6970497 Z M 4.845113,7.7940206 v 0.3689072 h 1.7097432 v -0.3689072 0 z M 6.5548562,5.1123488 H 4.845113 v 0.3689072 0 h 1.7097432 z"
       id="path838" />
    <path
       d="m 14.890741,3.0904533 1.057061,0.8655132 v 5.2782112 h -0.0071 V 10.184823 H 14.79142 13.635037 V 8.2835321 H 11.847256 V 10.184823 H 10.470948 9.5344915 V 4.9491782 3.9559665 L 10.612836,3.0904533 Z M 13.635037,5.9707675 V 4.9491782 h -1.787781 v 1.0215893 z"
       id="path840" />
    <path
       d="M 21.325334,10.184823 18.317321,6.4035241 V 10.184823 H 16.621767 V 3.0904533 h 1.695554 v 0 l 3.008013,3.816771 v -3.816771 h 1.844536 v 7.0943697 z"
       id="path842" />
    <path
       d="m 28.221056,3.0904533 h 1.142193 V 4.0836651 5.481256 6.0204281 l -1.142193,0.9648343 1.142193,0.8087582 V 10.184823 H 27.085956 V 7.7940206 H 26.447463 V 10.184823 H 23.950245 V 3.0904533 h 1.340836 0.07804 1.078344 V 5.481256 h 0.638493 V 3.0904533 Z"
       id="path844" />
  </g>
  <g
     aria-label="overschrijving"
     id="text51232"
     style="font-size:2.15011px;line-height:1.25;font-family:IJzershop;-inkscape-font-specification:IJzershop;fill:#064b8e;stroke-width:0.0537528">
    <path
       d="M 3.9202016,10.793587 4.240568,11.0559 v 1.599682 L 3.8901001,12.943697 H 2.5806831 L 2.2968686,12.655582 V 11.0559 l 0.3268167,-0.262313 z m -0.3805695,1.57388 V 11.356916 H 2.9978044 v 1.010551 z"
       id="path847" />
    <path
       d="m 6.0359099,12.943697 z m -0.3612185,-2.14796 h 0.7482383 l -0.3870198,2.14796 H 4.8318483 l -0.3848697,-2.14796 h 0.7353376 l 0.2451125,1.511527 h 0.043002 z m -0.8428431,2.14796 z"
       id="path849" />
    <path
       d="M 8.6031393,11.406368 H 7.3797267 v 0.19996 h 0.9030462 v 0.563329 H 7.3797267 v 0.210711 h 1.2234126 v 0.563329 H 6.9841064 L 6.6379387,12.662032 v -1.56313 l 0.3461677,-0.305315 h 1.6190329 z"
       id="path851" />
    <path
       d="m 10.727448,11.094602 v 0.58698 l -0.346168,0.292415 0.346168,0.245113 v 0.724587 H 10.035113 V 12.21911 H 9.5169363 v 0.724587 H 8.788049 V 11.406368 10.793587 H 9.5169363 10.38128 Z m -0.690185,0.423572 V 11.313913 H 9.5169363 l -0.00645,0.204261 h 0.00645 0.5181767 z"
       id="path853" />
    <path
       d="m 12.836706,11.417119 h -1.216962 v 0.19781 h 0.875095 l 0.341867,0.260163 v 0.78479 l -0.341867,0.279515 h -1.55668 v -0.556879 h 1.227713 v -0.210711 h -0.911647 l -0.316066,-0.277364 v -0.78049 l 0.376269,-0.303165 h 1.522278 z"
       id="path855" />
    <path
       d="m 14.909412,12.380368 v 0.563329 h -1.474976 l -0.346167,-0.281665 v -1.56313 l 0.346167,-0.305315 h 1.474976 v 0.612781 h -1.079356 v 0.19996 0.563329 0.01505 0.19566 z"
       id="path857" />
    <path
       d="m 16.365036,10.793587 h 0.750388 v 2.15011 H 16.365036 V 12.21911 h -0.492375 v 0.724587 h -0.737488 v -2.15011 h 0.737488 v 0.935298 h 0.492375 z"
       id="path860" />
    <path
       d="m 19.224683,11.094602 v 0.58698 l -0.346168,0.292415 0.346168,0.245113 v 0.724587 H 18.532347 V 12.21911 h -0.518176 v 0.724587 h -0.728888 v -1.537329 -0.612781 h 0.728888 0.864344 z m -0.690186,0.423572 v -0.204261 h -0.520326 l -0.0065,0.204261 h 0.0065 0.518176 z"
       id="path862" />
    <path
       d="m 19.435394,12.943697 v -2.15011 h 0.767589 v 2.15011 z"
       id="path864" />
    <path
       d="m 21.215682,10.793587 h 0.728887 v 1.868445 l -0.39562,0.281665 h -1.124507 v -0.563329 h 0.79124 z"
       id="path866" />
    <path
       d="m 23.750662,12.943697 z m -0.361218,-2.14796 h 0.748238 l -0.38702,2.14796 h -1.204061 l -0.38487,-2.14796 h 0.735338 l 0.245112,1.511527 h 0.043 z m -0.842843,2.14796 z"
       id="path868" />
    <path
       d="m 24.352691,12.943697 v -2.15011 h 0.767589 v 2.15011 z"
       id="path870" />
    <path
       d="m 26.767264,12.943697 -0.911647,-1.146009 v 1.146009 h -0.513876 v -2.15011 h 0.513876 v 0 l 0.911647,1.156759 v -1.156759 h 0.559028 v 2.15011 z"
       id="path872" />
    <path
       d="m 28.597005,11.786938 h 0.909497 v 0.161258 0.234362 0.726737 0.0344 H 27.90897 l -0.346167,-0.281665 v -1.56313 l 0.346167,-0.305315 h 1.597532 v 0.612781 h -1.201911 v 0.19996 0.563329 0.01505 0.19566 h 0.552578 v -0.19781 h -0.260164 z"
       id="path874" />
  </g>
</svg>
