<?xml version="1.0" encoding="utf-8"?>
<!-- Generator: Adobe Illustrator 22.1.0, SVG Export Plug-In . SVG Version: 6.00 Build 0)  -->
<svg version="1.1" id="Layer_1" xmlns="http://www.w3.org/2000/svg" xmlns:xlink="http://www.w3.org/1999/xlink" x="0px" y="0px"
	 viewBox="0 0 500 500" enable-background="new 0 0 500 500" xml:space="preserve">
<g>
	<path fill="#58595B" d="M287.128,489.765c-3.584-0.916-7.127-2.111-10.767-2.66c-2.908-0.438-5.934-0.088-9.017-0.088
		c-1.689-2.396-4.133-5.101-5.616-8.257c-0.88-1.872-0.35-4.463-0.221-6.717c0.035-0.61,0.928-1.165,1.413-1.757
		c4.86-5.925,8.691-11.942,9.375-20.221c0.522-6.324,4.206-12.345,6.147-18.605c2.18-7.032-2.392-13.532-9.857-13.171
		c-5.85,0.283-10.516-1.501-14.678-5.049c-1.533-1.307-2.865-3.317-3.392-5.251c-2.079-7.627-7.472-9.007-14.252-5.69
		c-5.639,2.759-12.572,2.873-19.618,4.298c0.064-6.425-1.285-9.828-7.442-9.422c-3.448,0.227-9.285-10.342-8.403-14.077
		c1.864-7.9,0.631-10.166-7.571-13.31c-2.257,3.132-4.881,6.19-6.831,9.63c-2.332,4.114-5.333,3.074-8.854,2.306
		c-3.689-0.805-3.894-3.138-3.591-5.98c0.46-4.309-1.038-8.458-5.182-8.806c-2.752-0.231-6.489,2.463-8.578,4.887
		c-4.967,5.764-8.649,7.437-15.863,5.514c-0.855-7.654-1.249-7.906-8.784-5.523c-1.271,0.402-2.54,0.824-3.783,1.305
		c-6.789,2.628-7.833,5.9-4.222,12.295c0.689,1.22,0.554,2.906,0.799,4.377c-1.594,0.022-3.505,0.623-4.72-0.044
		c-3.37-1.849-6.335-4.429-9.689-6.314c-1.888-1.061-4.275-1.971-6.355-1.819c-6.643,0.487-12.348-1.33-17.728-5.172
		c-4.83-3.449-7.745-2.561-10.712,2.572c-4.132,7.147-8.142,8.079-14.728,3.3c-1.696-1.231-3.283-2.648-4.753-4.144
		c-3.028-3.08-5.648-5.913-10.759-2.896c-1.671,0.987-5.755-0.342-7.667-1.913c-3.653-3.002-6.8-6.751-9.567-10.613
		c-0.726-1.014,0.152-4.676,1.256-5.241c4.705-2.407,9.622-4.933,14.743-5.866c6.902-1.257,14.058-1.314,21.114-1.455
		c4.795-0.096,7.147,3.562,5.86,7.944c7.335,3.628,14.649,7.246,21.962,10.863c-0.128,0.501-0.256,1.003-0.384,1.504
		c-0.118-1.578-0.236-3.157-0.389-5.198c2.679-0.294,5.033-0.552,7.213-0.791c-5.103-3.495-10.156-6.955-15.768-10.799
		c6.491-6.139,13.541-2.932,21.537-3.454c-3.676-2.216-6.248-3.766-9.9-5.967c2.512-0.858,4.123-1.408,6.081-2.076
		c-0.474-0.532-0.815-1.265-1.356-1.469c-6.973-2.634-9.107-8.333-10.577-15.058c-2.005-9.171-5.108-10.431-13.956-7.284
		c-1.066,0.379-2.516-0.321-3.788-0.521c0.516-1.485,0.587-3.507,1.623-4.367c5.838-4.852,14.007-4.061,19.644,1.226
		c2.024,1.898,4.735,3.064,7.132,4.565c0.382-0.466,0.763-0.932,1.145-1.398c-0.635-0.926-1.059-2.228-1.937-2.721
		c-9.013-5.061-8.516-14.648-10.705-22.81c-1.035-3.859,2.185-5.437,5.313-4.078c3.772,1.639,7.107,4.311,10.565,6.634
		c1.627,1.092,3.1,2.413,4.643,3.63c0.51-0.6,1.02-1.201,1.529-1.801c-4.063-3.514-8.126-7.028-12.626-10.919
		c5.119-6.216,9.991-12.289,15.029-18.221c22.293-26.246,34.823-56.535,39.022-90.694c1.501-12.213,5.461-24.112,8.065-36.205
		c1-4.646,1.103-9.486,2.131-14.123c0.36-1.624,2.361-4.14,3.444-4.057c1.684,0.13,4.118,1.817,4.677,3.396
		c3.098,8.749,9.153,10.367,15.919,3.909c4.233-4.04,6.94-3.832,10.126,1.021c3.647,5.555,5.703,11.558,5.274,18.383
		c-0.147,2.336,0.379,4.961,1.404,7.06c1.206,2.469,3.003,3.502,6.525,2.377c2.525-0.807,6.748,0.515,8.874,2.399
		c3.162,2.801,0.744,5.861-1.871,8.188c-2,1.78-4.211,3.382-5.94,5.397c-3.033,3.533-6.02,5.262-10.772,2.705
		c-1.597-0.859-5.019-0.406-6.281,0.816c-1.121,1.086-0.887,4.186-0.396,6.186c0.857,3.489,2.712,6.739,3.499,10.235
		c0.595,2.645,0.753,5.671,0.062,8.247c-0.793,2.955-1.046,5.331-0.481,8.537c0.443,2.512-3.405,5.921-5.652,8.682
		c-0.682,0.838-2.383,0.845-3.672,1.25c3.037,5.368,5.001,6.231,17.557,7.892c-3.305-7.102-3.438-8.261,3.616-12.872
		c13.804-9.022,26.32-19.462,38.37-30.686c2.679-2.495,8.859-1.283,13.436-1.664c1.93-0.161,3.885-0.027,5.817-0.752
		c-18.881-7.138-20.741-20.337-5.406-40.591c-3.232-2.811-6.665-3.069-10.509-1.374c-6.118,2.697-18.562-0.62-23.189-6.277
		c6.162-4.525,6.057-10.77,4.825-17.511c-1.892-10.351-2.664-20.405,1.405-30.868c3.93-10.106,11.274-16.503,19.816-21.203
		c10.316-5.676,21.537-9.815,32.615-13.954c5.628-2.103,11.808-2.715,17.725-4.059c3.072-0.698,4.116,0.581,4.237,3.568
		c0.096,2.39,0.79,4.755,1.087,6.404c4.736,0.601,8.641,1.096,14.162,1.797c-4.37-3.527-7.566-6.107-10.665-8.607
		c2.624-5.116,6.597-2.924,10.755-2.887c5.354,0.047,10.766-2.066,16.086-3.495c7.55-2.028,14.94-4.818,22.592-6.235
		c4.624-0.856,9.711-0.2,14.388,0.761c1.627,0.334,3.708,3.593,3.768,5.57c0.327,10.778,5.606,17.021,15.979,19.346
		c1.236,0.277,2.991,0.966,3.365,1.914c2.203,5.585,6.862,6.954,12.055,8.16c3.658,0.849,5.509,3.76,3.788,7.512
		c-3.397,7.404-2.492,14.702-0.87,22.37c2.108,9.968-0.627,19.032-6.026,27.797c-3.175,5.154-5.08,11.415-6.19,17.43
		c-1.204,6.524-0.926,13.338-1.094,20.031c-0.109,4.331-1.272,6.106-6.267,5.182c-6.343-1.173-12.908-1.165-19.382-1.6
		c-4.559-0.306-7.768,2.457-8.511,6.255c-1.225,6.261-1.341,12.766-1.552,19.18c-0.048,1.471,1.143,3.243,2.236,4.447
		c4.32,4.758,21.53,7.545,27.319,4.595c9.616,8.702,9.965,11.203,6.047,23.403c-1.056,3.288,0.326,7.358,0.58,10.936
		c-3.789,3.451-8.394,7.501-12.813,11.744c-1.609,1.545-2.767,3.559-4.148,5.346c-0.804,1.041-1.719,2.999-2.451,2.938
		c-6.547-0.543-9.387,4.217-13.447,7.974c-3.596,3.326-3.297,5.02-0.025,7.474c2.749,2.062,5.577,4.029,8.455,5.906
		c2.766,1.804,3.487,3.837,1.332,6.607c-3.341,4.294-5.276,10.623-13.166,7.529c-1.568-0.615-4.23,1.293-6.289,2.248
		c-7.761,3.599-15.449,7.358-23.263,10.837c-0.914,0.407-2.595-0.295-3.651-0.931c-4.076-2.455-7.877-5.223-13.186-4.482
		c-1.398,0.195-3.02-1.919-4.676-2.676c-1.717-0.785-3.6-1.209-5.41-1.79c0.333,1.779,0.607,3.573,1.022,5.333
		c0.207,0.877,0.672,1.693,0.759,1.903c-6.754,1.827-13.298,3.597-21.44,5.799c3.334,6.339,6.132,11.502,8.761,16.75
		c0.835,1.667,1.029,3.654,1.86,5.323c1.083,2.173,2.564,4.143,3.77,6.26c0.961,1.687,2.573,3.504,2.486,5.191
		c-0.25,4.856,1.231,8.406,5.233,11.298c7.704,5.568,6.696,14.504,8.003,22.431c1.65,10.01-2.43,17.914-9.926,24.278
		c-4.023,3.415-6.354,7.521-6.076,12.965c0.171,3.359,1.101,5.473,5.124,5.015c1.219-0.139,2.583,0.997,3.88,1.549
		c-0.655,1.272-0.982,3.044-2.023,3.727c-3.765,2.469-7.793,4.533-11.671,6.836c-1.126,0.669-2.557,1.414-3.033,2.486
		c-1.916,4.315-3.67,8.212-9.426,4.304c-0.458-0.311-2.989,1.386-3.674,2.634c-2.931,5.336,1.29,12.518,7.488,12.691
		c3.561,0.099,5.52,1.375,6.792,4.819c0.689,1.866,3.099,3.033,4.431,4.749c0.925,1.191,2.17,3.057,1.812,4.136
		c-0.872,2.626-2.473,5.05-4.019,7.398c-1.03,1.563-3.33,2.724-3.569,4.292c-0.728,4.764-4.151,6.207-7.836,7.628
		C289.425,489.765,288.277,489.765,287.128,489.765z M136.736,334.608c-2.581-1.863-5.162-3.727-7.743-5.59
		c1.349,8.603-3.836,9.975-13.311,11.713c0.614,0.913,1.173,1.744,2.227,3.312c-3.399,0-6.161,0-10.255,0
		c6.785,3.076,17.408,0.648,21.31-3.438c2.287-2.395,5.258-4.137,7.921-6.173c1.894,1.466,3.9,4.269,5.657,4.12
		c3.613-0.306,7.101-2.166,10.624-3.433c3.12-1.122,6.262-2.201,9.304-3.509c1.662-0.715,3.137-1.866,4.697-2.82
		c-0.276-0.509-0.552-1.018-0.828-1.527c-0.708-0.036-1.465-0.255-2.117-0.081C155.055,329.622,145.902,332.116,136.736,334.608z
		 M252.917,226.679c-6.003,5.017-7.401,15.671-16.713,12.287c-6.677-2.426-12.588-6.959-19.361-10.851
		c-0.846,0.959-2.064,2.341-2.322,2.633c5.136,3.167,10.103,5.45,14.088,8.876c5.626,4.837,11.149,3.835,17.085,1.472
		C251.701,238.705,252.367,233.565,252.917,226.679z M279.352,206.342c-7.264,4.227-13.503,7.531-19.354,11.421
		c-2.378,1.581-3.911,4.434-5.828,6.709c0.656,0.587,1.312,1.174,1.967,1.76C262.478,218.414,276.233,219.547,279.352,206.342z
		 M51.429,356.413c1.51,2.636,1.558,7.217,6.794,6.582c3.231-0.392,6.361-1.808,9.457-2.972c0.636-0.239,0.923-1.403,1.268-1.969
		C62.929,357.491,57.39,356.971,51.429,356.413z M122.519,333.507c0.498-0.616,0.996-1.232,1.495-1.849
		c-2.013-2.128-3.938-4.352-6.085-6.335c-0.787-0.727-2.101-0.884-3.174-1.301c-0.078,1.34-0.749,3.355-0.129,3.9
		C117.034,330.038,119.853,331.685,122.519,333.507z"/>
	<path fill="#58595B" d="M87.312,381.916c9.254,13.496,9.265,13.499,20.578,5.762c2.604,3.787,1.496,7.069-1.226,10.22
		c-9.308,10.774-21.523,15.429-35.3,16.672c-2.882,0.26-5.399-0.452-5.303-4.31c0.026-1.032-0.435-2.808-1.07-3.014
		c-8.149-2.636-15.431-8.932-24.85-6.286c-1.528,0.429-3.645,1.399-4.063,2.611c-0.934,2.706-1.634,5.748-5.075,4.288
		c-3.079-1.306-5.85-3.68-8.231-6.1c-0.846-0.86-0.148-3.242-0.15-4.93c-0.003-2.772-0.001-5.545-0.001-8.294
		c9.652-6.78,19.132-7.067,29.506-0.615c5.476,3.406,12.203,5.179,18.606,6.608c6.28,1.402,10.146-3.288,13.588-7.777
		C85.412,385.328,86.227,383.691,87.312,381.916z"/>
	<path fill="#58595B" d="M98.59,340.431c-2.328,4.974-6.243,6.501-11.164,6.607c-4.633,0.1-8.092-1.415-10.141-5.832
		c-2.395-5.164-6.531-6.544-11.832-4.906c-0.911,0.281-1.847,0.501-2.725,0.864c-3.181,1.315-6.355,0.671-6.771-2.65
		c-0.252-2.01,2.115-6.009,3.792-6.3c5.711-0.989,11.676-1.235,17.473-0.803c5.913,0.441,11.535,1.904,14.081,8.785
		C91.991,338.057,95.655,338.816,98.59,340.431z"/>
	<path fill="#58595B" d="M165.665,117.369c-2.389-12.733,7.802-20.753,11.893-31.213c7.293,4.727,9.368,11.549,4.713,17.586
		c-4.224,5.478-9.637,10.037-14.527,15.002C167.052,118.286,166.359,117.827,165.665,117.369z"/>
	<path fill="#58595B" d="M249.84,42.143c-12.377,5.097-24.754,10.194-37.457,15.425c-1.296-4.231,0.086-7.283,3.398-8.289
		c10.362-3.147,20.885-5.76,31.353-8.554c0.689-0.184,1.437-0.145,2.157-0.21C249.474,41.058,249.657,41.601,249.84,42.143z"/>
	<path fill="#58595B" d="M289.76,38.47c-5.74,1.165-10.633,2.226-15.553,3.135c-3.501,0.646-7.1,0.843-10.545,1.688
		c-3.609,0.885-5.853,0.27-6.695-4.822C267.864,38.47,278.301,38.47,289.76,38.47z"/>
	<path fill="#58595B" d="M309.229,37.502c3.828-8.214,10.965-6.419,17.74-5.713C321.055,33.693,315.142,35.598,309.229,37.502z"/>
	<path fill="#58595B" d="M200.3,66.255c-5.249,4.157-10.497,8.313-15.746,12.47c-0.451-0.631-0.903-1.262-1.354-1.893
		c5.536-3.966,11.072-7.932,16.608-11.899C199.972,65.374,200.136,65.815,200.3,66.255z"/>
</g>
</svg>
