<?xml version="1.0" encoding="utf-8"?>
<!-- Generator: Adobe Illustrator 22.1.0, SVG Export Plug-In . SVG Version: 6.00 Build 0)  -->
<svg version="1.1" id="Layer_1" xmlns="http://www.w3.org/2000/svg" xmlns:xlink="http://www.w3.org/1999/xlink" x="0px" y="0px"
	 viewBox="0 0 500 500" enable-background="new 0 0 500 500" xml:space="preserve">
<g>
	<path fill="#9E9E9E" d="M235.691,337.881c-0.132-14.944-6.48-27.725-14.047-40.045c-44.092-71.784-2.566-163.275,80.721-176.331
		c36.193-5.674,69.023,3.679,96.746,28.414c10.808,9.643,10.36,14.806-1.078,23.823c-7.029,5.541-14.204,10.99-20.609,17.206
		c-7.39,7.171-13.439,8.018-22.251,1.253c-25.753-19.771-54.914-17.487-76.615,4.821c-17.731,18.228-20.867,46.617-6.105,69.343
		c15.629,24.059,22.696,49.974,21.404,78.425c-0.195,4.303-0.139,8.615-2.088,12.613c-13.26-10.354-29.079-12.658-45.096-14.303
		C242.363,342.657,237.963,342.547,235.691,337.881z"/>
	<path fill="#9E9E9E" d="M61.58,249.712c0.003-29.753-0.062-59.507,0.033-89.26c0.041-12.941,1.497-14.344,14.31-13.798
		c11.089,0.472,22.155,1.685,33.244,1.903c8.565,0.168,12.345,3.675,12.24,12.365c-0.244,20.072,0.185,40.153-0.177,60.221
		c-0.154,8.529,1.928,11.199,10.376,7.174c13.781-6.565,28.739-8.697,43.784-10.028c11.514-1.019,15.212,2.3,14.864,13.736
		c-0.406,13.33-0.1,26.571,3.943,39.386c2.39,7.575-1.158,8.42-7.463,8.159c-45.214-1.873-70.079,25.492-63.302,69.699
		c1.143,7.458-0.365,13.047-6.635,17.841c-9.382,7.173-18.155,15.137-27.286,22.644c-8.684,7.139-12.196,6.4-16.827-4.006
		c-6.918-15.543-11.074-31.795-11.095-48.926C61.55,307.785,61.577,278.748,61.58,249.712z"/>
	<path fill="#7F7F7F" d="M235.691,337.881c15.133-1.432,29.492,2.955,44.149,5.479c8.713,1.501,12.557,5.436,11.928,14.041
		c-6.788,58.374-60.011,90.13-101.4,94.465c-36.46,3.819-67.593-8.031-94.391-32.658c-7.016-6.448-7.025-11.718,0.236-17.534
		c8.665-6.941,17.569-13.636,25.752-21.113c7.46-6.816,13.335-6.675,21.388-0.218c24.973,20.024,56.707,16.643,77.955-7.109
		C230.395,363.077,232.613,350.36,235.691,337.881z"/>
	<path fill="#9E9E9E" d="M308.838,331.357c0.586-7.933-1.213-16.694-3.313-25.402c-3.258-13.512-3.274-13.622,11.156-13.052
		c9.806,0.387,19.199-0.71,28.128-5.233c24.94-12.636,37.124-37.954,30.784-65.328c-1.525-6.583-1.117-11.773,4.547-16.217
		c10.408-8.166,20.671-16.526,30.815-25.02c6.278-5.257,10.084-4.244,13.996,3.12c27.56,51.883,6.627,123.523-44.948,152.58
		c-15.412,8.683-31.603,15.186-49.56,16.078C309.12,353.943,308.717,353.529,308.838,331.357z"/>
	<path fill="#9E9E9E" d="M205.397,168.702c-3.036-6.511-1.817-11.916-1.822-17.116c-0.029-30.047,0.122-60.095,0.296-90.142
		c0.079-13.681,0.89-14.481,14.882-13.872c11.424,0.498,22.829,1.438,34.25,2.028c6.967,0.36,10.525,3.834,10.531,10.797
		c0.014,16.81,0.03,33.621-0.076,50.431c-0.031,4.948-1.914,9.34-6.455,11.626c-19.392,9.761-33.422,25.434-46.854,41.829
		C209.058,165.615,207.616,166.658,205.397,168.702z"/>
</g>
</svg>
