<?xml version="1.0" encoding="utf-8"?>
<!-- Generator: Adobe Illustrator 17.0.0, SVG Export Plug-In . SVG Version: 6.00 Build 0)  -->
<!DOCTYPE svg PUBLIC "-//W3C//DTD SVG 1.1//EN" "http://www.w3.org/Graphics/SVG/1.1/DTD/svg11.dtd">
<svg version="1.1" id="Layer_1" xmlns="http://www.w3.org/2000/svg" xmlns:xlink="http://www.w3.org/1999/xlink" x="0px" y="0px"
	 width="141.732px" height="99.213px" viewBox="0 0 141.732 99.213" enable-background="new 0 0 141.732 99.213"
	 xml:space="preserve">
<g>
	<g>
		<path d="M76.38,55.325c-0.366-1.82-0.781-3.629-1.197-5.439c-0.428-1.861-0.869-3.785-1.244-5.683
			c-0.185-0.932-0.342-1.877-0.497-2.82c-0.769-4.639-1.562-9.427-5.67-12.617c0.103-0.091,0.206-0.182,0.309-0.272
			c1.239-1.085,2.52-2.208,3.346-3.861c0.943-1.893,1.191-3.996,0.696-5.921c-0.99-3.859-4.781-6.769-8.862-6.769
			c-4.229,0.023-7.871,3.023-8.657,7.134c-0.384,2.004-0.047,4.119,0.949,5.956c0.853,1.57,2.151,2.751,3.408,3.892
			c0.119,0.107,0.237,0.215,0.354,0.323l-2.026,1.777c-0.105,0.093-0.213,0.201-0.321,0.312c-0.127,0.13-0.339,0.348-0.36,0.382
			l-7.45-3.596c0.057-0.066,0.115-0.132,0.171-0.197c1.033-1.189,2.1-2.417,2.642-4.045c0.577-1.732,0.637-3.684,0.171-5.495
			c-0.955-3.715-4.347-6.36-8.249-6.432l-0.155-0.001c-3.616,0-7.127,2.248-8.348,5.346c-1.325,3.361,0.193,6.611,1.53,9.478
			c0.251,0.537,0.499,1.068,0.726,1.594l-7.689,4.188c-0.837,0.456-0.789,1.614-0.753,2.459c0.006,0.146,0.011,0.281,0.01,0.395
			c-0.006,0.779,0.119,1.523,0.237,2.158c0.269,1.457,0.552,2.911,0.844,4.364c0.342,1.703,0.695,3.403,1.049,5.103
			c0.88,4.237,1.791,8.619,2.491,12.956c1.13,7.003,1.499,12.788,1.161,18.208c-0.203,3.225-0.183,6.421-0.133,9.395l0.093,4.867
			c0.023,1.372,0.297,2.524,0.587,3.744l0.087,0.368l0.723,0.509l0.948-0.109l0.59-0.661c0-3.13,0.072-6.319,0.141-9.404
			c0.163-7.181,0.331-14.606-0.393-21.904c-0.706-7.116-2.211-14.202-3.668-21.055c-0.615-2.9-1.252-5.893-1.819-8.852
			c0.371-0.254,0.746-0.513,1.123-0.775c2.467-1.712,5.017-3.482,7.786-4.244c0.622-0.171,1.277-0.258,1.945-0.258
			c1.868,0,3.731,0.683,5.145,1.278c2.511,1.056,4.461,1.995,6.135,2.957l0.948,0.546c0.055,0.032,0.108,0.059,0.168,0.089
			l-0.46,2.061c-0.319,1.45-0.633,2.902-0.936,4.355c-1.401,6.693-2.461,12.659-3.239,18.239c-1.362,9.762-1.902,18.684-1.639,27.16
			l-0.089,0.04c-0.27,0.302-0.281,0.313,0.785,9.852l0.654,0.591l1.268,0.013l0.673-0.665V68.646l3.322,0.209l0.163,1.303
			c0.527,4.216,1.073,8.576,1.491,12.875l0.095,0.963c0.199,2,0.406,4.068,0.45,6.1c0.041,1.958,0.093,4.396,1.297,6.474l0.68,0.324
			l0.993-0.158l0.557-0.72l-2.784-29.432l-0.569-0.596l-5.475-0.785c0.475-2.446,0.967-4.888,1.461-7.33
			c0.947-4.687,1.926-9.533,2.751-14.331c0.13-0.748,0.233-1.515,0.337-2.288c0.312-2.307,0.635-4.694,1.688-6.691
			c0.959-1.82,2.54-3.356,4.825-4.688c2.445,1.515,4.018,3.076,4.938,4.895c0.581,1.152,0.863,2.359,1.131,3.934
			c0.297,1.753,0.636,3.579,1.037,5.582c0.681,3.397,1.446,6.832,2.187,10.154l0.207,0.932c0.411,1.841,0.821,3.683,1.215,5.527
			c0.338,1.573,0.466,3.069,0.563,4.678l-5.816,0.885L68.6,67.098c-0.151,4.341-0.621,8.624-1.075,12.766
			c-0.605,5.51-1.175,10.714-1.072,16.088l0.603,0.65l1.147,0.107l0.724-0.597l2.69-26.941l6.615-0.74l0.578-0.794
			c-0.463-2.271-0.905-4.545-1.349-6.82C77.105,58.986,76.747,57.155,76.38,55.325z M63.381,14.276l0.082,0.662
			c1.534,0.026,3.087,0.773,4.264,2.049c1.127,1.224,1.72,2.757,1.626,4.206c-0.196,3.005-2.89,5.451-6.083,5.451h-0.001
			c-3.121-0.042-5.824-2.648-5.903-5.69c-0.037-1.429,0.595-2.919,1.732-4.086c1.197-1.227,2.757-1.931,4.282-1.931L63.381,14.276
			C63.38,14.276,63.381,14.276,63.381,14.276z M43.675,14.939c0.254,0,0.512,0.017,0.771,0.053c3.06,0.422,5.188,3.167,4.948,6.386
			c-0.219,2.943-2.763,5.249-5.794,5.248c-0.18,0-0.362-0.008-0.544-0.025c-3.131-0.288-5.456-3.138-5.183-6.352
			C38.128,17.272,40.676,14.939,43.675,14.939z"/>
	</g>
	<g>
		<path d="M20.66,54.412c3.202-3.726,4.352-7.03,3.512-10.077c-0.993-3.595-4.655-6.388-8.52-6.496l-0.234-0.003
			c-3.85,0-7.421,2.581-8.49,6.136c-0.926,3.077,0.236,6.553,3.453,10.34l-3.593,2.371l-0.297,0.492l-0.065,0.722
			c-0.037,0.413-0.069,0.825-0.096,1.237c-0.127,1.831-0.197,3.734-0.214,5.819c-0.033,4.036,0.138,8.226,0.509,12.453
			c0.384,4.384,0.892,8.002,1.598,11.387c0.305,1.461,0.975,4.126,0.975,4.126c-0.209,0.363-0.287,0.499,1.576,3.676l1.239-0.376
			c-0.028-0.456-0.036-0.914-0.042-1.371c-0.011-0.674-0.024-1.371-0.097-2.068c-0.088-0.842-0.276-1.669-0.458-2.469
			c-0.085-0.379-0.171-0.756-0.246-1.135c-0.453-2.277-0.839-4.597-1.147-6.896c-0.628-4.678-0.966-9.48-1.002-14.274
			c-0.005-0.471-0.018-0.969-0.032-1.483c-0.101-3.625-0.227-8.137,3.218-9.746c0.948-0.443,2.006-0.677,3.061-0.677
			c2.29,0,5.23,1.17,5.975,4.467c0.21,0.927,0.197,1.965,0.186,2.968c-0.005,0.378-0.009,0.752-0.002,1.12
			c0.026,1.463,0.049,2.926,0.057,4.389c0.019,3.66-0.076,6.459-0.309,9.073c-0.256,2.851-0.77,5.778-1.576,8.946
			c-0.508,2.001-0.751,4.06-0.985,6.052c-0.113,0.964-0.227,1.927-0.37,2.886l0.962,0.69c1.966-1.01,2.292-2.735,2.608-4.402
			l0.095-0.499c0.437-2.202,0.803-4.237,1.123-6.222c0.744-4.613,1.214-8.839,1.437-12.92c0.229-4.215,0.197-8.263-0.095-12.033
			C24.126,57.449,22.909,55.41,20.66,54.412z M15.13,52.482c-3.121-0.201-5.675-2.92-5.575-5.938
			c0.099-2.998,2.94-5.728,5.961-5.728l0.136,0.002c1.576,0.042,3.137,0.821,4.286,2.136c1.111,1.271,1.654,2.86,1.491,4.36
			c-0.315,2.905-2.915,5.181-5.92,5.181C15.383,52.494,15.257,52.49,15.13,52.482z"/>
	</g>
	<g>
		<path d="M98.219,64.252c-0.138-1.424-1.815-3.572-2.641-4.6c0.034-0.115-0.094-0.265-0.305-0.38
			c-0.073-0.092-0.133-0.168-0.15-0.197c-0.135-0.234,1.852-2.174,2.365-3.254c0.762-1.611,0.979-3.428,0.609-5.115
			c-0.744-3.392-3.762-5.945-7.339-6.209c-0.193-0.014-0.384-0.021-0.574-0.021c-3.316,0-6.366,2.193-7.589,5.457
			c-0.7,1.871-0.653,3.851,0.134,5.574c0.345,0.756,0.82,1.488,1.452,2.241c0.463,0.551,0.795,0.975,1.097,1.476l-2.319,1.612
			c-0.556,0.383-0.872,0.645-0.932,1.567c-0.028,0.433-0.054,0.866-0.077,1.299c-0.102,1.933-0.158,3.926-0.167,5.925
			c-0.017,4.11,0.159,8.097,0.525,11.851c0.387,3.965,0.909,7.115,1.639,9.912c0.573,2.193,1.253,4.475,2.697,6.152l1.156-0.564
			c-1.037-5.22-2.293-12.113-2.813-19.15c-0.225-3.041-0.301-6.006-0.23-8.812c0.04-1.549,0.126-3.091,0.253-4.583
			c0.013-0.142,0.017-0.303,0.021-0.474c0.006-0.256,0.021-0.856,0.131-0.967l0.456-0.269c0.444-0.262,0.887-0.526,1.348-0.759
			c1.286-0.652,2.546-0.997,3.641-0.997c0.527,0,1.026,0.079,1.484,0.234c1.751,0.594,2.5,2.249,2.79,3.183
			c0.629,2.03,0.575,4.365,0.524,6.623c-0.01,0.42-0.019,0.834-0.025,1.241c-0.037,3.011-0.233,6.073-0.583,9.101
			c-0.346,2.985-0.852,6.019-1.5,9.016c-0.068,0.311-0.155,0.631-0.243,0.956c-0.232,0.852-0.47,1.732-0.446,2.626
			c0.022,0.85,0.399,1.634,0.731,2.326c0.075,0.156,0.149,0.309,0.217,0.459l1.246-0.091c2.022-7.093,3.204-14.556,3.512-22.182
			C98.447,71.175,98.551,67.684,98.219,64.252z M95.283,52.253c0.119,2.574-2.093,5.015-4.735,5.223
			c-0.105,0.009-0.21,0.013-0.314,0.013c-2.514,0-5.025-2.328-5.167-4.79c-0.071-1.221,0.423-2.494,1.356-3.492
			c1.001-1.071,2.34-1.693,3.678-1.706l0.045-0.661c0,0,0,0,0,0v0.661C92.766,47.501,95.166,49.721,95.283,52.253z"/>
	</g>
</g>
<g>
	<path d="M83.524,32.661v-8.255c-0.828,0.46-2.599,0.943-3.702,1.058l-0.552-2.852c2.023-0.322,4.254-1.403,5.059-2.346h3.035
		v12.395H83.524z"/>
	<path d="M92.034,36.593l-0.92-3.012c3.035-0.621,5.128-1.748,6.186-3.587c-0.552,0.184-1.356,0.253-1.932,0.253
		c-3.564,0-5.564-1.839-5.564-4.898c0-3.035,2.346-5.358,5.909-5.358c4.277,0,6.071,3.013,6.071,6.416
		C101.784,32.201,97.277,35.581,92.034,36.593z M95.712,22.957c-1.379,0-2.207,1.104-2.207,2.369c0,1.495,1.012,2.346,2.529,2.346
		c0.689,0,1.495-0.115,2.047-0.299c0.046-0.322,0.068-0.644,0.068-0.989C98.15,24.337,97.299,22.957,95.712,22.957z"/>
	<path d="M107.535,36.593c-1.679,0-3.357-0.368-4.622-0.897l1.173-2.92c0.781,0.345,2.115,0.621,3.265,0.621
		c1.587,0,2.576-0.713,2.576-1.886c0-1.311-0.943-2.299-3.68-2.299c-0.667,0-1.426,0.069-2.3,0.184l0.989-9.129h8.278v3.104h-5.082
		l-0.345,3.082h0.092c3.794,0,5.863,1.932,5.863,4.967C113.743,35.167,110.8,36.593,107.535,36.593z"/>
	<path d="M126.141,32.661v3.656h-3.519v-3.656h-7.128v-2.667l6.484-9.727h4.162v9.727h1.426v2.667H126.141z M122.76,23.532
		c0,0-0.46,1.035-1.08,2l-2.921,4.461h3.979v-4.208c0-1.058,0.068-2.253,0.068-2.253H122.76z"/>
</g>
</svg>
