<?xml version="1.0" encoding="UTF-8" standalone="no"?>
<!-- Generator: Adobe Illustrator 22.1.0, SVG Export Plug-In . SVG Version: 6.00 Build 0)  -->

<svg
   xmlns:dc="http://purl.org/dc/elements/1.1/"
   xmlns:cc="http://creativecommons.org/ns#"
   xmlns:rdf="http://www.w3.org/1999/02/22-rdf-syntax-ns#"
   xmlns:svg="http://www.w3.org/2000/svg"
   xmlns="http://www.w3.org/2000/svg"
   xmlns:sodipodi="http://sodipodi.sourceforge.net/DTD/sodipodi-0.dtd"
   xmlns:inkscape="http://www.inkscape.org/namespaces/inkscape"
   version="1.1"
   id="Layer_1"
   x="0px"
   y="0px"
   viewBox="0 0 91.094773 59.999999"
   xml:space="preserve"
   sodipodi:docname="200818_Reactietijd_YS_R01.svg"
   width="91.094772"
   height="60"
   inkscape:version="0.92.4 (5da689c313, 2019-01-14)"><metadata
   id="metadata13"><rdf:RDF><cc:Work
       rdf:about=""><dc:format>image/svg+xml</dc:format><dc:type
         rdf:resource="http://purl.org/dc/dcmitype/StillImage" /><dc:title></dc:title></cc:Work></rdf:RDF></metadata><defs
   id="defs11" /><sodipodi:namedview
   pagecolor="#ffffff"
   bordercolor="#666666"
   borderopacity="1"
   objecttolerance="10"
   gridtolerance="10"
   guidetolerance="10"
   inkscape:pageopacity="0"
   inkscape:pageshadow="2"
   inkscape:window-width="1920"
   inkscape:window-height="1001"
   id="namedview9"
   showgrid="false"
   inkscape:zoom="10.680141"
   inkscape:cx="33.414256"
   inkscape:cy="32.26401"
   inkscape:window-x="-9"
   inkscape:window-y="-9"
   inkscape:window-maximized="1"
   inkscape:current-layer="Layer_1" />

<circle
   cx="68.719856"
   cy="37.834602"
   r="22.165398"
   id="circle4546"
   style="fill:#666666;fill-opacity:1;stroke-width:0.69379604" /><circle
   style="fill:#ffffff;stroke-width:0.69379604"
   cx="68.777443"
   cy="37.834602"
   r="17.145088"
   id="circle4548" /><path
   inkscape:connector-curvature="0"
   d="m 91.094776,17.725618 c -1.179452,1.073997 -2.358212,2.148687 -3.403761,3.100576 -1.993972,-1.891983 -3.867915,-3.670182 -5.950691,-5.646807 1.16766,-1.042776 2.329074,-2.080693 3.513384,-3.139428 2.080695,1.808032 3.960881,3.44123 5.841068,5.074426 0,0.203975 0,0.407258 0,0.611233 z"
   id="path4550"
   style="fill:#666666;fill-opacity:1;stroke-width:0.69379604" /><path
   inkscape:connector-curvature="0"
   d="m 25.770407,4.6017724 c 5.69121,0 11.381726,0.016644 17.072935,0 2.030048,-0.00546 4.499267,-0.3732628 6.369046,0.6355161 1.647074,0.8887537 2.160483,2.8216699 1.801096,4.563097 -0.205364,0.9942105 -0.615397,1.5561865 -1.417424,2.1486885 -1.158641,0.856141 -2.321443,1.704655 -3.488408,2.549004 -2.244429,1.623484 -4.502043,3.228233 -6.764512,4.82674 -2.262468,1.598506 -4.529795,3.190768 -6.792262,4.789274 -2.002295,1.41465 -4.18151,3.561948 -6.777694,3.602187 -2.53513,0.04024 -4.582523,-1.929446 -6.515439,-3.316344 C 17.0598,22.822938 14.860467,21.246634 12.658357,19.675185 10.456249,18.103737 8.2499772,16.53784 6.0374618,14.98096 4.9315508,14.202521 3.8235588,13.426164 2.7134848,12.653275 1.7387018,11.97405 0.68274378,11.306617 0.19986178,10.166016 -0.61118522,8.2511409 1.2093348,6.2772907 2.7336048,5.347603 4.7025978,4.147335 7.3931393,4.5081088 9.5890036,4.5545947 c 1.4042434,0.031218 16.1814034,-0.064524 16.1814034,0.047173 6.715254,0 0,-0.014606 0,0 z"
   id="path4552"
   style="fill:#666666;fill-opacity:1;stroke-width:0.69379604" /><path
   inkscape:connector-curvature="0"
   d="m 67.638225,0.05948985 c 4.334145,0.0028891 9.505702,-0.97478357 9.378736,4.88779375 -0.104072,4.807311 -4.55269,6.7658984 -9.156027,7.3632574 -3.612597,0.468313 -8.887527,-1.538841 -9.566754,-5.4657264 -1.247444,-7.20507186 3.621615,-6.79018168 9.344045,-6.78532475 2.126487,0.0013884 -1.924591,-0.0013884 0,0 z"
   id="path4554"
   style="fill:#666666;fill-opacity:1;stroke-width:0.69379604" /><path
   inkscape:connector-curvature="0"
   d="m 42.803101,37.776325 c 0,-7.295267 3.156773,-13.852334 8.177774,-18.382821 0.362162,-1.344576 0.396853,-2.819588 0.08188,-4.592237 -1.724777,1.214144 -3.179667,2.273572 -4.66994,3.280963 -5.971504,4.034423 -11.950638,8.05844 -17.935324,12.072744 -1.908637,1.280054 -3.767317,1.127417 -5.673173,-0.13391 C 17.705028,26.659629 12.566082,23.388382 7.4923521,20.017919 5.1674418,18.47353 2.9417438,16.780668 0.13880778,14.77421 c 0,8.166673 0,15.647876 0,23.129078 0,5.322802 1.00808602,6.344072 6.45785302,6.350315 7.2210292,0.0083 14.4420582,-0.03955 21.6637812,-0.05204 5.075118,-0.009 10.156481,-0.0029 15.388397,-0.0021 -0.548792,-2.049475 -0.845738,-4.200937 -0.845738,-6.423164 z"
   id="path4556"
   style="fill:#666666;fill-opacity:1;stroke-width:0.69379604" /><path
   inkscape:connector-curvature="0"
   d="m 71.378481,35.31404 c -1.368167,-3.370459 -1.107299,-8.804966 -1.107299,-9.514718 0,-0.883203 -0.962988,-1.18084 -1.480561,-1.185697 -0.453744,-0.004 -0.991436,0.166511 -1.343884,0.693103 -0.158179,0.236583 0.06244,6.072102 -1.308499,10.030208 -1.292542,0.856837 -2.145912,2.32283 -2.145912,3.990021 0,2.642669 2.142443,4.785112 4.785113,4.785112 2.64267,0 4.785113,-2.142443 4.785113,-4.785112 0,-1.682455 -0.870714,-3.16024 -2.184071,-4.012917 z"
   id="path4558"
   style="fill:#666666;fill-opacity:1;stroke-width:0.69379604" /></svg>