<?xml version="1.0" encoding="UTF-8" standalone="no"?>
<!-- Generator: Adobe Illustrator 22.1.0, SVG Export Plug-In . SVG Version: 6.00 Build 0)  -->

<svg
   xmlns:dc="http://purl.org/dc/elements/1.1/"
   xmlns:cc="http://creativecommons.org/ns#"
   xmlns:rdf="http://www.w3.org/1999/02/22-rdf-syntax-ns#"
   xmlns:svg="http://www.w3.org/2000/svg"
   xmlns="http://www.w3.org/2000/svg"
   xmlns:sodipodi="http://sodipodi.sourceforge.net/DTD/sodipodi-0.dtd"
   xmlns:inkscape="http://www.inkscape.org/namespaces/inkscape"
   version="1.1"
   id="Layer_1"
   x="0px"
   y="0px"
   viewBox="0 0 74.534486 59.999988"
   xml:space="preserve"
   sodipodi:docname="200818_Transportkosten_YS_R01.svg"
   width="74.534485"
   height="59.999989"
   inkscape:version="0.92.4 (5da689c313, 2019-01-14)"><metadata
   id="metadata13"><rdf:RDF><cc:Work
       rdf:about=""><dc:format>image/svg+xml</dc:format><dc:type
         rdf:resource="http://purl.org/dc/dcmitype/StillImage" /><dc:title /></cc:Work></rdf:RDF></metadata><defs
   id="defs11" /><sodipodi:namedview
   pagecolor="#ffffff"
   bordercolor="#666666"
   borderopacity="1"
   objecttolerance="10"
   gridtolerance="10"
   guidetolerance="10"
   inkscape:pageopacity="0"
   inkscape:pageshadow="2"
   inkscape:window-width="1920"
   inkscape:window-height="1001"
   id="namedview9"
   showgrid="false"
   inkscape:zoom="7.552"
   inkscape:cx="17.318661"
   inkscape:cy="26.992291"
   inkscape:window-x="-9"
   inkscape:window-y="-9"
   inkscape:window-maximized="1"
   inkscape:current-layer="Layer_1" />

<path
   style="fill:#ffffff;stroke-width:0.72931522"
   inkscape:connector-curvature="0"
   id="path2731"
   d="m 53.373477,19.598159 c 2.174089,0 6.525912,0 6.525912,0 l 8.460057,11.686548 c 0,0 -9.955882,0 -14.985969,0 0,-3.7815 0,-7.597277 0,-11.686548 z" /><path
   inkscape:connector-curvature="0"
   id="path2733"
   d="m 73.858483,30.458392 c -2.780878,-4.061556 -5.619373,-8.083 -8.367433,-12.166436 -0.919667,-1.366008 -2.204721,-3.484668 -2.516138,-4.000294 -0.02043,-0.03355 -0.03792,-0.06782 -0.06053,-0.09991 -0.0014,-0.0022 -0.01027,-0.01751 -0.01027,-0.01751 l -0.0066,-0.0037 c -0.377786,-0.528754 -0.993328,-0.876637 -1.692741,-0.876637 0,0 -13.283748,0 -15.74154,0 -1.150859,0 -2.083654,0.932794 -2.083654,2.083653 0,11.766773 0,21.220885 0,32.714165 -7.29e-4,0.01969 -0.01027,0.03647 -0.01027,0.05615 0,0.03428 0.0087,0.0671 0.01027,0.101376 0,0.04667 0,0.09044 0,0.136381 0.0037,0.0037 0.01092,0.01092 0.01532,0.01532 0.118144,0.967072 0.891953,1.721914 1.867777,1.811619 0.0087,0.0087 0.02334,0.02334 0.03137,0.03137 1.423622,0 1.926121,0 3.703463,0 0.04449,0.115236 0.08095,0.233382 0.122527,0.349343 0.238488,5.233566 4.544365,9.406708 9.837005,9.406708 5.270032,0 9.561323,-4.138135 9.833358,-9.34034 0.06855,-0.15972 0.140028,-0.328921 0.207855,-0.484265 1.506765,0 2.247749,-0.03574 3.452577,-0.03574 1.150859,0 2.083654,-0.932794 2.083654,-2.083654 0,-5.647087 0,-10.693219 0,-15.994612 -0.29829,-0.721293 -0.409875,-1.215039 -0.676075,-1.603035 z m -20.485006,0.826315 c 0,-3.7815 0,-7.596548 0,-11.686548 2.174089,0 6.525912,0 6.525912,0 l 8.460057,11.686548 c 0,0 -9.955882,0 -14.985969,0 z"
   style="fill:#666666;fill-opacity:1;stroke-width:0.72931522" /><path
   inkscape:connector-curvature="0"
   id="path2735"
   d="m 40.794248,48.147933 c 0,-0.01677 -0.02626,-26.269935 -0.02698,-39.0001314 7.3e-4,-0.020428 0.0058,-0.039382 0.0058,-0.059809 0,-0.020415 -0.0058,-0.039382 -0.0058,-0.059809 0,-0.1422171 0,-0.2909969 0,-0.4295667 -0.0248,-0.024061 -0.05615,-0.055426 -0.08315,-0.081685 -0.200561,-0.6994131 -0.751924,-1.2442116 -1.455712,-1.4331035 -0.02626,-0.025522 -0.04303,-0.043027 -0.04303,-0.043027 0,0 -0.05543,-7.292e-4 -0.145863,-0.00145 -0.114499,-0.019691 -0.230464,-0.035012 -0.350072,-0.035012 -0.1021,0 -0.199833,0.016045 -0.29829,0.029905 C 36.77791,7.0218727 32.983283,6.9963247 30.02591,7.0072626 27.032798,2.7728565 22.109191,0 16.529201,0 7.4003617,0 0,7.4003619 0,16.5292 c 0,3.702005 1.2318134,7.107908 3.2877531,9.863261 l -0.070743,21.756201 0.00146,0.0014 c 0,0.0051 -0.00146,0.01027 -0.00146,0.01532 0,1.046567 0.7738034,1.904242 1.7780705,2.053022 l 0.011675,0.01386 h 0.1261709 c 0.056157,0.0043 0.1101262,0.01677 0.1670133,0.01677 0.057616,0 0.1108553,-0.01237 0.1670132,-0.01677 h 6.727933 c 0.273493,5.200747 4.564055,9.336692 9.833356,9.336692 5.269303,0 9.559865,-4.135945 9.833358,-9.336692 h 6.846082 c 1.15086,0 2.083653,-0.932795 2.083653,-2.083655 0.0029,-7.29e-4 0.0029,-7.29e-4 0.0029,-7.29e-4 z"
   style="fill:#666666;fill-opacity:1;stroke-width:0.72931522" /><circle
   style="fill:#ffffff;stroke-width:0.72931522"
   id="circle2737"
   r="3.2235732"
   cy="51.280342"
   cx="22.031155" /><circle
   style="fill:#ffffff;stroke-width:0.72931522"
   id="circle2739"
   r="3.2235732"
   cy="51.280342"
   cx="58.951279" /><g
   id="g2743"
   transform="matrix(0.72931523,0,0,0.72931523,-14.950962,-5.2641973)"><path
     style="fill:#ffffff"
     inkscape:connector-curvature="0"
     id="path2741"
     d="m 53.156,13.95 -1.544,6.747 c -1.483,-1.38 -3.646,-2.07 -6.489,-2.07 -2.843,0 -5.146,0.95 -6.907,2.85 -0.994,1.072 -1.701,2.411 -2.119,4.019 h 14.39 L 49.65,29.27 H 35.574 c -0.017,0.373 -0.026,0.852 -0.026,1.437 0,0.568 0.017,1.161 0.052,1.778 H 48.917 L 48.08,36.26 H 36.149 c 0.436,1.737 1.108,3.101 2.015,4.092 1.744,1.916 4.012,2.874 6.803,2.874 3.349,0 6.018,-0.958 8.006,-2.874 v 7.453 c -2.268,1.055 -4.91,1.583 -7.928,1.583 -5.093,0 -9.28,-1.624 -12.559,-4.871 -2.233,-2.208 -3.707,-4.961 -4.422,-8.257 h -3.872 l 0.837,-3.775 h 2.564 c -0.017,-0.39 -0.026,-0.804 -0.026,-1.242 0,-0.747 0.017,-1.405 0.052,-1.973 h -3.427 l 0.837,-3.775 h 3.114 c 0.733,-3.231 2.189,-5.935 4.369,-8.111 3.297,-3.28 7.631,-4.92 13.004,-4.92 2.93,0 5.477,0.495 7.64,1.486 z" /></g></svg>