<?xml version="1.0" encoding="UTF-8" standalone="no"?>
<!-- Generator: Adobe Illustrator 22.1.0, SVG Export Plug-In . SVG Version: 6.00 Build 0)  -->

<svg
   xmlns:dc="http://purl.org/dc/elements/1.1/"
   xmlns:cc="http://creativecommons.org/ns#"
   xmlns:rdf="http://www.w3.org/1999/02/22-rdf-syntax-ns#"
   xmlns:svg="http://www.w3.org/2000/svg"
   xmlns="http://www.w3.org/2000/svg"
   xmlns:sodipodi="http://sodipodi.sourceforge.net/DTD/sodipodi-0.dtd"
   xmlns:inkscape="http://www.inkscape.org/namespaces/inkscape"
   version="1.1"
   id="Layer_1"
   x="0px"
   y="0px"
   viewBox="0 0 100.26821 59.999999"
   xml:space="preserve"
   sodipodi:docname="200816_Welder_YS_R01.svg"
   width="100.26821"
   height="60"
   inkscape:version="0.92.4 (5da689c313, 2019-01-14)"><metadata
   id="metadata13"><rdf:RDF><cc:Work
       rdf:about=""><dc:format>image/svg+xml</dc:format><dc:type
         rdf:resource="http://purl.org/dc/dcmitype/StillImage" /><dc:title></dc:title></cc:Work></rdf:RDF></metadata><defs
   id="defs11" /><sodipodi:namedview
   pagecolor="#ffffff"
   bordercolor="#666666"
   borderopacity="1"
   objecttolerance="10"
   gridtolerance="10"
   guidetolerance="10"
   inkscape:pageopacity="0"
   inkscape:pageshadow="2"
   inkscape:window-width="1920"
   inkscape:window-height="1001"
   id="namedview9"
   showgrid="false"
   inkscape:zoom="7.552"
   inkscape:cx="31.102524"
   inkscape:cy="37.734027"
   inkscape:window-x="-9"
   inkscape:window-y="-9"
   inkscape:window-maximized="1"
   inkscape:current-layer="Layer_1" />

<path
   style="fill:#666666;stroke-width:1.98942232;fill-opacity:1"
   d="m 34.115939,57.16507 c -0.736085,0 -1.313018,-0.578922 -1.313018,-1.311029 0,-0.710223 0.576933,-1.287156 1.313018,-1.287156 0.706245,0 1.31302,0.576933 1.31302,1.287156 -0.0019,0.732107 -0.606775,1.311029 -1.31302,1.311029 z m -4.462274,0 c -0.736085,0 -1.313016,-0.578922 -1.313016,-1.311029 0,-0.710223 0.576931,-1.287156 1.313016,-1.287156 0.708236,0 1.31103,0.576933 1.31103,1.287156 0,0.732107 -0.602794,1.311029 -1.31103,1.311029 z m -4.462274,0 c -0.732105,0 -1.313018,-0.578922 -1.313018,-1.311029 0,-0.710223 0.580913,-1.287156 1.313018,-1.287156 0.710225,0 1.31302,0.576933 1.31302,1.287156 0,0.732107 -0.602795,1.311029 -1.31302,1.311029 z m -4.462272,0 c -0.734098,0 -1.31302,-0.578922 -1.31302,-1.311029 0,-0.710223 0.578922,-1.287156 1.31302,-1.287156 0.710223,0 1.313018,0.576933 1.313018,1.287156 0,0.732107 -0.602795,1.311029 -1.313018,1.311029 z m -4.460287,0 c -0.736086,0 -1.313018,-0.578922 -1.313018,-1.311029 0,-0.710223 0.576932,-1.287156 1.313018,-1.287156 0.706246,0 1.313019,0.576933 1.313019,1.287156 0,0.732107 -0.604785,1.311029 -1.313019,1.311029 z m -4.460285,0 c -0.736086,0 -1.313018,-0.578922 -1.313018,-1.311029 0,-0.710223 0.576932,-1.287156 1.313018,-1.287156 0.706245,0 1.31302,0.576933 1.31302,1.287156 -0.002,0.732107 -0.606775,1.311029 -1.31302,1.311029 z m -4.4622736,0 c -0.736086,0 -1.311029,-0.578922 -1.311029,-1.311029 0,-0.710223 0.576932,-1.287156 1.311029,-1.287156 0.710224,0 1.313019,0.576933 1.313019,1.287156 -0.002,0.732107 -0.602795,1.311029 -1.313019,1.311029 z"
   id="path1688"
   inkscape:connector-curvature="0" /><path
   style="fill:#666666;stroke-width:1.98942232;fill-opacity:1"
   d="m 35.192218,52.808236 c -0.05371,0 -0.236741,-0.02586 -0.264594,-0.02586 -0.706245,-0.185016 -1.153864,-0.867388 -1.022562,-1.575622 0.157167,-0.602795 0.680381,-1.022563 1.285166,-1.022563 0.05172,0 0.236742,0 0.288465,0.02586 0.708236,0.159152 1.155855,0.839537 0.996702,1.547771 -0.131306,0.630646 -0.654521,1.050414 -1.283177,1.050414 z m -4.356835,-0.972827 c -0.05371,0 -0.236741,0 -0.290456,-0.02586 -0.706244,-0.159152 -1.153863,-0.867387 -0.9967,-1.54777 0.159152,-0.628658 0.682372,-1.048425 1.287156,-1.048425 0.05172,0 0.236741,0.02586 0.290456,0.02586 0.706245,0.159152 1.153864,0.867389 0.996699,1.575623 -0.135276,0.602794 -0.656509,1.020574 -1.287155,1.020572 z m -4.356834,-0.942986 c -0.05172,0 -0.236741,-0.02785 -0.260615,-0.02785 -0.736086,-0.185014 -1.155855,-0.865395 -1.026543,-1.57164 0.159152,-0.606775 0.684362,-1.026543 1.287158,-1.026543 0.05371,0 0.234752,0.02786 0.290454,0.02786 0.706245,0.157166 1.153867,0.839536 0.996702,1.54777 -0.131306,0.632641 -0.656509,1.050419 -1.287156,1.050419 z m -4.356834,-0.970837 c -0.05172,0 -0.236743,0 -0.288467,-0.02586 -0.710223,-0.157167 -1.155855,-0.867388 -0.998691,-1.54777 0.159152,-0.630647 0.684362,-1.050415 1.287158,-1.050415 0.05371,0 0.23475,0.02785 0.290454,0.05371 0.340193,0.04974 0.630647,0.260615 0.811686,0.54908 0.185016,0.290457 0.264592,0.656511 0.185016,0.996702 -0.133292,0.606773 -0.682374,1.024552 -1.287156,1.024553 z m -4.358826,-0.944977 c -0.02586,0 -0.208889,-0.02586 -0.234751,-0.02586 -0.76195,-0.159151 -1.207581,-0.867389 -1.048427,-1.575623 0.157167,-0.602794 0.682373,-1.024552 1.285168,-1.024552 0.05371,0 0.238732,0.02786 0.290457,0.02786 0.708233,0.157167 1.155853,0.865399 0.996699,1.54578 -0.131306,0.632637 -0.658498,1.052405 -1.289146,1.052405 z m -4.352857,-0.946965 c -0.05371,0 -0.23873,-0.02586 -0.290455,-0.04974 -0.340191,-0.05371 -0.630647,-0.264592 -0.815663,-0.551069 -0.181038,-0.316319 -0.260615,-0.654521 -0.181038,-0.996702 0.131303,-0.604784 0.682372,-1.050414 1.287156,-1.050414 0.04973,0 0.234752,0.02786 0.286478,0.05172 0.710224,0.159152 1.155853,0.867389 0.996699,1.549759 -0.129321,0.602795 -0.656508,1.046437 -1.283177,1.046437 z M 9.0531974,47.058807 c -0.05371,0 -0.236741,-0.02586 -0.290455,-0.02586 -0.706245,-0.155181 -1.155854,-0.867388 -0.9967,-1.573633 0.1313,-0.604784 0.682372,-1.024552 1.287155,-1.024552 0.04973,0 0.234752,0.02785 0.286477,0.02785 0.7102246,0.157166 1.1558546,0.865398 0.9967006,1.573634 -0.129312,0.576933 -0.6803816,1.022562 -1.2831776,1.022561 z m -4.356834,-0.942986 c -0.05371,0 -0.234752,-0.02786 -0.290456,-0.02786 -0.706245,-0.183027 -1.153864,-0.865399 -0.9967,-1.573633 0.131301,-0.602795 0.656509,-1.024552 1.285167,-1.024552 0.05173,0 0.236741,0.02586 0.288465,0.02586 0.710225,0.157166 1.155855,0.841525 0.998691,1.54777 -0.157165,0.634626 -0.684362,1.052405 -1.285167,1.052405 z"
   id="path1690"
   inkscape:connector-curvature="0" /><path
   style="fill:#666666;stroke-width:1.98942232;fill-opacity:1"
   d="m 32.146412,47.66558 c -0.236741,0 -0.471493,-0.05371 -0.682371,-0.185016 -0.604785,-0.368044 -0.815663,-1.181718 -0.473482,-1.782523 0.370032,-0.630647 1.207578,-0.841525 1.812362,-0.471493 0.630648,0.368044 0.841525,1.153866 0.471493,1.782523 -0.23475,0.419768 -0.680383,0.656509 -1.128002,0.656509 z m -3.85749,-2.257993 c -0.238729,0 -0.473481,-0.05172 -0.656509,-0.183028 -0.630646,-0.370033 -0.841525,-1.181717 -0.475472,-1.786501 0.340192,-0.602796 1.181718,-0.837548 1.786502,-0.469503 0.628658,0.366053 0.837546,1.181716 0.471493,1.782523 -0.232764,0.419766 -0.678392,0.656509 -1.126014,0.656509 z m -3.857489,-2.256006 c -0.236741,0 -0.471493,-0.05371 -0.656509,-0.185016 -0.626668,-0.368044 -0.837546,-1.155855 -0.471493,-1.782523 0.340192,-0.606773 1.181715,-0.815662 1.782522,-0.473481 0.316319,0.185016 0.525207,0.473481 0.604784,0.813674 0.105446,0.342181 0.05172,0.682371 -0.131306,0.996699 -0.236741,0.391915 -0.654518,0.630647 -1.128002,0.630647 z m -3.85749,-2.232132 c -0.236741,0 -0.445631,-0.07957 -0.656509,-0.185017 -0.628656,-0.368041 -0.839537,-1.179726 -0.471493,-1.810373 0.34019,-0.604784 1.20758,-0.813674 1.782522,-0.469503 0.316319,0.181037 0.525207,0.469503 0.630647,0.811684 0.07957,0.34019 0.02586,0.682371 -0.159152,0.996699 -0.20889,0.393906 -0.656509,0.65651 -1.126015,0.65651 z m -3.857491,-2.256005 c -0.236741,0 -0.445631,-0.07957 -0.656508,-0.185016 -0.290456,-0.185016 -0.525208,-0.471493 -0.604786,-0.815662 -0.07758,-0.340193 -0.02586,-0.680383 0.131307,-0.9967 0.342181,-0.576933 1.181717,-0.811685 1.812364,-0.445632 0.290457,0.159152 0.499347,0.445632 0.604787,0.787811 0.07758,0.342181 0.02586,0.708236 -0.133291,0.99869 -0.236741,0.393906 -0.682371,0.656509 -1.153868,0.656509 z M 12.884826,36.40744 c -0.236742,0 -0.473483,-0.05371 -0.684362,-0.185016 -0.286477,-0.157167 -0.497356,-0.447621 -0.602795,-0.787811 -0.07958,-0.342181 -0.02586,-0.706246 0.157165,-0.996702 0.34417,-0.606773 1.181717,-0.841525 1.786502,-0.471493 0.288465,0.181039 0.525207,0.471493 0.602794,0.811686 0.07958,0.34019 0.05371,0.682371 -0.129312,0.970837 -0.23873,0.393905 -0.658499,0.658499 -1.129992,0.658499 z M 9.0253454,34.147457 c -0.236741,0 -0.471493,-0.04974 -0.682371,-0.181039 -0.602795,-0.370032 -0.813674,-1.155855 -0.445631,-1.786501 0.340192,-0.602794 1.181717,-0.837546 1.782523,-0.469503 0.316317,0.185016 0.5252076,0.469503 0.6047836,0.811684 0.105441,0.340192 0.04973,0.684362 -0.131302,0.996701 -0.2347516,0.393906 -0.6545186,0.628658 -1.1280026,0.628658 z m -3.857489,-2.228153 c -0.236741,0 -0.44563,-0.07959 -0.65651,-0.185016 -0.314328,-0.185016 -0.525206,-0.471493 -0.602794,-0.811686 -0.10544,-0.342181 -0.05371,-0.68635 0.131301,-0.99869 0.340191,-0.578921 1.181717,-0.813674 1.782522,-0.473481 0.630647,0.370032 0.841526,1.183706 0.471493,1.812364 -0.234751,0.391915 -0.65452,0.656509 -1.126012,0.656509 z m -3.857489,-2.257995 c -0.236741,0 -0.44563103,-0.07957 -0.65651003,-0.183027 -0.630646,-0.370032 -0.841526,-1.155853 -0.471493,-1.784511 0.368043,-0.630647 1.17972703,-0.839537 1.78451203,-0.497356 0.630647,0.389927 0.839536,1.177738 0.497355,1.808385 -0.262603,0.393906 -0.682372,0.656509 -1.153864,0.656509 z"
   id="path1692"
   inkscape:connector-curvature="0" /><path
   style="fill:#666666;stroke-width:1.98942232;fill-opacity:1"
   d="m 38.812965,48.636419 c -0.393904,0 -0.759958,-0.159152 -0.996699,-0.447622 -0.473484,-0.578921 -0.395897,-1.390605 0.157166,-1.864087 0.551071,-0.44563 1.390608,-0.370034 1.836238,0.157167 0.471493,0.54908 0.395895,1.390607 -0.157167,1.864089 -0.23674,0.185016 -0.523217,0.290456 -0.839536,0.290456 z m -2.858798,-3.41186 c -0.395896,0 -0.761949,-0.185016 -0.996701,-0.473481 -0.238731,-0.262605 -0.342181,-0.602796 -0.314328,-0.970839 0.02586,-0.342181 0.181037,-0.656509 0.471493,-0.891261 0.525206,-0.447622 1.392594,-0.368044 1.838225,0.185016 0.471493,0.55107 0.391917,1.364744 -0.159152,1.838226 -0.23873,0.208888 -0.55306,0.312339 -0.839537,0.312339 z m -2.86079,-3.437721 c -0.393906,0 -0.75996,-0.157167 -0.99869,-0.471493 -0.471493,-0.551071 -0.391917,-1.366734 0.133291,-1.838227 0.551071,-0.44563 1.418459,-0.368043 1.864089,0.157167 0.471493,0.578922 0.391917,1.390605 -0.159152,1.836236 -0.238731,0.210879 -0.527197,0.316319 -0.839536,0.316319 z m -2.862778,-3.411859 c -0.391916,0 -0.759959,-0.185016 -0.9967,-0.471493 -0.471495,-0.551071 -0.391917,-1.390607 0.159152,-1.838227 0.551069,-0.473481 1.388617,-0.370032 1.836236,0.157167 0.238731,0.264592 0.342181,0.604784 0.314328,0.944975 -0.05172,0.368043 -0.208888,0.682371 -0.471493,0.893251 -0.236741,0.208888 -0.527197,0.314328 -0.841525,0.314328 z M 27.36981,34.935267 c -0.391915,0 -0.761949,-0.157167 -0.996701,-0.44762 -0.471493,-0.576931 -0.393906,-1.388616 0.159152,-1.864089 0.55107,-0.447619 1.388616,-0.368043 1.834247,0.159152 0.473483,0.549082 0.395894,1.388617 -0.157167,1.864089 -0.234752,0.183028 -0.525208,0.288466 -0.839536,0.288466 z m -2.86079,-3.409869 c -0.393904,0 -0.759959,-0.183027 -0.9967,-0.471493 -0.236742,-0.262605 -0.34019,-0.604784 -0.314329,-0.970839 0.02586,-0.34019 0.208889,-0.656509 0.471493,-0.891261 0.525208,-0.419767 1.392595,-0.368042 1.838226,0.185016 0.471493,0.54908 0.393906,1.388618 -0.157167,1.834247 -0.236741,0.20889 -0.525208,0.31433 -0.841527,0.31433 z m -2.8588,-3.437722 c -0.393906,0 -0.761947,-0.159151 -0.996699,-0.473481 -0.473482,-0.551071 -0.395895,-1.364745 0.157166,-1.836238 0.551069,-0.445631 1.390606,-0.370032 1.836236,0.157167 0.236741,0.290456 0.340191,0.628659 0.316317,0.970839 -0.02586,0.34019 -0.210877,0.65452 -0.471493,0.891261 -0.240718,0.185016 -0.527197,0.290456 -0.841525,0.290456 z m -2.860788,-3.411859 c -0.395895,0 -0.761949,-0.159152 -0.996702,-0.473483 -0.473483,-0.551069 -0.393906,-1.364743 0.131307,-1.838225 0.576931,-0.471495 1.416467,-0.368043 1.864088,0.159152 0.471493,0.54908 0.391917,1.364743 -0.159151,1.838225 -0.236743,0.208889 -0.525209,0.31433 -0.839537,0.31433 z m -2.86079,-3.413849 c -0.393906,0 -0.759959,-0.183028 -1.024552,-0.497356 -0.445631,-0.527195 -0.366055,-1.366731 0.185016,-1.838224 0.525206,-0.447622 1.390605,-0.368044 1.838226,0.155181 0.471492,0.55306 0.391915,1.392596 -0.159152,1.866078 -0.236741,0.183027 -0.527197,0.314328 -0.839536,0.314328 z m -2.862779,-3.435731 c -0.391917,0 -0.75996,-0.185016 -0.996701,-0.471493 -0.236741,-0.264592 -0.340191,-0.604785 -0.316318,-0.946966 0.02785,-0.366053 0.210878,-0.682371 0.475472,-0.891261 0.525207,-0.471493 1.388617,-0.393906 1.836237,0.157167 0.236741,0.262603 0.340191,0.604784 0.312339,0.944976 -0.02586,0.368042 -0.208889,0.682372 -0.471493,0.89126 -0.234752,0.21088 -0.523218,0.316318 -0.839536,0.316317 z m -2.8588,-3.437722 c -0.3919156,0 -0.7619486,-0.159152 -0.9967006,-0.44961 -0.471493,-0.551069 -0.391916,-1.388615 0.159154,-1.864089 0.551069,-0.447619 1.3886166,-0.368041 1.8342476,0.159152 0.473482,0.574943 0.393905,1.390606 -0.157165,1.864089 -0.236742,0.187005 -0.525208,0.290455 -0.839537,0.290455 z M 7.3462734,10.974667 c -0.393905,0 -0.759959,-0.183027 -0.9967,-0.471493 -0.236742,-0.262605 -0.340191,-0.6047859 -0.314329,-0.9469649 0.02586,-0.366055 0.20889,-0.682372 0.471494,-0.891261 0.551069,-0.445631 1.392594,-0.391916 1.838225,0.159152 0.473483,0.55107 0.419769,1.3627539 -0.157165,1.8342469 -0.236741,0.21088 -0.527197,0.316318 -0.841525,0.316318 z"
   id="path1694"
   inkscape:connector-curvature="0" /><path
   style="fill:#666666;stroke-width:1.98942232;fill-opacity:1"
   d="m 40.677054,43.072003 c -0.525206,0 -0.996701,-0.314328 -1.207578,-0.78781 -0.159152,-0.342181 -0.159152,-0.684362 -0.02586,-1.026541 0.131307,-0.31433 0.391916,-0.576933 0.706244,-0.706245 0.604786,-0.264594 1.444322,0.02586 1.706926,0.682371 0.157166,0.314328 0.157166,0.682372 0.02586,0.996702 -0.131306,0.342179 -0.368043,0.604782 -0.710224,0.736085 -0.129321,0.05172 -0.340191,0.105445 -0.495367,0.105445 z m -1.784511,-4.094231 c -0.525207,0 -0.99869,-0.312339 -1.20758,-0.787809 -0.133291,-0.31433 -0.133291,-0.682374 -0.02785,-0.996702 0.131306,-0.342181 0.395895,-0.602793 0.710225,-0.736086 0.630645,-0.260613 1.44233,0.02985 1.732784,0.684362 0.286479,0.656509 -0.02983,1.418458 -0.68436,1.730797 -0.07758,0.02785 -0.417779,0.105446 -0.523218,0.105446 z m -1.786502,-4.09423 c -0.525206,0 -0.996701,-0.314328 -1.207578,-0.787812 -0.286477,-0.656507 0.02586,-1.44432 0.682372,-1.732786 0.105445,-0.02586 0.449608,-0.105446 0.525206,-0.105446 0.525209,0 0.996702,0.316317 1.20758,0.78781 0.129321,0.316319 0.159152,0.682374 0.02786,0.996702 -0.133292,0.342181 -0.395897,0.58091 -0.710225,0.736086 -0.155181,0.05172 -0.34019,0.105446 -0.525208,0.105446 z m -1.758648,-4.094231 c -0.525209,0 -0.996702,-0.314328 -1.20758,-0.787811 -0.290456,-0.682372 0.02586,-1.444319 0.682371,-1.732787 0.630649,-0.286477 1.446311,0.05371 1.706924,0.686351 0.157167,0.314328 0.157167,0.680383 0.02586,0.996701 -0.131306,0.340191 -0.368044,0.602794 -0.708234,0.734097 -0.157167,0.07758 -0.340191,0.103442 -0.499344,0.103442 z m -1.782523,-4.09423 c -0.525206,0 -0.996701,-0.314328 -1.20758,-0.787812 -0.131306,-0.314328 -0.159152,-0.682371 -0.02586,-0.9967 0.129321,-0.340192 0.391917,-0.604786 0.732107,-0.734098 0.551071,-0.262603 1.41647,0.02586 1.706926,0.680383 0.131306,0.316319 0.131306,0.686351 0.02586,0.99869 -0.131306,0.342181 -0.391917,0.604784 -0.706246,0.734096 -0.159151,0.07957 -0.340192,0.105446 -0.525208,0.105446 z m -1.784511,-4.092242 c -0.525208,0 -0.99869,-0.316317 -1.209568,-0.789801 -0.129321,-0.312339 -0.129321,-0.682371 0,-0.996699 0.105445,-0.340192 0.370032,-0.576933 0.68436,-0.732108 0.656509,-0.264594 1.468194,0.04974 1.732786,0.682372 0.131306,0.314328 0.157167,0.682371 0.02586,0.996699 -0.129321,0.340193 -0.370032,0.576933 -0.708234,0.736087 -0.159152,0.07361 -0.342181,0.103443 -0.525208,0.103443 z M 30.01972,18.508608 c -0.523218,0 -0.996701,-0.316317 -1.207578,-0.78781 -0.286479,-0.656509 0.02785,-1.44432 0.68436,-1.732788 0.07758,-0.02586 0.417778,-0.105445 0.523218,-0.105445 0.525207,0 0.99869,0.314328 1.181717,0.787811 0.159152,0.314328 0.159152,0.684361 0.02586,0.99869 -0.131306,0.34218 -0.368045,0.602794 -0.682373,0.734097 -0.183025,0.07758 -0.34019,0.105445 -0.525205,0.105445 z m -1.782522,-4.094231 c -0.525209,0 -0.996702,-0.314328 -1.20758,-0.787809 -0.131306,-0.31433 -0.131306,-0.684362 -0.02586,-1.000681 0.129321,-0.34019 0.391917,-0.574943 0.706245,-0.732107 0.07957,-0.02785 0.445632,-0.105446 0.525208,-0.105446 0.525207,0 0.9967,0.314328 1.20559,0.811684 0.131306,0.290456 0.131306,0.656509 0.02586,0.970839 -0.131307,0.34218 -0.391916,0.606773 -0.706244,0.736085 -0.157167,0.08157 -0.34019,0.10743 -0.523218,0.10743 z m -1.784511,-4.096219 c -0.525209,0 -0.996702,-0.316318 -1.205592,-0.7878109 -0.131306,-0.316319 -0.131306,-0.682374 0,-0.996702 0.129321,-0.34019 0.366055,-0.5769329 0.706246,-0.7360866 0.604784,-0.2606128 1.442332,0.053706 1.706924,0.6843616 0.157166,0.31234 0.157166,0.680383 0.02586,0.996702 -0.129321,0.34019 -0.366053,0.6027929 -0.706244,0.7340959 -0.161137,0.07958 -0.34616,0.105445 -0.527199,0.105445 z"
   id="path1696"
   inkscape:connector-curvature="0" /><path
   style="fill:#666666;stroke-width:1.98942232;fill-opacity:1"
   d="m 43.955622,46.66888 c -0.05371,0 -0.264594,0 -0.290454,-0.02985 -0.732108,-0.183027 -1.153867,-0.86341 -0.996702,-1.573632 0.129321,-0.602796 0.656509,-1.022564 1.285167,-1.022564 0.05172,0 0.236741,0.02586 0.290456,0.04974 0.706244,0.159152 1.153865,0.867388 0.968849,1.57761 -0.129321,0.576933 -0.65452,0.998692 -1.257316,0.998692 z m 0.996701,-4.332962 c -0.04974,0 -0.234752,-0.02586 -0.290456,-0.02586 -0.706245,-0.185016 -1.153864,-0.891261 -0.996699,-1.601485 0.159151,-0.576931 0.682371,-0.99869 1.285165,-0.99869 0.05172,0 0.262605,0.02786 0.290456,0.02786 0.706245,0.157167 1.153864,0.867388 0.996701,1.575622 -0.127318,0.602795 -0.652531,1.022563 -1.285167,1.022563 z m 1.024553,-4.354845 c -0.05172,0 -0.236743,-0.02786 -0.286477,-0.02786 -0.710225,-0.155181 -1.155855,-0.865398 -0.996701,-1.571644 0.131306,-0.606773 0.656509,-1.026541 1.285167,-1.026541 0.05371,0 0.238731,0.02785 0.290456,0.05371 0.34019,0.04974 0.630646,0.260614 0.813674,0.574944 0.185016,0.290456 0.238729,0.630647 0.159152,0.970837 -0.135277,0.604786 -0.660489,1.026541 -1.265273,1.026541 z"
   id="path1698"
   inkscape:connector-curvature="0" /><path
   style="fill:#666666;stroke-width:1.98942232;fill-opacity:1"
   d="m 71.608591,60 h 28.659619 c 0,0 -1.864091,-21.744386 -13.181914,-35.759866 -2.693678,-4.211609 -11.096997,-6.821728 -16.327188,-1.352807 0.05371,-0.228784 0.105445,-0.461548 0.137279,-0.666458 0.423748,-2.582268 -1.605463,-7.157939 -3.6864,-11.093016 L 70.011094,8.9335191 66.676822,4.6761555 64.540183,6.3512491 C 64.126382,5.6450057 63.776245,5.0441989 63.543483,4.6204515 61.814674,1.512975 59.928702,-0.34912512 54.505538,0.05472788 43.41053,0.88232838 39.55105,8.6629591 38.673715,11.768447 37.51786,15.848751 40.2752,19.519236 40.2752,19.519236 l 2.443009,2.701633 7.876124,-6.169196 3.332283,4.257361 -7.57771,5.932458 9.53729,10.557864 c 3.600855,0.835557 6.602893,-0.654521 8.968315,-3.004027 -1.856131,4.78456 -3.459603,10.134116 -4.525935,14.445193 l 3.79184,5.68776 c 0.401863,0.602794 0.23873,1.418458 -0.364066,1.820321 -0.222814,0.147223 -0.475472,0.218836 -0.728128,0.218836 -0.421757,0 -0.837548,-0.20491 -1.092193,-0.584891 l -3.594886,-5.393322 c -4.221554,0.0179 -15.475714,0.06565 -15.477705,0.06565 -2.715561,0 -4.91984,2.19632 -4.92581,4.915861 -0.0041,2.721531 2.196323,4.929793 4.915863,4.933763 l 25.657578,0.09155 11.594353,-26.113153 c 0.324277,-0.704254 1.155855,-1.014605 1.864088,-0.696298 0.708234,0.324277 1.020574,1.159833 0.6963,1.86608 z M 59.115019,9.9421561 c -0.851472,-0.07957 -1.476151,-0.829589 -1.394584,-1.681061 0.07758,-0.8514727 0.831578,-1.4761514 1.681061,-1.3945849 0.847493,0.077582 1.476153,0.8295892 1.394585,1.6810619 -0.07758,0.849483 -0.837546,1.4741619 -1.681062,1.394584 z"
   id="path1700"
   inkscape:connector-curvature="0" /></svg>