<svg enable-background="new 0 0 100 100" version="1.1" viewBox="0 0 100 100" xml:space="preserve" xmlns="http://www.w3.org/2000/svg">
<style type="text/css">
	.st0{fill:#FFC808;}
	.st1{fill:#F58B1F;}
	.st2{fill:#F99D1C;}
	.st3{fill:#EF3B24;}
	.st4{fill:#F26922;}
	.st5{fill:#7FC042;}
	.st6{fill:#C6D22D;}
	.st7{fill:#E9E015;}
</style>
	<path class="st0" d="m35.9 22.4-7.6-14.5c-12.6 6.6-21.8 18.8-24.5 33.2l16.5 3c1.5-9.4 7.4-17.4 15.6-21.7z"></path>
	<path class="st1" d="m20 48.8c0-1.6 0.1-3.1 0.4-4.6l-16.5-3c-0.5 2.6-0.7 5.3-0.8 8 0 3.8 0.4 7.5 1.2 11.1l16.7-3.8c-0.7-2.5-1-5.1-1-7.7z"></path>
	<path class="st2" d="m20.9 56.4-16.7 3.8c1.2 5.1 3.2 9.9 5.9 14.3l14.8-9.2c-1.8-2.7-3.1-5.7-4-8.9z"></path>
	<path class="st3" d="m24.9 65.3-14.8 9.2c2.2 3.5 4.8 6.7 7.8 9.6-8.1 2.5-16.3 3.7-16.3 3.7 0.3 0.3 9.5 6.6 24 9.6l11.1-21.6c-4.7-2.5-8.8-6.1-11.8-10.5z"></path>
	<path class="st4" d="m49.8 78.6c-4.7 0-9.1-1.1-13-3l-11.1 21.7c7 1.5 15.3 2.1 24.5 1v-19.7h-0.4z"></path>
	<path class="st5" d="m50.1 78.6v19.7c4.3-0.5 8.7-1.5 13.3-2.9 4.1-1.2 7.9-3 11.4-5.2l-9.7-15.8c-4.3 2.6-9.4 4.2-15 4.2z"></path>
	<path class="st6" d="m79.6 48.8c0 10.8-5.8 20.3-14.4 25.5l9.7 15.8c6.7-4.2 12.3-10.1 16.2-17.1 3.8-6.8 6-14.6 6.1-22.8 0-3.6-0.3-7.1-1-10.5l-17.1 3.7c0.3 1.8 0.5 3.6 0.5 5.4z"></path>
	<path class="st7" d="m50.7 2.6c-8.1-0.1-15.7 1.8-22.4 5.3l7.6 14.5c4.1-2.2 8.9-3.4 13.9-3.4 14.6 0 26.8 10.5 29.3 24.4l17.1-3.7c-4.5-21-23.1-36.8-45.5-37.1z"></path>

</svg>