<?xml version="1.0" encoding="UTF-8" standalone="no"?>
<svg
   xmlns:dc="http://purl.org/dc/elements/1.1/"
   xmlns:cc="http://creativecommons.org/ns#"
   xmlns:rdf="http://www.w3.org/1999/02/22-rdf-syntax-ns#"
   xmlns:svg="http://www.w3.org/2000/svg"
   xmlns="http://www.w3.org/2000/svg"
   viewBox="0 0 541 541"
   height="541"
   width="541"
   version="1.1"
   id="svg2">
  <metadata
     id="metadata8">
    <rdf:RDF>
      <cc:Work
         rdf:about="">
        <dc:format>image/svg+xml</dc:format>
        <dc:type
           rdf:resource="http://purl.org/dc/dcmitype/StillImage" />
        <dc:title></dc:title>
      </cc:Work>
    </rdf:RDF>
  </metadata>
  <defs
     id="defs6" />
  <path
     id="path4133"
     d="m 146.47218,527.79083 c 7.2161,-7.20785 13.12019,-13.53728 13.12019,-14.0654 0,-0.52811 -17.26461,-18.29813 -38.36579,-39.48892 -23.44789,-23.54746 -39.69585,-40.6673 -41.78641,-44.02872 -17.52632,-28.18054 -16.98486,-62.43158 1.42277,-90 3.31888,-4.97056 168.59046,-170.99999 170.21946,-170.99999 0.55985,0 3.94113,2.96375 7.51395,6.5861 12.89726,13.0761 12.7559,13.01397 82.53463,36.27361 34.62876,11.54295 66.13122,21.74795 70.00545,22.67776 6.63886,1.59333 7.492,1.59092 14.83119,-0.0419 19.00199,-4.22754 36.81977,-18.99436 53.6888,-44.49557 8.78738,-13.28406 15.39004,-21.07994 21.23711,-25.07507 12.81087,-8.75326 17.76774,-16.35375 16.1963,-24.83416 -1.659,-8.95288 -7.71405,-13.50041 -19.17245,-14.39909 -3.94624,-0.30951 -8.51288,-1.25459 -10.14808,-2.10018 -1.6352,-0.8456 -6.8125,-6.16211 -11.50512,-11.81448 -23.86985,-28.751812 -36.43856,-37.685561 -69.35559,-49.297488 -23.31033,-8.223035 -30.3615,-12.873493 -31.89242,-21.034026 -0.8418,-4.487193 0.0887,-11.613472 2.06009,-15.777849 0.82476,-1.742213 2.60379,-6.54266 3.95338,-10.66766 2.37483,-7.2586144 2.39767,-7.5965544 0.70937,-10.5000004 -3.81567,-6.562007 -11.93211,-3.659155 -29.67606,10.6136764 -9.82925,7.906427 -20.07476,20.309642 -25.40168,30.751273 -2.91781,5.719372 -9.95495,12.822938 -13.56917,13.697256 -10.6103,2.566741 -9.04341,1.093072 -133.71021,125.754758 -65.6575,65.65479 -122.17952,122.85576 -125.6045,127.11326 -12.22008,15.19043 -18.42917,28.93621 -23.52038,52.06977 -5.45849,24.80243 -0.53623,55.60685 12.60432,78.88012 7.79158,13.79968 13.31245,20.04366 51.72045,58.49456 l 38.77021,38.81353 13.12019,-13.10517 z M 416.59237,183.24644 c -16.39358,-4.27944 -19.74958,-5.20848 -21.5,-5.95186 -1.1,-0.46716 -7.4,-2.74733 -14,-5.06705 -14.91361,-5.24174 -39.52522,-17.06422 -50.62409,-24.3179 -15.66726,-10.23935 -20.14284,-16.47274 -20.25752,-28.21378 -0.0534,-5.46367 0.4426,-8.00292 2.24617,-11.5 4.88272,-9.46749 12.02833,-14.323098 21.22911,-14.425685 6.44174,-0.07182 8.78034,0.941341 18.40633,7.974295 11.19516,8.17941 19.93109,14.11833 24.46145,16.62954 2.31565,1.28359 5.40913,3.03341 6.87441,3.8885 10.19918,5.95188 22.58674,11.71041 37.66414,17.5087 12.1097,4.65701 15.23324,6.33086 18.04132,9.66807 4.20134,4.99302 5.63091,14.07116 3.28635,20.86931 -3.79165,10.99404 -13.89196,16.05359 -25.82767,12.93786 z m -227,286.96135 0,-14 13.47178,0 13.47178,0 0.27822,-13.75 0.27822,-13.75 14.22271,-0.27729 14.22271,-0.27729 0.27729,-14.22271 0.27729,-14.22271 13.72196,-0.27804 13.72197,-0.27803 0.27803,-13.72197 0.27804,-13.72196 13.72196,-0.27804 13.72197,-0.27803 0.27803,-13.72197 0.27804,-13.72196 14.22271,-0.27729 14.22271,-0.27729 0.27729,-14.22271 0.27729,-14.22271 13.75,-0.27822 13.75,-0.27822 0,-13.47178 0,-13.47178 14,0 14,0 0,-13.87807 0,-13.87808 -5.75,-2.06409 c -3.1625,-1.13526 -12.19105,-4.19827 -20.06345,-6.8067 l -14.31345,-4.74261 -105.43655,105.433 c -57.9901,57.98815 -105.43655,105.83073 -105.43655,106.31685 0,0.48612 5.79057,6.67442 12.86792,13.75178 l 12.86793,12.86792 14.13207,0 14.13208,0 0,-14 z"
     style="fill:#000000" />
</svg>
