<?xml version="1.0" encoding="UTF-8" standalone="no"?>
<!-- Created with Inkscape (http://www.inkscape.org/) -->

<svg
   version="1.1"
   id="svg2"
   width="50"
   height="50"
   viewBox="0 0 50.000001 50.000002"
   sodipodi:docname="backorder_white.svg"
   inkscape:version="1.1.2 (b8e25be833, 2022-02-05)"
   xmlns:inkscape="http://www.inkscape.org/namespaces/inkscape"
   xmlns:sodipodi="http://sodipodi.sourceforge.net/DTD/sodipodi-0.dtd"
   xmlns="http://www.w3.org/2000/svg"
   xmlns:svg="http://www.w3.org/2000/svg"
   xmlns:rdf="http://www.w3.org/1999/02/22-rdf-syntax-ns#"
   xmlns:cc="http://creativecommons.org/ns#"
   xmlns:dc="http://purl.org/dc/elements/1.1/">
  <metadata
     id="metadata8">
    <rdf:RDF>
      <cc:Work
         rdf:about="">
        <dc:format>image/svg+xml</dc:format>
        <dc:type
           rdf:resource="http://purl.org/dc/dcmitype/StillImage" />
      </cc:Work>
    </rdf:RDF>
  </metadata>
  <defs
     id="defs6" />
  <sodipodi:namedview
     pagecolor="#ffffff"
     bordercolor="#666666"
     borderopacity="1"
     objecttolerance="10"
     gridtolerance="10"
     guidetolerance="10"
     inkscape:pageopacity="0"
     inkscape:pageshadow="2"
     inkscape:window-width="1920"
     inkscape:window-height="1009"
     id="namedview4"
     showgrid="false"
     inkscape:zoom="14.160001"
     inkscape:cx="23.340394"
     inkscape:cy="28.531071"
     inkscape:window-x="1912"
     inkscape:window-y="-8"
     inkscape:window-maximized="1"
     inkscape:current-layer="svg2"
     inkscape:pagecheckerboard="true"
     inkscape:showpageshadow="false" />
  <path
     style="display:none;fill:#000000;stroke-width:0.30490419"
     d="M 12.918752,48.813651 H 10.598131 8.2775087 l -2.2498053,0.05641 c 0,0 0.00831,-4.452085 0.00831,-5.887406 V 41.434524 H 3.3470656 c -2.1730374,0 -2.72415945,-0.09331 -2.87247885,-0.486342 -0.1009433,-0.267488 -0.1835331,-8.552061 -0.1835331,-18.41016 0,-14.7352945 0.0731374,-17.985538 0.4111315,-18.2707767 C 1.0016484,4.0145229 7.6744057,3.9416635 25.269442,3.9990003 l 24.156122,0.078715 0.07794,18.6784017 0.07794,18.678405 H 32.4954 15.409365 v 1.570214 c 0,1.310125 -0.03085,5.811832 -0.03085,5.811832 z m -2.885694,-5.607459 c 0.07673,-3.400746 0.139584,-3.773351 0.653399,-3.873551 0.908644,-0.17719 1.084965,0.501912 1.089884,4.197688 l 0.0047,3.479388 0.831506,-0.09729 0.863538,0.03299 0.04835,-8.475062 c 0.03936,-6.899189 0.157473,-8.409831 0.525291,-8.720238 0.244694,-0.206502 0.650728,-0.295142 0.9023,-0.196977 0.361567,0.141085 0.457399,0.760257 0.457399,2.955298 0,2.571845 0.04463,2.77682 0.604732,2.77682 0.568083,0 0.604731,-0.204975 0.604731,-3.382095 0,-4.7854 0.131804,-4.683778 -5.909558,-4.556421 -5.9917129,0.126314 -5.9945117,0.128364 -6.1199287,4.487477 -0.089369,3.106233 0.14049,3.980019 0.9626037,3.659222 0.3907398,-0.152466 0.4840657,-0.687347 0.4840657,-2.774325 0,-2.692267 0.3683094,-3.55169 1.3567974,-3.165976 0.3932365,0.153441 0.4573999,1.38749 0.4573999,8.797109 v 8.618619 h 1.0489157 1.048976 z M 4.9021388,39.699865 C 5.9691777,39.520523 6.0359715,39.443701 6.0353229,38.396536 6.0346642,37.366165 5.9656651,37.281257 5.1031585,37.249748 4.587781,37.230915 3.878975,36.91835 3.5164256,36.550029 2.9484457,35.97301 2.8471957,35.471681 2.7562775,32.78626 c -0.12445,-3.675829 0.3735996,-5.407202 1.8670436,-6.490419 0.8891105,-0.64488 1.3234148,-0.701962 5.9481849,-0.781712 5.417695,-0.09342 5.94843,0.02425 7.076459,1.569032 0.56434,0.772843 0.63388,1.290127 0.63388,4.715439 0,3.834378 -0.003,3.849875 -0.848368,4.589402 -0.466604,0.408122 -1.11291,0.74204 -1.43624,0.74204 -0.495328,0 -0.587872,0.218227 -0.587872,1.38626 v 1.386251 l 16.252185,-0.07954 16.252183,-0.07953 0.07816,-16.987356 0.07815,-16.9873549 H 25.087645 2.1052513 V 22.628015 c 0,9.272588 0.09071,16.951487 0.2015775,17.064222 0.2496133,0.253822 1.11541,0.256367 2.59531,0.0076 z M 21.381097,38.027804 c -0.471951,-0.279521 -0.525272,-0.851736 -0.493367,-5.294394 0.0197,-2.739552 0.122427,-5.396076 0.228334,-5.903392 0.17687,-0.847236 0.307942,-0.929963 1.608683,-1.015333 1.286291,-0.08442 1.424755,-0.168986 1.51027,-0.92239 l 0.09415,-0.82945 2.979039,-0.08838 c 3.208534,-0.0952 3.824203,0.120383 3.824203,1.339033 0,0.63386 0.161504,0.724703 1.43624,0.807878 l 1.43624,0.09371 0.09114,4.765684 c 0.05014,2.621124 0.0078,5.353707 -0.09412,6.072402 l -0.185272,1.30672 -5.953202,-0.0093 c -3.478378,-0.0054 -6.17318,-0.139634 -6.48235,-0.322746 z m 10.960778,-5.817175 c 0,-4.099516 -0.02876,-4.30449 -0.604733,-4.30449 -0.390011,0 -0.604733,0.204974 -0.604733,0.57728 0,1.027156 -0.627938,1.192537 -3.779578,0.995419 -3.021538,-0.188981 -3.023729,-0.189708 -3.119336,-1.034636 -0.07515,-0.664113 -0.253554,-0.845527 -0.831509,-0.845527 h -0.735832 v 4.458217 4.458225 h 4.83786 4.837861 z m -3.023663,-5.380611 v -1.076123 h -1.663017 c -1.624477,0 -1.663012,0.02019 -1.663012,0.871147 0,1.168851 0.163372,1.281097 1.864593,1.281097 h 1.461436 z M 36.575,35.28526 v -0.92239 h 4.686677 4.686674 v 0.92239 0.922391 H 41.261677 36.575 Z m 0,-3.085036 v -0.932792 l 3.25044,0.08727 3.250435,0.08727 0.09567,0.845523 0.09567,0.845525 h -3.346111 -3.346113 z m 0,-2.756768 v -0.922391 h 4.686677 4.686674 v 0.922391 0.922392 H 41.261677 36.575 Z m 0.179833,-5.401008 c -2.97767,-0.734619 -5.544197,-1.468119 -5.703398,-1.630004 -0.184358,-0.18747 0.194631,-2.341376 1.04384,-5.932428 l 1.333291,-5.638097 1.522786,0.08111 c 1.37002,0.07296 1.557524,0.0035 1.869099,-0.691793 0.416542,-0.9296164 0.415601,-0.9296008 3.836494,-0.06577 l 2.721294,0.687173 -0.0416,0.966097 c -0.03841,0.89186 0.05772,0.991531 1.251095,1.297092 0.710986,0.182046 1.356935,0.505862 1.435437,0.719591 0.179605,0.488976 -2.156649,10.706328 -2.567043,11.226684 -0.410861,0.52095 -0.530305,0.50278 -6.701288,-1.019654 z m 6.278917,-4.360956 c 0.448313,-1.986982 0.895173,-3.924001 0.993023,-4.304487 0.264853,-1.029841 -1.016884,-0.959691 -1.404448,0.07686 -0.351582,0.940325 -0.834801,0.946436 -4.081941,0.05164 -2.329404,-0.641899 -2.422355,-0.702391 -2.511378,-1.634448 -0.06102,-0.63884 -0.285708,-1.019269 -0.660927,-1.119045 -0.501756,-0.133424 -0.677224,0.306042 -1.494976,3.744256 -0.509571,2.142483 -0.926386,4.098817 -0.926251,4.347412 1.8e-4,0.326467 1.112785,0.719212 4.006355,1.414226 2.203358,0.529231 4.289455,0.978897 4.63577,0.999257 0.561754,0.03303 0.717579,-0.352628 1.444773,-3.575678 z m -1.670884,-6.492194 c 0.135965,-0.977155 -0.178688,-1.230609 -1.810006,-1.457976 -1.338346,-0.186533 -1.387279,-0.164767 -1.548503,0.688842 -0.199197,1.05462 -0.208755,1.042309 1.049821,1.352275 1.574616,0.387803 2.195411,0.231 2.308688,-0.583141 z M 8.5324167,24.325832 c -2.137964,-1.07174 -3.0629168,-4.612975 -1.695243,-6.490332 1.1634087,-1.59697 2.514984,-2.297959 4.1348133,-2.144501 2.541015,0.240729 4.190111,1.994981 4.227227,4.49678 0.05123,3.45338 -3.560541,5.695191 -6.6667973,4.138053 z m 3.9404773,-1.957781 c 1.020698,-0.816417 1.293511,-2.149783 0.684773,-3.346796 -1.282109,-2.521121 -4.7595873,-1.883977 -5.2037684,0.953437 -0.1540225,0.983888 -0.053013,1.266084 0.7428641,2.075377 1.109905,1.128617 2.6052353,1.254535 3.7761313,0.317982 z M 16.7692,21.680004 c -0.170312,-0.492079 -0.752251,-8.53945 -0.753872,-10.424905 l -0.0012,-1.4315984 1.51183,-0.2114361 c 1.400331,-0.1958412 1.511831,-0.2742521 1.511831,-1.0631818 0,-0.7802036 0.117837,-0.8681703 1.402852,-1.0472701 0.771567,-0.1075381 2.271682,-0.1955236 3.333585,-0.1955236 1.898263,0 1.933753,0.015334 2.110024,0.9115386 0.172338,0.8762251 0.229069,0.9045981 1.464402,0.732423 0.857396,-0.1195001 1.361445,-0.053533 1.514441,0.1981926 0.403928,0.6645871 0.962588,11.4016788 0.6157,11.8334138 -0.208928,0.260025 -2.106643,0.50312 -5.754327,0.737121 -6.733235,0.431938 -6.792436,0.431608 -6.955236,-0.03877 z m 9.025382,-1.963509 2.070146,-0.180235 -0.215979,-4.193439 c -0.118788,-2.306392 -0.276012,-4.297208 -0.349382,-4.424037 -0.07337,-0.126829 -0.397509,-0.230597 -0.720298,-0.230597 -0.447899,0 -0.586886,0.214139 -0.586886,0.904244 0,0.497335 -0.102052,0.968187 -0.226776,1.046339 -0.124726,0.07816 -1.621334,0.242492 -3.325799,0.365199 l -3.099027,0.223107 -0.189206,-0.961981 c -0.137243,-0.69778 -0.357435,-0.961981 -0.801747,-0.961981 -0.586608,0 -0.604278,0.12691 -0.417318,2.997768 0.107371,1.648772 0.195927,3.669662 0.196787,4.49086 l 0.0016,1.493093 2.79689,-0.194053 c 1.538288,-0.106728 3.72845,-0.275156 4.867035,-0.374287 z m -1.673031,-9.56637 0.09475,-0.9992559 H 22.53413 20.851956 v 1.0921909 1.092189 l 1.587422,-0.09293 c 1.548024,-0.09063 1.589775,-0.117736 1.682173,-1.092189 z"
     id="path4520"
     inkscape:connector-curvature="0"
     sodipodi:nodetypes="ccccscssssscccccsccscscccsscssssscscscccscccsscssscsscccccccscccccscccssscscccccsssscscccccsccssscccccccccccccccccccccccccccccscscssscccccsccssssscssccscscsssssssssscccsssscsccsccccccssssccssccsccscccccss"
     inkscape:label="workshop icon" />
  <g
     id="g1568"
     inkscape:label="prepared icon"
     transform="matrix(0.09189557,0,0,0.09189557,12.909252,30.22423)"
     style="display:none">
    <g
       id="g887"
       transform="translate(-125.15167,-313.56953)">
      <g
         id="g885">
        <path
           inkscape:connector-curvature="0"
           id="path883"
           d="M 237.498,52.752 H 46.662 c -4.655,0 -7.758,3.103 -7.758,7.758 0,3.879 3.879,7.758 7.758,7.758 h 190.836 c 4.655,0 7.758,-3.103 7.758,-7.758 0,-4.655 -3.103,-7.758 -7.758,-7.758 z" />
      </g>
    </g>
    <g
       id="g893"
       transform="translate(-125.15167,-313.56953)">
      <g
         id="g891">
        <path
           inkscape:connector-curvature="0"
           id="path889"
           d="M 237.498,103.176 H 46.662 c -4.655,0 -7.758,3.103 -7.758,7.758 0,4.655 3.879,7.758 7.758,7.758 h 190.836 c 4.655,0 7.758,-3.103 7.758,-7.758 0,-4.655 -3.103,-7.758 -7.758,-7.758 z" />
      </g>
    </g>
    <g
       id="g899"
       transform="translate(-125.15167,-313.56953)">
      <g
         id="g897">
        <path
           inkscape:connector-curvature="0"
           id="path895"
           d="M 237.498,154.376 H 46.662 c -4.655,0 -7.758,3.103 -7.758,7.758 0,3.879 3.879,7.758 7.758,7.758 h 190.836 c 4.655,0 7.758,-3.103 7.758,-7.758 0,-4.655 -3.103,-7.758 -7.758,-7.758 z" />
      </g>
    </g>
    <g
       id="g905"
       transform="translate(-125.15167,-313.56953)">
      <g
         id="g903">
        <path
           inkscape:connector-curvature="0"
           id="path901"
           d="m 505.91,455.37 -55.079,-79.127 c -2.327,-3.103 -6.982,-4.655 -10.861,-2.327 l -17.842,11.636 -15.515,-22.497 c 48.097,-36.461 57.406,-100.849 23.273,-152.824 0,0 0,0 0,-0.776 V 137.31 c 0,-1.552 -0.776,-4.655 -2.327,-6.206 L 287.923,0.776 C 286.372,0.776 284.044,0 282.493,0 H 7.874 C 3.22,0 0.117,3.103 0.117,7.758 v 496.485 c 0,4.655 3.103,7.758 7.758,7.758 H 422.13 c 4.655,0 7.758,-3.103 7.758,-7.758 v -30.255 l 15.515,22.497 c 11.636,16.291 34.133,20.945 50.424,10.085 17.065,-11.637 21.72,-34.134 10.083,-51.2 z M 391.874,355.297 c -44.994,30.255 -107.055,17.842 -138.861,-27.152 -31.03,-44.994 -20.17,-105.503 25.6,-135.758 45.77,-30.255 108.606,-18.618 138.861,27.151 31.03,47.323 20.17,105.504 -25.6,135.759 z M 56.747,311.855 161.474,351.419 V 452.267 L 56.747,410.376 Z m -8.533,-19.394 v -20.17 c 11.636,4.655 94.642,36.461 112.485,43.442 v 19.394 z m 14.739,-31.031 106.279,-38.012 55.079,20.17 c -3.103,11.636 -4.655,23.273 -3.103,37.236 l -51.976,20.17 C 152.941,295.564 78.468,266.861 62.953,261.43 Z m 165.236,53.528 -51.976,20.17 v -19.394 l 46.545,-18.618 c 1.553,6.205 3.104,11.636 5.431,17.842 z m -51.975,36.46 58.958,-22.497 c 10.085,17.842 24.048,31.806 41.115,41.891 v 43.442 L 176.214,452.266 Z M 290.25,25.6 402.735,130.327 H 290.25 Z M 415.147,496.485 H 414.371 15.632 V 15.515 h 259.103 v 122.57 c 0,4.655 3.103,7.758 7.758,7.758 h 131.879 v 46.545 c -38.788,-37.236 -99.297,-42.667 -144.291,-12.412 -18.618,12.412 -32.582,29.479 -41.115,49.648 L 171.56,208.679 c -1.552,-0.776 -3.879,-0.776 -5.43,0 l -128,44.994 c -3.103,1.552 -5.43,4.655 -5.43,6.982 v 36.461 c 0,3.103 2.327,6.206 4.655,6.982 l 3.103,1.552 v 109.38 c 0,3.103 2.327,6.206 4.655,6.982 l 120.242,47.321 c 1.552,0.776 3.879,0.776 5.43,0 l 116.364,-42.667 c 3.103,-0.776 4.655,-3.879 4.655,-6.982 V 378.57 c 33.358,13.964 70.594,11.636 102.4,-6.206 l 15.515,22.497 -17.067,11.636 c -1.552,0.776 -3.103,3.103 -3.103,4.655 -0.776,2.327 0,3.879 1.552,6.206 l 24.048,34.909 v 44.218 z m 72.145,-3.103 c -9.309,6.206 -22.497,3.879 -29.479,-6.206 l -50.424,-72.921 34.909,-23.273 50.424,72.921 c 6.982,10.085 4.655,22.497 -5.43,29.479 z" />
      </g>
    </g>
    <g
       id="g911"
       transform="translate(-125.15167,-313.56953)">
      <g
         id="g909">
        <path
           inkscape:connector-curvature="0"
           id="path907"
           d="m 316.626,339.006 c -17.067,-4.655 -31.806,-16.291 -40.339,-32.582 -8.533,-15.515 -10.861,-34.133 -5.43,-51.976 1.552,-3.879 -1.552,-8.533 -5.43,-9.309 -3.879,-1.552 -8.533,1.552 -9.309,5.43 -6.206,21.721 -3.879,44.218 6.982,63.612 10.861,19.394 28.703,33.358 49.648,39.564 0.776,0 1.552,0 2.327,0 3.103,0 6.206,-2.327 7.758,-5.43 -0.001,-3.879 -2.329,-7.757 -6.207,-9.309 z" />
      </g>
    </g>
  </g>
  <path
     style="fill:#ffffff;stroke-width:0.21134564"
     d="M 1.3789287,46.462398 C 1.18585,46.269316 1.1239552,43.295171 1.1239552,34.210427 c 0,-11.64478 0.012001,-12.003422 0.4087978,-12.215783 0.6460639,-0.345763 15.25716,-0.294956 15.735366,0.05472 0.339828,0.248488 0.377343,0.784793 0.410251,5.86484 l 0.03622,5.591341 7.397098,0.112553 c 4.068403,0.06186 7.422268,0.133225 7.453032,0.158507 0.03076,0.02532 0.03076,2.922905 0,6.439169 L 32.50879,46.60898 17.07135,46.66314 C 5.2398241,46.704689 1.5743445,46.657575 1.3789278,46.462361 Z M 16.023823,40.162937 V 34.984969 H 14.43873 12.853639 l -0.06052,1.935434 c -0.04079,1.304763 -0.153553,2.01266 -0.346046,2.17241 -0.188738,0.156643 -1.278752,0.216991 -3.2153471,0.17802 L 6.3019198,39.211849 6.2405425,37.211263 C 6.2014792,35.937866 6.086248,35.151628 5.923524,35.048211 5.4947484,34.775713 3.0998655,34.852699 2.8557596,35.146824 c -0.3251938,0.39183 -0.3432462,9.618582 -0.019597,10.008566 0.2039927,0.245806 1.36543,0.287531 6.7171371,0.241336 l 6.4705023,-0.05583 z m -3.275857,2.958833 c 0,-0.598804 0.04697,-0.634028 0.845382,-0.634028 0.798417,0 0.845382,0.03524 0.845382,0.634028 0,0.598813 -0.04697,0.634037 -0.845382,0.634037 -0.798417,0 -0.845382,-0.03524 -0.845382,-0.634037 z m 18.337981,-2.901036 0.05658,-5.120161 -0.490569,-0.123125 c -0.269815,-0.0677 -1.008567,-0.09373 -1.641676,-0.05778 l -1.151104,0.06529 -0.06051,1.935434 c -0.04079,1.304763 -0.153555,2.01266 -0.346047,2.17241 -0.18874,0.156643 -1.278751,0.216991 -3.215349,0.17802 l -2.929811,-0.05898 -0.06137,-2.000585 c -0.03906,-1.273397 -0.154294,-2.059635 -0.317018,-2.163053 -0.409855,-0.260477 -2.787037,-0.194834 -3.066545,0.08468 -0.268765,0.268759 -0.381274,9.312382 -0.124187,9.982338 0.115312,0.300497 0.847084,0.331194 6.710224,0.281466 l 6.580796,-0.05583 z m -3.33244,2.901036 c 0,-0.583715 0.05871,-0.634028 0.739709,-0.634028 0.681003,0 0.73971,0.05027 0.73971,0.634028 0,0.583724 -0.05871,0.634037 -0.73971,0.634037 -0.681002,0 -0.739709,-0.05027 -0.739709,-0.634037 z M 11.013623,36.517222 10.951531,34.984969 H 9.3664391 7.7813466 l -0.064252,1.244406 c -0.093607,1.812856 -0.086613,1.820108 1.7576435,1.820108 h 1.6009859 z m 15.005541,0 -0.06209,-1.532253 h -1.585092 -1.585093 l -0.06425,1.244406 c -0.0936,1.812856 -0.08661,1.820108 1.757644,1.820108 h 1.600986 z m -9.938747,-8.13681 0.05659,-5.125129 h -1.694521 -1.694522 v 1.965515 c 0,1.246939 -0.09272,2.058236 -0.253615,2.219126 -0.37058,0.370582 -5.7424722,0.351431 -6.0520388,-0.02161 -0.125611,-0.151347 -0.2561384,-1.126186 -0.2900591,-2.16629 L 6.0905791,23.360919 H 4.3998134 2.7090487 l -0.056926,4.856376 c -0.03131,2.671006 -0.01,4.978673 0.047364,5.128146 0.08255,0.215127 1.4822063,0.260135 6.7143151,0.215924 l 6.6100272,-0.05583 z m -3.251286,3.446716 c -0.263556,-0.686817 0.01074,-1.069075 0.767111,-1.069075 0.615808,0 0.748529,0.08282 0.808143,0.504466 0.03923,0.277449 -0.05588,0.585087 -0.211345,0.683636 -0.447377,0.28357 -1.235821,0.214764 -1.363909,-0.119027 z m -1.77193,-7.092425 v -1.47942 H 9.3664354 7.6756707 v 1.47942 1.479419 h 1.6907647 1.6907656 z m 23.459366,16.188206 v -0.759972 h 2.718991 c 2.422696,0 2.779124,-0.0473 3.2708,-0.434056 0.550782,-0.433239 0.551915,-0.440603 0.609701,-3.962729 l 0.0579,-3.528683 h 0.706 0.706 l -0.02398,3.698551 c -0.02665,4.10904 -0.09449,4.340805 -1.515781,5.177968 -0.602608,0.354955 -1.183349,0.434407 -3.623621,0.495794 l -2.906002,0.07308 z m 0,-2.979106 v -0.739709 h 1.585093 1.585092 v -2.109428 c 0,-2.073296 0.0091,-2.111701 0.52789,-2.241921 1.092278,-0.274149 1.162875,-0.107063 1.162875,2.752192 0,3.170742 0.08499,3.078574 -2.839272,3.078574 h -2.021678 z m -11.79229,-6.345731 c -0.964353,-0.150661 -1.891632,-0.326984 -2.06062,-0.39183 -0.672597,-0.258103 -0.286952,-0.968208 1.182189,-2.176825 1.669272,-1.373263 1.548515,-1.332938 12.142357,-4.05456 2.673522,-0.686844 5.574242,-1.447199 6.446042,-1.689681 3.954456,-1.099879 5.643785,-1.512015 6.192355,-1.510716 1.586135,0.0038 2.742787,1.482575 2.191372,2.801733 -0.380342,0.909898 -0.648081,1.099112 -2.14903,1.518708 -0.697441,0.194974 -1.434509,0.40308 -1.637929,0.462444 -0.30646,0.0895 -0.369855,0.359991 -0.369855,1.578365 0,1.727633 0.232249,1.563515 -3.592876,2.538939 -1.336761,0.340886 -2.586521,0.668649 -2.777244,0.728366 -0.244531,0.07661 -0.413629,-0.08319 -0.573544,-0.541943 -0.171075,-0.49075 -0.163767,-0.670022 0.02975,-0.729896 0.141089,-0.04368 1.397792,-0.395994 2.792673,-0.782973 l 2.536147,-0.703604 v -0.739708 c 0,-0.888718 0.202449,-0.893031 -3.487202,0.0741 -1.569241,0.411342 -3.994433,1.047132 -5.389314,1.412873 -1.394882,0.365741 -3.201887,0.837803 -4.015568,1.049034 -0.81368,0.211222 -2.382921,0.63029 -3.487203,0.93125 -1.104281,0.300969 -2.055336,0.536546 -2.113456,0.523515 -0.05812,-0.01308 -0.89469,-0.146969 -1.859045,-0.297621 z m 3.919665,-1.623827 c 1.494628,-0.408115 1.743602,-0.540886 1.743602,-0.929831 0,-0.907286 -0.481129,-1.017436 -2.347899,-0.53751 -1.960078,0.503918 -3.516282,1.46978 -2.812541,1.745616 0.720357,0.282347 1.637101,0.207689 3.416838,-0.278275 z m 8.586293,-2.285 c 8.273075,-2.153973 7.623556,-1.914251 7.701634,-2.842468 0.08169,-0.971059 0.746155,-1.065294 -6.724537,0.953656 -3.080362,0.83247 -5.814646,1.562505 -6.076187,1.622306 -0.26154,0.05982 -0.475527,0.186562 -0.475527,0.281679 0,0.318553 0.410587,1.257195 0.549927,1.257195 0.07573,0 2.336845,-0.572567 5.02469,-1.272368 z m 11.491543,-3.073511 c 0.454463,-0.186684 0.686873,-0.426309 0.686873,-0.708194 0,-0.708606 -0.65973,-0.895953 -1.879486,-0.533723 -0.96429,0.286363 -1.079353,0.383497 -1.079353,0.911157 0,0.324844 0.06675,0.657371 0.148322,0.738949 0.175899,0.175899 1.164192,-0.01405 2.123644,-0.408189 z M 19.651924,22.269003 c -0.253525,-0.253526 -0.156173,-3.56351 0.112717,-3.832401 0.344063,-0.344062 4.009658,-0.344062 4.35372,0 0.338844,0.338844 0.338844,3.38084 0,3.719684 -0.270366,0.270366 -4.209381,0.369772 -4.466437,0.112717 z m 3.13496,-1.866886 c 0,-0.594834 -0.05554,-0.638054 -0.898219,-0.699026 l -0.898219,-0.06499 v 0.764016 0.764014 l 0.898219,-0.06499 c 0.842681,-0.06097 0.898219,-0.104192 0.898219,-0.699025 z m 3.275857,1.373746 v -0.634037 h 4.966623 4.966623 v 0.634037 0.634037 h -4.966623 -4.966623 z m 11.768764,-0.13704 c -0.08639,-0.08639 -0.148378,-2.658244 -0.137747,-5.715228 0.01063,-3.056983 -0.03976,-5.653763 -0.111986,-5.77062 -0.08491,-0.137392 -3.553039,-0.2124677 -9.814859,-0.2124677 -8.153722,0 -9.723304,0.0479 -9.935188,0.3032057 -0.183064,0.220579 -0.233314,1.631713 -0.184389,5.178172 l 0.06726,4.874965 -0.792547,-2.03e-4 -0.792545,-2.03e-4 v -5.574782 c 0,-4.333298 0.06155,-5.6258637 0.276387,-5.8041627 0.152015,-0.12616 1.269505,-0.256687 2.483311,-0.29006 l 2.206925,-0.06068 0.06623,-0.6868726 0.06623,-0.6868735 h -2.97223 c -2.690437,0 -3.012306,0.040074 -3.394921,0.4226907 -0.403299,0.4032982 -0.422692,0.7044854 -0.422692,6.5644731 v 6.141782 l -0.792546,-0.0656 -0.792546,-0.0656 -0.05624,-5.896765 c -0.0534,-5.5995827 -0.03412,-5.9424478 0.382559,-6.8031939 0.319612,-0.6602286 0.683086,-1.0246879 1.338201,-1.3418232 0.819782,-0.3968498 1.288601,-0.4353947 5.295588,-0.4353947 h 4.39618 L 24.068596,5.238058 C 23.719085,4.0621306 23.679649,3.1326916 23.971426,2.9479375 24.13361,2.8452423 25.847678,2.7597629 27.780469,2.7579832 c 4.093733,-0.0038 4.188705,0.035419 3.802535,1.5690425 -0.130141,0.516835 -0.236619,1.0402427 -0.236619,1.1631298 0,0.1497557 1.430886,0.2234307 4.339375,0.2234307 4.800162,0 5.321729,0.1041002 6.290612,1.2555519 l 0.571332,0.6789895 V 14.2893 c 0,4.26894 -0.07549,6.650609 -0.211345,6.66759 -0.116241,0.01452 -0.354004,0.02642 -0.528364,0.02642 -0.174361,0 -0.412125,-0.0119 -0.528364,-0.02642 -0.135716,-0.01697 -0.211346,-2.339928 -0.211346,-6.491419 0,-7.9487273 0.369445,-7.2552226 -3.870449,-7.2654346 l -2.919393,-0.00705 0.06623,0.6868726 0.06623,0.6868733 2.206925,0.06068 c 1.213806,0.03337 2.327452,0.160708 2.474766,0.282968 0.207087,0.171867 0.257795,1.6442747 0.223551,6.4910367 l -0.04429,6.268746 -0.641633,0.06285 c -0.352899,0.03458 -0.712315,-0.0078 -0.798706,-0.09422 z M 32.72013,7.9327232 c 0,-0.630906 -0.007,-0.6345583 -1.416473,-0.7397093 -1.797066,-0.1340663 -1.990225,-0.3137113 -1.676586,-1.559284 0.131941,-0.5239817 0.239892,-1.0532378 0.239892,-1.176125 0,-0.1429669 -0.80731,-0.2234306 -2.241741,-0.2234306 -2.048681,0 -2.229401,0.031848 -2.098449,0.369855 0.07881,0.2034205 0.195668,0.8074876 0.25968,1.3423704 0.106565,0.8904415 0.07408,0.9838383 -0.384862,1.1066791 -0.275688,0.073786 -1.000555,0.1354622 -1.610815,0.137049 l -1.109564,0.00287 v 0.7435349 0.7435336 l 5.019458,-0.05667 5.01946,-0.05666 z M 26.326924,19.522437 c -0.1453,-0.05863 -0.264183,-0.389732 -0.264183,-0.735783 0,-0.597819 0.03951,-0.625913 0.792547,-0.563589 0.651487,0.05392 0.805241,0.155381 0.863873,0.570058 0.100095,0.707926 -0.572312,1.060161 -1.392237,0.729314 z m 3.263662,0.0045 c -0.08047,-0.08046 -0.146315,-0.41577 -0.146315,-0.745118 v -0.598812 h 3.289249 3.289248 l -0.06623,0.686874 -0.06623,0.686872 -3.076707,0.05825 c -1.692189,0.03204 -3.142548,-0.0076 -3.223021,-0.08806 z m -9.938662,-3.80963 c -0.253525,-0.253525 -0.156173,-3.563509 0.112717,-3.832401 0.344063,-0.344063 4.009658,-0.344063 4.35372,0 0.338844,0.338844 0.338844,3.380841 0,3.719683 -0.270366,0.270366 -4.209381,0.369774 -4.466437,0.112718 z m 3.164385,-1.444667 c 0.06701,-0.17462 0.06082,-0.560592 -0.01375,-0.857717 -0.119209,-0.474968 -0.230463,-0.532352 -0.921012,-0.475054 -0.637418,0.05289 -0.79853,0.157674 -0.854974,0.556067 -0.03826,0.269994 -0.01745,0.62664 0.04621,0.792547 0.159475,0.41558 1.582949,0.402645 1.743538,-0.01584 z m 3.246432,0.951527 v -0.634036 h 4.966623 4.966623 v 0.634036 0.634037 h -4.966623 -4.966623 z m 0,-2.958839 c 0,-0.598812 0.04697,-0.634037 0.845383,-0.634037 0.798418,0 0.845383,0.03522 0.845383,0.634037 0,0.598813 -0.04697,0.634038 -0.845383,0.634038 -0.798417,0 -0.845383,-0.03522 -0.845383,-0.634038 z m 3.38153,0 v -0.634037 h 3.275859 3.275857 v 0.634037 0.634038 H 32.72013 29.444271 Z"
     id="path817"
     inkscape:connector-curvature="0"
     inkscape:label="backorder icon" />
</svg>
