<?xml version="1.0" encoding="UTF-8" standalone="no"?>
<!-- Created with Inkscape (http://www.inkscape.org/) -->

<svg
   width="400"
   height="250"
   viewBox="0 0 105.83333 66.145835"
   version="1.1"
   id="svg2002"
   inkscape:version="1.1.2 (b8e25be833, 2022-02-05)"
   sodipodi:docname="klaar_voor_afhalen.svg"
   xmlns:inkscape="http://www.inkscape.org/namespaces/inkscape"
   xmlns:sodipodi="http://sodipodi.sourceforge.net/DTD/sodipodi-0.dtd"
   xmlns="http://www.w3.org/2000/svg"
   xmlns:svg="http://www.w3.org/2000/svg"
   xmlns:rdf="http://www.w3.org/1999/02/22-rdf-syntax-ns#"
   xmlns:cc="http://creativecommons.org/ns#"
   xmlns:dc="http://purl.org/dc/elements/1.1/">
  <defs
     id="defs1996" />
  <sodipodi:namedview
     id="base"
     pagecolor="#ffffff"
     bordercolor="#666666"
     borderopacity="1.0"
     inkscape:pageopacity="0.0"
     inkscape:pageshadow="2"
     inkscape:zoom="1.979899"
     inkscape:cx="229.05209"
     inkscape:cy="132.83506"
     inkscape:document-units="mm"
     inkscape:current-layer="layer2"
     showgrid="false"
     units="px"
     inkscape:window-width="1920"
     inkscape:window-height="1009"
     inkscape:window-x="-8"
     inkscape:window-y="-8"
     inkscape:window-maximized="1"
     inkscape:pagecheckerboard="1" />
  <metadata
     id="metadata1999">
    <rdf:RDF>
      <cc:Work
         rdf:about="">
        <dc:format>image/svg+xml</dc:format>
        <dc:type
           rdf:resource="http://purl.org/dc/dcmitype/StillImage" />
      </cc:Work>
    </rdf:RDF>
  </metadata>
  <g
     inkscape:label="Laag 1"
     inkscape:groupmode="layer"
     id="layer1"
     transform="translate(0,-230.85415)"
     style="display:inline">
    <rect
       style="opacity:0.99;fill:#b9ff69;fill-opacity:1;stroke:none;stroke-width:0;stroke-miterlimit:4;stroke-dasharray:none;stroke-opacity:1"
       id="rect2592"
       width="106.08559"
       height="66.329239"
       x="-0.091700234"
       y="230.76244" />
    <text
       xml:space="preserve"
       style="font-style:normal;font-weight:normal;font-size:19.7556px;line-height:0.7;font-family:sans-serif;letter-spacing:0px;word-spacing:0px;fill:#000000;fill-opacity:1;stroke:none;stroke-width:0.264583"
       x="33.41407"
       y="239.28816"
       id="text838"><tspan
         sodipodi:role="line"
         x="0"
         y="0"
         style="font-size:12.3472px;line-height:0.7;text-align:center;text-anchor:middle;fill:#ffffff;stroke-width:0.264583"
         id="tspan840"><tspan
           id="tspan851"
           style="font-size:12.3472px;line-height:0.7;text-align:center;text-anchor:middle;fill:#ffffff;stroke-width:0.264583" /></tspan><tspan
         sodipodi:role="line"
         x="-9.839423e-07"
         y="13.828919"
         style="font-size:12.3472px;line-height:0.7;text-align:center;text-anchor:middle;fill:#ffffff;stroke-width:0.264583"
         id="tspan857"><tspan
           style="font-size:12.3472px;line-height:0.7;text-align:center;text-anchor:middle;fill:#ffffff;stroke-width:0.264583"
           id="tspan859">Afhalen</tspan></tspan><tspan
         sodipodi:role="line"
         x="1.7695129e-08"
         y="27.657839"
         style="font-size:12.3472px;line-height:0.7;text-align:center;text-anchor:middle;fill:#ffffff;stroke-width:0.264583"
         id="tspan865"><tspan
   style="font-size:12.3472px;line-height:0.7;text-align:center;text-anchor:middle;fill:#ffffff;stroke-width:0.264583"
   id="tspan867">mail </tspan> </tspan><tspan
         sodipodi:role="line"
         x="-2.970919e-07"
         y="41.486759"
         style="font-size:12.3472px;line-height:0.7;text-align:center;text-anchor:middle;fill:#ffffff;stroke-width:0.264583"
         id="tspan842">verstuurd</tspan></text>
  </g>
  <g
     inkscape:groupmode="layer"
     id="layer2"
     inkscape:label="tekst"
     style="display:inline">
    <path
       id="path44426"
       style="fill:#383838;stroke:none;stroke-width:0.0332592;fill-opacity:1"
       d="m 26.588966,14.137411 c 0.09028,7.41e-4 0.18307,0.0076 0.278198,0.02124 0.287459,0.04117 0.549018,0.131127 0.798029,0.282723 1.008986,0.614198 1.20025,2.085574 0.426175,2.962322 -0.459677,0.520606 -1.150173,0.727063 -1.823076,0.622895 -0.262515,-0.04062 -0.510902,-0.133457 -0.731876,-0.282026 -1.55803,-1.047604 -0.808789,-3.538406 0.963069,-3.606109 0.02953,-0.0011 0.05939,-0.0013 0.08948,-0.0011 z m -0.03203,0.470393 c -1.030278,0.01943 -1.724787,1.183226 -1.28966,2.130866 0.23607,0.514087 0.72334,0.789558 1.267029,0.850257 0.941137,0.105066 1.681215,-0.827017 1.553234,-1.715138 -0.09762,-0.677391 -0.655615,-1.167807 -1.320301,-1.254147 -0.07143,-0.0093 -0.141615,-0.01314 -0.210302,-0.01184 z m 6.866473,3.589394 c 0.242231,-0.0059 0.475574,0.01439 0.58355,0.119079 0.10071,0.09761 0.0773,0.257041 0.0773,0.384391 v 0.998234 3.192469 c 0,0.274455 0.07148,0.709872 0.03934,1.046632 -0.05997,0.09684 -0.105706,0.213702 -0.133702,0.35793 -0.07495,0.05204 -0.181384,0.05761 -0.271581,0.05884 -0.321384,0.0044 -0.643042,0 -0.96446,0 h -3.093238 c -0.479963,0 -1.018234,0.119629 -0.961327,-0.532021 0.0148,-0.169554 0.133231,-0.346366 0.325898,-0.265313 0.146973,0.0618 0.104162,0.252204 0.241288,0.31197 0.322648,0.140554 0.940333,0.01985 1.292447,0.01985 h 3.059812 V 18.70067 h -2.960232 c -0.411484,0 -0.965451,-0.09798 -1.361735,0.01079 -0.257293,0.07064 -0.13428,0.931417 -0.134746,1.153522 -3.2e-4,0.169856 -0.03059,0.399516 -0.265661,0.353751 -0.186551,-0.03632 -0.199406,-0.234182 -0.200205,-0.387176 -0.0021,-0.387969 -0.0019,-0.776001 0,-1.163969 7.41e-4,-0.154423 0.0016,-0.333715 0.168171,-0.402496 0.317829,-0.131274 0.853566,-0.0296 1.195305,-0.0296 h 2.7273 c 0.143115,0 0.394244,-0.03236 0.636474,-0.0383 z m -7.55587,0.04074 c 0.03788,-0.0016 0.07565,-0.0014 0.113508,3.56e-4 0.04036,0.0018 0.08071,0.0054 0.120818,0.01114 1.347368,0.192505 1.549024,1.676118 2.104055,2.679251 0.131872,0.238302 0.543557,0.199805 0.789675,0.200202 0.579575,8.76e-4 1.434032,-0.164947 1.89271,0.272279 0.505341,0.48176 0.333744,1.374677 -0.32938,1.610683 -0.254297,0.0905 -0.565663,0.04596 -0.831803,0.04596 -0.567369,0 -1.130723,-0.0073 -1.695987,-0.03203 -0.326175,-0.01426 -0.646252,0.0387 -0.931384,-0.160861 -0.40972,-0.286793 -0.5909,-0.92731 -0.784103,-1.37009 -0.141119,-0.323446 -0.289663,-0.644075 -0.437664,-0.964461 -0.05728,-0.124025 -0.119946,-0.297801 -0.01742,-0.418165 0.289656,-0.339943 0.552143,0.414093 0.626379,0.584247 0.194266,0.445308 0.391215,0.893873 0.604441,1.330399 0.09715,0.198858 0.18721,0.409261 0.407719,0.498595 0.246685,0.09991 0.602051,0.02766 0.864533,0.03412 0.618488,0.01512 1.314291,0.129762 1.928921,0.02507 0.229456,-0.03908 0.447848,-0.283545 0.411899,-0.524708 -0.05584,-0.374632 -0.425955,-0.465019 -0.744411,-0.465518 -0.557193,-8.76e-4 -1.404478,0.154765 -1.92718,-0.05327 -0.220875,-0.08794 -0.330705,-0.545052 -0.425825,-0.745105 -0.256595,-0.539633 -0.442155,-1.247939 -0.846079,-1.695641 -0.407692,-0.45186 -1.066543,-0.504462 -1.523292,-0.09401 -0.403865,0.362925 -0.366285,0.82935 -0.366285,1.32448 v 2.926807 c 0,0.506372 -0.07107,1.012393 0.277151,1.42963 0.438956,0.525962 1.143602,0.924934 1.685196,1.342238 0.202482,0.156018 0.564334,0.336986 0.653534,0.587728 0.354378,0.99628 0.461822,2.129603 0.706111,3.159045 0.09353,0.394022 0.394968,0.841851 0.868711,0.696709 0.854032,-0.261584 0.379387,-1.364168 0.244423,-1.960606 -0.135399,-0.598433 -0.274414,-1.196118 -0.403889,-1.795917 -0.06302,-0.292048 -0.08692,-0.682337 -0.261137,-0.931384 -0.433601,-0.619917 -1.288782,-0.963269 -1.839089,-1.473499 -0.15346,-0.142283 -0.215023,-0.49097 0.09784,-0.468652 0.322483,0.02302 0.747043,0.501877 0.997887,0.690791 0.384008,0.289254 0.892567,0.578158 1.160138,0.985352 0.191007,0.290652 0.222424,0.697472 0.299087,1.030963 0.167959,0.730472 0.327171,1.46341 0.488846,2.195278 0.17022,0.770752 0.455039,1.728973 -0.484667,2.132607 -0.137062,0.05887 -0.283374,0.09206 -0.432441,0.09506 -0.762037,0.01526 -1.089883,-0.573618 -1.230471,-1.230122 -0.196894,-0.919487 -0.31884,-1.94235 -0.636822,-2.826881 -0.09229,-0.256695 -0.451766,-0.443422 -0.660499,-0.602701 -0.540661,-0.412514 -1.253746,-0.814826 -1.666393,-1.359645 -0.379587,-0.501117 -0.32938,-1.035191 -0.32938,-1.629834 v -2.693875 c 0,-0.477427 -0.07385,-1.013704 0.115596,-1.463403 0.218478,-0.518513 0.778253,-0.904905 1.346417,-0.928597 z m 5.542341,1.122186 c 0.200819,-3.57e-4 0.400658,0.01905 0.511129,0.06406 0.194332,0.07923 0.198723,0.342443 0,0.420603 -0.19849,0.07806 -0.905937,0.09298 -1.088761,-0.01881 -0.164234,-0.100409 -0.116687,-0.360528 0.06058,-0.412246 0.11436,-0.03338 0.316229,-0.05327 0.517049,-0.05362 z m 4.109577,5.663855 c 1.72e-4,-0.0018 0.01102,0.009 0.02298,0.02089 -0.0014,0.0014 -0.0031,0.0025 -0.0045,0.0038 -0.0041,-0.0051 -0.0086,-0.0098 -0.01253,-0.01497 -0.0042,-0.0056 -0.006,-0.0089 -0.0059,-0.0098 z m -11.174514,0.513918 c 0.01895,-0.0013 0.03899,-4.5e-5 0.06024,0.0038 0.399012,0.0728 -0.0063,1.082759 -0.205078,1.233257 -0.865971,0.655772 -1.937155,1.045859 -2.787186,1.721753 -0.394157,0.313369 -0.369491,0.91105 0.09923,1.146559 0.398148,0.200054 0.772989,-0.105817 1.097467,-0.310228 0.86414,-0.544286 1.862492,-0.999867 2.660447,-1.63645 0.29664,-0.236639 0.240825,-0.591151 0.435924,-0.872888 0.08541,-0.123395 0.275259,-0.156258 0.376034,-0.03134 0.09672,0.119967 0.02787,0.293693 -0.0087,0.42304 -0.104666,0.369876 -0.240939,0.690239 -0.569971,0.913974 -0.857025,0.582736 -1.77334,1.098357 -2.660796,1.633665 -0.494833,0.298468 -0.983233,0.594568 -1.563332,0.308139 -0.653876,-0.322882 -0.823938,-1.190777 -0.381259,-1.758313 0.210566,-0.269912 0.56216,-0.421894 0.847125,-0.600264 0.617093,-0.386274 1.239211,-0.766401 1.862418,-1.142728 0.116076,-0.07008 0.246377,-0.132074 0.314059,-0.255566 0.103676,-0.189108 0.139199,-0.757277 0.423388,-0.776441 z" />
    <text
       xml:space="preserve"
       style="font-style:normal;font-weight:normal;font-size:25.3389px;line-height:1.25;font-family:sans-serif;text-align:end;text-anchor:end;fill:#383838;fill-opacity:1;stroke:none;stroke-width:0.633473"
       x="102.42875"
       y="27.248028"
       id="text9178"
       transform="scale(0.98877952,1.0113478)"><tspan
         sodipodi:role="line"
         style="text-align:end;text-anchor:end;fill:#383838;stroke-width:0.633473;fill-opacity:1"
         x="102.42875"
         y="27.248028"
         id="tspan39990">klaar</tspan></text>
    <text
       xml:space="preserve"
       style="font-style:normal;font-weight:normal;font-size:7.95869px;line-height:1.25;font-family:sans-serif;text-align:end;text-anchor:end;display:inline;fill:#383838;fill-opacity:1;stroke:none;stroke-width:0.198967"
       x="102.42875"
       y="36.71207"
       id="text9178-8"
       transform="scale(0.98877952,1.0113478)"><tspan
         sodipodi:role="line"
         style="text-align:end;text-anchor:end;fill:#383838;stroke-width:0.198967;fill-opacity:1"
         x="102.42875"
         y="36.71207"
         id="tspan39990-4">voor</tspan></text>
    <text
       xml:space="preserve"
       style="font-style:normal;font-weight:normal;font-size:26.2162px;line-height:1.25;font-family:sans-serif;text-align:end;text-anchor:end;display:inline;fill:#383838;fill-opacity:1;stroke:none;stroke-width:0.655408"
       x="100.72294"
       y="58.693947"
       id="text9178-0"
       transform="scale(1.0282638,0.97251308)"><tspan
         sodipodi:role="line"
         style="text-align:end;text-anchor:end;fill:#383838;stroke-width:0.655408;fill-opacity:1"
         x="100.72294"
         y="58.693947"
         id="tspan70379">afhalen</tspan></text>
    <path
       style="fill:#383838;stroke-width:0.050943;fill-opacity:1"
       d="m 4.8468283,30.362346 -0.1653,-0.04774 -0.089415,-0.136372 -0.089416,-0.136373 -0.017847,-0.651856 -0.017855,-0.651856 h 6.4278797 6.42788 l -0.01668,0.682547 -0.01668,0.682546 -0.09679,0.106784 -0.09679,0.106784 -0.1834,0.05094 -0.183399,0.05094 -5.858444,-0.0043 -5.858443,-0.0043 -0.1653001,-0.04774 z M 4.4772265,19.008042 V 9.9401893 h 6.4188165 6.418817 v 1.4500217 1.450022 l -3.120258,0.01459 -3.120259,0.01459 -0.15866,0.09605 -0.15866,0.09605 -0.08332,0.141049 -0.08332,0.141048 v 4.468381 4.46838 l 0.197779,0.197778 0.197779,0.197779 h 0.719196 0.719195 v 1.341109 1.341109 l 0.117905,0.110766 0.117905,0.110766 h 0.162618 0.162618 l 0.674658,-0.604169 0.674658,-0.604169 0.942445,-0.846724 0.942446,-0.846724 0.547637,-9.77e-4 0.547637,-9.76e-4 v 2.699978 2.699978 H 10.896043 4.4772265 Z m 8.6093655,4.442776 v -1.1258 L 12.963766,22.182084 12.840939,22.03915 12.046792,22.02283 11.252644,22.00651 v -4.250362 -4.250364 l 5.973065,0.01294 5.973065,0.01294 0.01303,4.241003 0.01302,4.241004 -3.579037,3.05e-4 -3.579037,3.06e-4 -0.136686,0.07131 -0.136685,0.07131 -1.264247,1.133956 -1.264247,1.133955 -0.08915,0.07589 -0.08915,0.07589 v -1.125801 z m 4.950194,-3.253511 0.09316,-0.08431 v -0.141295 -0.141294 l -0.07805,-0.07805 -0.07805,-0.07805 -0.163928,-0.0299 -0.163927,-0.0299 -2.172512,0.01517 -2.172511,0.01517 -0.107187,0.09705 -0.107187,0.09705 v 0.128187 0.128186 l 0.08431,0.09316 0.08431,0.09316 h 2.344206 2.344206 z m 3.209408,-2.190548 0.09316,-0.08431 v -0.135197 -0.135197 l -0.0723,-0.09889 -0.0723,-0.09889 -3.918689,-0.01366 -3.918689,-0.01366 -0.135398,0.106503 -0.135396,0.106503 v 0.132385 0.132384 l 0.08431,0.09316 0.08431,0.09316 h 3.94891 3.94891 z m 0,-2.190549 0.09316,-0.08431 v -0.135196 -0.135197 l -0.0723,-0.09889 -0.07229,-0.09889 -3.86305,-0.01436 -3.86305,-0.01436 -0.111059,0.02717 -0.11106,0.02716 -0.07998,0.07998 -0.07998,0.07998 v 0.132443 0.132443 l 0.08431,0.09316 0.08431,0.09316 h 3.94891 3.94891 z M 4.4848463,8.6260759 l 0.017848,-0.6518567 0.088668,-0.1352326 0.088668,-0.135233 0.1915186,-0.05319 0.1915178,-0.05319 h 5.8329723 5.832972 l 0.183399,0.05094 0.183399,0.05094 0.09679,0.106783 0.09679,0.1067836 0.01668,0.6825477 0.01668,0.6825467 H 10.894871 4.4669912 Z"
       id="path98396" />
  </g>
</svg>
