<?xml version="1.0" encoding="UTF-8" standalone="no"?>
<!-- Created with Inkscape (http://www.inkscape.org/) -->

<svg
   width="400"
   height="250"
   viewBox="0 0 105.83333 66.145835"
   version="1.1"
   id="svg2002"
   inkscape:version="1.1.2 (b8e25be833, 2022-02-05)"
   sodipodi:docname="toegevoegd.svg"
   xmlns:inkscape="http://www.inkscape.org/namespaces/inkscape"
   xmlns:sodipodi="http://sodipodi.sourceforge.net/DTD/sodipodi-0.dtd"
   xmlns="http://www.w3.org/2000/svg"
   xmlns:svg="http://www.w3.org/2000/svg"
   xmlns:rdf="http://www.w3.org/1999/02/22-rdf-syntax-ns#"
   xmlns:cc="http://creativecommons.org/ns#"
   xmlns:dc="http://purl.org/dc/elements/1.1/">
  <defs
     id="defs1996" />
  <sodipodi:namedview
     id="base"
     pagecolor="#ffffff"
     bordercolor="#666666"
     borderopacity="1.0"
     inkscape:pageopacity="0.0"
     inkscape:pageshadow="2"
     inkscape:zoom="1.4"
     inkscape:cx="291.78572"
     inkscape:cy="177.14286"
     inkscape:document-units="mm"
     inkscape:current-layer="layer1"
     showgrid="false"
     units="px"
     inkscape:window-width="1920"
     inkscape:window-height="1009"
     inkscape:window-x="-8"
     inkscape:window-y="-8"
     inkscape:window-maximized="1"
     inkscape:pagecheckerboard="1" />
  <metadata
     id="metadata1999">
    <rdf:RDF>
      <cc:Work
         rdf:about="">
        <dc:format>image/svg+xml</dc:format>
        <dc:type
           rdf:resource="http://purl.org/dc/dcmitype/StillImage" />
      </cc:Work>
    </rdf:RDF>
  </metadata>
  <g
     inkscape:label="Laag 1"
     inkscape:groupmode="layer"
     id="layer1"
     transform="translate(0,-230.85415)"
     style="display:inline">
    <rect
       style="opacity:0.99;fill:#73c27a;fill-opacity:1;stroke:none;stroke-width:0;stroke-miterlimit:4;stroke-dasharray:none;stroke-opacity:1"
       id="rect2592"
       width="106.08559"
       height="66.329239"
       x="-0.091700234"
       y="230.76244" />
    <text
       xml:space="preserve"
       style="font-style:normal;font-weight:normal;font-size:19.7556px;line-height:0.7;font-family:sans-serif;letter-spacing:0px;word-spacing:0px;fill:#000000;fill-opacity:1;stroke:none;stroke-width:0.264583"
       x="33.41407"
       y="239.28816"
       id="text838"><tspan
         sodipodi:role="line"
         x="0"
         y="0"
         style="font-size:12.3472px;line-height:0.7;text-align:center;text-anchor:middle;fill:#ffffff;stroke-width:0.264583"
         id="tspan840"><tspan
           id="tspan851"
           style="font-size:12.3472px;line-height:0.7;text-align:center;text-anchor:middle;fill:#ffffff;stroke-width:0.264583" /></tspan><tspan
         sodipodi:role="line"
         x="-9.839423e-07"
         y="13.828919"
         style="font-size:12.3472px;line-height:0.7;text-align:center;text-anchor:middle;fill:#ffffff;stroke-width:0.264583"
         id="tspan857"><tspan
           style="font-size:12.3472px;line-height:0.7;text-align:center;text-anchor:middle;fill:#ffffff;stroke-width:0.264583"
           id="tspan859">Afhalen</tspan></tspan><tspan
         sodipodi:role="line"
         x="1.7695129e-08"
         y="27.657839"
         style="font-size:12.3472px;line-height:0.7;text-align:center;text-anchor:middle;fill:#ffffff;stroke-width:0.264583"
         id="tspan865"><tspan
   style="font-size:12.3472px;line-height:0.7;text-align:center;text-anchor:middle;fill:#ffffff;stroke-width:0.264583"
   id="tspan867">mail </tspan> </tspan><tspan
         sodipodi:role="line"
         x="-2.970919e-07"
         y="41.486759"
         style="font-size:12.3472px;line-height:0.7;text-align:center;text-anchor:middle;fill:#ffffff;stroke-width:0.264583"
         id="tspan842">verstuurd</tspan></text>
  </g>
  <g
     inkscape:groupmode="layer"
     id="layer2"
     inkscape:label="tekst"
     style="display:inline">
    <text
       xml:space="preserve"
       style="font-style:normal;font-weight:normal;font-size:16.8293px;line-height:1.25;font-family:sans-serif;text-align:end;text-anchor:end;fill:#ffffff;fill-opacity:1;stroke:none;stroke-width:0.420732"
       x="105.06414"
       y="56.194965"
       id="text9178"
       transform="scale(0.98877952,1.0113478)"><tspan
         sodipodi:role="line"
         style="text-align:end;text-anchor:end;fill:#ffffff;fill-opacity:1;stroke-width:0.420732"
         x="105.06414"
         y="56.194965"
         id="tspan39990">Toegevoegd</tspan></text>
    <path
       style="fill:#000000;stroke:none;stroke-width:2.85714"
       d=""
       id="path123133"
       transform="scale(0.26458333)" />
    <path
       style="fill:#a0a0a0;stroke:none;stroke-width:0.178571"
       d=""
       id="path123209"
       transform="scale(0.26458333)" />
    <path
       style="fill:#ffffff;stroke-width:0.0650174"
       d="m 75.050402,42.061653 -0.271356,-0.05267 -0.192226,-0.0994 -0.192223,-0.09941 -0.206044,-0.173375 -0.206043,-0.173368 -0.170609,-0.332872 -0.170609,-0.33287 1.98e-4,-0.422617 1.93e-4,-0.422617 0.23552,-0.682681 0.235518,-0.682682 0.164002,-0.650173 0.163998,-0.650174 0.133103,-0.778674 0.133099,-0.778682 0.07557,-1.11711 0.07557,-1.117109 -0.0767,-1.103096 -0.0767,-1.103097 -0.131409,-0.772122 -0.131407,-0.77213 -0.20103,-0.833719 -0.201025,-0.833719 -0.106732,-0.03066 -0.10672,-0.03066 -0.407681,-0.199951 -0.407683,-0.19996 -0.257901,-0.292991 -0.2579,-0.292991 -0.168144,-0.355428 -0.168141,-0.355427 -0.0882,-0.432847 -0.08819,-0.432838 -0.07858,-1.007777 -0.07858,-1.007769 0.04125,-0.845224 0.04125,-0.845225 0.09855,-0.650175 0.09856,-0.650174 0.157983,-0.655913 0.157983,-0.655906 0.238231,-0.741964 0.23823,-0.741965 0.236935,-0.454766 0.236936,-0.454765 0.397834,-0.40587 0.397839,-0.405879 0.508482,-0.241473 0.508486,-0.241483 0.55657,-0.02429 0.556573,-0.02428 4.616237,0.982879 4.616238,0.982871 0.233654,0.153947 0.233654,0.153956 0.113106,0.238347 0.113105,0.238355 v 0.282595 0.282603 l -0.113105,0.238355 -0.113106,0.238347 -0.233654,0.150803 -0.233654,0.150793 -0.19731,0.04053 -0.197309,0.04054 -3.537085,-0.752081 -3.537083,-0.75209 -0.08538,0.03276 -0.08538,0.03276 v 0.126603 0.126613 l -0.285116,1.419594 -0.285114,1.419596 -0.08491,0.60141 -0.08492,0.601409 h -0.04927 -0.04927 l -0.157806,-0.211308 -0.157806,-0.211309 -0.08105,-0.252725 -0.08105,-0.252735 0.03169,-0.69002 0.03169,-0.69002 0.200741,-0.58516 0.200741,-0.585152 0.142991,-0.408638 0.142993,-0.408631 -0.07762,-0.346849 -0.07762,-0.346857 -0.237419,-0.27737 -0.23742,-0.277371 -0.263698,-0.119772 -0.263698,-0.119781 h -0.3251 -0.325088 l -0.260069,0.120672 -0.260071,0.120672 -0.207929,0.21924 -0.207929,0.219249 -0.157782,0.357595 -0.157781,0.357594 -0.197077,0.617668 -0.197075,0.617666 -0.1124,0.675894 -0.112399,0.675885 0.03651,0.689478 0.03651,0.689468 0.102934,0.390111 0.102933,0.390101 0.257597,0.520137 0.257597,0.520147 0.333608,0.375337 0.33361,0.375346 0.419749,0.299526 0.419751,0.299524 0.500054,0.216218 0.500051,0.216219 0.044,0.149194 0.044,0.149186 0.26256,0.877741 0.262561,0.877732 0.128137,0.520138 0.128138,0.520138 0.133317,0.715197 0.133315,0.715188 0.109425,0.87774 0.109425,0.877732 1.88e-4,1.657944 1.88e-4,1.657942 -0.110551,0.845233 -0.110552,0.845225 -0.100702,0.552645 -0.100702,0.552653 -0.161293,0.650166 -0.161293,0.650174 -0.198583,0.650174 -0.198584,0.650175 -0.176387,0.39011 -0.176385,0.3901 -0.221951,0.221836 -0.221953,0.221827 -0.260799,0.111723 -0.260798,0.111713 -0.260071,0.03215 -0.260069,0.03215 -0.271356,-0.05268 z M 80.360611,35.33624 V 28.867004 H 79.970507 79.580401 V 28.086802 27.30659 h 11.703137 11.703132 v 0.780212 0.780202 h -0.38978 -0.38979 l -0.0166,6.452978 -0.0166,6.452987 -0.6336,0.01861 -0.6336,0.01861 -0.0166,-6.455327 -0.0166,-6.455329 h -9.590104 -9.590071 l -0.01658,6.452978 -0.01658,6.452978 H 81.010306 80.360447 Z M 83.6765,23.665618 v -3.055821 h 4.193624 4.193623 v 3.055821 3.055812 H 87.870124 83.6765 Z m 7.721899,-0.698939 0.01732,-1.706708 h -1.203903 -1.203901 v 1.724425 1.724433 l 1.186568,-0.01774 1.186568,-0.01774 z m -2.000364,0.666432 v -0.09753 h 0.45512 0.455121 v 0.09753 0.09752 h -0.455121 -0.45512 z m 0,-0.617667 v -0.130037 h 0.812716 0.812718 v 0.130037 0.130027 h -0.812718 -0.812716 z m 0,-0.58516 v -0.130038 h 0.812716 0.812718 v 0.130038 0.130036 h -0.812718 -0.812716 z m 0,-0.617668 v -0.09752 h 0.812716 0.812718 v 0.09752 0.09754 h -0.812718 -0.812716 z m 5.786548,4.616234 v -0.292571 h 1.592927 1.592929 v 0.292571 0.29258 H 96.77751 95.184583 Z m 4.096098,-1.137796 v -1.430385 h 0.130036 0.130036 v -0.02883 -0.02883 l -0.234643,-0.65981 -0.234641,-0.659819 0.06773,-0.06771 0.06773,-0.06771 0.08563,0.03416 0.08563,0.03416 0.249606,0.722151 0.2496,0.722151 h 0.156745 0.15677 v -0.02237 -0.02237 l -0.13004,-0.377949 -0.130035,-0.377958 v -0.07976 -0.07976 l 0.126985,-0.0332 0.12699,-0.0332 0.17094,0.513253 0.17092,0.513254 h 0.11345 0.11343 l 0.18107,-0.520138 0.18107,-0.520138 h 0.0524 0.0524 l 0.10008,0.03835 0.10007,0.03844 -0.15977,0.424459 -0.15977,0.424461 v 0.0573 0.0573 h 0.16254 0.16254 v 1.430385 1.430386 h -1.07278 -1.072787 z m -18.385686,0.976108 -0.278335,-0.126332 -0.134975,-0.09454 -0.134977,-0.09454 0.218259,-0.110214 0.218256,-0.110213 0.164696,-0.153773 0.164696,-0.153773 0.240654,0.06648 0.240656,0.06648 0.24792,-0.06675 0.247921,-0.06675 0.167757,-0.179841 0.167757,-0.179832 0.07297,-0.142014 0.07297,-0.142013 v -0.235063 -0.23507 l -0.09135,-0.175561 -0.09135,-0.175577 -0.162438,-0.151711 -0.162436,-0.15172 -0.233703,-0.05268 -0.233704,-0.05268 -0.265325,0.05958 -0.265326,0.05958 -0.206192,-0.173796 -0.206194,-0.173787 -0.182422,-0.07688 -0.182422,-0.07688 1.505529,-1.620028 1.505528,-1.620028 0.08716,-0.04989 0.08716,-0.0498 1.743078,0.0173 1.74308,0.0173 0.02194,0.155197 0.02194,0.155188 -0.08695,0.05513 -0.08696,0.05513 -1.657945,0.0035 -1.657944,0.0035 -1.096477,1.18449 -1.096477,1.184491 0.420186,0.03695 0.420185,0.03695 0.351204,0.197288 0.351204,0.197295 0.210746,0.273998 0.210747,0.27399 0.105852,0.364137 0.105853,0.364138 -0.03877,0.330478 -0.03877,0.330486 -0.181466,0.355741 -0.181465,0.355743 -0.313894,0.237236 -0.313894,0.237247 -0.245143,0.07346 -0.245142,0.07348 -0.382562,-0.0018 -0.382561,-0.0018 -0.278333,-0.126333 z m -2.15982,-0.631191 -0.227562,-0.02438 -0.544352,-0.09884 -0.544351,-0.09885 -0.512865,-0.18717 -0.512865,-0.18717 -0.405675,-0.244087 -0.405676,-0.244086 -0.399673,-0.404114 -0.399672,-0.404113 -0.228497,-0.412632 -0.228496,-0.412623 -0.139111,-0.455115 -0.139111,-0.455123 -0.03773,-0.617668 -0.03773,-0.617668 0.07626,-0.570902 0.07626,-0.570904 0.164241,-0.566902 0.164236,-0.566902 0.194785,-0.48763 0.194785,-0.48763 0.174683,-0.186804 0.174682,-0.186804 0.20922,-0.08952 0.20922,-0.08952 h 0.231737 0.231736 l 0.212254,0.08868 0.212255,0.08869 0.174052,0.206854 0.174052,0.206844 0.06857,0.254674 0.06857,0.254683 -0.04422,0.181231 -0.04422,0.181239 -0.188715,0.474753 -0.188717,0.474745 -0.129454,0.500508 -0.129454,0.500517 -0.0046,0.594446 -0.0046,0.594447 0.108568,0.326887 0.108568,0.326878 0.249949,0.283957 0.249952,0.283959 0.361383,0.176958 0.361385,0.176949 0.391166,0.100206 0.391165,0.100206 0.942846,0.08526 0.942846,0.08526 0.220079,0.167864 0.220078,0.167864 0.106675,0.224806 0.106675,0.224796 -0.001,0.282753 -10e-4,0.282751 -0.146544,0.258746 -0.146545,0.258745 -0.258745,0.146548 -0.258744,0.146539 -0.617667,-0.0094 -0.617664,-0.0094 -0.227561,-0.02438 z m -0.729973,-10.523722 -0.372377,-0.09027 -0.339308,-0.171934 -0.339306,-0.171944 -0.384097,-0.366296 -0.384096,-0.366295 -0.155501,-0.265262 -0.155505,-0.265272 -0.137564,-0.384903 -0.137565,-0.384911 -0.002,-0.58516 -0.0019,-0.585153 0.144239,-0.422616 0.144236,-0.422608 0.186705,-0.29258 0.186702,-0.292581 0.279615,-0.2688519 0.279616,-0.2688443 0.271207,-0.1676022 0.271205,-0.1676102 0.411477,-0.1394459 0.411477,-0.1394449 0.552648,0.00169 0.552648,0.0018 0.406237,0.1287785 0.406238,0.1287875 0.324412,0.2081716 0.324412,0.2081728 0.336784,0.3675879 0.336784,0.3675781 0.185128,0.407085 0.185131,0.407092 0.07512,0.483176 0.07512,0.483183 -0.08285,0.463616 -0.08285,0.463616 -0.228387,0.456521 -0.228389,0.456522 -0.335581,0.335168 -0.335581,0.335178 -0.394331,0.209674 -0.394332,0.209684 -0.416562,0.09819 -0.416562,0.09819 -0.325087,-0.0044 -0.325087,-0.0044 -0.372377,-0.09027 z"
       id="path124058" />
    <text
       xml:space="preserve"
       style="font-style:normal;font-weight:normal;font-size:59.3946px;line-height:1.25;font-family:sans-serif;fill:#ffffff;fill-opacity:1;stroke:none;stroke-width:1.48487"
       x="2.1515615"
       y="42.114105"
       id="text134188"><tspan
         sodipodi:role="line"
         id="tspan134186"
         style="fill:#ffffff;stroke-width:1.48487"
         x="2.1515615"
         y="42.114105">+</tspan></text>
  </g>
</svg>
