<?xml version="1.0" encoding="UTF-8" standalone="no"?>
<svg
   width="32"
   height="24"
   version="1.1"
   id="svg877"
   sodipodi:docname="pin.svg"
   inkscape:version="1.1.2 (b8e25be833, 2022-02-05)"
   xmlns:inkscape="http://www.inkscape.org/namespaces/inkscape"
   xmlns:sodipodi="http://sodipodi.sourceforge.net/DTD/sodipodi-0.dtd"
   xmlns="http://www.w3.org/2000/svg"
   xmlns:svg="http://www.w3.org/2000/svg">
  <defs
     id="defs881" />
  <sodipodi:namedview
     id="namedview879"
     pagecolor="#ffffff"
     bordercolor="#111111"
     borderopacity="1"
     inkscape:pageshadow="0"
     inkscape:pageopacity="0"
     inkscape:pagecheckerboard="1"
     showgrid="false"
     inkscape:zoom="28.194318"
     inkscape:cx="14.063117"
     inkscape:cy="9.6118657"
     inkscape:window-width="1920"
     inkscape:window-height="1057"
     inkscape:window-x="-8"
     inkscape:window-y="-8"
     inkscape:window-maximized="1"
     inkscape:current-layer="svg877" />
  <g
     fill="none"
     id="g875"
     sodipodi:insensitive="true">
    <path
       d="m 4.129,0.5 h 23.742 c 2,0 3.629,1.64 3.629,3.674 v 15.652 c 0,2.034 -1.63,3.674 -3.629,3.674 H 4.129 C 2.129,23.5 0.5,21.86 0.5,19.826 V 4.174 C 0.5,2.14 2.13,0.5 4.129,0.5 Z"
       stroke="#e6e6e6"
       fill="#ffffff"
       id="path859" />
    <g
       transform="translate(8,5)"
       id="g873">
      <path
         d="m 0,1.08 v 12.403 c 0,0.596 0.486,1.08 1.085,1.08 h 7.449 c 5.629,0 8.07,-3.137 8.07,-7.296 C 16.604,3.124 14.163,0 8.534,0 H 1.084 C 0.487,0 0,0.483 0,1.08 Z"
         fill="#ffffff"
         id="path861" />
      <path
         d="M 8.532,13.57 H 2.054 A 1.04,1.04 0 0 1 1.012,12.535 V 2.028 A 1.04,1.04 0 0 1 2.054,0.99 h 6.478 c 6.144,0 7.062,3.932 7.062,6.276 0,4.066 -2.508,6.304 -7.062,6.304 z M 2.054,1.338 a 0.694,0.694 0 0 0 -0.695,0.69 v 10.508 c 0,0.381 0.311,0.69 0.695,0.69 h 6.478 c 4.33,0 6.715,-2.116 6.715,-5.958 0,-5.16 -4.207,-5.93 -6.715,-5.93 H 2.054 Z"
         fill="#000000"
         id="path863" />
      <path
         d="m 4.984,3.045 v 9.163 h 4.009 c 3.642,0 5.22,-2.048 5.22,-4.936 0,-2.767 -1.578,-4.917 -5.22,-4.917 H 5.678 a 0.693,0.693 0 0 0 -0.694,0.69 z"
         fill="#cc0066"
         id="path865" />
      <path
         fill="#ffffff"
         d="m 12.626,6.035 v 1.784 h 1.072 v 0.405 h -1.555 v -2.19 z m -1.61,0 0.823,2.189 H 11.337 L 11.171,7.738 H 10.347 L 10.175,8.224 H 9.686 l 0.833,-2.19 h 0.497 z M 11.044,7.377 10.766,6.574 H 10.76 L 10.474,7.377 Z M 9.359,6.035 V 6.439 H 8.197 v 0.47 H 9.263 V 7.282 H 8.197 v 0.537 h 1.187 v 0.405 h -1.67 v -2.19 z m -2.964,0 C 6.53,6.034 6.665,6.056 6.791,6.102 A 0.862,0.862 0 0 1 7.318,6.642 1.561,1.561 0 0 1 7.332,7.558 0.976,0.976 0 0 1 7.146,7.908 0.875,0.875 0 0 1 6.834,8.139 1.059,1.059 0 0 1 6.395,8.224 H 5.446 v -2.19 h 0.95 z M 6.361,7.819 c 0.07,0 0.138,-0.011 0.204,-0.034 A 0.45,0.45 0 0 0 6.74,7.673 0.565,0.565 0 0 0 6.864,7.47 0.89,0.89 0 0 0 6.91,7.163 c 0,-0.1 -0.01,-0.2 -0.032,-0.299 A 0.592,0.592 0 0 0 6.769,6.636 0.474,0.474 0 0 0 6.573,6.49 0.78,0.78 0 0 0 6.273,6.44 H 5.928 v 1.379 z"
         id="path867" />
      <path
         d="m 3.172,8.72 c 0.425,0 0.769,0.342 0.769,0.764 v 2.724 c -0.85,0 -1.538,-0.685 -1.538,-1.53 V 9.484 A 0.763,0.763 0 0 1 3.173,8.72 Z"
         fill="#000000"
         id="path869" />
      <ellipse
         fill="#000000"
         cx="3.1719999"
         cy="7.1290002"
         rx="1.015"
         ry="1.01"
         id="ellipse871" />
    </g>
  </g>
  <rect
     style="fill:#ffffff;stroke-width:0;stroke-linecap:round;stroke-linejoin:round"
     id="rect962"
     width="22.775049"
     height="18.177694"
     x="3.9621928"
     y="3.2362947"
     rx="12.893835"
     ry="11.339622"
     sodipodi:insensitive="true" />
  <g
     id="g39979"
     transform="matrix(0.29478811,0,0,0.29478811,44.250344,33.974683)">
    <path
       d="m -137.74538,-103.84521 h 84.759998 v 58.578102 h -84.759998 v -58.578102"
       style="fill:#4053ab;fill-opacity:1;fill-rule:evenodd;stroke:none;stroke-width:0.0453052"
       id="path14" />
    <path
       d="m -78.71514,-86.982597 c 0.495186,0 0.891607,-0.399592 0.891607,-0.888889 0,-0.492015 -0.396421,-0.889342 -0.891607,-0.889342 -0.48975,0 -0.889342,0.397327 -0.889342,0.889342 0,0.489297 0.399592,0.888889 0.889342,0.888889"
       style="fill:#ffffff;fill-opacity:1;fill-rule:evenodd;stroke:none;stroke-width:0.0453052"
       id="path16" />
    <path
       d="m -72.124585,-86.982597 c 0.489749,0 0.889342,-0.399592 0.889342,-0.888889 0,-0.492015 -0.399593,-0.889342 -0.889342,-0.889342 -0.492015,0 -0.888889,0.397327 -0.888889,0.889342 0,0.489297 0.396874,0.888889 0.888889,0.888889"
       style="fill:#ffffff;fill-opacity:1;fill-rule:evenodd;stroke:none;stroke-width:0.0453052"
       id="path18" />
    <path
       d="m -65.535843,-86.982597 c 0.488844,0 0.891607,-0.399592 0.891607,-0.888889 0,-0.492015 -0.402763,-0.889342 -0.891607,-0.889342 -0.492468,0 -0.889342,0.397327 -0.889342,0.889342 0,0.489297 0.396874,0.888889 0.889342,0.888889"
       style="fill:#ffffff;fill-opacity:1;fill-rule:evenodd;stroke:none;stroke-width:0.0453052"
       id="path20" />
    <path
       d="m -62.182801,-86.982597 c 0.492468,0 0.888889,-0.399592 0.888889,-0.888889 0,-0.492015 -0.396421,-0.889342 -0.888889,-0.889342 -0.492468,0 -0.888889,0.397327 -0.888889,0.889342 0,0.489297 0.396421,0.888889 0.888889,0.888889"
       style="fill:#ffffff;fill-opacity:1;fill-rule:evenodd;stroke:none;stroke-width:0.0453052"
       id="path22" />
    <path
       d="m -58.886844,-86.982597 c 0.488843,0 0.888889,-0.399592 0.888889,-0.888889 0,-0.492015 -0.400046,-0.889342 -0.888889,-0.889342 -0.492468,0 -0.892061,0.397327 -0.892061,0.889342 0,0.489297 0.399593,0.888889 0.892061,0.888889"
       style="fill:#ffffff;fill-opacity:1;fill-rule:evenodd;stroke:none;stroke-width:0.0453052"
       id="path24" />
    <path
       d="m -55.533803,-86.982597 c 0.492468,0 0.889342,-0.399592 0.889342,-0.888889 0,-0.492015 -0.396874,-0.889342 -0.889342,-0.889342 -0.492015,0 -0.888889,0.397327 -0.888889,0.889342 0,0.489297 0.396874,0.888889 0.888889,0.888889"
       style="fill:#ffffff;fill-opacity:1;fill-rule:evenodd;stroke:none;stroke-width:0.0453052"
       id="path26" />
    <path
       d="m -131.43518,-73.730811 c 0.48929,0 0.88893,-0.402446 0.88893,-0.892151 0,-0.492151 -0.39964,-0.888934 -0.88893,-0.888934 -0.48654,0 -0.88613,0.396783 -0.88613,0.888934 0,0.489705 0.39959,0.892151 0.88613,0.892151"
       style="fill:#ffffff;fill-opacity:1;fill-rule:evenodd;stroke:none;stroke-width:0.0453052"
       id="path28" />
    <path
       d="m -72.124585,-80.339488 c 0.489749,0 0.889342,-0.393702 0.889342,-0.888889 0,-0.489296 -0.399593,-0.888889 -0.889342,-0.888889 -0.492015,0 -0.888889,0.399593 -0.888889,0.888889 0,0.495187 0.396874,0.888889 0.888889,0.888889"
       style="fill:#ffffff;fill-opacity:1;fill-rule:evenodd;stroke:none;stroke-width:0.0453052"
       id="path30" />
    <path
       d="m -65.535843,-80.339488 c 0.488844,0 0.891607,-0.393702 0.891607,-0.888889 0,-0.489296 -0.402763,-0.888889 -0.891607,-0.888889 -0.492468,0 -0.889342,0.399593 -0.889342,0.888889 0,0.495187 0.396874,0.888889 0.889342,0.888889"
       style="fill:#ffffff;fill-opacity:1;fill-rule:evenodd;stroke:none;stroke-width:0.0453052"
       id="path32" />
    <path
       d="m -62.182801,-80.339488 c 0.492468,0 0.888889,-0.393702 0.888889,-0.888889 0,-0.489296 -0.396421,-0.888889 -0.888889,-0.888889 -0.492468,0 -0.888889,0.399593 -0.888889,0.888889 0,0.495187 0.396421,0.888889 0.888889,0.888889"
       style="fill:#ffffff;fill-opacity:1;fill-rule:evenodd;stroke:none;stroke-width:0.0453052"
       id="path34" />
    <path
       d="m -58.886844,-80.339488 c 0.488843,0 0.888889,-0.393702 0.888889,-0.888889 0,-0.489296 -0.400046,-0.888889 -0.888889,-0.888889 -0.492468,0 -0.892061,0.399593 -0.892061,0.888889 0,0.495187 0.399593,0.888889 0.892061,0.888889"
       style="fill:#ffffff;fill-opacity:1;fill-rule:evenodd;stroke:none;stroke-width:0.0453052"
       id="path36" />
    <path
       d="m -55.533803,-80.339488 c 0.492468,0 0.889342,-0.393702 0.889342,-0.888889 0,-0.489296 -0.396874,-0.888889 -0.889342,-0.888889 -0.492015,0 -0.888889,0.399593 -0.888889,0.888889 0,0.495187 0.396874,0.888889 0.888889,0.888889"
       style="fill:#ffffff;fill-opacity:1;fill-rule:evenodd;stroke:none;stroke-width:0.0453052"
       id="path38" />
    <path
       d="m -72.124585,-83.692529 c 0.489749,0 0.889342,-0.397327 0.889342,-0.886171 0,-0.492468 -0.399593,-0.889342 -0.889342,-0.889342 -0.492015,0 -0.888889,0.396874 -0.888889,0.889342 0,0.488844 0.396874,0.886171 0.888889,0.886171"
       style="fill:#ffffff;fill-opacity:1;fill-rule:evenodd;stroke:none;stroke-width:0.0453052"
       id="path40" />
    <path
       d="m -65.535843,-83.692529 c 0.488844,0 0.891607,-0.397327 0.891607,-0.886171 0,-0.492468 -0.402763,-0.889342 -0.891607,-0.889342 -0.492468,0 -0.889342,0.396874 -0.889342,0.889342 0,0.488844 0.396874,0.886171 0.889342,0.886171"
       style="fill:#ffffff;fill-opacity:1;fill-rule:evenodd;stroke:none;stroke-width:0.0453052"
       id="path42" />
    <path
       d="m -62.182801,-83.692529 c 0.492468,0 0.888889,-0.397327 0.888889,-0.886171 0,-0.492468 -0.396421,-0.889342 -0.888889,-0.889342 -0.492468,0 -0.888889,0.396874 -0.888889,0.889342 0,0.488844 0.396421,0.886171 0.888889,0.886171"
       style="fill:#ffffff;fill-opacity:1;fill-rule:evenodd;stroke:none;stroke-width:0.0453052"
       id="path44" />
    <path
       d="m -58.886844,-83.692529 c 0.488843,0 0.888889,-0.397327 0.888889,-0.886171 0,-0.492468 -0.400046,-0.889342 -0.888889,-0.889342 -0.492468,0 -0.892061,0.396874 -0.892061,0.889342 0,0.488844 0.399593,0.886171 0.892061,0.886171"
       style="fill:#ffffff;fill-opacity:1;fill-rule:evenodd;stroke:none;stroke-width:0.0453052"
       id="path46" />
    <path
       d="m -55.533803,-83.692529 c 0.492468,0 0.889342,-0.397327 0.889342,-0.886171 0,-0.492468 -0.396874,-0.889342 -0.889342,-0.889342 -0.492015,0 -0.888889,0.396874 -0.888889,0.889342 0,0.488844 0.396874,0.886171 0.888889,0.886171"
       style="fill:#ffffff;fill-opacity:1;fill-rule:evenodd;stroke:none;stroke-width:0.0453052"
       id="path48" />
    <path
       d="m -75.419636,-83.692529 c 0.489297,0 0.888889,-0.397327 0.888889,-0.886171 0,-0.492468 -0.399592,-0.889342 -0.888889,-0.889342 -0.492468,0 -0.889342,0.396874 -0.889342,0.889342 0,0.488844 0.396874,0.886171 0.889342,0.886171"
       style="fill:#ffffff;fill-opacity:1;fill-rule:evenodd;stroke:none;stroke-width:0.0453052"
       id="path50" />
    <path
       d="m -68.8318,-83.692529 c 0.495187,0 0.888889,-0.397327 0.888889,-0.886171 0,-0.492468 -0.393702,-0.889342 -0.888889,-0.889342 -0.489296,0 -0.888889,0.396874 -0.888889,0.889342 0,0.488844 0.399593,0.886171 0.888889,0.886171"
       style="fill:#ffffff;fill-opacity:1;fill-rule:evenodd;stroke:none;stroke-width:0.0453052"
       id="path52" />
    <path
       d="m -75.419636,-80.339488 c 0.489297,0 0.888889,-0.393702 0.888889,-0.888889 0,-0.489296 -0.399592,-0.888889 -0.888889,-0.888889 -0.492468,0 -0.889342,0.399593 -0.889342,0.888889 0,0.495187 0.396874,0.888889 0.889342,0.888889"
       style="fill:#ffffff;fill-opacity:1;fill-rule:evenodd;stroke:none;stroke-width:0.0453052"
       id="path54" />
    <path
       d="m -68.8318,-80.339488 c 0.495187,0 0.888889,-0.393702 0.888889,-0.888889 0,-0.489296 -0.393702,-0.888889 -0.888889,-0.888889 -0.489296,0 -0.888889,0.399593 -0.888889,0.888889 0,0.495187 0.399593,0.888889 0.888889,0.888889"
       style="fill:#ffffff;fill-opacity:1;fill-rule:evenodd;stroke:none;stroke-width:0.0453052"
       id="path56" />
    <path
       d="m -58.886844,-93.692304 c 0.488843,0 0.888889,-0.396874 0.888889,-0.889342 0,-0.492015 -0.400046,-0.888889 -0.888889,-0.888889 -0.492468,0 -0.892061,0.396874 -0.892061,0.888889 0,0.492468 0.399593,0.889342 0.892061,0.889342"
       style="fill:#ffffff;fill-opacity:1;fill-rule:evenodd;stroke:none;stroke-width:0.0453052"
       id="path58" />
    <path
       d="m -58.886844,-90.3968 c 0.488843,0 0.888889,-0.396421 0.888889,-0.888889 0,-0.489297 -0.400046,-0.892061 -0.888889,-0.892061 -0.492468,0 -0.892061,0.402764 -0.892061,0.892061 0,0.492468 0.399593,0.888889 0.892061,0.888889"
       style="fill:#ffffff;fill-opacity:1;fill-rule:evenodd;stroke:none;stroke-width:0.0453052"
       id="path60" />
    <path
       d="m -62.182801,-97.045799 c 0.492468,0 0.888889,-0.396874 0.888889,-0.888889 0,-0.489749 -0.396421,-0.888889 -0.888889,-0.888889 -0.492468,0 -0.888889,0.39914 -0.888889,0.888889 0,0.492015 0.396421,0.888889 0.888889,0.888889"
       style="fill:#ffffff;fill-opacity:1;fill-rule:evenodd;stroke:none;stroke-width:0.0453052"
       id="path62" />
    <path
       d="m -81.949935,-88.818365 v 1.775059 h -1.737909 v 1.624647 h 1.708914 v 1.653641 h 1.705742 v 1.78095 h -1.676747 v 1.64458 h -48.975425 v -8.493375 l 48.975425,0.0145"
       style="fill:#ffffff;fill-opacity:1;fill-rule:evenodd;stroke:none;stroke-width:0.0453052"
       id="path64" />
    <path
       d="m -93.60018,-80.339488 c 0.492015,0 0.888889,-0.393702 0.888889,-0.888889 0,-0.489296 -0.396874,-0.888889 -0.888889,-0.888889 -0.489523,0 -0.889115,0.399593 -0.889115,0.888889 0,0.495187 0.399592,0.888889 0.889115,0.888889"
       style="fill:#4053ab;fill-opacity:1;fill-rule:evenodd;stroke:none;stroke-width:0.0453052"
       id="path66" />
    <path
       d="m -88.656924,-81.984068 c 0.489297,0 0.886171,-0.396874 0.886171,-0.889342 0,-0.489297 -0.396874,-0.891608 -0.886171,-0.891608 -0.492468,0 -0.889342,0.402311 -0.889342,0.891608 0,0.492468 0.396874,0.889342 0.889342,0.889342"
       style="fill:#4053ab;fill-opacity:1;fill-rule:evenodd;stroke:none;stroke-width:0.0453052"
       id="path68" />
    <path
       d="m -98.601472,-81.984068 c 0.492332,0 0.891789,-0.396874 0.891789,-0.889342 0,-0.489297 -0.399457,-0.891608 -0.891789,-0.891608 -0.489478,0 -0.88608,0.402311 -0.88608,0.891608 0,0.492468 0.396602,0.889342 0.88608,0.889342"
       style="fill:#4053ab;fill-opacity:1;fill-rule:evenodd;stroke:none;stroke-width:0.0453052"
       id="path70" />
    <path
       d="m -85.364139,-83.692529 c 0.492015,0 0.891608,-0.397327 0.891608,-0.886171 0,-0.492468 -0.399593,-0.889342 -0.891608,-0.889342 -0.486578,0 -0.886623,0.396874 -0.886623,0.889342 0,0.488844 0.400045,0.886171 0.886623,0.886171"
       style="fill:#4053ab;fill-opacity:1;fill-rule:evenodd;stroke:none;stroke-width:0.0453052"
       id="path72" />
    <path
       d="m -90.304676,-83.692529 c 0.492468,0 0.888889,-0.397327 0.888889,-0.886171 0,-0.492468 -0.396421,-0.889342 -0.888889,-0.889342 -0.48975,0 -0.889342,0.396874 -0.889342,0.889342 0,0.488844 0.399592,0.886171 0.889342,0.886171"
       style="fill:#4053ab;fill-opacity:1;fill-rule:evenodd;stroke:none;stroke-width:0.0453052"
       id="path74" />
    <path
       d="m -86.977459,-85.337563 c 0.489297,0 0.886171,-0.396874 0.886171,-0.886171 0,-0.492468 -0.396874,-0.89206 -0.886171,-0.89206 -0.492015,0 -0.891607,0.399592 -0.891607,0.89206 0,0.489297 0.399592,0.886171 0.891607,0.886171"
       style="fill:#4053ab;fill-opacity:1;fill-rule:evenodd;stroke:none;stroke-width:0.0453052"
       id="path76" />
    <path
       d="m -96.892784,-85.337563 c 0.489342,0 0.886125,-0.396874 0.886125,-0.886171 0,-0.492468 -0.396783,-0.89206 -0.886125,-0.89206 -0.492514,0 -0.889116,0.399592 -0.889116,0.89206 0,0.489297 0.396602,0.886171 0.889116,0.886171"
       style="fill:#4053ab;fill-opacity:1;fill-rule:evenodd;stroke:none;stroke-width:0.0453052"
       id="path78" />
    <path
       d="m -91.952428,-87.043306 c 0.492015,0 0.888889,-0.396874 0.888889,-0.888889 0,-0.489749 -0.396874,-0.88617 -0.888889,-0.88617 -0.492468,0 -0.888889,0.396421 -0.888889,0.88617 0,0.492015 0.396421,0.888889 0.888889,0.888889"
       style="fill:#4053ab;fill-opacity:1;fill-rule:evenodd;stroke:none;stroke-width:0.0453052"
       id="path80" />
    <path
       d="m -108.35202,-87.043306 c 0.48934,0 0.88612,-0.396874 0.88612,-0.888889 0,-0.489749 -0.39678,-0.88617 -0.88612,-0.88617 -0.49233,0 -0.88608,0.396421 -0.88608,0.88617 0,0.492015 0.39375,0.888889 0.88608,0.888889"
       style="fill:#4053ab;fill-opacity:1;fill-rule:evenodd;stroke:none;stroke-width:0.0453052"
       id="path82" />
    <path
       d="m -80.273188,-81.984068 c 0.492015,0 0.891608,-0.396874 0.891608,-0.889342 0,-0.489297 -0.399593,-0.891608 -0.891608,-0.891608 -0.489296,0 -0.886623,0.402311 -0.886623,0.891608 0,0.492468 0.397327,0.889342 0.886623,0.889342"
       style="fill:#ffffff;fill-opacity:1;fill-rule:evenodd;stroke:none;stroke-width:0.0453052"
       id="path84" />
    <path
       d="m -81.97893,-83.646318 c 0.489296,0 0.888889,-0.399592 0.888889,-0.888889 0,-0.492468 -0.399593,-0.889342 -0.888889,-0.889342 -0.492468,0 -0.889342,0.396874 -0.889342,0.889342 0,0.489297 0.396874,0.888889 0.889342,0.888889"
       style="fill:#ffffff;fill-opacity:1;fill-rule:evenodd;stroke:none;stroke-width:0.0453052"
       id="path86" />
    <path
       d="m -81.949935,-87.043306 c 0.492015,0 0.891607,-0.396874 0.891607,-0.888889 0,-0.489749 -0.399592,-0.88617 -0.891607,-0.88617 -0.492468,0 -0.888889,0.396421 -0.888889,0.88617 0,0.492015 0.396421,0.888889 0.888889,0.888889"
       style="fill:#ffffff;fill-opacity:1;fill-rule:evenodd;stroke:none;stroke-width:0.0453052"
       id="path88" />
    <path
       d="m -81.97893,-80.339488 c 0.489296,0 0.888889,-0.393702 0.888889,-0.888889 0,-0.489296 -0.399593,-0.888889 -0.888889,-0.888889 -0.492468,0 -0.889342,0.399593 -0.889342,0.888889 0,0.495187 0.396874,0.888889 0.889342,0.888889"
       style="fill:#ffffff;fill-opacity:1;fill-rule:evenodd;stroke:none;stroke-width:0.0453052"
       id="path90" />
    <path
       d="m -81.949935,-81.984068 c 0.492015,0 0.891607,-0.396874 0.891607,-0.889342 0,-0.489297 -0.399592,-0.891608 -0.891607,-0.891608 -0.492468,0 -0.888889,0.402311 -0.888889,0.891608 0,0.492468 0.396421,0.889342 0.888889,0.889342"
       style="fill:#4053ab;fill-opacity:1;fill-rule:evenodd;stroke:none;stroke-width:0.0453052"
       id="path92" />
    <path
       d="m -83.687844,-85.337563 c 0.492468,0 0.894778,-0.396874 0.894778,-0.886171 0,-0.492468 -0.40231,-0.89206 -0.894778,-0.89206 -0.489297,0 -0.888436,0.399592 -0.888436,0.89206 0,0.489297 0.399139,0.886171 0.888436,0.886171"
       style="fill:#ffffff;fill-opacity:1;fill-rule:evenodd;stroke:none;stroke-width:0.0453052"
       id="path94" />
    <path
       d="m -83.655678,-80.339488 c 0.492015,0 0.888889,-0.393702 0.888889,-0.888889 0,-0.489296 -0.396874,-0.888889 -0.888889,-0.888889 -0.489749,0 -0.89206,0.399593 -0.89206,0.888889 0,0.495187 0.402311,0.888889 0.89206,0.888889"
       style="fill:#4053ab;fill-opacity:1;fill-rule:evenodd;stroke:none;stroke-width:0.0453052"
       id="path96" />
    <path
       d="m -83.687844,-87.043306 c 0.492468,0 0.894778,-0.396874 0.894778,-0.888889 0,-0.489749 -0.40231,-0.88617 -0.894778,-0.88617 -0.489297,0 -0.888436,0.396421 -0.888436,0.88617 0,0.492015 0.399139,0.888889 0.888436,0.888889"
       style="fill:#4053ab;fill-opacity:1;fill-rule:evenodd;stroke:none;stroke-width:0.0453052"
       id="path98" />
    <path
       d="m -65.490085,-97.106508 c 0.48975,0 0.889343,-0.399592 0.889343,-0.889342 0,-0.492015 -0.399593,-0.888889 -0.889343,-0.888889 -0.488843,0 -0.894778,0.396874 -0.894778,0.888889 0,0.48975 0.405935,0.889342 0.894778,0.889342"
       style="fill:#ffffff;fill-opacity:1;fill-rule:evenodd;stroke:none;stroke-width:0.0453052"
       id="path100" />
    <path
       d="m -130.54625,-93.880321 v 19.260395 h -1.77506 v -19.260395 l 0.003,-0.110092 c -0.0116,-2.626798 2.29077,-4.902934 4.99264,-4.894326 h 0.0522 61.842029 v 1.778231 h -61.992619 c -1.70588,0.01178 -3.11315,1.566656 -3.11614,3.156417 l -0.006,0.06977"
       style="fill:#ffffff;fill-opacity:1;fill-rule:evenodd;stroke:none;stroke-width:0.0453052"
       id="path102" />
    <path
       d="m -135.02033,-70.391859 c 0.48935,0 0.88609,-0.402628 0.88609,-0.891789 0,-0.489523 -0.39674,-0.889115 -0.88609,-0.889115 -0.49234,0 -0.88894,0.399592 -0.88894,0.889115 0,0.489161 0.3966,0.891789 0.88894,0.891789"
       style="fill:#ffffff;fill-opacity:1;fill-rule:evenodd;stroke:none;stroke-width:0.0453052"
       id="path104" />
    <path
       d="m -133.25677,-70.391859 c 0.48649,0 0.88626,-0.402628 0.88626,-0.891789 0,-0.489523 -0.39977,-0.889115 -0.88626,-0.889115 -0.49238,0 -0.88898,0.399592 -0.88898,0.889115 0,0.489161 0.3966,0.891789 0.88898,0.891789"
       style="fill:#ffffff;fill-opacity:1;fill-rule:evenodd;stroke:none;stroke-width:0.0453052"
       id="path106" />
    <path
       d="m -131.52208,-70.391859 c 0.48667,0 0.88608,-0.402628 0.88608,-0.891789 0,-0.489523 -0.39941,-0.889115 -0.88608,-0.889115 -0.49219,0 -0.88911,0.399592 -0.88911,0.889115 0,0.489161 0.39692,0.891789 0.88911,0.891789"
       style="fill:#ffffff;fill-opacity:1;fill-rule:evenodd;stroke:none;stroke-width:0.0453052"
       id="path108" />
    <path
       d="m -129.75554,-70.391859 c 0.48649,0 0.88309,-0.402628 0.88309,-0.891789 0,-0.489523 -0.3966,-0.889115 -0.88309,-0.889115 -0.49233,0 -0.89478,0.399592 -0.89478,0.889115 0,0.489161 0.40245,0.891789 0.89478,0.891789"
       style="fill:#ffffff;fill-opacity:1;fill-rule:evenodd;stroke:none;stroke-width:0.0453052"
       id="path110" />
    <path
       d="m -128.00934,-70.391859 c 0.48935,0 0.88894,-0.402628 0.88894,-0.891789 0,-0.489523 -0.39959,-0.889115 -0.88894,-0.889115 -0.49233,0 -0.88893,0.399592 -0.88893,0.889115 0,0.489161 0.3966,0.891789 0.88893,0.891789"
       style="fill:#ffffff;fill-opacity:1;fill-rule:evenodd;stroke:none;stroke-width:0.0453052"
       id="path112" />
    <path
       d="m -126.24578,-70.391859 c 0.48947,0 0.88608,-0.402628 0.88608,-0.891789 0,-0.489523 -0.39661,-0.889115 -0.88608,-0.889115 -0.48935,0 -0.88912,0.399592 -0.88912,0.889115 0,0.489161 0.39977,0.891789 0.88912,0.891789"
       style="fill:#ffffff;fill-opacity:1;fill-rule:evenodd;stroke:none;stroke-width:0.0453052"
       id="path114" />
    <path
       d="m -124.51109,-70.391859 c 0.4893,0 0.88608,-0.402628 0.88608,-0.891789 0,-0.489523 -0.39678,-0.889115 -0.88608,-0.889115 -0.49238,0 -0.88894,0.399592 -0.88894,0.889115 0,0.489161 0.39656,0.891789 0.88894,0.891789"
       style="fill:#ffffff;fill-opacity:1;fill-rule:evenodd;stroke:none;stroke-width:0.0453052"
       id="path116" />
    <path
       d="m -122.74758,-70.391859 c 0.48952,0 0.8863,-0.402628 0.8863,-0.891789 0,-0.489523 -0.39678,-0.889115 -0.8863,-0.889115 -0.49234,0 -0.88894,0.399592 -0.88894,0.889115 0,0.489161 0.3966,0.891789 0.88894,0.891789"
       style="fill:#ffffff;fill-opacity:1;fill-rule:evenodd;stroke:none;stroke-width:0.0453052"
       id="path118" />
    <path
       d="m -121.01289,-70.391859 c 0.48952,0 0.88612,-0.402628 0.88612,-0.891789 0,-0.489523 -0.3966,-0.889115 -0.88612,-0.889115 -0.49215,0 -0.89193,0.399592 -0.89193,0.889115 0,0.489161 0.39978,0.891789 0.89193,0.891789"
       style="fill:#ffffff;fill-opacity:1;fill-rule:evenodd;stroke:none;stroke-width:0.0453052"
       id="path120" />
    <path
       d="m -119.90663,-69.163861 c 0.48953,0 0.88314,-0.399773 0.88314,-0.892105 0,-0.492332 -0.39361,-0.889116 -0.88314,-0.889116 -0.49215,0 -0.88911,0.396784 -0.88911,0.889116 0,0.492332 0.39696,0.892105 0.88911,0.892105"
       style="fill:#ffffff;fill-opacity:1;fill-rule:evenodd;stroke:none;stroke-width:0.0453052"
       id="path122" />
    <path
       d="m -118.72797,-67.968028 c 0.49234,0 0.88894,-0.399638 0.88894,-0.888935 0,-0.492377 -0.3966,-0.889115 -0.88894,-0.889115 -0.48934,0 -0.88626,0.396738 -0.88626,0.889115 0,0.489297 0.39692,0.888935 0.88626,0.888935"
       style="fill:#ffffff;fill-opacity:1;fill-rule:evenodd;stroke:none;stroke-width:0.0453052"
       id="path124" />
    <path
       d="m -117.59284,-66.725487 c 0.49233,0 0.88911,-0.399819 0.88911,-0.889296 0,-0.492197 -0.39678,-0.888935 -0.88911,-0.888935 -0.48935,0 -0.88613,0.396738 -0.88613,0.888935 0,0.489477 0.39678,0.889296 0.88613,0.889296"
       style="fill:#ffffff;fill-opacity:1;fill-rule:evenodd;stroke:none;stroke-width:0.0453052"
       id="path126" />
    <path
       d="m -118.78582,-65.483353 c 0.4893,0 0.88608,-0.396738 0.88608,-0.889115 0,-0.489297 -0.39678,-0.888934 -0.88608,-0.888934 -0.49233,0 -0.88912,0.399637 -0.88912,0.888934 0,0.492377 0.39679,0.889115 0.88912,0.889115"
       style="fill:#ffffff;fill-opacity:1;fill-rule:evenodd;stroke:none;stroke-width:0.0453052"
       id="path128" />
    <path
       d="m -119.97898,-64.240992 c 0.48649,0 0.88626,-0.396919 0.88626,-0.889116 0,-0.492332 -0.39977,-0.888934 -0.88626,-0.888934 -0.49519,0 -0.89197,0.396602 -0.89197,0.888934 0,0.492197 0.39678,0.889116 0.89197,0.889116"
       style="fill:#ffffff;fill-opacity:1;fill-rule:evenodd;stroke:none;stroke-width:0.0453052"
       id="path130" />
    <path
       d="m -121.1778,-62.995777 c 0.49215,0 0.88608,-0.399638 0.88608,-0.89197 0,-0.489478 -0.39393,-0.88608 -0.88608,-0.88608 -0.49252,0 -0.88631,0.396602 -0.88631,0.88608 0,0.492332 0.39379,0.89197 0.88631,0.89197"
       style="fill:#ffffff;fill-opacity:1;fill-rule:evenodd;stroke:none;stroke-width:0.0453052"
       id="path132" />
    <path
       d="m -122.88368,-62.995777 c 0.49238,0 0.88612,-0.399638 0.88612,-0.89197 0,-0.489478 -0.39374,-0.88608 -0.88612,-0.88608 -0.4893,0 -0.88912,0.396602 -0.88912,0.88608 0,0.492332 0.39982,0.89197 0.88912,0.89197"
       style="fill:#ffffff;fill-opacity:1;fill-rule:evenodd;stroke:none;stroke-width:0.0453052"
       id="path134" />
    <path
       d="m -124.60383,-62.995777 c 0.49233,0 0.88626,-0.399638 0.88626,-0.89197 0,-0.489478 -0.39393,-0.88608 -0.88626,-0.88608 -0.48653,0 -0.88595,0.396602 -0.88595,0.88608 0,0.492332 0.39942,0.89197 0.88595,0.89197"
       style="fill:#ffffff;fill-opacity:1;fill-rule:evenodd;stroke:none;stroke-width:0.0453052"
       id="path136" />
    <path
       d="m -126.30649,-62.995777 c 0.48929,0 0.88893,-0.399638 0.88893,-0.89197 0,-0.489478 -0.39964,-0.88608 -0.88893,-0.88608 -0.4922,0 -0.88912,0.396602 -0.88912,0.88608 0,0.492332 0.39692,0.89197 0.88912,0.89197"
       style="fill:#ffffff;fill-opacity:1;fill-rule:evenodd;stroke:none;stroke-width:0.0453052"
       id="path138" />
    <path
       d="m -128.05573,-62.995777 c 0.49238,0 0.88894,-0.399638 0.88894,-0.89197 0,-0.489478 -0.39656,-0.88608 -0.88894,-0.88608 -0.49233,0 -0.88893,0.396602 -0.88893,0.88608 0,0.492332 0.3966,0.89197 0.88893,0.89197"
       style="fill:#ffffff;fill-opacity:1;fill-rule:evenodd;stroke:none;stroke-width:0.0453052"
       id="path140" />
    <path
       d="m -129.77574,-62.995777 c 0.49219,0 0.89197,-0.399638 0.89197,-0.89197 0,-0.489478 -0.39978,-0.88608 -0.89197,-0.88608 -0.48948,0 -0.88626,0.396602 -0.88626,0.88608 0,0.492332 0.39678,0.89197 0.88626,0.89197"
       style="fill:#ffffff;fill-opacity:1;fill-rule:evenodd;stroke:none;stroke-width:0.0453052"
       id="path142" />
    <path
       d="m -132.41119,-71.283648 h 1.77823 v 13.280464 h -1.77823 v -13.280464"
       style="fill:#ffffff;fill-opacity:1;fill-rule:evenodd;stroke:none;stroke-width:0.0453052"
       id="path144" />
    <path
       d="m -126.30649,-57.11126 c 0.48929,0 0.88893,-0.396738 0.88893,-0.889115 0,-0.492151 -0.39964,-0.889116 -0.88893,-0.889116 -0.4922,0 -0.88912,0.396965 -0.88912,0.889116 0,0.492377 0.39692,0.889115 0.88912,0.889115"
       style="fill:#ffffff;fill-opacity:1;fill-rule:evenodd;stroke:none;stroke-width:0.0453052"
       id="path146" />
    <path
       d="m -128.05573,-57.11126 c 0.49238,0 0.88894,-0.396738 0.88894,-0.889115 0,-0.492151 -0.39656,-0.889116 -0.88894,-0.889116 -0.49233,0 -0.88893,0.396965 -0.88893,0.889116 0,0.492377 0.3966,0.889115 0.88893,0.889115"
       style="fill:#ffffff;fill-opacity:1;fill-rule:evenodd;stroke:none;stroke-width:0.0453052"
       id="path148" />
    <path
       d="m -129.77574,-57.11126 c 0.49219,0 0.89197,-0.396738 0.89197,-0.889115 0,-0.492151 -0.39978,-0.889116 -0.89197,-0.889116 -0.48948,0 -0.88626,0.396965 -0.88626,0.889116 0,0.492377 0.39678,0.889115 0.88626,0.889115"
       style="fill:#ffffff;fill-opacity:1;fill-rule:evenodd;stroke:none;stroke-width:0.0453052"
       id="path150" />
    <path
       d="m -131.52208,-57.11126 c 0.48667,0 0.88608,-0.396738 0.88608,-0.889115 0,-0.492151 -0.39941,-0.889116 -0.88608,-0.889116 -0.49219,0 -0.88911,0.396965 -0.88911,0.889116 0,0.492377 0.39692,0.889115 0.88911,0.889115"
       style="fill:#ffffff;fill-opacity:1;fill-rule:evenodd;stroke:none;stroke-width:0.0453052"
       id="path152" />
    <path
       d="m -133.27113,-57.11126 c 0.48934,0 0.88612,-0.396738 0.88612,-0.889115 0,-0.492151 -0.39678,-0.889116 -0.88612,-0.889116 -0.49252,0 -0.88912,0.396965 -0.88912,0.889116 0,0.492377 0.3966,0.889115 0.88912,0.889115"
       style="fill:#ffffff;fill-opacity:1;fill-rule:evenodd;stroke:none;stroke-width:0.0453052"
       id="path154" />
    <path
       d="m -134.99131,-57.11126 c 0.48932,0 0.88593,-0.396738 0.88593,-0.889115 0,-0.492151 -0.39661,-0.889116 -0.88593,-0.889116 -0.49234,0 -0.88912,0.396965 -0.88912,0.889116 0,0.492377 0.39678,0.889115 0.88912,0.889115"
       style="fill:#ffffff;fill-opacity:1;fill-rule:evenodd;stroke:none;stroke-width:0.0453052"
       id="path156" />
    <path
       d="m -112.53954,-70.391859 c 0.49233,0 0.89192,-0.402628 0.89192,-0.891789 0,-0.489523 -0.39959,-0.889115 -0.89192,-0.889115 -0.48934,0 -0.88613,0.399592 -0.88613,0.889115 0,0.489161 0.39679,0.891789 0.88613,0.891789"
       style="fill:#ffffff;fill-opacity:1;fill-rule:evenodd;stroke:none;stroke-width:0.0453052"
       id="path158" />
    <path
       d="m -110.77585,-70.391859 c 0.49518,0 0.88898,-0.402628 0.88898,-0.891789 0,-0.489523 -0.3938,-0.889115 -0.88898,-0.889115 -0.48649,0 -0.88626,0.399592 -0.88626,0.889115 0,0.489161 0.39977,0.891789 0.88626,0.891789"
       style="fill:#ffffff;fill-opacity:1;fill-rule:evenodd;stroke:none;stroke-width:0.0453052"
       id="path160" />
    <path
       d="m -109.03831,-70.391859 c 0.48935,0 0.88613,-0.402628 0.88613,-0.891789 0,-0.489523 -0.39678,-0.889115 -0.88613,-0.889115 -0.49233,0 -0.89192,0.399592 -0.89192,0.889115 0,0.489161 0.39959,0.891789 0.89192,0.891789"
       style="fill:#ffffff;fill-opacity:1;fill-rule:evenodd;stroke:none;stroke-width:0.0453052"
       id="path162" />
    <path
       d="m -107.27761,-70.391859 c 0.4922,0 0.88912,-0.402628 0.88912,-0.891789 0,-0.489523 -0.39692,-0.889115 -0.88912,-0.889115 -0.48649,0 -0.88608,0.399592 -0.88608,0.889115 0,0.489161 0.39959,0.891789 0.88608,0.891789"
       style="fill:#ffffff;fill-opacity:1;fill-rule:evenodd;stroke:none;stroke-width:0.0453052"
       id="path164" />
    <path
       d="m -105.52575,-70.391859 c 0.49252,0 0.88912,-0.402628 0.88912,-0.891789 0,-0.489523 -0.3966,-0.889115 -0.88912,-0.889115 -0.48916,0 -0.89174,0.399592 -0.89174,0.889115 0,0.489161 0.40258,0.891789 0.89174,0.891789"
       style="fill:#ffffff;fill-opacity:1;fill-rule:evenodd;stroke:none;stroke-width:0.0453052"
       id="path166" />
    <path
       d="m -109.93023,-71.283648 h 1.77519 v 13.280464 h -1.77519 v -13.280464"
       style="fill:#ffffff;fill-opacity:1;fill-rule:evenodd;stroke:none;stroke-width:0.0453052"
       id="path168" />
    <path
       d="m -105.57477,-57.11126 c 0.49519,0 0.88894,-0.396738 0.88894,-0.889115 0,-0.492151 -0.39375,-0.889116 -0.88894,-0.889116 -0.48934,0 -0.88345,0.396965 -0.88345,0.889116 0,0.492377 0.39411,0.889115 0.88345,0.889115"
       style="fill:#ffffff;fill-opacity:1;fill-rule:evenodd;stroke:none;stroke-width:0.0453052"
       id="path170" />
    <path
       d="m -107.28912,-57.11126 c 0.48935,0 0.88613,-0.396738 0.88613,-0.889115 0,-0.492151 -0.39678,-0.889116 -0.88613,-0.889116 -0.49532,0 -0.88911,0.396965 -0.88911,0.889116 0,0.492377 0.39379,0.889115 0.88911,0.889115"
       style="fill:#ffffff;fill-opacity:1;fill-rule:evenodd;stroke:none;stroke-width:0.0453052"
       id="path172" />
    <path
       d="m -109.03831,-57.11126 c 0.48935,0 0.88613,-0.396738 0.88613,-0.889115 0,-0.492151 -0.39678,-0.889116 -0.88613,-0.889116 -0.49233,0 -0.89192,0.396965 -0.89192,0.889116 0,0.492377 0.39959,0.889115 0.89192,0.889115"
       style="fill:#ffffff;fill-opacity:1;fill-rule:evenodd;stroke:none;stroke-width:0.0453052"
       id="path174" />
    <path
       d="m -110.7875,-57.11126 c 0.48948,0 0.88346,-0.396738 0.88346,-0.889115 0,-0.492151 -0.39398,-0.889116 -0.88346,-0.889116 -0.49219,0 -0.88893,0.396965 -0.88893,0.889116 0,0.492377 0.39674,0.889115 0.88893,0.889115"
       style="fill:#ffffff;fill-opacity:1;fill-rule:evenodd;stroke:none;stroke-width:0.0453052"
       id="path176" />
    <path
       d="m -112.50769,-57.11126 c 0.48952,0 0.88612,-0.396738 0.88612,-0.889115 0,-0.492151 -0.3966,-0.889116 -0.88612,-0.889116 -0.49215,0 -0.88595,0.396965 -0.88595,0.889116 0,0.492377 0.3938,0.889115 0.88595,0.889115"
       style="fill:#ffffff;fill-opacity:1;fill-rule:evenodd;stroke:none;stroke-width:0.0453052"
       id="path178" />
    <path
       d="m -100.31016,-70.391859 c 0.495368,0 0.89197,-0.402628 0.89197,-0.891789 0,-0.489523 -0.396602,-0.889115 -0.89197,-0.889115 -0.4893,0 -0.88608,0.399592 -0.88608,0.889115 0,0.489161 0.39678,0.891789 0.88608,0.891789"
       style="fill:#ffffff;fill-opacity:1;fill-rule:evenodd;stroke:none;stroke-width:0.0453052"
       id="path180" />
    <path
       d="m -98.540582,-70.391859 c 0.489161,0 0.886126,-0.402628 0.886126,-0.891789 0,-0.489523 -0.396965,-0.889115 -0.886126,-0.889115 -0.492332,0 -0.891969,0.399592 -0.891969,0.889115 0,0.489161 0.399637,0.891789 0.891969,0.891789"
       style="fill:#ffffff;fill-opacity:1;fill-rule:evenodd;stroke:none;stroke-width:0.0453052"
       id="path182" />
    <path
       d="m -96.802899,-70.391859 c 0.489161,0 0.888617,-0.402628 0.888617,-0.891789 0,-0.489523 -0.399456,-0.889115 -0.888617,-0.889115 -0.492513,0 -0.892287,0.399592 -0.892287,0.889115 0,0.489161 0.399774,0.891789 0.892287,0.891789"
       style="fill:#ffffff;fill-opacity:1;fill-rule:evenodd;stroke:none;stroke-width:0.0453052"
       id="path184" />
    <path
       d="m -95.039528,-70.391859 c 0.498177,0 0.891789,-0.402628 0.891789,-0.891789 0,-0.489523 -0.393612,-0.889115 -0.891789,-0.889115 -0.492513,0 -0.88608,0.399592 -0.88608,0.889115 0,0.489161 0.393567,0.891789 0.88608,0.891789"
       style="fill:#ffffff;fill-opacity:1;fill-rule:evenodd;stroke:none;stroke-width:0.0453052"
       id="path186" />
    <path
       d="m -97.695186,-71.283648 h 1.778231 v 13.280464 h -1.778231 v -13.280464"
       style="fill:#ffffff;fill-opacity:1;fill-rule:evenodd;stroke:none;stroke-width:0.0453052"
       id="path188" />
    <path
       d="m -95.054207,-57.11126 c 0.492514,0 0.892151,-0.396738 0.892151,-0.889115 0,-0.492151 -0.399637,-0.889116 -0.892151,-0.889116 -0.492151,0 -0.88608,0.396965 -0.88608,0.889116 0,0.492377 0.393929,0.889115 0.88608,0.889115"
       style="fill:#ffffff;fill-opacity:1;fill-rule:evenodd;stroke:none;stroke-width:0.0453052"
       id="path190" />
    <path
       d="m -96.802899,-57.11126 c 0.489161,0 0.888617,-0.396738 0.888617,-0.889115 0,-0.492151 -0.399456,-0.889116 -0.888617,-0.889116 -0.492513,0 -0.892287,0.396965 -0.892287,0.889116 0,0.492377 0.399774,0.889115 0.892287,0.889115"
       style="fill:#ffffff;fill-opacity:1;fill-rule:evenodd;stroke:none;stroke-width:0.0453052"
       id="path192" />
    <path
       d="m -98.555079,-57.11126 c 0.489296,0 0.88608,-0.396738 0.88608,-0.889115 0,-0.492151 -0.396784,-0.889116 -0.88608,-0.889116 -0.492378,0 -0.889116,0.396965 -0.889116,0.889116 0,0.492377 0.396738,0.889115 0.889116,0.889115"
       style="fill:#ffffff;fill-opacity:1;fill-rule:evenodd;stroke:none;stroke-width:0.0453052"
       id="path194" />
    <path
       d="m -100.27826,-57.11126 c 0.492328,0 0.889111,-0.396738 0.889111,-0.889115 0,-0.492151 -0.396783,-0.889116 -0.889111,-0.889116 -0.49238,0 -0.88898,0.396965 -0.88898,0.889116 0,0.492377 0.3966,0.889115 0.88898,0.889115"
       style="fill:#ffffff;fill-opacity:1;fill-rule:evenodd;stroke:none;stroke-width:0.0453052"
       id="path196" />
    <path
       d="m -85.6627,-70.391859 c 0.489297,0 0.888889,-0.402628 0.888889,-0.891789 0,-0.489523 -0.399592,-0.889115 -0.888889,-0.889115 -0.492468,0 -0.888889,0.399592 -0.888889,0.889115 0,0.489161 0.396421,0.891789 0.888889,0.891789"
       style="fill:#ffffff;fill-opacity:1;fill-rule:evenodd;stroke:none;stroke-width:0.0453052"
       id="path198" />
    <path
       d="m -83.895795,-70.391859 c 0.492015,0 0.888889,-0.402628 0.888889,-0.891789 0,-0.489523 -0.396874,-0.889115 -0.888889,-0.889115 -0.48975,0 -0.886171,0.399592 -0.886171,0.889115 0,0.489161 0.396421,0.891789 0.886171,0.891789"
       style="fill:#ffffff;fill-opacity:1;fill-rule:evenodd;stroke:none;stroke-width:0.0453052"
       id="path200" />
    <path
       d="m -82.155621,-70.391859 c 0.489297,0 0.886171,-0.402628 0.886171,-0.891789 0,-0.489523 -0.396874,-0.889115 -0.886171,-0.889115 -0.495186,0 -0.894778,0.399592 -0.894778,0.889115 0,0.489161 0.399592,0.891789 0.894778,0.891789"
       style="fill:#ffffff;fill-opacity:1;fill-rule:evenodd;stroke:none;stroke-width:0.0453052"
       id="path202" />
    <path
       d="m -80.391887,-70.391859 c 0.492015,0 0.888889,-0.402628 0.888889,-0.891789 0,-0.489523 -0.396874,-0.889115 -0.888889,-0.889115 -0.492468,0 -0.889342,0.399592 -0.889342,0.889115 0,0.489161 0.396874,0.891789 0.889342,0.891789"
       style="fill:#ffffff;fill-opacity:1;fill-rule:evenodd;stroke:none;stroke-width:0.0453052"
       id="path204" />
    <path
       d="m -78.637215,-70.391859 c 0.486578,0 0.886171,-0.402628 0.886171,-0.891789 0,-0.489523 -0.399593,-0.889115 -0.886171,-0.889115 -0.495186,0 -0.891607,0.399592 -0.891607,0.889115 0,0.489161 0.396421,0.891789 0.891607,0.891789"
       style="fill:#ffffff;fill-opacity:1;fill-rule:evenodd;stroke:none;stroke-width:0.0453052"
       id="path206" />
    <path
       d="m -83.050399,-71.283648 h 1.780949 v 13.280464 h -1.780949 v -13.280464"
       style="fill:#ffffff;fill-opacity:1;fill-rule:evenodd;stroke:none;stroke-width:0.0453052"
       id="path208" />
    <path
       d="m -82.155621,-57.11126 c 0.489297,0 0.886171,-0.396738 0.886171,-0.889115 0,-0.492151 -0.396874,-0.889116 -0.886171,-0.889116 -0.495186,0 -0.894778,0.396965 -0.894778,0.889116 0,0.492377 0.399592,0.889115 0.894778,0.889115"
       style="fill:#ffffff;fill-opacity:1;fill-rule:evenodd;stroke:none;stroke-width:0.0453052"
       id="path210" />
    <path
       d="m -83.907575,-57.11126 c 0.486579,0 0.886171,-0.396738 0.886171,-0.889115 0,-0.492151 -0.399592,-0.889116 -0.886171,-0.889116 -0.492468,0 -0.89206,0.396965 -0.89206,0.889116 0,0.492377 0.399592,0.889115 0.89206,0.889115"
       style="fill:#ffffff;fill-opacity:1;fill-rule:evenodd;stroke:none;stroke-width:0.0453052"
       id="path212" />
    <path
       d="m -93.959451,-69.045297 c 0.489297,0 0.889342,-0.399592 0.889342,-0.891924 0,-0.489342 -0.400045,-0.888934 -0.889342,-0.888934 -0.492151,0 -0.888934,0.399592 -0.888934,0.888934 0,0.492332 0.396783,0.891924 0.888934,0.891924"
       style="fill:#ffffff;fill-opacity:1;fill-rule:evenodd;stroke:none;stroke-width:0.0453052"
       id="path214" />
    <path
       d="m -92.824101,-67.727729 c 0.495186,0 0.894326,-0.399593 0.894326,-0.888935 0,-0.492332 -0.39914,-0.891924 -0.894326,-0.891924 -0.489297,0 -0.886171,0.399592 -0.886171,0.891924 0,0.489342 0.396874,0.888935 0.886171,0.888935"
       style="fill:#ffffff;fill-opacity:1;fill-rule:evenodd;stroke:none;stroke-width:0.0453052"
       id="path216" />
    <path
       d="m -91.683315,-66.410162 c 0.492468,0 0.892061,-0.396738 0.892061,-0.888934 0,-0.489297 -0.399593,-0.889116 -0.892061,-0.889116 -0.489297,0 -0.888889,0.399819 -0.888889,0.889116 0,0.492196 0.399592,0.888934 0.888889,0.888934"
       style="fill:#ffffff;fill-opacity:1;fill-rule:evenodd;stroke:none;stroke-width:0.0453052"
       id="path218" />
    <path
       d="m -90.605956,-65.092232 c 0.492468,0 0.89206,-0.399774 0.89206,-0.889297 0,-0.49496 -0.399592,-0.888934 -0.89206,-0.888934 -0.492015,0 -0.889342,0.393974 -0.889342,0.888934 0,0.489523 0.397327,0.889297 0.889342,0.889297"
       style="fill:#ffffff;fill-opacity:1;fill-rule:evenodd;stroke:none;stroke-width:0.0453052"
       id="path220" />
    <path
       d="m -89.496883,-63.774846 c 0.489296,0 0.89206,-0.399593 0.89206,-0.888935 0,-0.492332 -0.402764,-0.889115 -0.89206,-0.889115 -0.492015,0 -0.888889,0.396783 -0.888889,0.889115 0,0.489342 0.396874,0.888935 0.888889,0.888935"
       style="fill:#ffffff;fill-opacity:1;fill-rule:evenodd;stroke:none;stroke-width:0.0453052"
       id="path222" />
    <path
       d="m -88.355644,-62.454244 c 0.486578,0 0.888889,-0.399592 0.888889,-0.891969 0,-0.489297 -0.402311,-0.889116 -0.888889,-0.889116 -0.492468,0 -0.892061,0.399819 -0.892061,0.889116 0,0.492377 0.399593,0.891969 0.892061,0.891969"
       style="fill:#ffffff;fill-opacity:1;fill-rule:evenodd;stroke:none;stroke-width:0.0453052"
       id="path224" />
    <path
       d="m -87.247025,-61.136495 c 0.48975,0 0.889342,-0.402447 0.889342,-0.892151 0,-0.492151 -0.399592,-0.888934 -0.889342,-0.888934 -0.492015,0 -0.894778,0.396783 -0.894778,0.888934 0,0.489704 0.402763,0.892151 0.894778,0.892151"
       style="fill:#ffffff;fill-opacity:1;fill-rule:evenodd;stroke:none;stroke-width:0.0453052"
       id="path226" />
    <path
       d="m -86.143389,-59.821782 c 0.492468,0 0.892061,-0.399592 0.892061,-0.889116 0,-0.492332 -0.399593,-0.889115 -0.892061,-0.889115 -0.486125,0 -0.888889,0.396783 -0.888889,0.889115 0,0.489524 0.402764,0.889116 0.888889,0.889116"
       style="fill:#ffffff;fill-opacity:1;fill-rule:evenodd;stroke:none;stroke-width:0.0453052"
       id="path228" />
    <path
       d="m -85.031145,-58.475355 c 0.486125,0 0.888889,-0.393748 0.888889,-0.888935 0,-0.489523 -0.402764,-0.889115 -0.888889,-0.889115 -0.492468,0 -0.89206,0.399592 -0.89206,0.889115 0,0.495187 0.399592,0.888935 0.89206,0.888935"
       style="fill:#ffffff;fill-opacity:1;fill-rule:evenodd;stroke:none;stroke-width:0.0453052"
       id="path230" />
    <path
       d="m -114.27124,-57.11126 c 0.48952,0 0.88911,-0.396738 0.88911,-0.889115 0,-0.492151 -0.39959,-0.889116 -0.88911,-0.889116 -0.48935,0 -0.88912,0.396965 -0.88912,0.889116 0,0.492377 0.39977,0.889115 0.88912,0.889115"
       style="fill:#ffffff;fill-opacity:1;fill-rule:evenodd;stroke:none;stroke-width:0.0453052"
       id="path232" />
    <path
       d="m -58.886844,-77.040813 c 0.488843,0 0.888889,-0.399592 0.888889,-0.89206 0,-0.489297 -0.400046,-0.888889 -0.888889,-0.888889 -0.492468,0 -0.892061,0.399592 -0.892061,0.888889 0,0.492468 0.399593,0.89206 0.892061,0.89206"
       style="fill:#ffffff;fill-opacity:1;fill-rule:evenodd;stroke:none;stroke-width:0.0453052"
       id="path234" />
    <path
       d="m -130.56079,-54.644072 c 0,-0.494959 -0.39941,-0.889115 -0.88894,-0.889115 -0.4863,0 -0.88608,0.394156 -0.88608,0.889115 0,2.476068 2.07643,3.97608 4.54947,4.048659 h 0.0173 64.714566 0.04938 c 2.713332,0.0057 5.012573,-2.267755 5.003965,-4.894236 l 0.0032,-0.109865 v -22.38546 h -1.78095 v 22.38546 0.06954 c -0.0059,1.589761 -1.416242,3.144637 -3.124703,3.156326 h -64.865428 v 0.0058 c -1.56371,-0.06673 -2.7599,-0.706671 -2.79438,-2.276272 h 0.003"
       style="fill:#ffffff;fill-opacity:1;fill-rule:evenodd;stroke:none;stroke-width:0.0453052"
       id="path236" />
    <path
       d="m -55.533803,-90.882926 c 0.222902,0 0.405482,-0.183033 0.405482,-0.402763 0,-0.222902 -0.18258,-0.402764 -0.405482,-0.402764 -0.22562,0 -0.399592,0.179862 -0.399592,0.402764 0,0.21973 0.173972,0.402763 0.399592,0.402763"
       style="fill:#ffffff;fill-opacity:1;fill-rule:evenodd;stroke:none;stroke-width:0.0453052"
       id="path238" />
    <path
       d="m -55.533803,-94.178882 c 0.222902,0 0.405482,-0.179409 0.405482,-0.402764 0,-0.222902 -0.18258,-0.399139 -0.405482,-0.399139 -0.22562,0 -0.399592,0.176237 -0.399592,0.399139 0,0.223355 0.173972,0.402764 0.399592,0.402764"
       style="fill:#ffffff;fill-opacity:1;fill-rule:evenodd;stroke:none;stroke-width:0.0453052"
       id="path240" />
    <path
       d="m -55.533803,-97.532377 c 0.222902,0 0.405482,-0.179409 0.405482,-0.402311 0,-0.222902 -0.18258,-0.400045 -0.405482,-0.400045 -0.22562,0 -0.399592,0.177143 -0.399592,0.400045 0,0.222902 0.173972,0.402311 0.399592,0.402311"
       style="fill:#ffffff;fill-opacity:1;fill-rule:evenodd;stroke:none;stroke-width:0.0453052"
       id="path242" />
    <path
       d="m -58.886844,-97.532377 c 0.21973,0 0.40231,-0.179409 0.40231,-0.402311 0,-0.222902 -0.18258,-0.400045 -0.40231,-0.400045 -0.223355,0 -0.402764,0.177143 -0.402764,0.400045 0,0.222902 0.179409,0.402311 0.402764,0.402311"
       style="fill:#ffffff;fill-opacity:1;fill-rule:evenodd;stroke:none;stroke-width:0.0453052"
       id="path244" />
    <path
       d="m -55.533803,-100.93208 c 0.222902,0 0.405482,-0.17941 0.405482,-0.40231 0,-0.22608 -0.18258,-0.40277 -0.405482,-0.40277 -0.22562,0 -0.399592,0.17669 -0.399592,0.40277 0,0.2229 0.173972,0.40231 0.399592,0.40231"
       style="fill:#ffffff;fill-opacity:1;fill-rule:evenodd;stroke:none;stroke-width:0.0453052"
       id="path246" />
    <path
       d="m -58.886844,-100.93208 c 0.21973,0 0.40231,-0.17941 0.40231,-0.40231 0,-0.22608 -0.18258,-0.40277 -0.40231,-0.40277 -0.223355,0 -0.402764,0.17669 -0.402764,0.40277 0,0.2229 0.179409,0.40231 0.402764,0.40231"
       style="fill:#ffffff;fill-opacity:1;fill-rule:evenodd;stroke:none;stroke-width:0.0453052"
       id="path248" />
    <path
       d="m -62.182801,-100.93208 c 0.222902,0 0.405482,-0.17941 0.405482,-0.40231 0,-0.22608 -0.18258,-0.40277 -0.405482,-0.40277 -0.219731,0 -0.399593,0.17669 -0.399593,0.40277 0,0.2229 0.179862,0.40231 0.399593,0.40231"
       style="fill:#ffffff;fill-opacity:1;fill-rule:evenodd;stroke:none;stroke-width:0.0453052"
       id="path250" />
    <path
       d="m -65.431641,-100.93208 c 0.22562,0 0.399593,-0.17941 0.399593,-0.40231 0,-0.22608 -0.173973,-0.40277 -0.399593,-0.40277 -0.223355,0 -0.400045,0.17669 -0.400045,0.40277 0,0.2229 0.17669,0.40231 0.400045,0.40231"
       style="fill:#ffffff;fill-opacity:1;fill-rule:evenodd;stroke:none;stroke-width:0.0453052"
       id="path252" />
    <path
       d="m -68.785135,-100.93208 c 0.222901,0 0.40231,-0.17941 0.40231,-0.40231 0,-0.22608 -0.179409,-0.40277 -0.40231,-0.40277 -0.226074,0 -0.402764,0.17669 -0.402764,0.40277 0,0.2229 0.17669,0.40231 0.402764,0.40231"
       style="fill:#ffffff;fill-opacity:1;fill-rule:evenodd;stroke:none;stroke-width:0.0453052"
       id="path254" />
    <path
       d="m -72.081092,-100.93208 c 0.223355,0 0.402763,-0.17941 0.402763,-0.40231 0,-0.22608 -0.179408,-0.40277 -0.402763,-0.40277 -0.220184,0 -0.402311,0.17669 -0.402311,0.40277 0,0.2229 0.182127,0.40231 0.402311,0.40231"
       style="fill:#ffffff;fill-opacity:1;fill-rule:evenodd;stroke:none;stroke-width:0.0453052"
       id="path256" />
    <path
       d="m -75.329932,-100.93208 c 0.222902,0 0.399593,-0.17941 0.399593,-0.40231 0,-0.22608 -0.176691,-0.40277 -0.399593,-0.40277 -0.220183,0 -0.399592,0.17669 -0.399592,0.40277 0,0.2229 0.179409,0.40231 0.399592,0.40231"
       style="fill:#ffffff;fill-opacity:1;fill-rule:evenodd;stroke:none;stroke-width:0.0453052"
       id="path258" />
    <path
       d="m -78.683426,-100.93208 c 0.222901,0 0.399592,-0.17941 0.399592,-0.40231 0,-0.22608 -0.176691,-0.40277 -0.399592,-0.40277 -0.223355,0 -0.402311,0.17669 -0.402311,0.40277 0,0.2229 0.178956,0.40231 0.402311,0.40231"
       style="fill:#ffffff;fill-opacity:1;fill-rule:evenodd;stroke:none;stroke-width:0.0453052"
       id="path260" />
    <path
       d="m -81.97893,-100.93208 c 0.222902,0 0.40231,-0.17941 0.40231,-0.40231 0,-0.22608 -0.179408,-0.40277 -0.40231,-0.40277 -0.220184,0 -0.402764,0.17669 -0.402764,0.40277 0,0.2229 0.18258,0.40231 0.402764,0.40231"
       style="fill:#ffffff;fill-opacity:1;fill-rule:evenodd;stroke:none;stroke-width:0.0453052"
       id="path262" />
    <path
       d="m -85.228223,-100.93208 c 0.222902,0 0.402764,-0.17941 0.402764,-0.40231 0,-0.22608 -0.179862,-0.40277 -0.402764,-0.40277 -0.222902,0 -0.40231,0.17669 -0.40231,0.40277 0,0.2229 0.179408,0.40231 0.40231,0.40231"
       style="fill:#ffffff;fill-opacity:1;fill-rule:evenodd;stroke:none;stroke-width:0.0453052"
       id="path264" />
    <path
       d="m -88.581717,-100.93208 c 0.223354,0 0.399592,-0.17941 0.399592,-0.40231 0,-0.22608 -0.176238,-0.40277 -0.399592,-0.40277 -0.222902,0 -0.405482,0.17669 -0.405482,0.40277 0,0.2229 0.18258,0.40231 0.405482,0.40231"
       style="fill:#ffffff;fill-opacity:1;fill-rule:evenodd;stroke:none;stroke-width:0.0453052"
       id="path266" />
    <path
       d="m -91.877221,-100.93208 c 0.222902,0 0.40231,-0.17941 0.40231,-0.40231 0,-0.22608 -0.179408,-0.40277 -0.40231,-0.40277 -0.222902,0 -0.402764,0.17669 -0.402764,0.40277 0,0.2229 0.179862,0.40231 0.402764,0.40231"
       style="fill:#ffffff;fill-opacity:1;fill-rule:evenodd;stroke:none;stroke-width:0.0453052"
       id="path268" />
    <path
       d="m -95.155237,-100.93208 c 0.219957,0 0.399592,-0.17941 0.399592,-0.40231 0,-0.22608 -0.179635,-0.40277 -0.399592,-0.40277 -0.223174,0 -0.405618,0.17669 -0.405618,0.40277 0,0.2229 0.182444,0.40231 0.405618,0.40231"
       style="fill:#ffffff;fill-opacity:1;fill-rule:evenodd;stroke:none;stroke-width:0.0453052"
       id="path270" />
    <path
       d="m -98.511722,-100.93208 c 0.222992,0 0.405618,-0.17941 0.405618,-0.40231 0,-0.22608 -0.182626,-0.40277 -0.405618,-0.40277 -0.220002,0 -0.405301,0.17669 -0.405301,0.40277 0,0.2229 0.185299,0.40231 0.405301,0.40231"
       style="fill:#ffffff;fill-opacity:1;fill-rule:evenodd;stroke:none;stroke-width:0.0453052"
       id="path272" />
    <path
       d="m -101.80451,-100.93208 c 0.22014,0 0.39978,-0.17941 0.39978,-0.40231 0,-0.22608 -0.17964,-0.40277 -0.39978,-0.40277 -0.21995,0 -0.39923,0.17669 -0.39923,0.40277 0,0.2229 0.17928,0.40231 0.39923,0.40231"
       style="fill:#ffffff;fill-opacity:1;fill-rule:evenodd;stroke:none;stroke-width:0.0453052"
       id="path274" />
    <path
       d="m -105.04773,-100.93208 c 0.22014,0 0.39959,-0.17941 0.39959,-0.40231 0,-0.22608 -0.17945,-0.40277 -0.39959,-0.40277 -0.22014,0 -0.40263,0.17669 -0.40263,0.40277 0,0.2229 0.18249,0.40231 0.40263,0.40231"
       style="fill:#ffffff;fill-opacity:1;fill-rule:evenodd;stroke:none;stroke-width:0.0453052"
       id="path276" />
    <path
       d="m -108.26227,-100.93208 c 0.22032,0 0.40263,-0.17941 0.40263,-0.40231 0,-0.22608 -0.18231,-0.40277 -0.40263,-0.40277 -0.22001,0 -0.40245,0.17669 -0.40245,0.40277 0,0.2229 0.18244,0.40231 0.40245,0.40231"
       style="fill:#ffffff;fill-opacity:1;fill-rule:evenodd;stroke:none;stroke-width:0.0453052"
       id="path278" />
    <path
       d="m -114.89682,-100.93208 c 0.22014,0 0.39977,-0.17941 0.39977,-0.40231 0,-0.22608 -0.17963,-0.40277 -0.39977,-0.40277 -0.22281,0 -0.40829,0.17669 -0.40829,0.40277 0,0.2229 0.18548,0.40231 0.40829,0.40231"
       style="fill:#ffffff;fill-opacity:1;fill-rule:evenodd;stroke:none;stroke-width:0.0453052"
       id="path280" />
    <path
       d="m -118.14308,-100.93208 c 0.22019,0 0.40263,-0.17941 0.40263,-0.40231 0,-0.22608 -0.18244,-0.40277 -0.40263,-0.40277 -0.22299,0 -0.40244,0.17669 -0.40244,0.40277 0,0.2229 0.17945,0.40231 0.40244,0.40231"
       style="fill:#ffffff;fill-opacity:1;fill-rule:evenodd;stroke:none;stroke-width:0.0453052"
       id="path282" />
    <path
       d="m -121.50785,-100.93208 c 0.22281,0 0.40525,-0.17941 0.40525,-0.40231 0,-0.22608 -0.18244,-0.40277 -0.40525,-0.40277 -0.22019,0 -0.39982,0.17669 -0.39982,0.40277 0,0.2229 0.17963,0.40231 0.39982,0.40231"
       style="fill:#ffffff;fill-opacity:1;fill-rule:evenodd;stroke:none;stroke-width:0.0453052"
       id="path284" />
    <path
       d="m -124.85568,-100.93208 c 0.22299,0 0.39945,-0.17941 0.39945,-0.40231 0,-0.22608 -0.17646,-0.40277 -0.39945,-0.40277 -0.223,0 -0.40245,0.17669 -0.40245,0.40277 0,0.2229 0.17945,0.40231 0.40245,0.40231"
       style="fill:#ffffff;fill-opacity:1;fill-rule:evenodd;stroke:none;stroke-width:0.0453052"
       id="path286" />
    <path
       d="m -128.14262,-100.93208 c 0.21714,0 0.39963,-0.17941 0.39963,-0.40231 0,-0.22608 -0.18249,-0.40277 -0.39963,-0.40277 -0.223,0 -0.40544,0.17669 -0.40544,0.40277 0,0.2229 0.18244,0.40231 0.40544,0.40231"
       style="fill:#ffffff;fill-opacity:1;fill-rule:evenodd;stroke:none;stroke-width:0.0453052"
       id="path288" />
    <path
       d="m -131.38884,-100.93208 c 0.223,0 0.40245,-0.17941 0.40245,-0.40231 0,-0.22608 -0.17945,-0.40277 -0.40245,-0.40277 -0.21995,0 -0.39977,0.17669 -0.39977,0.40277 0,0.2229 0.17982,0.40231 0.39977,0.40231"
       style="fill:#ffffff;fill-opacity:1;fill-rule:evenodd;stroke:none;stroke-width:0.0453052"
       id="path290" />
    <path
       d="m -131.38884,-97.639297 c 0.223,0 0.40245,-0.176691 0.40245,-0.399593 0,-0.223355 -0.17945,-0.402763 -0.40245,-0.402763 -0.21995,0 -0.39977,0.179408 -0.39977,0.402763 0,0.222902 0.17982,0.399593 0.39977,0.399593"
       style="fill:#ffffff;fill-opacity:1;fill-rule:evenodd;stroke:none;stroke-width:0.0453052"
       id="path292" />
    <path
       d="m -134.82354,-100.93208 c 0.22016,0 0.39694,-0.17941 0.39694,-0.40231 0,-0.22608 -0.17678,-0.40277 -0.39694,-0.40277 -0.22281,0 -0.40545,0.17669 -0.40545,0.40277 0,0.2229 0.18264,0.40231 0.40545,0.40231"
       style="fill:#ffffff;fill-opacity:1;fill-rule:evenodd;stroke:none;stroke-width:0.0453052"
       id="path294" />
    <path
       d="m -134.82354,-97.639297 c 0.22016,0 0.39694,-0.176691 0.39694,-0.399593 0,-0.223355 -0.17678,-0.402763 -0.39694,-0.402763 -0.22281,0 -0.40545,0.179408 -0.40545,0.402763 0,0.222902 0.18264,0.399593 0.40545,0.399593"
       style="fill:#ffffff;fill-opacity:1;fill-rule:evenodd;stroke:none;stroke-width:0.0453052"
       id="path296" />
    <path
       d="m -111.52303,-100.93208 c 0.22299,0 0.40263,-0.17941 0.40263,-0.40231 0,-0.22608 -0.17964,-0.40277 -0.40263,-0.40277 -0.21995,0 -0.39977,0.17669 -0.39977,0.40277 0,0.2229 0.17982,0.40231 0.39977,0.40231"
       style="fill:#ffffff;fill-opacity:1;fill-rule:evenodd;stroke:none;stroke-width:0.0453052"
       id="path298" />
    <path
       d="m -134.82354,-94.222376 c 0.22016,0 0.39694,-0.182127 0.39694,-0.40231 0,-0.223355 -0.17678,-0.405482 -0.39694,-0.405482 -0.22281,0 -0.40545,0.182127 -0.40545,0.405482 0,0.220183 0.18264,0.40231 0.40545,0.40231"
       style="fill:#ffffff;fill-opacity:1;fill-rule:evenodd;stroke:none;stroke-width:0.0453052"
       id="path300" />
    <path
       d="m -134.82354,-90.932308 c 0.22016,0 0.39694,-0.176691 0.39694,-0.399593 0,-0.223354 -0.17678,-0.400045 -0.39694,-0.400045 -0.22281,0 -0.40545,0.176691 -0.40545,0.400045 0,0.222902 0.18264,0.399593 0.40545,0.399593"
       style="fill:#ffffff;fill-opacity:1;fill-rule:evenodd;stroke:none;stroke-width:0.0453052"
       id="path302" />
    <path
       d="m -134.82354,-87.515386 c 0.22016,0 0.39694,-0.179409 0.39694,-0.402764 0,-0.21973 -0.17678,-0.399592 -0.39694,-0.399592 -0.22281,0 -0.40545,0.179862 -0.40545,0.399592 0,0.223355 0.18264,0.402764 0.40545,0.402764"
       style="fill:#ffffff;fill-opacity:1;fill-rule:evenodd;stroke:none;stroke-width:0.0453052"
       id="path304" />
    <path
       d="m -134.82354,-84.222601 c 0.22016,0 0.39694,-0.18258 0.39694,-0.405482 0,-0.217012 -0.17678,-0.399592 -0.39694,-0.399592 -0.22281,0 -0.40545,0.18258 -0.40545,0.399592 0,0.222902 0.18264,0.405482 0.40545,0.405482"
       style="fill:#ffffff;fill-opacity:1;fill-rule:evenodd;stroke:none;stroke-width:0.0453052"
       id="path306" />
    <path
       d="m -134.82354,-80.811568 c 0.22016,0 0.39694,-0.176238 0.39694,-0.399593 0,-0.22562 -0.17678,-0.40231 -0.39694,-0.40231 -0.22281,0 -0.40545,0.17669 -0.40545,0.40231 0,0.223355 0.18264,0.399593 0.40545,0.399593"
       style="fill:#ffffff;fill-opacity:1;fill-rule:evenodd;stroke:none;stroke-width:0.0453052"
       id="path308" />
    <path
       d="m -134.82354,-77.515612 c 0.22016,0 0.39694,-0.177143 0.39694,-0.399592 0,-0.223355 -0.17678,-0.402764 -0.39694,-0.402764 -0.22281,0 -0.40545,0.179409 -0.40545,0.402764 0,0.222449 0.18264,0.399592 0.40545,0.399592"
       style="fill:#ffffff;fill-opacity:1;fill-rule:evenodd;stroke:none;stroke-width:0.0453052"
       id="path310" />
    <path
       d="m -134.82354,-74.217344 c 0.22016,0 0.39694,-0.182444 0.39694,-0.405618 0,-0.219957 -0.17678,-0.402446 -0.39694,-0.402446 -0.22281,0 -0.40545,0.182489 -0.40545,0.402446 0,0.223174 0.18264,0.405618 0.40545,0.405618"
       style="fill:#ffffff;fill-opacity:1;fill-rule:evenodd;stroke:none;stroke-width:0.0453052"
       id="path312" />
    <path
       d="m -55.533803,-47.581028 c 0.222902,0 0.405482,-0.179273 0.405482,-0.402628 0,-0.219957 -0.18258,-0.399411 -0.405482,-0.399411 -0.22562,0 -0.399592,0.179454 -0.399592,0.399411 0,0.223355 0.173972,0.402628 0.399592,0.402628"
       style="fill:#ffffff;fill-opacity:1;fill-rule:evenodd;stroke:none;stroke-width:0.0453052"
       id="path314" />
    <path
       d="m -58.886844,-47.581028 c 0.21973,0 0.40231,-0.179273 0.40231,-0.402628 0,-0.219957 -0.18258,-0.399411 -0.40231,-0.399411 -0.223355,0 -0.402764,0.179454 -0.402764,0.399411 0,0.223355 0.179409,0.402628 0.402764,0.402628"
       style="fill:#ffffff;fill-opacity:1;fill-rule:evenodd;stroke:none;stroke-width:0.0453052"
       id="path316" />
    <path
       d="m -55.533803,-50.977699 c 0.222902,0 0.405482,-0.182625 0.405482,-0.402582 0,-0.222993 -0.18258,-0.405482 -0.405482,-0.405482 -0.22562,0 -0.399592,0.182489 -0.399592,0.405482 0,0.219957 0.173972,0.402582 0.399592,0.402582"
       style="fill:#ffffff;fill-opacity:1;fill-rule:evenodd;stroke:none;stroke-width:0.0453052"
       id="path318" />
    <path
       d="m -58.886844,-50.977699 c 0.21973,0 0.40231,-0.182625 0.40231,-0.402582 0,-0.222993 -0.18258,-0.405482 -0.40231,-0.405482 -0.223355,0 -0.402764,0.182489 -0.402764,0.405482 0,0.219957 0.179409,0.402582 0.402764,0.402582"
       style="fill:#ffffff;fill-opacity:1;fill-rule:evenodd;stroke:none;stroke-width:0.0453052"
       id="path320" />
    <path
       d="m -55.533803,-54.227082 c 0.222902,0 0.405482,-0.182127 0.405482,-0.405301 0,-0.222992 -0.18258,-0.402582 -0.405482,-0.402582 -0.22562,0 -0.399592,0.17959 -0.399592,0.402582 0,0.223174 0.173972,0.405301 0.399592,0.405301"
       style="fill:#ffffff;fill-opacity:1;fill-rule:evenodd;stroke:none;stroke-width:0.0453052"
       id="path322" />
    <path
       d="m -55.533803,-57.626743 c 0.222902,0 0.405482,-0.179635 0.405482,-0.402627 0,-0.222812 -0.18258,-0.405256 -0.405482,-0.405256 -0.22562,0 -0.399592,0.182444 -0.399592,0.405256 0,0.222992 0.173972,0.402627 0.399592,0.402627"
       style="fill:#ffffff;fill-opacity:1;fill-rule:evenodd;stroke:none;stroke-width:0.0453052"
       id="path324" />
    <path
       d="m -55.533803,-60.87599 c 0.222902,0 0.405482,-0.182489 0.405482,-0.405301 0,-0.220138 -0.18258,-0.399773 -0.405482,-0.399773 -0.22562,0 -0.399592,0.179635 -0.399592,0.399773 0,0.222812 0.173972,0.405301 0.399592,0.405301"
       style="fill:#ffffff;fill-opacity:1;fill-rule:evenodd;stroke:none;stroke-width:0.0453052"
       id="path326" />
    <path
       d="m -55.533803,-64.278686 c 0.222902,0 0.405482,-0.176781 0.405482,-0.399592 0,-0.222993 -0.18258,-0.402628 -0.405482,-0.402628 -0.22562,0 -0.399592,0.179635 -0.399592,0.402628 0,0.222811 0.173972,0.399592 0.399592,0.399592"
       style="fill:#ffffff;fill-opacity:1;fill-rule:evenodd;stroke:none;stroke-width:0.0453052"
       id="path328" />
    <path
       d="m -55.533803,-67.571245 c 0.222902,0 0.405482,-0.179635 0.405482,-0.402628 0,-0.222811 -0.18258,-0.402446 -0.405482,-0.402446 -0.22562,0 -0.399592,0.179635 -0.399592,0.402446 0,0.222993 0.173972,0.402628 0.399592,0.402628"
       style="fill:#ffffff;fill-opacity:1;fill-rule:evenodd;stroke:none;stroke-width:0.0453052"
       id="path330" />
    <path
       d="m -55.533803,-70.823347 c 0.222902,0 0.405482,-0.176599 0.405482,-0.399592 0,-0.220138 -0.18258,-0.402628 -0.405482,-0.402628 -0.22562,0 -0.399592,0.18249 -0.399592,0.402628 0,0.222993 0.173972,0.399592 0.399592,0.399592"
       style="fill:#ffffff;fill-opacity:1;fill-rule:evenodd;stroke:none;stroke-width:0.0453052"
       id="path332" />
    <path
       d="m -55.533803,-74.217344 c 0.222902,0 0.405482,-0.182444 0.405482,-0.405618 0,-0.219957 -0.18258,-0.402446 -0.405482,-0.402446 -0.22562,0 -0.399592,0.182489 -0.399592,0.402446 0,0.223174 0.173972,0.405618 0.399592,0.405618"
       style="fill:#ffffff;fill-opacity:1;fill-rule:evenodd;stroke:none;stroke-width:0.0453052"
       id="path334" />
    <path
       d="m -55.533803,-77.515612 c 0.222902,0 0.405482,-0.177143 0.405482,-0.399592 0,-0.223355 -0.18258,-0.402764 -0.405482,-0.402764 -0.22562,0 -0.399592,0.179409 -0.399592,0.402764 0,0.222449 0.173972,0.399592 0.399592,0.399592"
       style="fill:#ffffff;fill-opacity:1;fill-rule:evenodd;stroke:none;stroke-width:0.0453052"
       id="path336" />
    <path
       d="m -131.61482,-47.581028 c 0.22318,0 0.40562,-0.179273 0.40562,-0.402628 0,-0.219957 -0.18244,-0.399411 -0.40562,-0.399411 -0.21715,0 -0.39945,0.179454 -0.39945,0.399411 0,0.223355 0.1823,0.402628 0.39945,0.402628"
       style="fill:#ffffff;fill-opacity:1;fill-rule:evenodd;stroke:none;stroke-width:0.0453052"
       id="path338" />
    <path
       d="m -134.9653,-47.581028 c 0.22582,0 0.40827,-0.179273 0.40827,-0.402628 0,-0.219957 -0.18245,-0.399411 -0.40827,-0.399411 -0.21732,0 -0.39659,0.179454 -0.39659,0.399411 0,0.223355 0.17927,0.402628 0.39659,0.402628"
       style="fill:#ffffff;fill-opacity:1;fill-rule:evenodd;stroke:none;stroke-width:0.0453052"
       id="path340" />
    <path
       d="m -131.61482,-50.977699 c 0.22318,0 0.40562,-0.182625 0.40562,-0.402582 0,-0.222993 -0.18244,-0.405482 -0.40562,-0.405482 -0.21715,0 -0.39945,0.182489 -0.39945,0.405482 0,0.219957 0.1823,0.402582 0.39945,0.402582"
       style="fill:#ffffff;fill-opacity:1;fill-rule:evenodd;stroke:none;stroke-width:0.0453052"
       id="path342" />
    <path
       d="m -134.9653,-50.977699 c 0.22582,0 0.40827,-0.182625 0.40827,-0.402582 0,-0.222993 -0.18245,-0.405482 -0.40827,-0.405482 -0.21732,0 -0.39659,0.182489 -0.39659,0.405482 0,0.219957 0.17927,0.402582 0.39659,0.402582"
       style="fill:#ffffff;fill-opacity:1;fill-rule:evenodd;stroke:none;stroke-width:0.0453052"
       id="path344" />
    <path
       d="m -134.9653,-54.244434 c 0.22582,0 0.40827,-0.176645 0.40827,-0.399638 0,-0.225801 -0.18245,-0.405255 -0.40827,-0.405255 -0.21732,0 -0.39659,0.179454 -0.39659,0.405255 0,0.222993 0.17927,0.399638 0.39659,0.399638"
       style="fill:#ffffff;fill-opacity:1;fill-rule:evenodd;stroke:none;stroke-width:0.0453052"
       id="path346" />
    <path
       d="m -124.94842,-47.581028 c 0.22584,0 0.40543,-0.179273 0.40543,-0.402628 0,-0.219957 -0.17959,-0.399411 -0.40543,-0.399411 -0.21715,0 -0.3996,0.179454 -0.3996,0.399411 0,0.223355 0.18245,0.402628 0.3996,0.402628"
       style="fill:#ffffff;fill-opacity:1;fill-rule:evenodd;stroke:none;stroke-width:0.0453052"
       id="path348" />
    <path
       d="m -128.29603,-47.581028 c 0.22299,0 0.40544,-0.179273 0.40544,-0.402628 0,-0.219957 -0.18245,-0.399411 -0.40544,-0.399411 -0.22018,0 -0.39964,0.179454 -0.39964,0.399411 0,0.223355 0.17946,0.402628 0.39964,0.402628"
       style="fill:#ffffff;fill-opacity:1;fill-rule:evenodd;stroke:none;stroke-width:0.0453052"
       id="path350" />
    <path
       d="m -118.33703,-47.581028 c 0.22299,0 0.39959,-0.179273 0.39959,-0.402628 0,-0.219957 -0.1766,-0.399411 -0.39959,-0.399411 -0.22299,0 -0.40263,0.179454 -0.40263,0.399411 0,0.223355 0.17964,0.402628 0.40263,0.402628"
       style="fill:#ffffff;fill-opacity:1;fill-rule:evenodd;stroke:none;stroke-width:0.0453052"
       id="path352" />
    <path
       d="m -121.68468,-47.581028 c 0.22299,0 0.39964,-0.179273 0.39964,-0.402628 0,-0.219957 -0.17665,-0.399411 -0.39964,-0.399411 -0.22299,0 -0.40543,0.179454 -0.40543,0.399411 0,0.223355 0.18244,0.402628 0.40543,0.402628"
       style="fill:#ffffff;fill-opacity:1;fill-rule:evenodd;stroke:none;stroke-width:0.0453052"
       id="path354" />
    <path
       d="m -111.67077,-47.581028 c 0.22598,0 0.39959,-0.179273 0.39959,-0.402628 0,-0.219957 -0.17361,-0.399411 -0.39959,-0.399411 -0.22299,0 -0.40244,0.179454 -0.40244,0.399411 0,0.223355 0.17945,0.402628 0.40244,0.402628"
       style="fill:#ffffff;fill-opacity:1;fill-rule:evenodd;stroke:none;stroke-width:0.0453052"
       id="path356" />
    <path
       d="m -115.01842,-47.581028 c 0.22014,0 0.40263,-0.179273 0.40263,-0.402628 0,-0.219957 -0.18249,-0.399411 -0.40263,-0.399411 -0.22299,0 -0.40244,0.179454 -0.40244,0.399411 0,0.223355 0.17945,0.402628 0.40244,0.402628"
       style="fill:#ffffff;fill-opacity:1;fill-rule:evenodd;stroke:none;stroke-width:0.0453052"
       id="path358" />
    <path
       d="m -105.12312,-47.581028 c 0.22014,0 0.40263,-0.179273 0.40263,-0.402628 0,-0.219957 -0.18249,-0.399411 -0.40263,-0.399411 -0.21995,0 -0.39959,0.179454 -0.39959,0.399411 0,0.223355 0.17964,0.402628 0.39959,0.402628"
       style="fill:#ffffff;fill-opacity:1;fill-rule:evenodd;stroke:none;stroke-width:0.0453052"
       id="path360" />
    <path
       d="m -108.47358,-47.581028 c 0.2258,0 0.40544,-0.179273 0.40544,-0.402628 0,-0.219957 -0.17964,-0.399411 -0.40544,-0.399411 -0.22013,0 -0.40262,0.179454 -0.40262,0.399411 0,0.223355 0.18249,0.402628 0.40262,0.402628"
       style="fill:#ffffff;fill-opacity:1;fill-rule:evenodd;stroke:none;stroke-width:0.0453052"
       id="path362" />
    <path
       d="m -98.569622,-47.581028 c 0.222811,0 0.399637,-0.179273 0.399637,-0.402628 0,-0.219957 -0.176826,-0.399411 -0.399637,-0.399411 -0.225983,0 -0.399593,0.179454 -0.399593,0.399411 0,0.223355 0.17361,0.402628 0.399593,0.402628"
       style="fill:#ffffff;fill-opacity:1;fill-rule:evenodd;stroke:none;stroke-width:0.0453052"
       id="path364" />
    <path
       d="m -101.92593,-47.581028 c 0.22585,0 0.40531,-0.179273 0.40531,-0.402628 0,-0.219957 -0.17946,-0.399411 -0.40531,-0.399411 -0.22013,0 -0.39959,0.179454 -0.39959,0.399411 0,0.223355 0.17946,0.402628 0.39959,0.402628"
       style="fill:#ffffff;fill-opacity:1;fill-rule:evenodd;stroke:none;stroke-width:0.0453052"
       id="path366" />
    <path
       d="m -92.039414,-47.581028 c 0.220183,0 0.399592,-0.179273 0.399592,-0.402628 0,-0.219957 -0.179409,-0.399411 -0.399592,-0.399411 -0.226073,0 -0.405482,0.179454 -0.405482,0.399411 0,0.223355 0.179409,0.402628 0.405482,0.402628"
       style="fill:#ffffff;fill-opacity:1;fill-rule:evenodd;stroke:none;stroke-width:0.0453052"
       id="path368" />
    <path
       d="m -95.395763,-47.581028 c 0.220138,0 0.402628,-0.179273 0.402628,-0.402628 0,-0.219957 -0.18249,-0.399411 -0.402628,-0.399411 -0.223174,0 -0.405437,0.179454 -0.405437,0.399411 0,0.223355 0.182263,0.402628 0.405437,0.402628"
       style="fill:#ffffff;fill-opacity:1;fill-rule:evenodd;stroke:none;stroke-width:0.0453052"
       id="path370" />
    <path
       d="m -85.454296,-47.581028 c 0.222902,0 0.402764,-0.179273 0.402764,-0.402628 0,-0.219957 -0.179862,-0.399411 -0.402764,-0.399411 -0.222902,0 -0.399592,0.179454 -0.399592,0.399411 0,0.223355 0.17669,0.402628 0.399592,0.402628"
       style="fill:#ffffff;fill-opacity:1;fill-rule:evenodd;stroke:none;stroke-width:0.0453052"
       id="path372" />
    <path
       d="m -88.804619,-47.581028 c 0.21973,0 0.399592,-0.179273 0.399592,-0.402628 0,-0.219957 -0.179862,-0.399411 -0.399592,-0.399411 -0.226073,0 -0.405482,0.179454 -0.405482,0.399411 0,0.223355 0.179409,0.402628 0.405482,0.402628"
       style="fill:#ffffff;fill-opacity:1;fill-rule:evenodd;stroke:none;stroke-width:0.0453052"
       id="path374" />
    <path
       d="m -78.805298,-47.581028 c 0.222902,0 0.402764,-0.179273 0.402764,-0.402628 0,-0.219957 -0.179862,-0.399411 -0.402764,-0.399411 -0.222901,0 -0.399592,0.179454 -0.399592,0.399411 0,0.223355 0.176691,0.402628 0.399592,0.402628"
       style="fill:#ffffff;fill-opacity:1;fill-rule:evenodd;stroke:none;stroke-width:0.0453052"
       id="path376" />
    <path
       d="m -82.155621,-47.581028 c 0.217012,0 0.399593,-0.179273 0.399593,-0.402628 0,-0.219957 -0.182581,-0.399411 -0.399593,-0.399411 -0.222902,0 -0.4082,0.179454 -0.4082,0.399411 0,0.223355 0.185298,0.402628 0.4082,0.402628"
       style="fill:#ffffff;fill-opacity:1;fill-rule:evenodd;stroke:none;stroke-width:0.0453052"
       id="path378" />
    <path
       d="m -72.217008,-47.581028 c 0.22562,0 0.402311,-0.179273 0.402311,-0.402628 0,-0.219957 -0.176691,-0.399411 -0.402311,-0.399411 -0.222902,0 -0.399592,0.179454 -0.399592,0.399411 0,0.223355 0.17669,0.402628 0.399592,0.402628"
       style="fill:#ffffff;fill-opacity:1;fill-rule:evenodd;stroke:none;stroke-width:0.0453052"
       id="path380" />
    <path
       d="m -75.570503,-47.581028 c 0.222902,0 0.402311,-0.179273 0.402311,-0.402628 0,-0.219957 -0.179409,-0.399411 -0.402311,-0.399411 -0.222902,0 -0.399592,0.179454 -0.399592,0.399411 0,0.223355 0.17669,0.402628 0.399592,0.402628"
       style="fill:#ffffff;fill-opacity:1;fill-rule:evenodd;stroke:none;stroke-width:0.0453052"
       id="path382" />
    <path
       d="m -65.565291,-47.581028 c 0.223355,0 0.399592,-0.179273 0.399592,-0.402628 0,-0.219957 -0.176237,-0.399411 -0.399592,-0.399411 -0.22562,0 -0.402311,0.179454 -0.402311,0.399411 0,0.223355 0.176691,0.402628 0.402311,0.402628"
       style="fill:#ffffff;fill-opacity:1;fill-rule:evenodd;stroke:none;stroke-width:0.0453052"
       id="path384" />
    <path
       d="m -68.921504,-47.581028 c 0.222902,0 0.405482,-0.179273 0.405482,-0.402628 0,-0.219957 -0.18258,-0.399411 -0.405482,-0.399411 -0.222902,0 -0.399592,0.179454 -0.399592,0.399411 0,0.223355 0.17669,0.402628 0.399592,0.402628"
       style="fill:#ffffff;fill-opacity:1;fill-rule:evenodd;stroke:none;stroke-width:0.0453052"
       id="path386" />
    <path
       d="m -62.24351,-47.581028 c 0.222901,0 0.405482,-0.179273 0.405482,-0.402628 0,-0.219957 -0.182581,-0.399411 -0.405482,-0.399411 -0.220184,0 -0.399593,0.179454 -0.399593,0.399411 0,0.223355 0.179409,0.402628 0.399593,0.402628"
       style="fill:#ffffff;fill-opacity:1;fill-rule:evenodd;stroke:none;stroke-width:0.0453052"
       id="path388" />
  </g>
</svg>
