<?xml version="1.0" encoding="UTF-8" standalone="no"?>
<svg
   xmlns:dc="http://purl.org/dc/elements/1.1/"
   xmlns:cc="http://creativecommons.org/ns#"
   xmlns:rdf="http://www.w3.org/1999/02/22-rdf-syntax-ns#"
   xmlns:svg="http://www.w3.org/2000/svg"
   xmlns="http://www.w3.org/2000/svg"
   xmlns:sodipodi="http://sodipodi.sourceforge.net/DTD/sodipodi-0.dtd"
   xmlns:inkscape="http://www.inkscape.org/namespaces/inkscape"
   width="14"
   height="14"
   class="bi bi-exclamation-triangle-fill"
   viewBox="0 0 14 14"
   version="1.1"
   id="svg4"
   sodipodi:docname="form-warning.svg"
   style="fill:currentColor"
   inkscape:version="0.92.4 (5da689c313, 2019-01-14)">
  <metadata
     id="metadata10">
    <rdf:RDF>
      <cc:Work
         rdf:about="">
        <dc:format>image/svg+xml</dc:format>
        <dc:type
           rdf:resource="http://purl.org/dc/dcmitype/StillImage" />
        <dc:title></dc:title>
      </cc:Work>
    </rdf:RDF>
  </metadata>
  <defs
     id="defs8" />
  <sodipodi:namedview
     pagecolor="#ffffff"
     bordercolor="#666666"
     borderopacity="1"
     objecttolerance="10"
     gridtolerance="10"
     guidetolerance="10"
     inkscape:pageopacity="0"
     inkscape:pageshadow="2"
     inkscape:window-width="1920"
     inkscape:window-height="1051"
     id="namedview6"
     showgrid="false"
     inkscape:zoom="14.75"
     inkscape:cx="-0.27118644"
     inkscape:cy="8"
     inkscape:window-x="-9"
     inkscape:window-y="-9"
     inkscape:window-maximized="1"
     inkscape:current-layer="svg4" />
  <path
     d="m 7.8307804,1.5478848 a 0.95765753,0.95765753 0 0 0 -1.6610698,0 L 0.35850921,11.435487 c -0.38730044,0.659343 0.0771211,1.497505 0.83053479,1.497505 h 11.621555 c 0.753414,0 1.218683,-0.83901 0.830535,-1.497505 z M 6.9985505,4.4581467 c 0.4534043,0 0.8085003,0.3915379 0.7627361,0.8432471 L 7.464667,8.2735221 a 0.46781147,0.46781147 0 0 1 -0.932233,0 L 6.2358144,5.3013938 A 0.76697351,0.76697351 0 0 1 6.9985505,4.4581467 Z m 0.00169,5.0849077 a 0.84748467,0.84748467 0 1 1 0,1.6949686 0.84748467,0.84748467 0 0 1 0,-1.6949686 z"
     id="path2"
     inkscape:connector-curvature="0"
     style="stroke-width:0.84748453;fill:#fd7e14;fill-opacity:1" />
</svg>
