<?xml version="1.0" encoding="UTF-8" standalone="no"?>
<svg
   width="32"
   height="24"
   version="1.1"
   id="svg877"
   sodipodi:docname="ps_cashpayment.svg"
   inkscape:version="1.1.2 (b8e25be833, 2022-02-05)"
   xmlns:inkscape="http://www.inkscape.org/namespaces/inkscape"
   xmlns:sodipodi="http://sodipodi.sourceforge.net/DTD/sodipodi-0.dtd"
   xmlns="http://www.w3.org/2000/svg"
   xmlns:svg="http://www.w3.org/2000/svg">
  <defs
     id="defs881" />
  <sodipodi:namedview
     id="namedview879"
     pagecolor="#ffffff"
     bordercolor="#111111"
     borderopacity="1"
     inkscape:pageshadow="0"
     inkscape:pageopacity="0"
     inkscape:pagecheckerboard="1"
     showgrid="false"
     inkscape:zoom="16.53125"
     inkscape:cx="4.4461249"
     inkscape:cy="3.6899812"
     inkscape:window-width="1920"
     inkscape:window-height="1057"
     inkscape:window-x="-8"
     inkscape:window-y="-8"
     inkscape:window-maximized="1"
     inkscape:current-layer="svg877" />
  <g
     fill="none"
     id="g875">
    <path
       d="M4.129.5h23.742c2 0 3.629 1.64 3.629 3.674v15.652c0 2.034-1.63 3.674-3.629 3.674H4.129c-2 0-3.629-1.64-3.629-3.674V4.174C.5 2.14 2.13.5 4.129.5z"
       stroke="#E6E6E6"
       fill="#FFF"
       id="path859" />
    <g
       transform="translate(8 5)"
       id="g873">
      <path
         d="M0 1.08v12.403c0 .596.486 1.08 1.085 1.08h7.449c5.629 0 8.07-3.137 8.07-7.296C16.604 3.124 14.163 0 8.534 0h-7.45C.487 0 0 .483 0 1.08z"
         fill="#FFF"
         id="path861" />
      <path
         d="M8.532 13.57H2.054a1.04 1.04 0 01-1.042-1.035V2.028A1.04 1.04 0 012.054.99h6.478c6.144 0 7.062 3.932 7.062 6.276 0 4.066-2.508 6.304-7.062 6.304zM2.054 1.338a.694.694 0 00-.695.69v10.508c0 .381.311.69.695.69h6.478c4.33 0 6.715-2.116 6.715-5.958 0-5.16-4.207-5.93-6.715-5.93H2.054z"
         fill="#000"
         id="path863" />
      <path
         d="M4.984 3.045v9.163h4.009c3.642 0 5.22-2.048 5.22-4.936 0-2.767-1.578-4.917-5.22-4.917H5.678a.693.693 0 00-.694.69z"
         fill="#C06"
         id="path865" />
      <path
         fill="#FFF"
         d="M12.626 6.035v1.784h1.072v.405h-1.555v-2.19zm-1.61 0l.823 2.189h-.502l-.166-.486h-.824l-.172.486h-.489l.833-2.19h.497zm.028 1.342l-.278-.803h-.006l-.286.803h.57zM9.359 6.035v.404H8.197v.47h1.066v.373H8.197v.537h1.187v.405h-1.67v-2.19zm-2.964 0c.135-.001.27.021.396.067a.862.862 0 01.527.54 1.561 1.561 0 01.014.916.976.976 0 01-.186.35.875.875 0 01-.312.231 1.059 1.059 0 01-.439.085h-.949v-2.19h.95zm-.034 1.784c.07 0 .138-.011.204-.034a.45.45 0 00.175-.112.565.565 0 00.124-.203.89.89 0 00.046-.307c0-.1-.01-.2-.032-.299a.592.592 0 00-.109-.228.474.474 0 00-.196-.146.78.78 0 00-.3-.05h-.345v1.379h.433z"
         id="path867" />
      <path
         d="M3.172 8.72c.425 0 .769.342.769.764v2.724c-.85 0-1.538-.685-1.538-1.53V9.484a.763.763 0 01.77-.764z"
         fill="#000"
         id="path869" />
      <ellipse
         fill="#000"
         cx="3.172"
         cy="7.129"
         rx="1.015"
         ry="1.01"
         id="ellipse871" />
    </g>
  </g>
  <rect
     style="fill:#ffffff;stroke-width:0;stroke-linecap:round;stroke-linejoin:round"
     id="rect962"
     width="22.775049"
     height="18.177694"
     x="3.9621928"
     y="3.2362947"
     rx="12.893835"
     ry="11.339622" />
  <path
     d="m 10.06468,8.26938 0.550723,0.4509279 V 11.470229 L 10.012934,11.96551 H 7.7619909 L 7.2741017,11.470229 V 8.7203079 L 7.8359135,8.26938 Z M 9.4104649,10.974947 V 9.2377661 H 8.4790401 v 1.7371809 z"
     id="path839"
     style="font-size:3.69613px;line-height:1.25;font-family:IJzershop;-inkscape-font-specification:IJzershop;fill:#064b8e;stroke-width:0.0924032" />
  <path
     d="M 13.420766,11.96551 11.853607,9.9954727 V 11.96551 H 10.970232 V 8.26938 h 0.883375 v 0 l 1.567159,1.988518 V 8.26938 h 0.960994 v 3.69613 z"
     id="path841"
     style="font-size:3.69613px;line-height:1.25;font-family:IJzershop;-inkscape-font-specification:IJzershop;fill:#064b8e;stroke-width:0.0924032" />
  <path
     d="M 18.066798,8.26938 V 9.3116887 H 17.072539 V 11.958118 H 15.767805 V 9.3116887 H 14.788331 V 8.26938 Z"
     id="path843"
     style="font-size:3.69613px;line-height:1.25;font-family:IJzershop;-inkscape-font-specification:IJzershop;fill:#064b8e;stroke-width:0.0924032" />
  <path
     d="m 21.278735,8.26938 0.550723,0.4509279 v 2.7499211 h -0.0037 V 11.96551 H 21.226989 20.62452 v -0.990563 h -0.931425 v 0.990563 h -0.717049 -0.48789 V 9.2377661 8.7203079 L 19.049968,8.26938 Z M 20.62452,9.7700088 V 9.2377661 h -0.931425 v 0.5322427 z"
     id="path845"
     style="font-size:3.69613px;line-height:1.25;font-family:IJzershop;-inkscape-font-specification:IJzershop;fill:#064b8e;stroke-width:0.0924032" />
  <path
     d="M 24.631124,11.96551 23.063965,9.9954727 V 11.96551 H 22.18059 V 8.26938 h 0.883375 v 0 l 1.567159,1.988518 V 8.26938 h 0.960994 v 3.69613 z"
     id="path847"
     style="font-size:3.69613px;line-height:1.25;font-family:IJzershop;-inkscape-font-specification:IJzershop;fill:#064b8e;stroke-width:0.0924032" />
  <path
     d="M 29.277157,8.26938 V 9.3116887 H 28.282898 V 11.958118 H 26.978165 V 9.3116887 H 25.99869 V 8.26938 Z"
     id="path849"
     style="font-size:3.69613px;line-height:1.25;font-family:IJzershop;-inkscape-font-specification:IJzershop;fill:#064b8e;stroke-width:0.0924032" />
  <g
     aria-label="BETALEN"
     transform="scale(0.96766866,1.0334116)"
     id="text9521-4"
     style="font-size:4.05535px;line-height:1.25;font-family:IJzershop;-inkscape-font-specification:IJzershop;fill:#064b8e;stroke-width:0.101383">
    <path
       d="m 6.4779506,12.995147 v 1.10711 l -0.4217564,0.352816 0.4217564,0.352815 v 0.308207 0.725907 0.073 L 5.8250393,16.482748 H 4.1947886 2.8200251 v -1.155775 -1.901959 -0.997616 h 1.3747635 1.6302507 z m -2.283162,2.120948 v 0.210878 H 5.172128 v -0.210878 0 z M 5.172128,13.583172 H 4.1947886 v 0.210879 0 H 5.172128 Z"
       id="path852" />
    <path
       d="M 10.577909,13.583172 H 8.2704152 v 0.377148 h 1.7032469 v 1.062502 H 8.2704152 v 0.397424 h 2.3074938 v 1.062502 H 7.5242309 L 6.8713195,15.951497 v -2.94824 l 0.6529114,-0.575859 h 3.0536781 z"
       id="path854" />
    <path
       d="m 14.523765,12.427398 v 1.143608 h -1.090889 v 2.903631 h -1.431539 v -2.903631 h -1.074668 v -1.143608 z"
       id="path856" />
    <path
       d="m 18.047864,12.427398 0.604247,0.494752 v 3.017181 h -0.0041 v 0.543417 h -0.656967 -0.661022 v -1.086834 h -1.021948 v 1.086834 H 15.521381 14.986075 V 13.489899 12.92215 l 0.616413,-0.494752 z m -0.717797,1.646472 v -0.583971 h -1.021948 v 0.583971 z"
       id="path858" />
    <path
       d="m 20.412133,12.427398 v 2.992848 h 1.492368 v 1.062502 h -2.867132 v -4.05535 z"
       id="path860" />
    <path
       d="m 26.101785,13.583172 h -2.307494 v 0.377148 h 1.703247 v 1.062502 h -1.703247 v 0.397424 h 2.307494 v 1.062502 h -3.053678 l -0.652912,-0.531251 v -2.94824 l 0.652912,-0.575859 h 3.053678 z"
       id="path862" />
    <path
       d="m 29.139242,16.482748 -1.719469,-2.161502 v 2.161502 h -0.969228 v -4.05535 h 0.969228 v 0 l 1.719469,2.181778 v -2.181778 h 1.05439 v 4.05535 z"
       id="path864" />
  </g>
  <path
     d="m 6.9327008,10.291111 q -0.1726958,0.870988 -0.6194525,1.272693 -0.4430025,0.401706 -1.310236,0.401706 -1.6931704,0 -2.0535791,-1.813307 H 2.5965329 V 9.5778018 h 0.2815694 l -0.00751,-0.247781 q 0,-0.1426618 0.00751,-0.1989756 H 2.5965329 V 8.5453809 H 2.9419247 Q 3.107112,7.6406048 3.6364624,7.163814 4.169567,6.6870232 5.0105208,6.6870232 q 0.713309,0 1.2501679,0.4279855 0.5406131,0.4279854 0.6569951,1.1525571 L 5.6562531,8.3539138 Q 5.6224648,8.0610816 5.4385062,7.8658602 5.2583018,7.6706388 4.9879952,7.6706388 q -0.6607494,0 -0.8071654,0.8747421 h 0.859725 V 9.1310452 H 4.1245159 v 0.2064841 q 0,0.1689416 0.00751,0.2402725 H 5.0405548 V 10.152203 H 4.2033553 q 0.1839587,0.8372 0.814674,0.8372 0.5180876,0 0.6757664,-0.765869 z"
     id="path836"
     style="font-size:7.68872px;line-height:1.25;font-family:'Franklin Gothic Demi';-inkscape-font-specification:'Franklin Gothic Demi';fill:#064b8e;stroke-width:0.192218" />
</svg>
