<?xml version="1.0" encoding="UTF-8"?>
<svg version="1.1" viewBox="0 0 378.37 13.654" xmlns="http://www.w3.org/2000/svg">
  <g transform="translate(-51.04 -184.78)">
    <text x="55.12944" y="198.23138" font-family="IJzershop" font-size="40px" style="line-height:1.25" xml:space="preserve"><tspan x="55.12944" y="198.23138"/></text>
    <g stroke-width=".9843" aria-label="uw bestelling wordt gevalideerd">
      <path d="m63.95 198.21h-2.3623zm-4.5671-13.111h4.5671v11.392l-2.3623 1.7192h-7.3494l-2.3492-1.7192v-11.392h4.4884v9.961h3.0054v-8.2287zm-7.4937 13.111h2.3492z"/>
      <path d="m68.583 198.21h-3.1366v-13.124h3.4122-0.2756v6.995l2.7823-3.491 0.14436-0.18373 2.6379 3.3203v-0.57745l-0.01312 0.0131v-6.0632l0.01312-0.0131h3.4253v13.124h-3.4253l-2.6379-3.7009z"/>
      <path d="m101.64 186.92v3.5828l-1.3649 1.1418 1.3649 1.1418v3.5828l-2.1129 1.8374h-9.7248v-13.124h9.7248zm-7.3888 6.8638v0.68245h3.1629v-0.68245zm3.1629-4.9608h-3.1629v0.68244h3.1629z"/>
      <path d="m114.91 188.83h-7.4675v1.2205h5.512v3.4385h-5.512v1.2862h7.4675v3.4385h-9.8823l-2.113-1.7192v-9.5411l2.113-1.8636h9.8823z"/>
      <path d="m127.63 188.89h-7.4281v1.2074h5.3414l2.0867 1.588v4.7902l-2.0867 1.7061h-9.5017v-3.3991h7.4938v-1.2861h-5.5645l-1.9292-1.693v-4.764l2.2967-1.8505h9.2917z"/>
      <path d="m140.8 185.09v3.7009h-3.5303v9.3967h-4.6327v-9.3967h-3.4778v-3.7009z"/>
      <path d="m154.28 188.83h-7.4675v1.2205h5.512v3.4385h-5.512v1.2862h7.4675v3.4385h-9.8823l-2.113-1.7192v-9.5411l2.113-1.8636h9.8823z"/>
      <path d="m159.86 185.09v9.6854h4.8296v3.4385h-9.2786v-13.124z"/>
      <path d="m170.73 185.09v9.6854h4.8296v3.4385h-9.2786v-13.124z"/>
      <path d="m177.14 198.21v-13.124h4.6852v13.124z"/>
      <path d="m191.88 198.21-5.5645-6.995v6.995h-3.1366v-13.124h3.1366l5.5645 7.0607v-7.0607h3.4122v13.124z"/>
      <path d="m203.05 191.15h5.5514v7.0607h-9.751l-2.113-1.7192v-9.5411l2.113-1.8636h9.751v3.7403h-7.3363v5.9452h3.3728v-1.2074h-1.588z"/>
      <path d="m223.89 198.21h-3.1366v-13.124h3.4122-0.2756v6.995l2.7823-3.491 0.14436-0.18373 2.6379 3.3203v-0.57745l-0.0131 0.0131v-6.0632l0.0131-0.0131h3.4253v13.124h-3.4253l-2.6379-3.7009z"/>
      <path d="m244.11 185.09 1.9555 1.6011v9.7642l-2.1392 1.7586h-7.9924l-1.7324-1.7586v-9.7642l1.9948-1.6011zm-2.3229 9.6067v-6.1682h-3.3072v6.1682z"/>
      <path d="m259.17 186.92v3.5828l-2.113 1.7848 2.113 1.4961v4.4228h-4.2259v-4.4228h-3.1629v4.4228h-4.449v-13.124h9.7248zm-4.2128 2.5854v-1.2468h-3.176l-0.0394 1.2468h3.2023z"/>
      <path d="m268.92 185.09 2.113 1.8636v9.5411l-2.113 1.7192h-8.4649v-13.124zm-2.4279 9.6854 1.2074-1.0237v-3.8716l-1.2074-1.0499h-1.8242v5.9451z"/>
      <path d="m284.41 185.09v3.7009h-3.5303v9.3967h-4.6327v-9.3967h-3.4778v-3.7009z"/>
      <path d="m303.09 191.15h5.5514v7.0607h-9.7511l-2.1129-1.7192v-9.5411l2.1129-1.8636h9.7511v3.7403h-7.3363v5.9452h3.3728v-1.2074h-1.588z"/>
      <path d="m321.9 188.83h-7.4675v1.2205h5.512v3.4385h-5.512v1.2862h7.4675v3.4385h-9.8823l-2.113-1.7192v-9.5411l2.113-1.8636h9.8823z"/>
      <path d="m332.73 198.21m-2.2048-13.111h4.5671l-2.3623 13.111h-7.3494l-2.3492-13.111h4.4884l1.4961 9.2261h0.26248z"/>
      <path d="m346.32 185.09 1.9555 1.6011v9.7642h-0.0131v1.7586h-4.2653v-3.5172h-3.3072v3.5172h-4.2784v-11.523l1.9948-1.6011zm-2.3229 5.3283v-1.8898h-3.3072v1.8898z"/>
      <path d="m353.97 185.09v9.6854h4.8296v3.4385h-9.2786v-13.124z"/>
      <path d="m360.39 198.21v-13.124h4.6852v13.124z"/>
      <path d="m374.89 185.09 2.113 1.8636v9.5411l-2.113 1.7192h-8.4649v-13.124zm-2.4279 9.6854 1.2074-1.0237v-3.8716l-1.2074-1.0499h-1.8242v5.9451z"/>
      <path d="m390.73 188.83h-7.4675v1.2205h5.512v3.4385h-5.512v1.2862h7.4675v3.4385h-9.8823l-2.113-1.7192v-9.5411l2.113-1.8636h9.8823z"/>
      <path d="m403.86 188.83h-7.4675v1.2205h5.512v3.4385h-5.512v1.2862h7.4675v3.4385h-9.8823l-2.113-1.7192v-9.5411l2.113-1.8636h9.8823z"/>
      <path d="m416.83 186.92v3.5828l-2.113 1.7848 2.113 1.4961v4.4228h-4.2259v-4.4228h-3.1629v4.4228h-4.449v-13.124h9.7248zm-4.2128 2.5854v-1.2468h-3.176l-0.0394 1.2468h3.2023z"/>
      <path d="m426.58 185.09 2.113 1.8636v9.5411l-2.113 1.7192h-8.4649v-13.124zm-2.4279 9.6854 1.2074-1.0237v-3.8716l-1.2074-1.0499h-1.8242v5.9451z"/>
    </g>
  </g>
</svg>
