<svg width="64" height="64" viewBox="0 0 64 64" fill="none" xmlns="http://www.w3.org/2000/svg">
<g clip-path="url(#clip0_2250_894)">
<rect width="64" height="64" rx="10" fill="#006568" style="fill:#006568;fill:color(display-p3 0.0000 0.3961 0.4078);fill-opacity:1;"/>
<path d="M42 10.0001H22C22 10.0001 18 10 18 14C18 14 18 34.9649 18 50C18 54 22 54 22 54H31V44C31 42 27.2259 41.3545 26.5 40.525C25.5376 39.425 24.7126 38.05 24.4376 36.2625C24.3001 35.1625 24.3001 33.925 24.7126 33.1C24.8501 32.6875 25.1251 32.4125 25.4001 32.1375C25.6751 31.8625 25.6751 31.45 25.5376 31.0375C25.2626 30.4875 24.9876 29.9375 24.8501 29.25C24.7126 28.7 24.5751 28.0125 24.7126 27.4625C24.8501 26.775 25.1251 26.225 25.4001 25.95C25.6751 25.5375 26.0876 25.5375 26.3625 24.9876C26.0876 24.0251 25.8126 23.2001 25.8126 21.9626C25.8126 21.5501 25.8126 21.0001 25.9501 20.5876C26.2251 19.7626 26.775 19.6251 27.1875 19.3501C27.4625 19.2126 27.6 19.2126 27.875 19.0751C28.15 18.9376 28.15 18.9376 28.15 18.3876C28.15 16.1876 28.425 14.2626 29.525 13.1626C30.075 12.6126 30.7625 12.4751 31.45 12.4751C32.1375 12.4751 32.825 12.6126 33.5125 13.1626C34.75 14.2626 35.025 16.3251 35.025 18.3876C35.025 18.8001 35.025 18.9376 35.3 19.0751C35.575 19.2126 35.7125 19.2126 35.9875 19.3501C36.4 19.6251 36.95 19.7626 37.225 20.5876C37.3625 21.0001 37.3625 21.4126 37.3625 21.9626C37.3625 23.2001 37.0875 23.8876 36.8125 24.9876C37.0875 25.5375 37.5 25.5375 37.9125 25.95C38.1875 26.3625 38.6 26.775 38.6 27.4625C38.7375 28.0125 38.6 28.7 38.4625 29.25C38.325 29.9375 38.05 30.4875 37.775 31.0375C37.6375 31.45 37.6375 31.8625 37.9125 32.1375C38.1875 32.4125 38.4625 32.6875 38.6 33.1C39.0125 33.925 39.15 35.1625 39.0125 36.2625C38.4625 38.05 37.775 39.425 36.8125 40.525C36.1593 41.2715 33 42 33 44V54H42C42 54 46 54 46 50V14C46 10 42 10.0001 42 10.0001Z" fill="white" style="fill:white;fill-opacity:1;"/>
</g>
<defs>
<clipPath id="clip0_2250_894">
<rect width="64" height="64" rx="14" fill="white" style="fill:white;fill-opacity:1;"/>
</clipPath>
</defs>
</svg>
