<svg width="64" height="64" viewBox="0 0 64 64" fill="none" xmlns="http://www.w3.org/2000/svg">
<g clip-path="url(#clip0_2250_1246)">
<rect width="64" height="64" rx="14" fill="#EC008C" style="fill:#EC008C;fill:color(display-p3 0.9255 0.0000 0.5490);fill-opacity:1;"/>
<path d="M14.2167 31.99C14.2167 22.1847 22.2042 14.1992 32.0115 14.1992C41.8063 14.1992 49.8063 22.1847 49.8063 31.99C49.8063 41.7944 41.8052 49.7946 32.0115 49.7946C22.2042 49.7946 14.2167 41.7954 14.2167 31.99ZM10 31.99C10 44.137 19.8869 54 32.0115 54C44.1298 54 54.0031 44.137 54.0031 31.99C54.0042 19.8651 44.1309 10 32.0125 10C19.8869 10 10 19.8651 10 31.99Z" fill="white" style="fill:white;fill-opacity:1;"/>
<path d="M22.4069 25.7971V37.9587H25.571V33.1823H28.997V30.6039H25.571V28.5651H31.1374V25.7971H22.4069Z" fill="white" style="fill:white;fill-opacity:1;"/>
<path d="M37.4872 35.4872C35.9984 35.4872 34.691 33.8842 34.691 31.881C34.691 29.8873 35.9984 28.2633 37.4872 28.2633C38.5862 28.2633 39.5386 29.1507 39.9724 30.4237L42.9583 29.5646C42.0835 27.1853 39.9723 25.51 37.4872 25.51C34.2561 25.51 31.6422 28.3692 31.6422 31.8821C31.6422 35.3877 34.2561 38.2343 37.4872 38.2343C39.9723 38.2343 42.0835 36.5496 42.9583 34.186L39.9724 33.3405C39.5386 34.5851 38.5862 35.4872 37.4872 35.4872Z" fill="white" style="fill:white;fill-opacity:1;"/>
</g>
<defs>
<clipPath id="clip0_2250_1246">
<rect width="64" height="64" rx="14" fill="white" style="fill:white;fill-opacity:1;"/>
</clipPath>
</defs>
</svg>
