<svg width="64" height="64" viewBox="0 0 64 64" fill="none" xmlns="http://www.w3.org/2000/svg">
<g clip-path="url(#clip0_2250_1340)">
<mask id="mask0_2250_1340" style="mask-type:alpha" maskUnits="userSpaceOnUse" x="0" y="0" width="64" height="64">
<path d="M48 0H16C7.16344 0 0 7.16344 0 16V48C0 56.8365 7.16344 64 16 64H48C56.8365 64 64 56.8365 64 48V16C64 7.16344 56.8365 0 48 0Z" fill="#00B7F1" style="fill:#00B7F1;fill:color(display-p3 0.0000 0.7176 0.9451);fill-opacity:1;"/>
</mask>
<g mask="url(#mask0_2250_1340)">
<path d="M50 0H14C6.26801 0 0 6.26801 0 14V50C0 57.732 6.26801 64 14 64H50C57.732 64 64 57.732 64 50V14C64 6.26801 57.732 0 50 0Z" fill="#00B7F1" style="fill:#00B7F1;fill:color(display-p3 0.0000 0.7176 0.9451);fill-opacity:1;"/>
<path d="M39.3642 57.5936C23.6893 63.4597 8.24624 61.2981 0 56.5333V64H64V41.6C58.8035 47.7054 50.1066 53.5729 39.3642 57.5936Z" fill="#9FCD5A" style="fill:#9FCD5A;fill:color(display-p3 0.6235 0.8039 0.3529);fill-opacity:1;"/>
<path d="M60.7999 27.9999C59.058 33.5741 46.0575 43.6141 38.2572 46.87C26.8814 51.6201 16.1522 49.51 10.1677 45.6516V27.5068C13.9053 22.933 21.2543 17.8706 28.4298 14.7901C27.9322 15.0212 28.9105 14.5425 28.4298 14.7901C39.9666 9.41224 51.5119 10.1616 54.2239 16.464C56.9359 22.7664 48.2743 31.2098 36.7447 36.5921C35.9607 36.9572 35.1791 37.2932 34.3999 37.5999C44.5745 32.0994 52.1305 24.4973 49.6017 18.621C47.2546 13.1775 38.3025 11.9674 28.4666 15.1947C17.8734 20.2231 10.8388 28.2045 11.1092 34.7458C12.2663 33.1476 14.7321 31.318 17.8417 29.9191C22.6335 27.7653 27.1127 27.4552 27.846 29.2234C28.5791 30.9916 25.2886 34.1717 20.4969 36.3245C17.057 37.8713 13.7854 38.4607 11.9381 38.0192C15.2876 44.6471 27.3914 48.0575 40.2065 42.7071C47.1316 39.817 57.4052 32.3917 60.7999 27.9999Z" fill="white" style="fill:white;fill-opacity:1;"/>
<path d="M7.40938 32.683C8.07375 31.6074 8.82097 30.507 9.64132 29.4606C9.66452 29.7203 9.68771 30.0045 9.71059 30.3098C9.84001 32.0365 9.95553 34.3858 10.0133 36.7269C10.0712 39.0723 10.0705 41.3864 9.97102 43.0509C9.94067 43.5589 9.90199 43.9886 9.85662 44.3318C9.68019 44.1811 9.48167 44.0064 9.26382 43.8096C6.06313 40.9202 5.19042 36.2755 7.40938 32.683Z" fill="white" stroke="white" style="fill:white;fill-opacity:1;stroke:white;stroke-opacity:1;" stroke-width="0.851488"/>
</g>
</g>
<defs>
<clipPath id="clip0_2250_1340">
<rect width="64" height="64" rx="14" fill="white" style="fill:white;fill-opacity:1;"/>
</clipPath>
</defs>
</svg>
