<?xml version="1.0" encoding="utf-8"?>
<!-- Generator: Adobe Illustrator 22.1.0, SVG Export Plug-In . SVG Version: 6.00 Build 0)  -->
<svg version="1.1" id="Layer_1" xmlns="http://www.w3.org/2000/svg" xmlns:xlink="http://www.w3.org/1999/xlink" x="0px" y="0px"
	 width="108.2px" height="90.1px" viewBox="0 0 108.2 90.1" style="enable-background:new 0 0 108.2 90.1;" xml:space="preserve">
<style type="text/css">
	.st0{fill:#FFFFFF;}
</style>
<g>
	<path class="st0" d="M108.2,27c0,18.6,0,37.2,0,55.8c-2.5,5.9-4.5,7.2-11.2,7.2c-28.7,0-57.5-0.1-86.2,0.1c-5.3,0-8.9-1.8-10.8-6.8
		c0-18.6,0-37.2,0-55.8c0.5,0.3,1.1,0.5,1.6,0.9C11.9,35.7,22,43.3,32.5,50.4c5.7,3.9,11.8,7,17.7,10.4c2.5,1.5,5.2,1.4,7.8,0
		c3.1-1.6,6.4-2.9,9.3-4.9C81,46.4,94.6,36.7,108.2,27z"/>
	<path class="st0" d="M108.2,7.3c0,2.1,0,4.2,0,6.3c-0.8,0.6-1.6,1.1-2.3,1.7c-13.3,10.4-26.5,20.9-41,29.5
		c-11.1,6.6-10.6,6.5-21.4-0.1C28,35.4,14.1,24.1,0,13.1C0,11,0,8.9,0,6.8C1.9,1.8,5.5,0,10.8,0C39.5,0.1,68.3,0.1,97,0.1
		C103.7,0.1,105.7,1.4,108.2,7.3z"/>
</g>
</svg>
